<?xml version="1.0" encoding="UTF-8"?>
<svg id="Layer_1" data-name="Layer 1" xmlns="http://www.w3.org/2000/svg" viewBox="0 0 100.04 75.52">
  <defs>
    <style>
      .cls-1 {
        stroke: #000;
        stroke-miterlimit: 10;
      }

      .cls-2 {
        fill: #321f7a;
      }

      .cls-3 {
        fill: #707070;
      }

      .cls-4 {
        fill: #f87023;
      }

      .cls-5 {
        fill: #63bce7;
      }

      .cls-6 {
        fill: #f46275;
      }

      .cls-7 {
        fill: #f8af23;
      }

      .cls-8 {
        fill: #cecece;
      }

      .cls-9 {
        fill: #9e9e9e;
      }

      .cls-10 {
        fill: #f8d323;
      }
    </style>
  </defs>
  <g>
    <g>
      <path class="cls-5" d="m10.26,63.14c-3.12,0-5.65-2.53-5.65-5.65h0V6.27C4.61,3.15,7.14.62,10.26.62h79.42c3.12,0,5.65,2.53,5.65,5.65h0v51.22c0,3.12-2.53,5.65-5.65,5.65H10.26Z"/>
      <path class="cls-7" d="m91.85,4.1v53.38c0,1.2-.96,2.17-2.16,2.18,0,0-.01,0-.02,0H10.27c-1.2,0-2.17-.96-2.18-2.16,0,0,0-.01,0-.02V4.1h83.76Z"/>
      <path class="cls-4" d="m12.12,57.48V4.1h-4v53.38c0,1.19.96,2.16,2.15,2.18h4c-1.19-.02-2.15-.99-2.15-2.18Z"/>
      <path class="cls-10" d="m87.82,57.48V4.1h4v53.38c0,1.19-.96,2.16-2.15,2.18h-4c1.19-.02,2.15-.99,2.15-2.18Z"/>
      <path class="cls-9" d="m49.97,63.14H.59l1.26,2.91c1.14,2.62,3.72,4.31,6.58,4.31h83.08c2.86,0,5.44-1.69,6.58-4.31l1.26-2.91h-49.38Z"/>
      <path class="cls-3" d="m5.89,66.05l-1.26-2.91H.63l1.26,2.91c1.14,2.6,3.7,4.29,6.54,4.31h4c-2.84-.01-5.41-1.7-6.54-4.31Z"/>
      <path class="cls-8" d="m94.05,66.05l1.26-2.91h4l-1.26,2.91c-1.14,2.62-3.72,4.31-6.58,4.31h-4c2.86,0,5.44-1.69,6.58-4.31Z"/>
      <path class="cls-6" d="m31.12,63.14l1.74,2.23c.68.87,1.73,1.39,2.84,1.39h28.54c1.11,0,2.15-.51,2.84-1.38l1.74-2.23H31.12Z"/>
    </g>
    <g>
      <path class="cls-2" d="m92.48,57.49V4.1c0-.34-.28-.62-.62-.62,0,0,0,0-.01,0H8.09c-.34,0-.62.27-.63.61,0,0,0,0,0,.01v53.39c0,1.54,1.26,2.79,2.8,2.79h79.42c1.54,0,2.79-1.25,2.8-2.79Zm-83.77,0V4.76h82.52v52.73c0,.85-.68,1.54-1.53,1.55,0,0-.01,0-.02,0H10.26c-.85,0-1.54-.68-1.55-1.53,0,0,0-.01,0-.02Z"/>
      <path class="cls-2" d="m98.66,66.3l1.31-2.91c.09-.19.09-.4,0-.59-.12-.17-.31-.28-.52-.28h-6.04c1.59-1.17,2.54-3.02,2.55-5V6.27C95.96,2.81,93.15,0,89.68,0H10.26C6.79,0,3.98,2.8,3.97,6.27h0v51.22c.01,1.98.96,3.83,2.55,5H.59c-.21,0-.4.1-.52.27-.09.19-.09.4,0,.59l1.26,2.91c.6,1.42,1.6,2.64,2.88,3.5H.86c-.34,0-.62.28-.62.62H.24c0,.34.28.62.62.62h98.22c.34,0,.62-.28.62-.62h0c0-.34-.28-.62-.62-.62h-3.35c1.3-.84,2.32-2.04,2.93-3.46ZM5.23,57.49V6.27c0-2.76,2.24-5,5-5h79.45c2.76,0,5,2.24,5,5v51.22c0,2.76-2.24,5-5,5H10.26c-2.76.02-5.01-2.21-5.03-4.97,0-.01,0-.02,0-.03Zm62.32,6.27l-1,1.23c-.57.72-1.43,1.14-2.35,1.14h-28.5c-.92,0-1.78-.42-2.35-1.14l-1-1.23h35.2Zm24,6H8.43c-1.93-.01-3.77-.88-5-2.37h12.02c.34,0,.62-.28.62-.62,0,0,0,0,0-.01,0-.34-.28-.62-.62-.62H2.58l-.16-.38-.88-2h29.28l1.56,2c.79,1.03,2.02,1.63,3.32,1.62h28.54c1.3,0,2.53-.59,3.32-1.62l1.56-2h29.28l-.88,2-.16.33h-12.87c-.34,0-.62.28-.62.62h0c0,.34.28.62.62.62h12.06c-1.23,1.52-3.08,2.41-5.04,2.43h.04Z"/>
      <path class="cls-2" d="m23.97,66.13h-4.27c-.34,0-.62.28-.62.62h0c0,.34.28.62.62.62h4.27c.34,0,.62-.28.62-.62h0c0-.34-.28-.62-.62-.62h0Z"/>
      <path class="cls-2" d="m80.24,66.13h-4.27c-.34,0-.62.28-.62.62h0c0,.34.28.62.62.62h4.29c.34,0,.62-.28.62-.62h0c0-.34-.28-.62-.62-.62,0,0-.01,0-.02,0Z"/>
      <path class="cls-2" d="m8.31,74.28H.86c-.34,0-.62.28-.62.62H.24c0,.34.28.62.62.62h7.45c.34.02.64-.24.66-.58,0-.01,0-.03,0-.04,0-.34-.28-.62-.62-.62-.01,0-.03,0-.04,0Z"/>
      <path class="cls-2" d="m99.08,74.28h-7.45c-.34,0-.62.28-.62.62h0c0,.34.28.62.62.62h7.45c.34,0,.62-.28.62-.62h0c0-.34-.28-.62-.62-.62h0Z"/>
      <path class="cls-2" d="m87.41,74.28H12.53c-.34,0-.62.28-.62.62h0c0,.34.28.62.62.62h74.88c.34,0,.62-.28.62-.62h0c0-.34-.28-.62-.62-.62h0Z"/>
    </g>
  </g>
  <g>
    <path class="cls-1" d="m27.59,27.21c.64-.1,1.39-.17,2.22-.17,1.5,0,2.57.35,3.27,1.01.72.66,1.14,1.6,1.14,2.9s-.41,2.4-1.16,3.14c-.76.76-2,1.16-3.57,1.16-.74,0-1.37-.04-1.9-.1v-7.95Zm1.04,7.15c.26.05.65.06,1.06.06,2.23,0,3.44-1.25,3.44-3.43.01-1.91-1.07-3.12-3.27-3.12-.54,0-.95.05-1.22.11v6.38Z"/>
    <path class="cls-1" d="m37.32,27.75c.01.36-.25.65-.67.65-.37,0-.64-.29-.64-.65s.28-.66.66-.66.65.29.65.66Zm-1.18,7.44v-5.8h1.06v5.8h-1.06Z"/>
    <path class="cls-1" d="m39.41,34.1c.31.2.86.42,1.39.42.77,0,1.13-.38,1.13-.86,0-.5-.3-.78-1.08-1.07-1.04-.37-1.54-.95-1.54-1.64,0-.94.76-1.7,2-1.7.59,0,1.1.17,1.43.36l-.26.77c-.23-.14-.65-.34-1.19-.34-.62,0-.97.36-.97.79,0,.48.35.7,1.1.98,1.01.38,1.52.89,1.52,1.75,0,1.02-.79,1.74-2.17,1.74-.64,0-1.22-.16-1.63-.4l.26-.8Z"/>
    <path class="cls-1" d="m45.95,32.04h.02c.14-.2.35-.46.52-.66l1.7-2h1.27l-2.24,2.39,2.55,3.42h-1.28l-2-2.78-.54.6v2.18h-1.04v-8.52h1.04v5.37Z"/>
    <path class="cls-1" d="m55.45,27.75c.01.36-.25.65-.67.65-.37,0-.64-.29-.64-.65s.28-.66.66-.66.65.29.65.66Zm-1.17,7.44v-5.8h1.05v5.8h-1.05Z"/>
    <path class="cls-1" d="m57.68,30.95c0-.6-.01-1.09-.05-1.57h.94l.06.96h.02c.29-.55.96-1.09,1.92-1.09.8,0,2.05.48,2.05,2.47v3.47h-1.05v-3.35c0-.94-.35-1.71-1.34-1.71-.7,0-1.24.49-1.42,1.08-.05.13-.07.31-.07.49v3.49h-1.05v-4.23Z"/>
    <path class="cls-1" d="m65.05,35.18v-5h-.82v-.8h.82v-.28c0-.82.18-1.56.67-2.03.4-.38.92-.54,1.42-.54.37,0,.7.08.9.17l-.14.82c-.16-.07-.37-.13-.67-.13-.9,0-1.13.79-1.13,1.68v.31h1.4v.8h-1.4v5h-1.04Z"/>
    <path class="cls-1" d="m74.14,32.23c0,2.15-1.49,3.08-2.89,3.08-1.57,0-2.78-1.15-2.78-2.99,0-1.94,1.27-3.08,2.88-3.08s2.79,1.21,2.79,2.99Zm-4.61.06c0,1.27.73,2.23,1.76,2.23s1.76-.95,1.76-2.25c0-.98-.49-2.23-1.74-2.23s-1.79,1.15-1.79,2.25Z"/>
  </g>
</svg>