<?xml version="1.0" encoding="UTF-8"?>
<svg id="Layer_1" data-name="Layer 1" xmlns="http://www.w3.org/2000/svg" viewBox="0 0 100.04 75.52">
  <defs>
    <style>
      .cls-1 {
        fill: #4c4c4c;
      }

      .cls-2 {
        fill: #321f7a;
      }

      .cls-3 {
        fill: #707070;
      }

      .cls-4 {
        fill: #f87023;
      }

      .cls-5 {
        fill: #63bce7;
      }

      .cls-6 {
        fill: #f46275;
      }

      .cls-7 {
        fill: #f8af23;
      }

      .cls-8 {
        fill: #cecece;
      }

      .cls-9 {
        fill: #9e9e9e;
      }

      .cls-10 {
        fill: #f8d323;
      }
    </style>
  </defs>
  <g>
    <g>
      <path class="cls-5" d="m10.26,63.14c-3.12,0-5.65-2.53-5.65-5.65h0V6.27C4.61,3.15,7.14.62,10.26.62h79.42c3.12,0,5.65,2.53,5.65,5.65h0v51.22c0,3.12-2.53,5.65-5.65,5.65H10.26Z"/>
      <path class="cls-7" d="m91.85,4.1v53.38c0,1.2-.96,2.17-2.16,2.18,0,0-.01,0-.02,0H10.27c-1.2,0-2.17-.96-2.18-2.16,0,0,0-.01,0-.02V4.1h83.76Z"/>
      <path class="cls-4" d="m12.12,57.48V4.1h-4v53.38c0,1.19.96,2.16,2.15,2.18h4c-1.19-.02-2.15-.99-2.15-2.18Z"/>
      <path class="cls-10" d="m87.82,57.48V4.1h4v53.38c0,1.19-.96,2.16-2.15,2.18h-4c1.19-.02,2.15-.99,2.15-2.18Z"/>
      <path class="cls-9" d="m49.97,63.14H.59l1.26,2.91c1.14,2.62,3.72,4.31,6.58,4.31h83.08c2.86,0,5.44-1.69,6.58-4.31l1.26-2.91h-49.38Z"/>
      <path class="cls-3" d="m5.89,66.05l-1.26-2.91H.63l1.26,2.91c1.14,2.6,3.7,4.29,6.54,4.31h4c-2.84-.01-5.41-1.7-6.54-4.31Z"/>
      <path class="cls-8" d="m94.05,66.05l1.26-2.91h4l-1.26,2.91c-1.14,2.62-3.72,4.31-6.58,4.31h-4c2.86,0,5.44-1.69,6.58-4.31Z"/>
      <path class="cls-6" d="m31.12,63.14l1.74,2.23c.68.87,1.73,1.39,2.84,1.39h28.54c1.11,0,2.15-.51,2.84-1.38l1.74-2.23H31.12Z"/>
    </g>
    <g>
      <path class="cls-2" d="m92.48,57.49V4.1c0-.34-.28-.62-.62-.62,0,0,0,0-.01,0H8.09c-.34,0-.62.27-.63.61,0,0,0,0,0,.01v53.39c0,1.54,1.26,2.79,2.8,2.79h79.42c1.54,0,2.79-1.25,2.8-2.79Zm-83.77,0V4.76h82.52v52.73c0,.85-.68,1.54-1.53,1.55,0,0-.01,0-.02,0H10.26c-.85,0-1.54-.68-1.55-1.53,0,0,0-.01,0-.02Z"/>
      <path class="cls-2" d="m98.66,66.3l1.31-2.91c.09-.19.09-.4,0-.59-.12-.17-.31-.28-.52-.28h-6.04c1.59-1.17,2.54-3.02,2.55-5V6.27C95.96,2.81,93.15,0,89.68,0H10.26C6.79,0,3.98,2.8,3.97,6.27h0v51.22c.01,1.98.96,3.83,2.55,5H.59c-.21,0-.4.1-.52.27-.09.19-.09.4,0,.59l1.26,2.91c.6,1.42,1.6,2.64,2.88,3.5H.86c-.34,0-.62.28-.62.62H.24c0,.34.28.62.62.62h98.22c.34,0,.62-.28.62-.62h0c0-.34-.28-.62-.62-.62h-3.35c1.3-.84,2.32-2.04,2.93-3.46ZM5.23,57.49V6.27c0-2.76,2.24-5,5-5h79.45c2.76,0,5,2.24,5,5v51.22c0,2.76-2.24,5-5,5H10.26c-2.76.02-5.01-2.21-5.03-4.97,0-.01,0-.02,0-.03Zm62.32,6.27l-1,1.23c-.57.72-1.43,1.14-2.35,1.14h-28.5c-.92,0-1.78-.42-2.35-1.14l-1-1.23h35.2Zm24,6H8.43c-1.93-.01-3.77-.88-5-2.37h12.02c.34,0,.62-.28.62-.62,0,0,0,0,0-.01,0-.34-.28-.62-.62-.62H2.58l-.16-.38-.88-2h29.28l1.56,2c.79,1.03,2.02,1.63,3.32,1.62h28.54c1.3,0,2.53-.59,3.32-1.62l1.56-2h29.28l-.88,2-.16.33h-12.87c-.34,0-.62.28-.62.62h0c0,.34.28.62.62.62h12.06c-1.23,1.52-3.08,2.41-5.04,2.43h.04Z"/>
      <path class="cls-2" d="m23.97,66.13h-4.27c-.34,0-.62.28-.62.62h0c0,.34.28.62.62.62h4.27c.34,0,.62-.28.62-.62h0c0-.34-.28-.62-.62-.62h0Z"/>
      <path class="cls-2" d="m80.24,66.13h-4.27c-.34,0-.62.28-.62.62h0c0,.34.28.62.62.62h4.29c.34,0,.62-.28.62-.62h0c0-.34-.28-.62-.62-.62,0,0-.01,0-.02,0Z"/>
      <path class="cls-2" d="m8.31,74.28H.86c-.34,0-.62.28-.62.62H.24c0,.34.28.62.62.62h7.45c.34.02.64-.24.66-.58,0-.01,0-.03,0-.04,0-.34-.28-.62-.62-.62-.01,0-.03,0-.04,0Z"/>
      <path class="cls-2" d="m99.08,74.28h-7.45c-.34,0-.62.28-.62.62h0c0,.34.28.62.62.62h7.45c.34,0,.62-.28.62-.62h0c0-.34-.28-.62-.62-.62h0Z"/>
      <path class="cls-2" d="m87.41,74.28H12.53c-.34,0-.62.28-.62.62h0c0,.34.28.62.62.62h74.88c.34,0,.62-.28.62-.62h0c0-.34-.28-.62-.62-.62h0Z"/>
    </g>
  </g>
  <g>
    <rect class="cls-7" x="43.66" y="35.87" width="16.48" height="20.04"/>
    <path class="cls-9" d="m75.81,57.58c-.19-4.3-4.22-5.36-4.22-5.36l-11.44-3.6c-1.5,3.04-4.63,5.14-8.25,5.14s-6.75-2.09-8.25-5.14l-11.44,3.6s-4.04,1.06-4.22,5.36l.06,1.83,47.73-.56.03-1.28Z"/>
    <polygon class="cls-9" points="41.69 40.96 32.81 46.97 40.39 59.18 47.52 59.19 45.39 40.96 41.69 40.96"/>
    <polygon class="cls-9" points="62.12 40.96 71 46.97 63.42 59.18 56.3 59.08 58.42 40.96 62.12 40.96"/>
    <g>
      <circle class="cls-7" cx="37.68" cy="27.86" r="3.68"/>
      <circle class="cls-7" cx="66.13" cy="27.86" r="3.68"/>
    </g>
    <path class="cls-7" d="m37.68,22.81v8.63c0,5.13,2.75,9.65,6.86,12.15,2.15,1.31,4.68,2.07,7.37,2.07h0c2.69,0,5.22-.76,7.37-2.07,4.1-2.5,6.86-7.02,6.86-12.15v-8.63h-28.46Z"/>
    <path class="cls-1" d="m37.68,31.2h0c1.12.41,2.31-.42,2.31-1.62v-3.97h-2.31v5.58Z"/>
    <path class="cls-1" d="m66.13,31.2h0c-1.12.41-2.31-.42-2.31-1.62v-3.97h2.31v5.58Z"/>
    <path class="cls-9" d="m75.67,20.02c1.65,3.6-8.71,11.43-23.76,11.41-15.05.02-25.41-7.81-23.76-11.41,1.57-3.74,11.99-2.99,23.76-3.11,11.77.12,22.2-.63,23.76,3.11Z"/>
    <path class="cls-1" d="m31.75,20.02c1.14-2.73,6.99-3.07,14.64-3.1-9.37-.02-16.94-.04-18.25,3.1-1.65,3.6,8.71,11.43,23.76,11.41.61,0,1.21-.02,1.81-.04-14.06-.57-23.54-7.91-21.96-11.37Z"/>
    <path class="cls-8" d="m72.06,20.02c-1.14-2.73-6.99-3.07-14.64-3.1,9.37-.02,16.94-.04,18.25,3.1,1.65,3.6-8.71,11.43-23.76,11.41-.61,0-1.21-.02-1.81-.04,14.06-.57,23.54-7.91,21.96-11.37Z"/>
    <path class="cls-9" d="m61.98,7.06s-7.54,1.19-10.07,1.19-10.07-1.19-10.07-1.19c-.84-.1-1.58.56-1.58,1.4v11.44c0,1.34,5.21,2.43,11.65,2.43s11.65-1.09,11.65-2.43v-11.44c0-.84-.74-1.5-1.58-1.4Z"/>
    <path class="cls-1" d="m43.87,19.91v-11.44c0-.41.18-.77.45-1.03-1.44-.21-2.49-.37-2.49-.37-.84-.1-1.58.56-1.58,1.4v11.44c0,1.34,5.21,2.43,11.65,2.43.61,0,1.22,0,1.81-.03-5.58-.18-9.84-1.18-9.84-2.4Z"/>
    <path class="cls-8" d="m59.94,19.91v-11.44c0-.41-.18-.77-.45-1.03,1.44-.21,2.49-.37,2.49-.37.84-.1,1.58.56,1.58,1.4v11.44c0,1.34-5.21,2.43-11.65,2.43-.61,0-1.22,0-1.81-.03,5.58-.18,9.84-1.18,9.84-2.4Z"/>
    <path class="cls-9" d="m44.53,43.59c2.15,1.31,4.68,2.07,7.37,2.07h0c2.69,0,5.22-.76,7.37-2.07,2.87-1.75,5.08-4.48,6.15-7.72l-12.12,1.33c-.93.1-1.86.1-2.79,0l-12.12-1.33c1.07,3.24,3.27,5.97,6.14,7.72Z"/>
    <circle class="cls-2" cx="45.7" cy="33.74" r="1.27"/>
    <circle class="cls-2" cx="58.1" cy="33.74" r="1.27"/>
    <path class="cls-2" d="m52.12,27.62c8.16,0,14.89-3.12,17.32-6.21.19-.24.15-.59-.09-.78-.24-.19-.59-.15-.78.09-2.96,3.76-10.68,5.79-16.45,5.79-.03,0-.05,0-.08,0-8.85,0-15.24-3.72-16.76-6.24-.16-.26-.5-.35-.76-.19-.26.16-.35.5-.19.76,1.71,2.82,8.33,6.78,17.71,6.78.03,0,.06,0,.09,0Z"/>
    <path class="cls-2" d="m76.34,59.43l.03-1.87c-.2-4.66-4.59-5.87-4.61-5.87l-2.54-.8,2.25-3.63c.16-.25.09-.59-.16-.75l-8.16-5.52c2.11-2.49,3.37-5.64,3.51-8.93,2.08-.26,3.7-2.05,3.7-4.2,0-.11,0-.21-.02-.32,2.43-1.37,4.29-2.93,5.28-4.48.99-1.53.84-2.63.55-3.26-1.09-2.61-5.43-3.26-12.07-3.4v-7.93c0-.56-.24-1.1-.66-1.47-.42-.37-.98-.55-1.54-.48,0,0-.01,0-.02,0-.07.01-7.52,1.18-9.99,1.18s-9.91-1.17-10.01-1.18c-.56-.07-1.12.11-1.54.48-.42.37-.66.91-.66,1.47v7.94c-6.46.14-10.98.8-12.07,3.39-.3.65-.45,1.74.54,3.28,1,1.55,2.86,3.11,5.28,4.48,0,.11-.02.21-.02.32,0,2.16,1.62,3.94,3.7,4.2.14,3.29,1.41,6.44,3.51,8.93l-8.16,5.52c-.25.17-.32.5-.16.75l2.25,3.63-2.51.79s-4.44,1.22-4.64,5.86v1.88m44-6.67s3.64,1,3.81,4.86l.08,1.24h-11.07l4.34-6.99,2.83.89Zm-8.48,6.1h-1.72l1.24-10.49c.04-.3-.18-.58-.49-.62-.31-.04-.58.18-.62.49l-1.26,10.62h-3.23l1.67-14.23c.34-.17.68-.36,1.01-.56,1.04-.64,1.99-1.4,2.83-2.25l7.85,5.31-7.28,11.73Zm-14.92,0l-.66-5.67c1.39.73,2.94,1.12,4.53,1.12s3.14-.39,4.53-1.12l-.66,5.67h-7.73Zm-8.81-22.33l11.22,1.23c.48.05.97.08,1.46.08s.97-.03,1.46-.08l11.21-1.23c-1.09,2.7-3.04,5.04-5.59,6.6-2.14,1.3-4.58,1.99-7.08,1.99s-4.95-.69-7.08-1.99c-2.55-1.56-4.49-3.9-5.59-6.6Zm.09-6.45c-.1.2-.25.38-.45.5-.2.12-.42.18-.64.17v-1.05c.35.12.71.25,1.09.37Zm26.26.67c-.23,0-.45-.05-.65-.18-.2-.12-.34-.3-.43-.5.38-.12.74-.25,1.09-.37v1.05Zm-2.16-.35c.17.46.49.85.92,1.11.37.23.78.35,1.2.35,0,0,.02,0,.03,0-.04,1.2-.24,2.37-.58,3.5l-11.74,1.29c-.89.1-1.78.1-2.67,0l-11.74-1.29c-.34-1.13-.54-2.31-.58-3.5,0,0,.02,0,.03,0,.41,0,.82-.11,1.18-.33.44-.27.76-.66.94-1.13,3.01.87,6.86,1.58,11.45,1.58h.12c4.58,0,8.44-.71,11.45-1.58Zm-11.51,15.82c1.88,0,3.73-.37,5.47-1.06l-.78,6.66c-1.4.91-3.02,1.39-4.69,1.39s-3.29-.48-4.69-1.39l-.78-6.65c1.73.7,3.59,1.06,5.47,1.06Zm14.78-15.29v-1.65c.2-.08.4-.16.59-.24.69-.29,1.34-.59,1.97-.91-.12,1.41-1.19,2.55-2.56,2.8Zm-3.69-11.04c-.13.53-3.62,1.88-11.09,1.88s-10.96-1.34-11.09-1.87v-4.26c2.29,1.24,7.61,1.61,11.09,1.61s8.8-.37,11.09-1.61v4.26Zm-22.19-11.44c0-.25.1-.47.29-.64.16-.14.36-.22.56-.22.03,0,.06,0,.09,0,.31.05,7.61,1.19,10.16,1.19s9.7-1.12,10.15-1.19c.25-.03.48.05.66.21.19.16.29.39.29.64v5.8c-.13.54-3.62,1.88-11.09,1.88s-10.95-1.34-11.09-1.88v-5.8h0Zm-11.7,14c-.39-.61-.79-1.49-.46-2.23.91-2.17,5.81-2.61,11.05-2.72v2.4c0,2.35,7.67,2.98,12.2,2.98s12.2-.63,12.2-2.98v-2.4c5.26.12,10.14.56,11.06,2.74.33.72-.07,1.6-.46,2.21-2.25,3.49-10.78,8.41-22.74,8.41-.04,0-.08,0-.12,0-11.95,0-20.49-4.91-22.73-8.41Zm5.45,5.67c.63.32,1.28.62,1.97.91.19.08.39.16.59.24v1.65c-1.37-.25-2.43-1.39-2.56-2.8Zm6.85,13.68c.84.85,1.79,1.61,2.83,2.25.33.2.67.39,1.01.56l1.67,14.23h-3.25l-1.26-10.62c-.04-.3-.31-.53-.62-.49-.3.04-.52.31-.49.62l1.24,10.49h-1.71l-7.28-11.73,7.85-5.31Zm-12.86,15.79c.16-3.83,3.66-4.81,3.84-4.86l2.81-.88,4.34,6.99h-11.07l.08-1.25Z"/>
  </g>
</svg>