<svg id="Layer_1" data-name="Layer 1" xmlns="http://www.w3.org/2000/svg" xmlns:xlink="http://www.w3.org/1999/xlink" viewBox="0 0 94.31 100"><defs><style>.cls-1{fill:#ed2224;}.cls-2{fill:#b51f24;}.cls-3{fill:url(#linear-gradient);}.cls-4{fill:url(#linear-gradient-2);}.cls-5{fill:url(#linear-gradient-3);}.cls-6{fill:url(#linear-gradient-4);}.cls-7{fill:#f04f44;}.cls-8{fill:#352c78;}</style><linearGradient id="linear-gradient" x1="49.42" y1="41.93" x2="77.93" y2="41.93" gradientTransform="matrix(1, 0, 0, -1, -2.26, 102)" gradientUnits="userSpaceOnUse"><stop offset="0" stop-color="#293592" stop-opacity="0.2"/><stop offset="1" stop-color="#d22026"/></linearGradient><linearGradient id="linear-gradient-2" x1="19.38" y1="41.06" x2="47.88" y2="41.06" xlink:href="#linear-gradient"/><linearGradient id="linear-gradient-3" x1="23.68" y1="25.17" x2="47.88" y2="25.17" xlink:href="#linear-gradient"/><linearGradient id="linear-gradient-4" x1="50.29" y1="25.17" x2="74.49" y2="25.17" xlink:href="#linear-gradient"/></defs><path class="cls-1" d="M20.69,42.41H49.42V97.92S12.78,101.14,20.69,42.41Z" transform="translate(-2.26)"/><path class="cls-2" d="M78.52,42.41H50.41V97.92S85.13,98.94,78.52,42.41Z" transform="translate(-2.26)"/><polygon class="cls-3" points="47.17 49.98 75.67 66.91 75.67 70.17 47.47 52.51 47.17 49.98"/><polygon class="cls-4" points="45.62 50.84 17.12 67.77 17.12 71.03 45.34 53.37 45.62 50.84"/><polygon class="cls-5" points="45.62 68.26 21.42 82.64 21.42 85.4 45.38 70.41 45.62 68.26"/><polygon class="cls-6" points="48.03 68.26 72.23 82.64 72.23 85.4 48.29 70.41 48.03 68.26"/><path class="cls-7" d="M77.93,42.41h-57S32.13,2.17,68.06,24.76C73.94,28.45,75.84,35.79,77.93,42.41Z" transform="translate(-2.26)"/><circle class="cls-8" cx="37.67" cy="30.17" r="2.18"/><circle class="cls-8" cx="56.68" cy="30.17" r="2.18"/><path class="cls-8" d="M8.18,36.37A19.19,19.19,0,0,0,14.94,41l3.52,1.45a29.13,29.13,0,0,0-.19,3.39v9.44H4.46a2,2,0,0,0,0,4.08H18.28v9.44a31,31,0,0,0,3.32,14L15,85.56A19.09,19.09,0,0,0,8.2,90.21L2.82,96A2,2,0,0,0,4.31,99.4a2,2,0,0,0,1.49-.65L11.16,93a15.2,15.2,0,0,1,5.32-3.67l7.19-3a31.11,31.11,0,0,0,51.48,0l7.19,3A15.07,15.07,0,0,1,87.66,93L93,98.77A2,2,0,0,0,96,96l-5.37-5.74a19.3,19.3,0,0,0-6.74-4.66L77.24,82.8a31,31,0,0,0,3.31-13.94V59.42H94.37a2,2,0,1,0,0-4.09H80.55V45.9a29.3,29.3,0,0,0-.19-3.4l3.52-1.44a19.28,19.28,0,0,0,6.76-4.66L96,30.66a2,2,0,1,0-3-2.8L87.66,33.6a15.33,15.33,0,0,1-5.32,3.67l-2.71,1.11a31.18,31.18,0,0,0-14.94-19.6c1.25-3.24,4.16-10.71,6.21-16A2,2,0,1,0,67.09,1.3l-3.44,8.84c-.87,2.21-1.72,4.43-2.36,6.08-.1.28-.2.53-.29.77a31,31,0,0,0-23.15,0c-.09-.25-.19-.48-.28-.76-.64-1.67-1.51-3.87-2.36-6.08L31.77,1.3A2,2,0,0,0,28,2.79c2.05,5.28,4.95,12.71,6.21,16a31.25,31.25,0,0,0-15,19.63l-2.71-1.11a15.16,15.16,0,0,1-5.32-3.67L5.8,27.87a2,2,0,0,0-3,2.8l5.37,5.74ZM22.37,68.83v-23c0-.58.05-1.14.08-1.71H47.38V95.78a27.08,27.08,0,0,1-25-27Zm29.1,27V44.17H76.4c0,.57.08,1.12.08,1.7v23a27.07,27.07,0,0,1-25,27Zm-2-77A27.1,27.1,0,0,1,75.84,40.07H23A27.1,27.1,0,0,1,49.42,18.8Z" transform="translate(-2.26)"/></svg>