<?xml version="1.0" encoding="UTF-8"?>
<svg id="Layer_1" data-name="Layer 1" xmlns="http://www.w3.org/2000/svg" xmlns:xlink="http://www.w3.org/1999/xlink" viewBox="0 0 69.68 73.9">
  <defs>
    <style>
      .cls-1 {
        fill: url(#linear-gradient-2);
      }

      .cls-2 {
        fill: #321f7a;
      }

      .cls-3 {
        fill: #ff4a3f;
      }

      .cls-4 {
        fill: #b60000;
      }

      .cls-5 {
        fill: url(#linear-gradient-3);
      }

      .cls-6 {
        fill: url(#linear-gradient);
      }

      .cls-7 {
        fill: url(#linear-gradient-4);
      }

      .cls-8 {
        fill: red;
      }
    </style>
    <linearGradient id="linear-gradient" x1="34.84" y1="44.41" x2="55.9" y2="44.41" gradientUnits="userSpaceOnUse">
      <stop offset="0" stop-color="#0004aa" stop-opacity=".2"/>
      <stop offset="1" stop-color="#d40000"/>
    </linearGradient>
    <linearGradient id="linear-gradient-2" x1="12.64" y1="45.05" x2="33.7" y2="45.05" gradientUnits="userSpaceOnUse">
      <stop offset="0" stop-color="#0004aa" stop-opacity=".2"/>
      <stop offset="1" stop-color="#d40000"/>
    </linearGradient>
    <linearGradient id="linear-gradient-3" x1="15.82" y1="56.79" x2="33.7" y2="56.79" xlink:href="#linear-gradient-2"/>
    <linearGradient id="linear-gradient-4" x1="35.48" y1="56.79" x2="53.36" y2="56.79" xlink:href="#linear-gradient"/>
  </defs>
  <path class="cls-8" d="m13.61,31.36h21.23v41.01s-27.07,2.38-21.23-41.01Z"/>
  <path class="cls-4" d="m56.34,31.36h-20.77v41.01s25.65.76,20.77-41.01Z"/>
  <polygon class="cls-6" points="34.84 36.95 55.9 49.46 55.9 51.87 35.06 38.82 34.84 36.95"/>
  <polygon class="cls-1" points="33.7 37.59 12.64 50.1 12.64 52.51 33.49 39.46 33.7 37.59"/>
  <polygon class="cls-5" points="33.7 50.46 15.82 61.08 15.82 63.12 33.52 52.05 33.7 50.46"/>
  <polygon class="cls-7" points="35.48 50.46 53.36 61.08 53.36 63.12 35.67 52.05 35.48 50.46"/>
  <path class="cls-3" d="m55.9,31.36H13.78S22.06,1.63,48.61,18.32c4.34,2.73,5.75,8.15,7.29,13.04Z"/>
  <g>
    <g>
      <circle class="cls-2" cx="27.82" cy="22.32" r="1.61"/>
      <circle class="cls-2" cx="41.87" cy="22.32" r="1.61"/>
    </g>
    <path class="cls-2" d="m4.37,26.9c1.41,1.5,3.08,2.66,4.99,3.44l2.6,1.07c-.09.82-.14,1.66-.14,2.51v6.97H1.62c-.84,0-1.51.68-1.51,1.51s.68,1.51,1.51,1.51h10.21v6.97c0,3.71.89,7.21,2.45,10.32l-4.91,2.04c-1.9.78-3.58,1.94-4.99,3.44l-3.97,4.24c-.57.61-.54,1.57.07,2.14.29.27.66.41,1.03.41.4,0,.81-.16,1.1-.48l3.96-4.24c1.11-1.18,2.43-2.09,3.93-2.71l5.31-2.2c4.15,6.07,11.12,10.07,19.02,10.07s14.88-4,19.02-10.08l5.31,2.22c1.5.61,2.82,1.53,3.93,2.71l3.97,4.24c.3.32.7.48,1.1.48.37,0,.74-.14,1.03-.41.61-.57.64-1.53.07-2.14l-3.97-4.24c-1.41-1.5-3.08-2.66-4.98-3.44l-4.92-2.05c1.56-3.1,2.45-6.6,2.45-10.3v-6.97h10.21c.84,0,1.51-.68,1.51-1.51s-.68-1.51-1.51-1.51h-10.21v-6.97c0-.85-.05-1.69-.14-2.51l2.6-1.07c1.9-.78,3.58-1.94,4.99-3.44l3.97-4.24c.57-.61.54-1.57-.07-2.14-.61-.57-1.57-.54-2.14.07l-3.96,4.24c-1.11,1.18-2.43,2.09-3.93,2.71l-2,.82c-1.54-6.2-5.61-11.41-11.04-14.48.92-2.39,3.07-7.91,4.59-11.81.3-.78-.08-1.66-.86-1.96-.78-.3-1.66.08-1.96.86l-2.54,6.53c-.64,1.63-1.27,3.27-1.74,4.49-.08.21-.15.39-.22.57-2.65-1.07-5.54-1.66-8.56-1.66s-5.9.59-8.54,1.65c-.07-.18-.14-.35-.21-.56-.47-1.23-1.11-2.86-1.74-4.49l-2.54-6.53c-.3-.78-1.18-1.16-1.96-.86-.78.3-1.16,1.18-.86,1.96,1.52,3.9,3.66,9.39,4.59,11.8-5.44,3.07-9.52,8.29-11.06,14.5l-2-.82c-1.5-.61-2.82-1.53-3.93-2.71l-3.97-4.24c-.57-.61-1.53-.64-2.14-.07-.61.57-.64,1.53-.07,2.14l3.97,4.24Zm10.48,23.98v-16.97c0-.43.04-.84.06-1.26h18.42v38.14c-10.32-.78-18.48-9.4-18.48-19.92Zm21.5,19.92v-38.14h18.42c.03.42.06.83.06,1.26v16.97c0,10.51-8.16,19.14-18.48,19.92Zm-1.51-56.88c9.55,0,17.55,6.74,19.52,15.71H15.32c1.97-8.97,9.96-15.71,19.52-15.71Z"/>
  </g>
</svg>