<?xml version="1.0" encoding="UTF-8"?>
<svg id="Layer_1" data-name="Layer 1" xmlns="http://www.w3.org/2000/svg" viewBox="0 0 100.04 75.52">
  <defs>
    <style>
      .cls-1 {
        fill: #321f7a;
      }

      .cls-2 {
        fill: #63e2e7;
      }

      .cls-3 {
        fill: #707070;
      }

      .cls-4 {
        fill: #6377e7;
      }

      .cls-5 {
        fill: #f87023;
      }

      .cls-6 {
        fill: #63bce7;
      }

      .cls-7 {
        fill: #f46275;
      }

      .cls-8 {
        fill: #f8af23;
      }

      .cls-9 {
        fill: #cecece;
      }

      .cls-10 {
        fill: #9e9e9e;
      }

      .cls-11 {
        fill: #f8d323;
      }
    </style>
  </defs>
  <g>
    <g>
      <path class="cls-6" d="m10.26,63.14c-3.12,0-5.65-2.53-5.65-5.65h0V6.27C4.61,3.15,7.14.62,10.26.62h79.42c3.12,0,5.65,2.53,5.65,5.65h0v51.22c0,3.12-2.53,5.65-5.65,5.65H10.26Z"/>
      <path class="cls-8" d="m91.85,4.1v53.38c0,1.2-.96,2.17-2.16,2.18,0,0-.01,0-.02,0H10.27c-1.2,0-2.17-.96-2.18-2.16,0,0,0-.01,0-.02V4.1h83.76Z"/>
      <path class="cls-5" d="m12.12,57.48V4.1h-4v53.38c0,1.19.96,2.16,2.15,2.18h4c-1.19-.02-2.15-.99-2.15-2.18Z"/>
      <path class="cls-11" d="m87.82,57.48V4.1h4v53.38c0,1.19-.96,2.16-2.15,2.18h-4c1.19-.02,2.15-.99,2.15-2.18Z"/>
      <path class="cls-10" d="m49.97,63.14H.59l1.26,2.91c1.14,2.62,3.72,4.31,6.58,4.31h83.08c2.86,0,5.44-1.69,6.58-4.31l1.26-2.91h-49.38Z"/>
      <path class="cls-3" d="m5.89,66.05l-1.26-2.91H.63l1.26,2.91c1.14,2.6,3.7,4.29,6.54,4.31h4c-2.84-.01-5.41-1.7-6.54-4.31Z"/>
      <path class="cls-9" d="m94.05,66.05l1.26-2.91h4l-1.26,2.91c-1.14,2.62-3.72,4.31-6.58,4.31h-4c2.86,0,5.44-1.69,6.58-4.31Z"/>
      <path class="cls-7" d="m31.12,63.14l1.74,2.23c.68.87,1.73,1.39,2.84,1.39h28.54c1.11,0,2.15-.51,2.84-1.38l1.74-2.23H31.12Z"/>
    </g>
    <g>
      <path class="cls-1" d="m92.48,57.49V4.1c0-.34-.28-.62-.62-.62,0,0,0,0-.01,0H8.09c-.34,0-.62.27-.63.61,0,0,0,0,0,.01v53.39c0,1.54,1.26,2.79,2.8,2.79h79.42c1.54,0,2.79-1.25,2.8-2.79Zm-83.77,0V4.76h82.52v52.73c0,.85-.68,1.54-1.53,1.55,0,0-.01,0-.02,0H10.26c-.85,0-1.54-.68-1.55-1.53,0,0,0-.01,0-.02Z"/>
      <path class="cls-1" d="m98.66,66.3l1.31-2.91c.09-.19.09-.4,0-.59-.12-.17-.31-.28-.52-.28h-6.04c1.59-1.17,2.54-3.02,2.55-5V6.27C95.96,2.81,93.15,0,89.68,0H10.26C6.79,0,3.98,2.8,3.97,6.27h0v51.22c.01,1.98.96,3.83,2.55,5H.59c-.21,0-.4.1-.52.27-.09.19-.09.4,0,.59l1.26,2.91c.6,1.42,1.6,2.64,2.88,3.5H.86c-.34,0-.62.28-.62.62H.24c0,.34.28.62.62.62h98.22c.34,0,.62-.28.62-.62h0c0-.34-.28-.62-.62-.62h-3.35c1.3-.84,2.32-2.04,2.93-3.46ZM5.23,57.49V6.27c0-2.76,2.24-5,5-5h79.45c2.76,0,5,2.24,5,5v51.22c0,2.76-2.24,5-5,5H10.26c-2.76.02-5.01-2.21-5.03-4.97,0-.01,0-.02,0-.03Zm62.32,6.27l-1,1.23c-.57.72-1.43,1.14-2.35,1.14h-28.5c-.92,0-1.78-.42-2.35-1.14l-1-1.23h35.2Zm24,6H8.43c-1.93-.01-3.77-.88-5-2.37h12.02c.34,0,.62-.28.62-.62,0,0,0,0,0-.01,0-.34-.28-.62-.62-.62H2.58l-.16-.38-.88-2h29.28l1.56,2c.79,1.03,2.02,1.63,3.32,1.62h28.54c1.3,0,2.53-.59,3.32-1.62l1.56-2h29.28l-.88,2-.16.33h-12.87c-.34,0-.62.28-.62.62h0c0,.34.28.62.62.62h12.06c-1.23,1.52-3.08,2.41-5.04,2.43h.04Z"/>
      <path class="cls-1" d="m23.97,66.13h-4.27c-.34,0-.62.28-.62.62h0c0,.34.28.62.62.62h4.27c.34,0,.62-.28.62-.62h0c0-.34-.28-.62-.62-.62h0Z"/>
      <path class="cls-1" d="m80.24,66.13h-4.27c-.34,0-.62.28-.62.62h0c0,.34.28.62.62.62h4.29c.34,0,.62-.28.62-.62h0c0-.34-.28-.62-.62-.62,0,0-.01,0-.02,0Z"/>
      <path class="cls-1" d="m8.31,74.28H.86c-.34,0-.62.28-.62.62H.24c0,.34.28.62.62.62h7.45c.34.02.64-.24.66-.58,0-.01,0-.03,0-.04,0-.34-.28-.62-.62-.62-.01,0-.03,0-.04,0Z"/>
      <path class="cls-1" d="m99.08,74.28h-7.45c-.34,0-.62.28-.62.62h0c0,.34.28.62.62.62h7.45c.34,0,.62-.28.62-.62h0c0-.34-.28-.62-.62-.62h0Z"/>
      <path class="cls-1" d="m87.41,74.28H12.53c-.34,0-.62.28-.62.62h0c0,.34.28.62.62.62h74.88c.34,0,.62-.28.62-.62h0c0-.34-.28-.62-.62-.62h0Z"/>
    </g>
  </g>
  <g>
    <g>
      <g>
        <path class="cls-6" d="m32.9,50.01c.67.65,1.58,1.06,2.59,1.06h28.92c1,0,1.92-.4,2.59-1.06l-17.05-16.12-17.05,16.12Z"/>
        <path class="cls-6" d="m68.12,47.36c0,2.04-1.67,3.71-3.71,3.71h-28.92c-2.04,0-3.71-1.67-3.71-3.71v-17.16c0-2.04,1.67-3.71,3.71-3.71h28.92c2.04,0,3.71,1.67,3.71,3.71v17.16Z"/>
        <path class="cls-6" d="m67,27.56c-.67-.65-1.58-1.06-2.58-1.06h-28.92c-1,0-1.91.41-2.58,1.06l17.04,16.12,17.04-16.12Z"/>
        <path class="cls-4" d="m33.5,47.36v-17.16c0-2.04,1.67-3.71,3.71-3.71h-1.72c-2.04,0-3.71,1.67-3.71,3.71v17.16c0,2.04,1.67,3.71,3.71,3.71h1.72c-2.04,0-3.71-1.67-3.71-3.71Z"/>
        <path class="cls-2" d="m66.4,47.36v-17.16c0-2.04-1.67-3.71-3.71-3.71h1.72c2.04,0,3.71,1.67,3.71,3.71v17.16c0,2.04-1.67,3.71-3.71,3.71h-1.72c2.04,0,3.71-1.67,3.71-3.71Z"/>
        <polygon class="cls-10" points="37.18 31.6 49.95 43.68 62.72 31.6 62.72 21.8 37.18 21.8 37.18 31.6"/>
        <polygon class="cls-3" points="37.18 21.8 37.18 31.6 38.9 33.23 38.9 21.8 37.18 21.8"/>
        <polygon class="cls-9" points="62.72 21.8 62.72 31.6 61 33.23 61 21.8 62.72 21.8"/>
      </g>
      <circle class="cls-3" cx="49.95" cy="26.5" r="1.43"/>
      <g>
        <rect class="cls-8" x="42.18" y="29.77" width="15.53" height="1.71"/>
        <rect class="cls-8" x="42.18" y="32.5" width="15.53" height="1.71"/>
      </g>
      <path class="cls-7" d="m52.79,38.57h-5.68c-.64,0-1.17-.53-1.17-1.17h0c0-.64.53-1.17,1.17-1.17h5.68c.64,0,1.17.53,1.17,1.17h0c0,.64-.53,1.17-1.17,1.17Z"/>
    </g>
    <g>
      <path class="cls-8" d="m49.41,40.55l-3.47,5.57c-.26.42.04.97.54.97h6.95c.5,0,.8-.55.54-.97l-3.47-5.57c-.25-.4-.83-.4-1.08,0Z"/>
      <g>
        <path class="cls-1" d="m66.35,51.33c.15,0,.26-.12.26-.26s-.12-.26-.26-.26h.04c1.19-.69,1.99-1.97,1.99-3.44v-17.16c0-2.19-1.78-3.97-3.97-3.97h-1.43v-4.43c0-.15-.12-.26-.26-.26h-9.33v-7.55c0-.55.44-.99.99-.99s.99.44.99.99v3.36c0,.84.68,1.52,1.52,1.52h.13c.84,0,1.52-.68,1.52-1.52v-2.2c0-.55.44-.99.99-.99h3.16c.15,0,.26-.12.26-.26s-.12-.26-.26-.26h-3.16c-.84,0-1.52.68-1.52,1.52v2.2c0,.55-.44.99-.99.99h-.13c-.55,0-.99-.44-.99-.99v-3.36c0-.84-.68-1.52-1.52-1.52s-1.52.68-1.52,1.52v7.55h-9.42c-.23-.68-.36-1.42-.36-2.18v-.8l1.12.99c.11.1.28.09.37-.02.1-.11.09-.28-.02-.37l-1.56-1.38c-.08-.07-.19-.09-.28-.04-.09.04-.16.14-.16.24v1.38c0,.76.11,1.49.33,2.18h-5.7c-.15,0-.26.12-.26.26v4.43h-1.43c-2.19,0-3.97,1.78-3.97,3.97v17.16c0,1.47.8,2.76,1.99,3.44h.04c-.15,0-.26.12-.26.26s.12.26.26.26m20.18-5.07c.07.12.08.26,0,.38-.07.12-.19.19-.32.19h-6.95c-.14,0-.26-.07-.32-.19-.07-.12-.06-.26,0-.38l3.47-5.57c.07-.11.18-.17.31-.17s.24.06.31.17l3.47,5.57Zm-5.69-4.02l-2.34,3.75c-.18.28-.18.62-.02.91s.45.46.79.46h6.95c.33,0,.62-.17.79-.46s.15-.63-.02-.91l-2.34-3.75,3.27-3.09,11.49,10.86c-.6.5-1.36.8-2.2.8h-28.92c-.84,0-1.6-.3-2.2-.8l11.49-10.86,3.27,3.1Zm19.8-12.04v17.16c0,.87-.33,1.67-.87,2.27l-11.48-10.86,2.68-2.54,8.8-8.32c.54.61.87,1.4.87,2.27Zm-3.44-3.44c.84,0,1.6.3,2.2.8l-3.63,3.43v-4.23h1.43Zm-26.97-4.69h5.62c.88,2.23,2.82,3.94,5.19,4.5.04.9.78,1.63,1.69,1.63s1.7-.76,1.7-1.7-.76-1.7-1.7-1.7c-.77,0-1.43.52-1.63,1.23-2.11-.52-3.84-2.01-4.69-3.97h18.82v9.42l-7.46,7.06-3.43,3.24-.85-1.37c-.17-.26-.45-.42-.76-.42s-.6.16-.76.42l-.85,1.37-10.89-10.3v-9.42h0Zm12.5,4.17c-.38,0-.75-.03-1.11-.09.15-.47.59-.81,1.11-.81.64,0,1.17.52,1.17,1.17s-.52,1.17-1.17,1.17c-.58,0-1.07-.43-1.15-.99.38.06.76.09,1.15.09.15,0,.26-.12.26-.26s-.12-.26-.26-.26Zm-13.03.53v4.23l-3.63-3.43c.6-.5,1.36-.8,2.2-.8h1.43Zm-4.87,20.6v-17.16c0-.87.33-1.67.87-2.27l4.09,3.87h0l.91.86,6.48,6.13-11.48,10.86c-.54-.61-.86-1.4-.86-2.27Z"/>
        <path class="cls-1" d="m42.18,31.74h15.53c.15,0,.26-.12.26-.26v-1.71c0-.15-.12-.26-.26-.26h-15.53c-.15,0-.26.12-.26.26v1.71c0,.15.12.26.26.26Zm.26-1.71h15v1.18h-15v-1.18Z"/>
        <path class="cls-1" d="m57.98,34.21v-1.71c0-.15-.12-.26-.26-.26h-15.53c-.15,0-.26.12-.26.26v1.71c0,.15.12.26.26.26h15.53c.15,0,.26-.12.26-.26Zm-.53-.26h-15v-1.18h15v1.18Z"/>
        <path class="cls-1" d="m52.79,38.83c.79,0,1.43-.64,1.43-1.43s-.64-1.43-1.43-1.43h-5.68c-.79,0-1.43.64-1.43,1.43s.64,1.43,1.43,1.43h5.68Zm-6.58-1.43c0-.5.41-.9.9-.9h5.68c.5,0,.9.41.9.9s-.41.9-.9.9h-5.68c-.5,0-.9-.41-.9-.9Z"/>
      </g>
      <path class="cls-1" d="m50.09,41.89c.23,0,.24.14.23.4l-.1,1.85c-.01.19-.05.35-.28.35s-.26-.16-.28-.35l-.1-1.85c-.02-.26,0-.4.24-.4h.28Zm-.07,3.45c.21,0,.3.1.3.31v.14c0,.21-.1.31-.3.31h-.14c-.21,0-.3-.1-.3-.31v-.14c0-.21.1-.31.3-.31h.14Z"/>
    </g>
  </g>
</svg>