<svg id="Layer_1" data-name="Layer 1" xmlns="http://www.w3.org/2000/svg" viewBox="0 0 100 85.86">
  <defs>
    <style>
      .cls-1 {
        fill: #63bce7;
      }

      .cls-2 {
        fill: #6377e7;
      }

      .cls-3 {
        fill: #63e2e7;
      }

      .cls-4 {
        fill: #f8af23;
      }

      .cls-5 {
        fill: #f87023;
      }

      .cls-6 {
        fill: #f8d323;
      }

      .cls-7 {
        fill: #f46275;
      }

      .cls-8 {
        fill: #321f7a;
      }
    </style>
  </defs>
  <title>rafuguard_error</title>
  <g>
    <path class="cls-1" d="M92.57,92.58H7.43A6.78,6.78,0,0,1,.66,85.8v-71A6.78,6.78,0,0,1,7.43,8H92.57a6.78,6.78,0,0,1,6.77,6.78v71A6.78,6.78,0,0,1,92.57,92.58Z" transform="translate(0 -7.38)"/>
    <path class="cls-2" d="M5,85.8v-71A6.79,6.79,0,0,1,11.75,8H7.43A6.78,6.78,0,0,0,.66,14.82v71a6.78,6.78,0,0,0,6.77,6.78h4.32A6.79,6.79,0,0,1,5,85.8Z" transform="translate(0 -7.38)"/>
    <path class="cls-3" d="M95,85.8v-71A6.79,6.79,0,0,0,88.25,8h4.32a6.78,6.78,0,0,1,6.77,6.78v71a6.78,6.78,0,0,1-6.77,6.78H88.25A6.79,6.79,0,0,0,95,85.8Z" transform="translate(0 -7.38)"/>
    <path class="cls-4" d="M99.34,14.82A6.78,6.78,0,0,0,92.57,8H7.43A6.78,6.78,0,0,0,.66,14.82V26.6H99.34Z" transform="translate(0 -7.38)"/>
    <path class="cls-5" d="M5,14.82A6.79,6.79,0,0,1,11.75,8H7.43A6.78,6.78,0,0,0,.66,14.82V26.6H5Z" transform="translate(0 -7.38)"/>
    <path class="cls-6" d="M99.34,14.82A6.78,6.78,0,0,0,92.57,8H88.25A6.79,6.79,0,0,1,95,14.82V26.6h4.31Z" transform="translate(0 -7.38)"/>
    <g>
      <g>
        <g>
          <circle class="cls-7" cx="87.25" cy="9.94" r="3.09"/>
          <circle class="cls-7" cx="75.34" cy="9.94" r="3.09"/>
          <circle class="cls-7" cx="63.43" cy="9.94" r="3.09"/>
        </g>
        <path class="cls-7" d="M9.66,17.52h0A2.36,2.36,0,0,1,12,15.17H51.15a2.36,2.36,0,0,1,2.35,2.35h0a2.36,2.36,0,0,1-2.35,2.36H12A2.36,2.36,0,0,1,9.66,17.52Z" transform="translate(0 -7.38)"/>
      </g>
      <path class="cls-8" d="M83.49,17.32a3.76,3.76,0,1,0,3.76-3.75A3.77,3.77,0,0,0,83.49,17.32Zm1.33,0a2.43,2.43,0,1,1,2.43,2.43A2.43,2.43,0,0,1,84.82,17.32Z" transform="translate(0 -7.38)"/>
      <path class="cls-8" d="M71.58,17.32a3.76,3.76,0,1,0,3.76-3.75A3.77,3.77,0,0,0,71.58,17.32Zm1.33,0a2.43,2.43,0,1,1,2.43,2.43A2.43,2.43,0,0,1,72.91,17.32Z" transform="translate(0 -7.38)"/>
      <path class="cls-8" d="M59.67,17.32a3.76,3.76,0,1,0,3.76-3.75A3.76,3.76,0,0,0,59.67,17.32Zm1.33,0a2.43,2.43,0,1,1,2.43,2.43A2.43,2.43,0,0,1,61,17.32Z" transform="translate(0 -7.38)"/>
      <path class="cls-8" d="M9,17.52a3,3,0,0,0,3,3H51.15a3,3,0,0,0,0-6H12A3,3,0,0,0,9,17.52Zm1.32,0A1.69,1.69,0,0,1,12,15.83H51.15a1.7,1.7,0,0,1,0,3.39H12A1.7,1.7,0,0,1,10.32,17.52Z" transform="translate(0 -7.38)"/>
    </g>
    <path class="cls-8" d="M77.54,93.24h15A7.45,7.45,0,0,0,100,85.8v-71a7.45,7.45,0,0,0-7.43-7.44H7.43A7.45,7.45,0,0,0,0,14.82v71a7.45,7.45,0,0,0,7.43,7.44h15M1.33,14.82a6.11,6.11,0,0,1,6.1-6.11H92.57a6.11,6.11,0,0,1,6.1,6.11V25.94H1.33Z" transform="translate(0 -7.38)"/>
    <path class="cls-2" d="M5.64,85.83V27.48H1.33V85.83c0,3.07,3,5.56,6.77,5.56h4.31C8.67,91.39,5.64,88.9,5.64,85.83Z" transform="translate(0 -7.38)"/>
    <path class="cls-1" d="M92.24,91.39H11.4c-3.55,0-6.43-3.16-6.43-7V27.48h93.7V84.34C98.67,88.23,95.8,91.39,92.24,91.39Z" transform="translate(0 -7.38)"/>
    <path class="cls-1" d="M0,31.9" transform="translate(0 -7.38)"/>
    <path class="cls-3" d="M94.84,85.83V27.48h3.87V85.83a5.83,5.83,0,0,1-6.07,5.56H88.77A5.83,5.83,0,0,0,94.84,85.83Z" transform="translate(0 -7.38)"/>
  </g>
  <g>
    <path d="M30.33,65h-13V49.78h13v2H19.73a.75.75,0,0,0-.58.29,1.06,1.06,0,0,0-.25.71v2.65a1.06,1.06,0,0,0,.25.71.71.71,0,0,0,.58.31h9v2h-9a.73.73,0,0,0-.58.3,1.09,1.09,0,0,0-.25.72V62a1.15,1.15,0,0,0,.25.75.73.73,0,0,0,.58.32h10.6Z" transform="translate(0 -7.38)"/>
    <path d="M43.71,60.63H42.1v-2A2.46,2.46,0,0,0,41.54,57a1.71,1.71,0,0,0-1.34-.67H36.42a1.71,1.71,0,0,0-1.34.67,2.51,2.51,0,0,0-.56,1.66V65H32.91V54.33h1.61v.22a.3.3,0,0,0,.1.25.18.18,0,0,0,.22,0,2.94,2.94,0,0,1,1.58-.47H40.2a3.1,3.1,0,0,1,2.47,1.24,4.62,4.62,0,0,1,1,3Z" transform="translate(0 -7.38)"/>
    <path d="M57.1,60.63H55.5v-2A2.52,2.52,0,0,0,54.94,57a1.74,1.74,0,0,0-1.35-.67H49.82a1.73,1.73,0,0,0-1.35.67,2.56,2.56,0,0,0-.56,1.66V65h-1.6V54.33h1.6v.22a.31.31,0,0,0,.11.25.17.17,0,0,0,.21,0,3,3,0,0,1,1.59-.47h3.77a3.13,3.13,0,0,1,2.48,1.24,4.62,4.62,0,0,1,1,3Z" transform="translate(0 -7.38)"/>
    <path d="M70.49,60.7a4.65,4.65,0,0,1-1,3A3.1,3.1,0,0,1,67,65H63.21a3.12,3.12,0,0,1-2.48-1.26,4.65,4.65,0,0,1-1-3V58.61a4.58,4.58,0,0,1,1-3,3.11,3.11,0,0,1,2.48-1.25H67a3.09,3.09,0,0,1,2.47,1.25,4.58,4.58,0,0,1,1,3Zm-1.6,0V58.61A2.52,2.52,0,0,0,68.33,57,1.69,1.69,0,0,0,67,56.28H63.21a1.72,1.72,0,0,0-1.35.68,2.52,2.52,0,0,0-.56,1.65V60.7a2.57,2.57,0,0,0,.56,1.67,1.7,1.7,0,0,0,1.35.69H67a1.67,1.67,0,0,0,1.34-.69A2.57,2.57,0,0,0,68.89,60.7Z" transform="translate(0 -7.38)"/>
    <path d="M83.89,60.63H82.28v-2A2.46,2.46,0,0,0,81.72,57a1.71,1.71,0,0,0-1.34-.67H76.6a1.71,1.71,0,0,0-1.34.67,2.51,2.51,0,0,0-.56,1.66V65H73.09V54.33H74.7v.22a.3.3,0,0,0,.1.25.18.18,0,0,0,.22,0,2.94,2.94,0,0,1,1.58-.47h3.78a3.11,3.11,0,0,1,2.47,1.24,4.62,4.62,0,0,1,1,3Z" transform="translate(0 -7.38)"/>
  </g>
</svg>
