<svg id="Layer_1" data-name="Layer 1" xmlns="http://www.w3.org/2000/svg" viewBox="0 0 99.3 75">
  <defs>
    <style>
      .cls-1 {
        fill: #63bce7;
      }

      .cls-2 {
        fill: #f8af23;
      }

      .cls-3 {
        fill: #f87023;
      }

      .cls-4 {
        fill: #f8d323;
      }

      .cls-5 {
        fill: #9e9e9e;
      }

      .cls-6 {
        fill: #707070;
      }

      .cls-7 {
        fill: #cecece;
      }

      .cls-8 {
        fill: #f46275;
      }

      .cls-9 {
        fill: #321f7a;
      }

      .cls-10 {
        fill: #fff;
      }
    </style>
  </defs>
  <title>rafuguard_scan</title>
  <g>
    <g>
      <path class="cls-1" d="M10.73,75.71a5.62,5.62,0,0,1-5.62-5.62V19.23a5.62,5.62,0,0,1,5.62-5.61H89.59a5.62,5.62,0,0,1,5.62,5.61V70.09a5.62,5.62,0,0,1-5.62,5.62Z" transform="translate(-0.51 -13)"/>
      <path class="cls-2" d="M91.75,17.07v53a2.17,2.17,0,0,1-2.17,2.17H10.74a2.17,2.17,0,0,1-2.17-2.17v-53Z" transform="translate(-0.51 -13)"/>
      <path class="cls-3" d="M12.58,70.08v-53h-4v53a2.17,2.17,0,0,0,2.17,2.17h4A2.17,2.17,0,0,1,12.58,70.08Z" transform="translate(-0.51 -13)"/>
      <path class="cls-4" d="M87.74,70.08v-53h4v53a2.17,2.17,0,0,1-2.17,2.17h-4A2.17,2.17,0,0,0,87.74,70.08Z" transform="translate(-0.51 -13)"/>
      <path class="cls-5" d="M50.16,75.71h-49l1.25,2.88a7.12,7.12,0,0,0,6.53,4.28h82.5a7.11,7.11,0,0,0,6.53-4.28l1.26-2.88Z" transform="translate(-0.51 -13)"/>
      <path class="cls-6" d="M6.39,78.59,5.14,75.71h-4l1.25,2.88a7.12,7.12,0,0,0,6.53,4.28h4A7.12,7.12,0,0,1,6.39,78.59Z" transform="translate(-0.51 -13)"/>
      <path class="cls-7" d="M93.93,78.59l1.26-2.88h4l-1.26,2.88a7.11,7.11,0,0,1-6.53,4.28h-4A7.11,7.11,0,0,0,93.93,78.59Z" transform="translate(-0.51 -13)"/>
      <path class="cls-8" d="M31.44,75.71l1.74,2.21A3.54,3.54,0,0,0,36,79.29H64.33a3.57,3.57,0,0,0,2.82-1.37l1.73-2.21Z" transform="translate(-0.51 -13)"/>
    </g>
    <g>
      <path class="cls-9" d="M92.37,70.09v-53a.61.61,0,0,0-.62-.61H8.57a.61.61,0,0,0-.62.61v53a2.79,2.79,0,0,0,2.78,2.78H89.59A2.79,2.79,0,0,0,92.37,70.09Zm-83.18,0V17.69h82v52.4a1.55,1.55,0,0,1-1.55,1.54H10.73A1.54,1.54,0,0,1,9.19,70.09Z" transform="translate(-0.51 -13)"/>
      <path class="cls-9" d="M98.51,78.84,99.76,76a.62.62,0,0,0-.56-.86H93.3a6.23,6.23,0,0,0,2.53-5V19.23A6.25,6.25,0,0,0,89.59,13H10.73A6.24,6.24,0,0,0,4.5,19.23V70.09a6.24,6.24,0,0,0,2.52,5H1.13a.62.62,0,0,0-.52.28.63.63,0,0,0,0,.58l1.26,2.89a7.72,7.72,0,0,0,2.91,3.42H1.4a.61.61,0,0,0-.62.61.62.62,0,0,0,.62.62H98.93a.61.61,0,0,0,.61-.62.61.61,0,0,0-.61-.61H95.6A7.79,7.79,0,0,0,98.51,78.84ZM5.73,70.09V19.23a5,5,0,0,1,5-5H89.59a5,5,0,0,1,5,5V70.09a5,5,0,0,1-5,5H10.73A5,5,0,0,1,5.73,70.09Zm61.89,6.23-1,1.22a2.93,2.93,0,0,1-2.33,1.13H36a3,3,0,0,1-2.33-1.13l-.95-1.22Zm23.79,5.94H8.91a6.53,6.53,0,0,1-5-2.35h12a.62.62,0,1,0,0-1.24H3.1L3,78.35l-.88-2H31.14l1.55,2A4.17,4.17,0,0,0,36,79.91H64.33a4.17,4.17,0,0,0,3.3-1.61l1.55-2H98.26l-.88,2c0,.11-.11.22-.16.32H84.44a.62.62,0,1,0,0,1.24h12A6.49,6.49,0,0,1,91.41,82.26Z" transform="translate(-0.51 -13)"/>
      <path class="cls-9" d="M24.37,78.67H20.1a.62.62,0,0,0,0,1.24h4.27a.62.62,0,0,0,0-1.24Z" transform="translate(-0.51 -13)"/>
      <path class="cls-9" d="M80.22,78.67H76a.62.62,0,0,0,0,1.24h4.26a.62.62,0,0,0,0-1.24Z" transform="translate(-0.51 -13)"/>
      <path class="cls-9" d="M8.79,86.77H1.4a.61.61,0,0,0-.62.61A.62.62,0,0,0,1.4,88H8.79a.62.62,0,0,0,.62-.62A.61.61,0,0,0,8.79,86.77Z" transform="translate(-0.51 -13)"/>
      <path class="cls-9" d="M98.93,86.77h-7.4a.61.61,0,0,0-.62.61.62.62,0,0,0,.62.62h7.4a.61.61,0,0,0,.61-.62A.61.61,0,0,0,98.93,86.77Z" transform="translate(-0.51 -13)"/>
      <path class="cls-9" d="M87.34,86.77H13a.61.61,0,0,0-.61.61A.61.61,0,0,0,13,88H87.34a.62.62,0,0,0,.62-.62A.61.61,0,0,0,87.34,86.77Z" transform="translate(-0.51 -13)"/>
    </g>
  </g>
  <path class="cls-9" d="M36.18,32.09a19,19,0,1,0,26.92,0A19.07,19.07,0,0,0,36.18,32.09Z" transform="translate(-0.51 -13)"/>
  <path class="cls-9" d="M85.84,74a5.47,5.47,0,0,1,0,7.71h0a5.46,5.46,0,0,1-7.72,0L63.46,67.08a5.45,5.45,0,0,1,0-7.71h0a5.45,5.45,0,0,1,7.71,0Z" transform="translate(-0.51 -13)"/>
  <path class="cls-5" d="M85.07,73.79c5.11,4.52-1.43,12.87-7.19,7.18L64.23,67.32c-4.77-3.93.93-12.76,7.18-7.18Z" transform="translate(-0.51 -13)"/>
  <circle class="cls-8" cx="49.13" cy="32.55" r="18.45"/>
  <circle class="cls-2" cx="49.13" cy="32.55" r="11.26"/>
  <path class="cls-9" d="M41.25,37.15a11.87,11.87,0,1,0,16.79,0A11.88,11.88,0,0,0,41.25,37.15Z" transform="translate(-0.51 -13)"/>
  <path class="cls-9" d="M65.94,74.85" transform="translate(-0.51 -13)"/>
  <rect class="cls-9" x="62.9" y="58.93" width="0.82" height="0.72" transform="translate(-23.89 49.13) rotate(-45)"/>
  <g>
    <path class="cls-10" d="M47.73,41.59h-3a1.05,1.05,0,0,0-.76.32,1,1,0,0,0-.32.76v5.72a1.08,1.08,0,0,0,1.08,1.09h3a1.09,1.09,0,0,0,1.09-1.09V42.67a1.09,1.09,0,0,0-1.08-1.08ZM45,48.2V42.88h2.59V48.2Z" transform="translate(-0.51 -13)"/>
    <path class="cls-10" d="M55.2,45.72a.61.61,0,0,0-.46.2.62.62,0,0,0-.19.45V48.2h-.62V41.6H51.36a.62.62,0,0,0-.46.19.61.61,0,0,0-.18.45.62.62,0,0,0,.64.64h1.28v5.31h-1.3a.66.66,0,0,0-.46.19.62.62,0,0,0-.19.45.64.64,0,0,0,.19.45.61.61,0,0,0,.46.2h3.85a.6.6,0,0,0,.46-.19.62.62,0,0,0,.19-.45V46.37a.66.66,0,0,0-.19-.46A.64.64,0,0,0,55.2,45.72Z" transform="translate(-0.51 -13)"/>
  </g>
</svg>
