<svg id="Layer_1" data-name="Layer 1" xmlns="http://www.w3.org/2000/svg" viewBox="0 0 100 75.53">
  <defs>
    <style>
      .cls-1 {
        fill: #63bce7;
      }

      .cls-2 {
        fill: #f8af23;
      }

      .cls-3 {
        fill: #f87023;
      }

      .cls-4 {
        fill: #f8d323;
      }

      .cls-5 {
        fill: #9e9e9e;
      }

      .cls-6 {
        fill: #707070;
      }

      .cls-7 {
        fill: #cecece;
      }

      .cls-8 {
        fill: #f46275;
      }

      .cls-9 {
        fill: #321f7a;
      }
    </style>
  </defs>
  <title>rafuguard_setting</title>
  <g>
    <g>
      <path class="cls-1" d="M10.29,75.34a5.66,5.66,0,0,1-5.65-5.66V18.47a5.66,5.66,0,0,1,5.65-5.66H89.71a5.66,5.66,0,0,1,5.65,5.66V69.68a5.66,5.66,0,0,1-5.65,5.66Z" transform="translate(0 -12.19)"/>
      <path class="cls-2" d="M91.88,16.29V69.67a2.18,2.18,0,0,1-2.18,2.19H10.3a2.18,2.18,0,0,1-2.18-2.19V16.29Z" transform="translate(0 -12.19)"/>
      <path class="cls-3" d="M12.15,69.67V16.29h-4V69.67a2.19,2.19,0,0,0,2.19,2.19h4A2.19,2.19,0,0,1,12.15,69.67Z" transform="translate(0 -12.19)"/>
      <path class="cls-4" d="M87.85,69.67V16.29h4V69.67a2.19,2.19,0,0,1-2.19,2.19h-4A2.19,2.19,0,0,0,87.85,69.67Z" transform="translate(0 -12.19)"/>
      <path class="cls-5" d="M50,75.34H.62l1.26,2.91a7.19,7.19,0,0,0,6.58,4.31H91.54a7.19,7.19,0,0,0,6.58-4.31l1.26-2.91Z" transform="translate(0 -12.19)"/>
      <path class="cls-6" d="M5.92,78.25,4.66,75.34h-4l1.26,2.91a7.19,7.19,0,0,0,6.58,4.31h4A7.18,7.18,0,0,1,5.92,78.25Z" transform="translate(0 -12.19)"/>
      <path class="cls-7" d="M94.08,78.25l1.26-2.91h4l-1.26,2.91a7.19,7.19,0,0,1-6.58,4.31h-4A7.18,7.18,0,0,0,94.08,78.25Z" transform="translate(0 -12.19)"/>
      <path class="cls-8" d="M31.15,75.34l1.74,2.23A3.62,3.62,0,0,0,35.73,79H64.27a3.62,3.62,0,0,0,2.84-1.38l1.74-2.23Z" transform="translate(0 -12.19)"/>
    </g>
    <g>
      <path class="cls-9" d="M92.51,69.68V16.29a.63.63,0,0,0-.63-.62H8.12a.63.63,0,0,0-.63.62V69.68a2.8,2.8,0,0,0,2.8,2.8H89.71A2.8,2.8,0,0,0,92.51,69.68Zm-83.77,0V16.91H91.26V69.68a1.55,1.55,0,0,1-1.55,1.56H10.29A1.55,1.55,0,0,1,8.74,69.68Z" transform="translate(0 -12.19)"/>
      <path class="cls-9" d="M98.69,78.49l1.26-2.9a.64.64,0,0,0,0-.59.62.62,0,0,0-.52-.28H93.44a6.28,6.28,0,0,0,2.55-5V18.47a6.29,6.29,0,0,0-6.28-6.28H10.29A6.29,6.29,0,0,0,4,18.47V69.68a6.28,6.28,0,0,0,2.55,5H.62A.62.62,0,0,0,.1,75a.64.64,0,0,0,0,.59l1.26,2.9a7.86,7.86,0,0,0,2.93,3.45H.89a.62.62,0,0,0,0,1.24H99.11a.62.62,0,1,0,0-1.24H95.76A7.79,7.79,0,0,0,98.69,78.49ZM5.26,69.68V18.47a5,5,0,0,1,5-5H89.71a5,5,0,0,1,5,5V69.68a5,5,0,0,1-5,5H10.29A5,5,0,0,1,5.26,69.68ZM67.58,76l-1,1.23a3,3,0,0,1-2.35,1.14H35.73a3,3,0,0,1-2.35-1.14l-1-1.23Zm24,6H8.46a6.55,6.55,0,0,1-5-2.37H15.48a.62.62,0,0,0,0-1.24H2.61L2.45,78l-.88-2H30.85l1.56,2a4.17,4.17,0,0,0,3.32,1.62H64.27A4.17,4.17,0,0,0,67.59,78l1.56-2H98.43l-.88,2-.16.33H84.52a.62.62,0,0,0,0,1.24H96.58A6.55,6.55,0,0,1,91.54,81.94Z" transform="translate(0 -12.19)"/>
      <path class="cls-9" d="M24,78.33H19.73a.62.62,0,0,0,0,1.24H24a.62.62,0,0,0,0-1.24Z" transform="translate(0 -12.19)"/>
      <path class="cls-9" d="M80.27,78.33H76a.62.62,0,1,0,0,1.24h4.29a.62.62,0,0,0,0-1.24Z" transform="translate(0 -12.19)"/>
      <path class="cls-9" d="M8.34,86.48H.89a.62.62,0,0,0,0,1.24H8.34a.62.62,0,0,0,0-1.24Z" transform="translate(0 -12.19)"/>
      <path class="cls-9" d="M99.11,86.48H91.66a.62.62,0,0,0,0,1.24h7.45a.62.62,0,0,0,0-1.24Z" transform="translate(0 -12.19)"/>
      <path class="cls-9" d="M87.44,86.48H12.56a.62.62,0,1,0,0,1.24H87.44a.62.62,0,0,0,0-1.24Z" transform="translate(0 -12.19)"/>
    </g>
  </g>
  <circle class="cls-2" cx="49.47" cy="32.78" r="11.33"/>
  <path class="cls-9" d="M65.89,74.47" transform="translate(0 -12.19)"/>
  <g>
    <g>
      <path class="cls-5" d="M34.62,50.09c.16.45.34.88.54,1.31l-4,4,7.92,7.93,4-4q.64.3,1.32.54v5.7H55.6v-5.7c.45-.16.88-.34,1.31-.54l4,4,7.93-7.93-4-4c.2-.43.38-.86.54-1.31h5.7V38.88h-5.7c-.16-.44-.34-.88-.54-1.31l4-4-7.93-7.92-4,4c-.43-.2-.86-.38-1.31-.55V23.41H44.4V29.1c-.45.17-.89.35-1.32.55l-4-4-7.92,7.92,4,4c-.2.43-.38.87-.54,1.31h-5.7V50.09Z" transform="translate(0 -12.19)"/>
      <circle class="cls-2" cx="50" cy="32.3" r="10.17"/>
      <path class="cls-6" d="M52.88,47.65l-1.07-4.41h0a2.45,2.45,0,0,0,.69-1.72,2.5,2.5,0,0,0-5,0,2.45,2.45,0,0,0,.69,1.72l-1.07,4.41A1.88,1.88,0,0,0,48.94,50h2.12A1.88,1.88,0,0,0,52.88,47.65Z" transform="translate(0 -12.19)"/>
    </g>
    <g>
      <path class="cls-9" d="M71.08,38.31h-5.3c-.08-.2-.16-.41-.25-.61L69.28,34a.61.61,0,0,0,.17-.41.63.63,0,0,0-.17-.41l-7.93-7.92a.58.58,0,0,0-.81,0L56.79,29l-.61-.25v-5.3a.58.58,0,0,0-.58-.58H44.4a.58.58,0,0,0-.58.58v5.3c-.2.07-.4.16-.61.25l-3.75-3.75a.57.57,0,0,0-.41-.17h0a.54.54,0,0,0-.4.17l-7.93,7.92a.59.59,0,0,0,0,.82l3.75,3.75c-.09.2-.17.41-.25.61h-5.3a.58.58,0,0,0-.58.57V50.09a.58.58,0,0,0,.58.58h5.3c.07.2.16.4.25.61L30.72,55a.59.59,0,0,0,0,.82l7.93,7.92a.56.56,0,0,0,.81,0L43.21,60l.61.25v5.3a.58.58,0,0,0,.58.58H55.6a.58.58,0,0,0,.58-.58v-5.3l.61-.25,3.75,3.74a.56.56,0,0,0,.81,0l7.93-7.92a.61.61,0,0,0,0-.82l-3.75-3.75c.09-.2.17-.4.25-.6h5.3a.58.58,0,0,0,.58-.58V38.88A.58.58,0,0,0,71.08,38.31Zm-.57,11.2H65.38a.58.58,0,0,0-.54.39c-.15.4-.32.81-.52,1.26a.56.56,0,0,0,.11.65l3.62,3.62-7.11,7.11-3.62-3.62a.58.58,0,0,0-.65-.12,13.69,13.69,0,0,1-1.27.53.59.59,0,0,0-.38.54V65H45V59.87a.57.57,0,0,0-.38-.54c-.41-.15-.84-.33-1.26-.53a.58.58,0,0,0-.65.12l-3.63,3.62-7.11-7.11,3.63-3.62a.58.58,0,0,0,.11-.65,13.56,13.56,0,0,1-.52-1.26.58.58,0,0,0-.54-.39H29.49v-10h5.13a.58.58,0,0,0,.54-.38c.15-.41.32-.84.52-1.26a.58.58,0,0,0-.11-.65l-3.63-3.63,7.11-7.11,3.63,3.63a.56.56,0,0,0,.65.11c.46-.21.87-.38,1.26-.52A.58.58,0,0,0,45,29.1V24H55V29.1a.6.6,0,0,0,.38.55c.4.14.81.31,1.27.52a.56.56,0,0,0,.65-.11l3.62-3.63,7.11,7.11-3.62,3.63a.58.58,0,0,0-.12.65c.2.42.38.85.53,1.26a.57.57,0,0,0,.54.38h5.13v10Z" transform="translate(0 -12.19)"/>
      <path class="cls-9" d="M54.65,34.81a4.65,4.65,0,0,0-9.3,0,10.74,10.74,0,1,0,9.3,0ZM50,31.45a3.52,3.52,0,0,1,3.45,2.87,10.73,10.73,0,0,0-6.9,0A3.53,3.53,0,0,1,50,31.45Zm0,22.63a9.59,9.59,0,1,1,9.59-9.59A9.6,9.6,0,0,1,50,54.08Z" transform="translate(0 -12.19)"/>
      <path class="cls-9" d="M53.44,47.51l-1-4.12a3,3,0,0,0,.64-1.87,3.08,3.08,0,1,0-5.52,1.87l-1,4.12a2.45,2.45,0,0,0,2.38,3h2.12a2.45,2.45,0,0,0,2.38-3Zm-1.36,1.38a1.3,1.3,0,0,1-1,.49H48.94a1.3,1.3,0,0,1-1-.49,1.34,1.34,0,0,1-.24-1.11l1.07-4.4a.57.57,0,0,0-.14-.53,1.88,1.88,0,0,1-.53-1.33,1.92,1.92,0,1,1,3.31,1.33.57.57,0,0,0-.14.53l1.07,4.4A1.34,1.34,0,0,1,52.08,48.89Z" transform="translate(0 -12.19)"/>
    </g>
  </g>
</svg>
