<?xml version="1.0" encoding="utf-8"?>
<!-- Generator: Adobe Illustrator 21.0.0, SVG Export Plug-In . SVG Version: 6.00 Build 0)  -->
<svg version="1.1" id="Layer_1" xmlns="http://www.w3.org/2000/svg" xmlns:xlink="http://www.w3.org/1999/xlink" x="0px" y="0px"
	 viewBox="0 0 256 256" style="enable-background:new 0 0 256 256;" xml:space="preserve">
<style type="text/css">
	.st0{fill:#F8AF23;}
	.st1{fill:#F87023;}
	.st2{fill:#8C8C8C;}
	.st3{fill:#63BCE7;}
	.st4{fill:#63E2E7;}
	.st5{fill:#6377E7;}
	.st6{fill:#000B75;}
	.st7{fill:#4C4C4C;}
	.st8{fill:#321F7A;}
	.st9{fill:#F8D323;}
	.st10{fill:#F46275;}
	.st11{fill:#9E9E9E;}
	.st12{fill:#F43075;}
	.st13{fill:#707070;}
	.st14{fill:#CECECE;}
	.st15{fill:#67BEEB;}
</style>
<g>
	<g>
		<path class="st3" d="M32.035,218.072c-7.535,0-13.665-6.13-13.665-13.665V80.63c0-7.535,6.13-13.665,13.665-13.665h191.931
			c7.535,0,13.665,6.13,13.665,13.665v123.776c0,7.535-6.13,13.665-13.665,13.665H32.035z"/>
		<path class="st0" d="M229.221,75.375v129.008c0,2.916-2.364,5.28-5.28,5.28H32.059c-2.916,0-5.28-2.364-5.28-5.28V75.375H229.221z
			"/>
		<path class="st1" d="M36.538,204.383V75.375h-9.76v129.008c0,2.916,2.364,5.28,5.28,5.28h9.76
			C38.903,209.663,36.538,207.299,36.538,204.383z"/>
		<path class="st9" d="M219.462,204.383V75.375h9.76v129.008c0,2.916-2.364,5.28-5.28,5.28h-9.76
			C217.098,209.663,219.462,207.299,219.462,204.383z"/>
		<path class="st11" d="M128,218.072H8.667l3.053,7.024c2.751,6.329,8.995,10.423,15.896,10.423H128h100.385
			c6.901,0,13.145-4.094,15.896-10.423l3.053-7.024H128z"/>
		<path class="st13" d="M21.479,225.095l-3.053-7.024h-9.76l3.053,7.024c2.751,6.329,8.995,10.423,15.896,10.423h9.76
			C30.474,235.519,24.23,231.424,21.479,225.095z"/>
		<path class="st14" d="M234.521,225.095l3.053-7.024h9.76l-3.053,7.024c-2.751,6.329-8.995,10.423-15.896,10.423h-9.76
			C225.526,235.519,231.77,231.424,234.521,225.095z"/>
		<path class="st10" d="M82.442,218.072l4.22,5.388c1.649,2.106,4.175,3.336,6.85,3.336h68.975c2.675,0,5.201-1.23,6.85-3.336
			l4.221-5.388H82.442z"/>
	</g>
	<path class="st3" d="M198.74,187.116H57.26c-7.975,0-14.5-6.525-14.5-14.5v0c0-7.975,6.525-14.5,14.5-14.5h141.48
		c7.975,0,14.5,6.525,14.5,14.5v0C213.24,180.591,206.715,187.116,198.74,187.116z"/>
	<path class="st11" d="M151.085,43.371c-6.75-4.12-14.665-6.499-23.109-6.499h0c-8.444,0-16.359,2.379-23.109,6.499
		C92.01,51.219,83.381,65.384,83.381,81.467v25.776c0,16.083,8.629,30.248,21.486,38.096c6.75,4.12,14.665,6.499,23.109,6.499h0
		c8.444,0,16.359-2.379,23.109-6.499c12.857-7.848,21.486-22.013,21.486-38.096V81.467
		C172.571,65.384,163.942,51.219,151.085,43.371z"/>
	<rect x="83.381" y="83.507" class="st0" width="89.19" height="23.087"/>
	<g>
		<circle class="st8" cx="107.842" cy="99.191" r="4.141"/>
		<circle class="st8" cx="148.11" cy="99.191" r="4.141"/>
	</g>
	<path class="st3" d="M205.201,51.62C210.56,63.314,176.893,88.742,128,88.675C79.107,88.742,45.44,63.314,50.799,51.62
		C55.89,39.463,89.765,41.9,128,41.513C166.233,41.9,200.109,39.463,205.201,51.62z"/>
	<g>
		<path class="st5" d="M60.559,51.62c3.745-8.944,23.077-9.988,48.256-10.07c-29.831-0.058-53.799,0-58.015,10.07
			C45.44,63.314,79.107,88.742,128,88.675c1.645,0.002,3.271-0.027,4.88-0.081C86.647,87.045,55.38,62.92,60.559,51.62z"/>
	</g>
	<path class="st3" d="M160.718,9.541c0,0-24.482,3.858-32.718,3.858S95.282,9.541,95.282,9.541
		c-2.725-0.321-5.121,1.808-5.121,4.552v37.171c0,4.354,16.941,7.883,37.839,7.883s37.839-3.53,37.839-7.883V14.093
		C165.839,11.348,163.444,9.219,160.718,9.541z"/>
	<g>
		<path class="st5" d="M99.921,51.263V14.093c0-1.469,0.69-2.756,1.745-3.591c-3.783-0.552-6.384-0.961-6.384-0.961
			c-2.725-0.321-5.121,1.808-5.121,4.552v37.171c0,4.354,16.941,7.884,37.839,7.884c1.655,0,3.281-0.025,4.88-0.068
			C114.289,58.58,99.921,55.272,99.921,51.263z"/>
	</g>
	<g>
		<path class="st11" d="M202.838,154.896l-19.725,31.631c-1.495,2.397,0.229,5.504,3.054,5.504h19.725h19.725
			c2.825,0,4.549-3.106,3.054-5.504l-19.725-31.631C207.536,152.636,204.247,152.636,202.838,154.896z"/>
		<g>
			<path class="st8" d="M245.656,225.693l3.053-7.023c0.201-0.464,0.155-0.998-0.122-1.421c-0.276-0.422-0.748-0.677-1.254-0.677
				h-14.352c3.722-2.766,6.148-7.182,6.148-12.165V80.63c0-8.362-6.803-15.165-15.164-15.165h-22.398
				c1.283-1.366,2.383-2.742,3.265-4.114c2.474-3.849,3.072-7.43,1.752-10.311c-2.54-6.063-10.238-10.236-39.246-10.874V14.093
				c0-1.736-0.744-3.393-2.042-4.546c-1.298-1.154-3.029-1.7-4.755-1.496c-0.02,0.002-0.038,0.005-0.058,0.008
				c-0.244,0.039-24.459,3.84-32.484,3.84S95.76,8.097,95.458,8.051C93.731,7.847,92,8.392,90.703,9.546
				c-1.298,1.153-2.042,2.811-2.042,4.546v26.072c-21.05,0.449-35.748,2.522-39.226,10.831c-1.341,2.926-0.742,6.507,1.731,10.356
				c0.882,1.373,1.982,2.748,3.266,4.114H32.034c-8.361,0-15.164,6.803-15.164,15.165v123.776c0,4.983,2.427,9.399,6.148,12.165
				H8.667c-0.506,0-0.978,0.255-1.254,0.677c-0.277,0.423-0.323,0.957-0.122,1.421l3.053,7.023c1.517,3.491,4.013,6.351,7.081,8.325
				H9.32c-0.828,0-1.5,0.671-1.5,1.5s0.672,1.5,1.5,1.5h18.295h200.77h18.295c0.828,0,1.5-0.671,1.5-1.5s-0.672-1.5-1.5-1.5h-8.104
				C241.643,232.044,244.139,229.184,245.656,225.693z M91.661,36.898c7.173,4.205,25.557,5.439,36.339,5.439
				s29.166-1.234,36.339-5.439v14.366c0,2.167-12.826,6.383-36.339,6.383s-36.339-4.217-36.339-6.383V36.898z M91.661,14.093
				c0-0.893,0.367-1.711,1.035-2.304c0.578-0.515,1.299-0.786,2.021-0.786c0.111,0,0.222,0.006,0.332,0.02
				c1.004,0.158,24.692,3.876,32.951,3.876c8.187,0,31.531-3.653,32.92-3.871c0.874-0.095,1.723,0.173,2.384,0.761
				c0.668,0.593,1.035,1.412,1.035,2.304v18.861c0,2.167-12.826,6.383-36.339,6.383s-36.339-4.217-36.339-6.383V14.093z
				 M52.183,52.2c3.037-7.253,19.21-8.67,36.479-9.036v8.1c0,7.422,25.732,9.383,39.339,9.383s39.339-1.961,39.339-9.383v-8.1
				c17.286,0.367,33.445,1.794,36.499,9.082c1.129,2.463-0.209,5.43-1.529,7.484c-7.333,11.41-35.16,27.447-74.115,27.446
				c-0.131,0-0.259,0-0.39,0c-38.947,0-66.78-16.037-74.112-27.446C52.37,57.675,51.033,54.709,52.183,52.2z M185.938,76.875h41.783
				V182.17l-17.503-28.068c-0.938-1.503-2.555-2.401-4.326-2.401c-0.001,0-0.001,0-0.001,0c-1.771,0-3.389,0.898-4.325,2.401
				l-1.606,2.576c-0.405-0.031-0.812-0.062-1.219-0.062H57.26c-8.822,0-16,7.178-16,16s7.178,16,16,16h123.812
				c0.03,0.783,0.234,1.565,0.636,2.29c0.912,1.644,2.579,2.625,4.459,2.625h39.449c0.748,0,1.458-0.161,2.104-0.451v11.328
				c0,2.071-1.685,3.756-3.755,3.756H32.034c-2.07,0-3.755-1.685-3.755-3.756V76.875h41.892c2.513,1.333,5.185,2.606,8.008,3.791
				c1.148,0.482,2.391,0.974,3.701,1.468v1.373v23.087v0.649c0,15.928,8.509,31.016,22.205,39.376
				c7.201,4.396,15.462,6.719,23.89,6.719c8.429,0,16.689-2.323,23.891-6.719c13.696-8.36,22.205-23.448,22.205-39.376v-0.649
				V83.507v-1.355c1.328-0.5,2.586-0.999,3.748-1.486c2.83-1.188,5.509-2.464,8.027-3.801
				C185.877,76.867,185.906,76.875,185.938,76.875z M181.914,185.616H57.26c-7.168,0-13-5.832-13-13s5.832-13,13-13h140.867
				L181.914,185.616z M184.386,187.321l19.725-31.631c0,0,0.001,0,0.001,0c0.391-0.628,1.04-0.988,1.779-0.988
				c0.74,0,1.39,0.36,1.782,0.989l19.725,31.631c0.409,0.656,0.43,1.452,0.054,2.129c-0.375,0.677-1.062,1.081-1.835,1.081h-39.449
				c-0.773,0-1.46-0.404-1.835-1.081C183.956,188.773,183.977,187.977,184.386,187.321z M127.976,125.001c0.828,0,1.5-0.671,1.5-1.5
				v-15.408h41.567c-0.297,14.573-8.175,28.295-20.739,35.965c-6.73,4.108-14.451,6.279-22.328,6.279
				c-7.876,0-15.597-2.171-22.327-6.279c-12.565-7.669-20.442-21.391-20.739-35.965h41.566v15.408
				C126.476,124.33,127.147,125.001,127.976,125.001z M165.516,84.994c0.043,0.004,0.085,0.013,0.13,0.013h5.426v20.087h-86.19
				V85.007h5.65c9.778,2.841,22.33,5.168,37.27,5.168c0.132,0,0.264,0,0.396,0C143.161,90.175,155.73,87.841,165.516,84.994z
				 M19.87,204.407V80.63c0-6.708,5.457-12.165,12.164-12.165h25.548c2.145,1.854,4.618,3.669,7.384,5.409H26.779
				c-0.828,0-1.5,0.671-1.5,1.5v129.032c0,3.725,3.03,6.756,6.755,6.756h191.932c3.725,0,6.755-3.031,6.755-6.756V188.38
				c0-0.038,0.001-0.076,0-0.115V75.375c0-0.829-0.672-1.5-1.5-1.5h-38.186c2.766-1.74,5.239-3.555,7.384-5.409h25.547
				c6.707,0,12.164,5.457,12.164,12.165v123.776c0,6.708-5.457,12.165-12.164,12.165h-50.408H82.442H32.034
				C25.327,216.572,19.87,211.115,19.87,204.407z M170.478,219.572l-2.32,2.963c-1.375,1.754-3.441,2.761-5.67,2.761H93.513
				c-2.229,0-4.295-1.006-5.67-2.761l-2.32-2.963H170.478z M228.385,234.019H27.615c-4.787,0-9.22-2.156-12.179-5.723h29.14
				c0.828,0,1.5-0.671,1.5-1.5s-0.672-1.5-1.5-1.5H13.478c-0.132-0.263-0.264-0.526-0.383-0.798l-2.142-4.925h21.08h49.678
				l3.769,4.812c1.947,2.486,4.874,3.911,8.031,3.911h68.975c3.157,0,6.084-1.425,8.031-3.911l3.769-4.812h49.678h21.08
				l-2.142,4.925c-0.118,0.272-0.25,0.535-0.383,0.798h-31.098c-0.828,0-1.5,0.671-1.5,1.5s0.672,1.5,1.5,1.5h29.14
				C237.604,231.862,233.171,234.019,228.385,234.019z"/>
			<path class="st8" d="M65.22,225.295H54.845c-0.828,0-1.5,0.671-1.5,1.5s0.672,1.5,1.5,1.5H65.22c0.828,0,1.5-0.671,1.5-1.5
				S66.048,225.295,65.22,225.295z"/>
			<path class="st8" d="M201.155,225.295H190.78c-0.828,0-1.5,0.671-1.5,1.5s0.672,1.5,1.5,1.5h10.375c0.828,0,1.5-0.671,1.5-1.5
				S201.983,225.295,201.155,225.295z"/>
			<path class="st8" d="M27.323,244.992H9.32c-0.828,0-1.5,0.671-1.5,1.5s0.672,1.5,1.5,1.5h18.003c0.828,0,1.5-0.671,1.5-1.5
				S28.151,244.992,27.323,244.992z"/>
			<path class="st8" d="M246.68,244.992h-18.003c-0.828,0-1.5,0.671-1.5,1.5s0.672,1.5,1.5,1.5h18.003c0.828,0,1.5-0.671,1.5-1.5
				S247.508,244.992,246.68,244.992z"/>
			<path class="st8" d="M218.479,244.992H37.521c-0.828,0-1.5,0.671-1.5,1.5s0.672,1.5,1.5,1.5h180.959c0.828,0,1.5-0.671,1.5-1.5
				S219.308,244.992,218.479,244.992z"/>
			<path class="st8" d="M78.379,165.873c-0.617-0.554-1.564-0.501-2.118,0.115l-3.927,4.38l-3.927-4.38
				c-0.554-0.616-1.501-0.669-2.118-0.115c-0.617,0.553-0.669,1.501-0.116,2.118l4.147,4.625l-4.147,4.625
				c-0.553,0.617-0.501,1.565,0.116,2.118c0.286,0.257,0.644,0.383,1,0.383c0.412,0,0.821-0.168,1.118-0.499l3.927-4.38l3.927,4.38
				c0.297,0.33,0.706,0.499,1.118,0.499c0.356,0,0.714-0.126,1-0.383c0.617-0.553,0.669-1.501,0.116-2.118l-4.147-4.625l4.147-4.625
				C79.048,167.374,78.996,166.425,78.379,165.873z"/>
			<path class="st8" d="M100.646,165.873c-0.617-0.554-1.565-0.501-2.118,0.115l-3.927,4.38l-3.927-4.38
				c-0.554-0.616-1.501-0.669-2.118-0.115c-0.617,0.553-0.669,1.501-0.116,2.118l4.147,4.625l-4.147,4.625
				c-0.553,0.617-0.501,1.565,0.116,2.118c0.286,0.257,0.644,0.383,1,0.383c0.412,0,0.821-0.168,1.118-0.499l3.927-4.38l3.927,4.38
				c0.297,0.33,0.706,0.499,1.118,0.499c0.356,0,0.714-0.126,1-0.383c0.617-0.553,0.669-1.501,0.116-2.118l-4.147-4.625l4.147-4.625
				C101.314,167.374,101.263,166.425,100.646,165.873z"/>
			<path class="st8" d="M122.912,165.873c-0.617-0.554-1.564-0.501-2.118,0.115l-3.927,4.38l-3.927-4.38
				c-0.553-0.616-1.501-0.669-2.118-0.115c-0.617,0.553-0.669,1.501-0.116,2.118l4.147,4.625l-4.147,4.625
				c-0.553,0.617-0.501,1.565,0.116,2.118c0.286,0.257,0.644,0.383,1,0.383c0.412,0,0.821-0.168,1.118-0.499l3.927-4.38l3.927,4.38
				c0.297,0.33,0.706,0.499,1.118,0.499c0.356,0,0.714-0.126,1-0.383c0.617-0.553,0.669-1.501,0.116-2.118l-4.147-4.625l4.147-4.625
				C123.581,167.374,123.529,166.425,122.912,165.873z"/>
			<path class="st8" d="M145.179,165.873c-0.616-0.554-1.563-0.501-2.118,0.115l-3.927,4.38l-3.927-4.38
				c-0.554-0.616-1.502-0.669-2.118-0.115c-0.617,0.553-0.669,1.501-0.116,2.118l4.146,4.625l-4.146,4.625
				c-0.553,0.617-0.501,1.565,0.116,2.118c0.286,0.257,0.644,0.383,1,0.383c0.412,0,0.821-0.168,1.118-0.499l3.927-4.38l3.927,4.38
				c0.297,0.33,0.706,0.499,1.118,0.499c0.356,0,0.714-0.126,1-0.383c0.617-0.553,0.669-1.501,0.116-2.118l-4.146-4.625l4.146-4.625
				C145.848,167.374,145.796,166.425,145.179,165.873z"/>
			<path class="st8" d="M163.415,172.616l4.146-4.625c0.553-0.617,0.501-1.565-0.116-2.118c-0.617-0.554-1.564-0.501-2.118,0.115
				l-3.927,4.38l-3.927-4.38c-0.554-0.616-1.501-0.669-2.118-0.115c-0.617,0.553-0.669,1.501-0.116,2.118l4.146,4.625l-4.146,4.625
				c-0.553,0.617-0.501,1.565,0.116,2.118c0.286,0.257,0.644,0.383,1,0.383c0.412,0,0.821-0.168,1.118-0.499l3.927-4.38l3.927,4.38
				c0.297,0.33,0.706,0.499,1.118,0.499c0.356,0,0.714-0.126,1-0.383c0.617-0.553,0.669-1.501,0.116-2.118L163.415,172.616z"/>
			<path class="st8" d="M117.128,89.969H98.556c-0.828,0-1.5,0.671-1.5,1.5s0.672,1.5,1.5,1.5h18.572c0.828,0,1.5-0.671,1.5-1.5
				S117.956,89.969,117.128,89.969z"/>
			<path class="st8" d="M138.824,92.969h18.571c0.828,0,1.5-0.671,1.5-1.5s-0.672-1.5-1.5-1.5h-18.571c-0.828,0-1.5,0.671-1.5,1.5
				S137.996,92.969,138.824,92.969z"/>
			<path class="st8" d="M128.406,76.008c0.098,0,0.198,0,0.294,0c26.422,0,48.172-10.081,56.016-20.057
				c0.513-0.651,0.399-1.594-0.252-2.106c-0.65-0.511-1.594-0.399-2.105,0.252c-5.984,7.61-25.2,18.911-53.653,18.911
				c-0.096,0-0.193,0-0.291,0c-28.882,0-49.719-12.182-54.716-20.433c-0.431-0.709-1.354-0.934-2.061-0.506
				c-0.708,0.429-0.935,1.352-0.506,2.061C76.642,63.226,98.042,76.01,128.406,76.008z"/>
		</g>
		<g>
			<path class="st8" d="M206.693,162.485c1.318,0,1.38,0.797,1.318,2.269l-0.552,10.517c-0.061,1.073-0.306,1.962-1.564,1.962
				c-1.257,0-1.502-0.889-1.564-1.962l-0.552-10.517c-0.092-1.472,0.031-2.269,1.349-2.269H206.693z M206.294,182.046
				c1.165,0,1.717,0.583,1.717,1.748v0.797c0,1.165-0.552,1.748-1.717,1.748h-0.797c-1.165,0-1.717-0.583-1.717-1.748v-0.797
				c0-1.165,0.552-1.748,1.717-1.748H206.294z"/>
		</g>
	</g>
</g>
</svg>
