<svg id="Layer_1" data-name="Layer 1" xmlns="http://www.w3.org/2000/svg" viewBox="0 0 100 75.53">
  <defs>
    <style>
      .cls-1 {
        fill: #63bce7;
      }

      .cls-2 {
        fill: #f8af23;
      }

      .cls-3 {
        fill: #f87023;
      }

      .cls-4 {
        fill: #f8d323;
      }

      .cls-5 {
        fill: #9e9e9e;
      }

      .cls-6 {
        fill: #707070;
      }

      .cls-7 {
        fill: #cecece;
      }

      .cls-8 {
        fill: #f46275;
      }

      .cls-9 {
        fill: #321f7a;
      }
    </style>
  </defs>
  <title>rafuguard_update</title>
  <g>
    <g>
      <path class="cls-1" d="M10.29,74.67A5.65,5.65,0,0,1,4.64,69V17.8a5.65,5.65,0,0,1,5.65-5.65H89.71a5.65,5.65,0,0,1,5.65,5.65V69a5.65,5.65,0,0,1-5.65,5.65Z" transform="translate(0 -11.52)"/>
      <path class="cls-2" d="M91.88,15.63V69a2.18,2.18,0,0,1-2.18,2.18H10.3A2.18,2.18,0,0,1,8.12,69V15.63Z" transform="translate(0 -11.52)"/>
      <path class="cls-3" d="M12.15,69V15.63h-4V69a2.19,2.19,0,0,0,2.19,2.18h4A2.19,2.19,0,0,1,12.15,69Z" transform="translate(0 -11.52)"/>
      <path class="cls-4" d="M87.85,69V15.63h4V69a2.19,2.19,0,0,1-2.19,2.18h-4A2.19,2.19,0,0,0,87.85,69Z" transform="translate(0 -11.52)"/>
      <path class="cls-5" d="M50,74.67H.62l1.26,2.91a7.18,7.18,0,0,0,6.58,4.31H91.54a7.18,7.18,0,0,0,6.58-4.31l1.26-2.91Z" transform="translate(0 -11.52)"/>
      <path class="cls-6" d="M5.92,77.58,4.66,74.67h-4l1.26,2.91a7.18,7.18,0,0,0,6.58,4.31h4A7.17,7.17,0,0,1,5.92,77.58Z" transform="translate(0 -11.52)"/>
      <path class="cls-7" d="M94.08,77.58l1.26-2.91h4l-1.26,2.91a7.18,7.18,0,0,1-6.58,4.31h-4A7.17,7.17,0,0,0,94.08,77.58Z" transform="translate(0 -11.52)"/>
      <path class="cls-8" d="M31.15,74.67l1.74,2.23a3.62,3.62,0,0,0,2.84,1.38H64.27a3.62,3.62,0,0,0,2.84-1.38l1.74-2.23Z" transform="translate(0 -11.52)"/>
    </g>
    <g>
      <path class="cls-9" d="M92.51,69V15.63a.63.63,0,0,0-.63-.63H8.12a.63.63,0,0,0-.63.63V69a2.8,2.8,0,0,0,2.8,2.79H89.71A2.8,2.8,0,0,0,92.51,69ZM8.74,69V16.25H91.26V69a1.55,1.55,0,0,1-1.55,1.55H10.29A1.55,1.55,0,0,1,8.74,69Z" transform="translate(0 -11.52)"/>
      <path class="cls-9" d="M98.69,77.83,100,74.92a.65.65,0,0,0,0-.59.64.64,0,0,0-.52-.28H93.44A6.26,6.26,0,0,0,96,69V17.8a6.29,6.29,0,0,0-6.28-6.28H10.29A6.29,6.29,0,0,0,4,17.8V69a6.26,6.26,0,0,0,2.55,5H.62a.64.64,0,0,0-.52.28.65.65,0,0,0,0,.59l1.26,2.91a7.88,7.88,0,0,0,2.93,3.44H.89a.62.62,0,0,0,0,1.24H99.11a.62.62,0,0,0,0-1.24H95.76A7.82,7.82,0,0,0,98.69,77.83ZM5.26,69V17.8a5,5,0,0,1,5-5H89.71a5,5,0,0,1,5,5V69a5,5,0,0,1-5,5H10.29A5,5,0,0,1,5.26,69Zm62.32,6.27-1,1.23a3,3,0,0,1-2.35,1.14H35.73a3,3,0,0,1-2.35-1.14l-1-1.23Zm24,6H8.46a6.55,6.55,0,0,1-5-2.37H15.48a.62.62,0,0,0,0-1.24H2.61l-.16-.33-.88-2H30.85l1.56,2a4.17,4.17,0,0,0,3.32,1.62H64.27a4.17,4.17,0,0,0,3.32-1.62l1.56-2H98.43l-.88,2-.16.33H84.52a.62.62,0,0,0,0,1.24H96.58A6.55,6.55,0,0,1,91.54,81.27Z" transform="translate(0 -11.52)"/>
      <path class="cls-9" d="M24,77.66H19.73a.62.62,0,1,0,0,1.24H24a.62.62,0,0,0,0-1.24Z" transform="translate(0 -11.52)"/>
      <path class="cls-9" d="M80.27,77.66H76a.62.62,0,1,0,0,1.24h4.29a.62.62,0,1,0,0-1.24Z" transform="translate(0 -11.52)"/>
      <path class="cls-9" d="M8.34,85.81H.89a.62.62,0,0,0-.62.62.62.62,0,0,0,.62.62H8.34A.62.62,0,0,0,9,86.43.62.62,0,0,0,8.34,85.81Z" transform="translate(0 -11.52)"/>
      <path class="cls-9" d="M99.11,85.81H91.66a.62.62,0,0,0-.62.62.62.62,0,0,0,.62.62h7.45a.62.62,0,0,0,.62-.62A.62.62,0,0,0,99.11,85.81Z" transform="translate(0 -11.52)"/>
      <path class="cls-9" d="M87.44,85.81H12.56a.62.62,0,0,0-.62.62.62.62,0,0,0,.62.62H87.44a.62.62,0,0,0,.62-.62A.62.62,0,0,0,87.44,85.81Z" transform="translate(0 -11.52)"/>
    </g>
  </g>
  <path class="cls-9" d="M35.92,30.75a19.17,19.17,0,1,0,27.11,0A19.19,19.19,0,0,0,35.92,30.75Z" transform="translate(0 -11.52)"/>
  <circle class="cls-2" cx="49.47" cy="32.78" r="11.33"/>
  <path class="cls-9" d="M41,35.85a12,12,0,1,0,16.91,0A12,12,0,0,0,41,35.85Z" transform="translate(0 -11.52)"/>
  <path class="cls-9" d="M65.89,73.81" transform="translate(0 -11.52)"/>
  <path class="cls-8" d="M54.88,38.27H50.27L56,32.52l5.75,5.75h-4.6v8.06A9.2,9.2,0,0,1,48,55.54a9.22,9.22,0,0,1-9.21-9.21V38.27h2.3v8.06a6.91,6.91,0,0,0,13.82,0Z" transform="translate(0 -11.52)"/>
</svg>
