<svg id="Layer_1" data-name="Layer 1" xmlns="http://www.w3.org/2000/svg" viewBox="0 0 100 85.86">
  <defs>
    <style>
      .cls-1 {
        fill: #63bce7;
      }

      .cls-2 {
        fill: #6377e7;
      }

      .cls-3 {
        fill: #63e2e7;
      }

      .cls-4 {
        fill: #f8af23;
      }

      .cls-5 {
        fill: #f87023;
      }

      .cls-6 {
        fill: #f8d323;
      }

      .cls-7 {
        fill: #f46275;
      }

      .cls-8 {
        fill: #321f7a;
      }
    </style>
  </defs>
  <title>rafuguard_app</title>
  <g>
    <path class="cls-1" d="M92.57,92.34H7.43A6.77,6.77,0,0,1,.66,85.57v-71A6.77,6.77,0,0,1,7.43,7.81H92.57a6.77,6.77,0,0,1,6.77,6.77v71A6.77,6.77,0,0,1,92.57,92.34Z" transform="translate(0 -7.14)"/>
    <path class="cls-2" d="M5,85.57v-71a6.78,6.78,0,0,1,6.78-6.77H7.43A6.77,6.77,0,0,0,.66,14.58v71a6.77,6.77,0,0,0,6.77,6.77h4.32A6.78,6.78,0,0,1,5,85.57Z" transform="translate(0 -7.14)"/>
    <path class="cls-3" d="M95,85.57v-71a6.78,6.78,0,0,0-6.78-6.77h4.32a6.77,6.77,0,0,1,6.77,6.77v71a6.77,6.77,0,0,1-6.77,6.77H88.25A6.78,6.78,0,0,0,95,85.57Z" transform="translate(0 -7.14)"/>
    <path class="cls-4" d="M99.34,14.58a6.77,6.77,0,0,0-6.77-6.77H7.43A6.77,6.77,0,0,0,.66,14.58V26.36H99.34Z" transform="translate(0 -7.14)"/>
    <path class="cls-5" d="M5,14.58a6.78,6.78,0,0,1,6.78-6.77H7.43A6.77,6.77,0,0,0,.66,14.58V26.36H5Z" transform="translate(0 -7.14)"/>
    <path class="cls-6" d="M99.34,14.58a6.77,6.77,0,0,0-6.77-6.77H88.25A6.78,6.78,0,0,1,95,14.58V26.36h4.31Z" transform="translate(0 -7.14)"/>
    <g>
      <g>
        <g>
          <circle class="cls-7" cx="87.25" cy="9.94" r="3.09"/>
          <circle class="cls-7" cx="75.34" cy="9.94" r="3.09"/>
          <circle class="cls-7" cx="63.43" cy="9.94" r="3.09"/>
        </g>
        <path class="cls-7" d="M9.66,17.29h0A2.36,2.36,0,0,1,12,14.93H51.15a2.36,2.36,0,0,1,2.35,2.36h0a2.36,2.36,0,0,1-2.35,2.35H12A2.36,2.36,0,0,1,9.66,17.29Z" transform="translate(0 -7.14)"/>
      </g>
      <path class="cls-8" d="M83.49,17.08a3.76,3.76,0,1,0,3.76-3.75A3.77,3.77,0,0,0,83.49,17.08Zm1.33,0a2.43,2.43,0,1,1,2.43,2.43A2.43,2.43,0,0,1,84.82,17.08Z" transform="translate(0 -7.14)"/>
      <path class="cls-8" d="M71.58,17.08a3.76,3.76,0,1,0,3.76-3.75A3.77,3.77,0,0,0,71.58,17.08Zm1.33,0a2.43,2.43,0,1,1,2.43,2.43A2.43,2.43,0,0,1,72.91,17.08Z" transform="translate(0 -7.14)"/>
      <path class="cls-8" d="M59.67,17.08a3.76,3.76,0,1,0,3.76-3.75A3.76,3.76,0,0,0,59.67,17.08Zm1.33,0a2.43,2.43,0,1,1,2.43,2.43A2.43,2.43,0,0,1,61,17.08Z" transform="translate(0 -7.14)"/>
      <path class="cls-8" d="M9,17.29a3,3,0,0,0,3,3H51.15a3,3,0,0,0,0-6H12A3,3,0,0,0,9,17.29Zm1.32,0A1.7,1.7,0,0,1,12,15.59H51.15a1.7,1.7,0,0,1,0,3.39H12A1.69,1.69,0,0,1,10.32,17.29Z" transform="translate(0 -7.14)"/>
    </g>
    <path class="cls-8" d="M77.54,93h15A7.45,7.45,0,0,0,100,85.57v-71a7.45,7.45,0,0,0-7.43-7.44H7.43A7.45,7.45,0,0,0,0,14.58v71A7.45,7.45,0,0,0,7.43,93h15M1.33,14.58a6.11,6.11,0,0,1,6.1-6.11H92.57a6.11,6.11,0,0,1,6.1,6.11V25.7H1.33Z" transform="translate(0 -7.14)"/>
    <path class="cls-2" d="M5.64,85.59V27.24H1.33V85.59c0,3.07,3,5.56,6.77,5.56h4.31C8.67,91.15,5.64,88.66,5.64,85.59Z" transform="translate(0 -7.14)"/>
    <path class="cls-1" d="M92.24,91.15H11.4C7.85,91.15,5,88,5,84.1V27.24h93.7V84.1C98.67,88,95.8,91.15,92.24,91.15Z" transform="translate(0 -7.14)"/>
    <path class="cls-1" d="M0,31.66" transform="translate(0 -7.14)"/>
    <path class="cls-3" d="M94.84,85.59V27.24h3.87V85.59a5.83,5.83,0,0,1-6.07,5.56H88.77A5.83,5.83,0,0,0,94.84,85.59Z" transform="translate(0 -7.14)"/>
  </g>
</svg>
