<svg id="Layer_1" data-name="Layer 1" xmlns="http://www.w3.org/2000/svg" viewBox="0 0 100 75.53">
  <defs>
    <style>
      .cls-1 {
        fill: #63bce7;
      }

      .cls-2 {
        fill: #f8af23;
      }

      .cls-3 {
        fill: #f87023;
      }

      .cls-4 {
        fill: #f8d323;
      }

      .cls-5 {
        fill: #9e9e9e;
      }

      .cls-6 {
        fill: #707070;
      }

      .cls-7 {
        fill: #cecece;
      }

      .cls-8 {
        fill: #f46275;
      }

      .cls-9 {
        fill: #321f7a;
      }
    </style>
  </defs>
  <title>rafuguard_rafuguard_logo</title>
  <g>
    <g>
      <path class="cls-1" d="M10.29,75.38a5.65,5.65,0,0,1-5.65-5.65V18.51a5.65,5.65,0,0,1,5.65-5.65H89.71a5.65,5.65,0,0,1,5.65,5.65V69.73a5.65,5.65,0,0,1-5.65,5.65Z" transform="translate(0 -12.24)"/>
      <path class="cls-2" d="M91.88,16.34V69.72A2.17,2.17,0,0,1,89.7,71.9H10.3a2.17,2.17,0,0,1-2.18-2.18V16.34Z" transform="translate(0 -12.24)"/>
      <path class="cls-3" d="M12.15,69.72V16.34h-4V69.72A2.18,2.18,0,0,0,10.3,71.9h4A2.18,2.18,0,0,1,12.15,69.72Z" transform="translate(0 -12.24)"/>
      <path class="cls-4" d="M87.85,69.72V16.34h4V69.72A2.18,2.18,0,0,1,89.7,71.9h-4A2.18,2.18,0,0,0,87.85,69.72Z" transform="translate(0 -12.24)"/>
      <path class="cls-5" d="M50,75.38H.62l1.26,2.91A7.18,7.18,0,0,0,8.46,82.6H91.54a7.18,7.18,0,0,0,6.58-4.31l1.26-2.91Z" transform="translate(0 -12.24)"/>
      <path class="cls-6" d="M5.92,78.29,4.66,75.38h-4l1.26,2.91A7.18,7.18,0,0,0,8.46,82.6h4A7.17,7.17,0,0,1,5.92,78.29Z" transform="translate(0 -12.24)"/>
      <path class="cls-7" d="M94.08,78.29l1.26-2.91h4l-1.26,2.91a7.18,7.18,0,0,1-6.58,4.31h-4A7.17,7.17,0,0,0,94.08,78.29Z" transform="translate(0 -12.24)"/>
      <path class="cls-8" d="M31.15,75.38l1.74,2.23A3.62,3.62,0,0,0,35.73,79H64.27a3.62,3.62,0,0,0,2.84-1.38l1.74-2.23Z" transform="translate(0 -12.24)"/>
    </g>
    <g>
      <path class="cls-9" d="M92.51,69.73V16.34a.62.62,0,0,0-.63-.62H8.12a.62.62,0,0,0-.63.62V69.73a2.8,2.8,0,0,0,2.8,2.79H89.71A2.8,2.8,0,0,0,92.51,69.73Zm-83.77,0V17H91.26V69.73a1.54,1.54,0,0,1-1.55,1.55H10.29A1.54,1.54,0,0,1,8.74,69.73Z" transform="translate(0 -12.24)"/>
      <path class="cls-9" d="M98.69,78.54,100,75.63a.65.65,0,0,0,0-.59.64.64,0,0,0-.52-.28H93.44a6.26,6.26,0,0,0,2.55-5V18.51a6.28,6.28,0,0,0-6.28-6.27H10.29A6.28,6.28,0,0,0,4,18.51V69.73a6.26,6.26,0,0,0,2.55,5H.62A.64.64,0,0,0,.1,75a.65.65,0,0,0,0,.59l1.26,2.91A7.88,7.88,0,0,0,4.24,82H.89a.62.62,0,0,0-.62.62.62.62,0,0,0,.62.62H99.11a.62.62,0,0,0,.62-.62.62.62,0,0,0-.62-.62H95.76A7.82,7.82,0,0,0,98.69,78.54ZM5.26,69.73V18.51a5,5,0,0,1,5-5H89.71a5,5,0,0,1,5,5V69.73a5,5,0,0,1-5,5H10.29A5,5,0,0,1,5.26,69.73ZM67.58,76l-1,1.23a3,3,0,0,1-2.35,1.14H35.73a3,3,0,0,1-2.35-1.14l-1-1.23Zm24,6H8.46a6.55,6.55,0,0,1-5-2.37H15.48A.62.62,0,0,0,16.1,79a.62.62,0,0,0-.62-.62H2.61L2.45,78l-.88-2H30.85l1.56,2a4.17,4.17,0,0,0,3.32,1.62H64.27A4.17,4.17,0,0,0,67.59,78l1.56-2H98.43l-.88,2-.16.33H84.52a.62.62,0,0,0-.62.62.62.62,0,0,0,.62.62H96.58A6.55,6.55,0,0,1,91.54,82Z" transform="translate(0 -12.24)"/>
      <path class="cls-9" d="M24,78.37H19.73a.62.62,0,0,0-.62.62.62.62,0,0,0,.62.62H24a.62.62,0,0,0,.62-.62A.62.62,0,0,0,24,78.37Z" transform="translate(0 -12.24)"/>
      <path class="cls-9" d="M80.27,78.37H76a.62.62,0,0,0-.62.62.62.62,0,0,0,.62.62h4.29a.62.62,0,0,0,.62-.62A.62.62,0,0,0,80.27,78.37Z" transform="translate(0 -12.24)"/>
      <path class="cls-9" d="M8.34,86.52H.89a.62.62,0,0,0-.62.62.62.62,0,0,0,.62.62H8.34A.62.62,0,0,0,9,87.14.62.62,0,0,0,8.34,86.52Z" transform="translate(0 -12.24)"/>
      <path class="cls-9" d="M99.11,86.52H91.66a.62.62,0,0,0-.62.62.62.62,0,0,0,.62.62h7.45a.62.62,0,0,0,.62-.62A.62.62,0,0,0,99.11,86.52Z" transform="translate(0 -12.24)"/>
      <path class="cls-9" d="M87.44,86.52H12.56a.62.62,0,0,0-.62.62.62.62,0,0,0,.62.62H87.44a.62.62,0,0,0,.62-.62A.62.62,0,0,0,87.44,86.52Z" transform="translate(0 -12.24)"/>
    </g>
  </g>
  <g>
    <path id="_Path_2" data-name=" Path 2" class="cls-8" d="M46.05,53.47l3.93,0c.22,0,.28.15.35.32l1.29,3.24.25,6c-1,0-1.59-3.34-1.59-3.34a.4.4,0,0,0-.52-.18.35.35,0,0,0-.18.18s-.72,3.39-1.58,3.39l.09-6-2.42-3.37A.34.34,0,0,1,46.05,53.47Z" transform="translate(0 -12.24)"/>
    <path id="_Path_5" data-name=" Path 5" class="cls-8" d="M41.44,52v2.1a10.8,10.8,0,0,0,.64,3.71,10.24,10.24,0,0,0,2.21,3s-6.13-.62-8.27-10Z" transform="translate(0 -12.24)"/>
    <g id="_Group_7" data-name=" Group 7">
      <path id="_Compound_Path_2" data-name=" Compound Path 2" class="cls-8" d="M38.12,29.93c-2.39.05-4.46.63-5.48,1.87-.8,1-.92,2.38,0,4.28,2.11,4.25,6.93,3.59,6.93,3.59s-3.11,2.44-5.3,2c-4-.79-2.81-4.53-1.21-6.21,1.29-1.35-.56-1.77-.56-1.77-2.95,1.48-3.31,5.73-3.31,5.73-.66-.18-2-1.8-2-1.8-4.07,8.07,6,10.52,6,10.52s8.76,2.23,12.27,3S50,49.93,50,49.93V34.8C45,34.16,42.41,29.84,38.12,29.93ZM43.64,48.5c-1.14-.65.18-2.27.18-2.27a3.45,3.45,0,0,0,3.1,1.57S44.78,49.16,43.64,48.5Z" transform="translate(0 -12.24)"/>
    </g>
    <path id="_Path_6" data-name=" Path 6" class="cls-8" d="M33.72,37.43s-1.41,3.35,1.82,1.36Z" transform="translate(0 -12.24)"/>
    <path id="_Path_7" data-name=" Path 7" class="cls-8" d="M27.17,37.64a23.64,23.64,0,0,1,6-6.38l-.54,2.92-2.24,3.41-.14,1.77-.46,1-2.14-1Z" transform="translate(0 -12.24)"/>
    <path id="_Path_10" data-name=" Path 10" class="cls-8" d="M58.55,52v2.1a11,11,0,0,1-.63,3.71,10.37,10.37,0,0,1-2.21,3s6.13-.61,8.27-10Z" transform="translate(0 -12.24)"/>
    <g id="_Group_8" data-name=" Group 8">
      <path id="_Compound_Path_3" data-name=" Compound Path 3" class="cls-8" d="M50,34.8V49.9s1,2,4.51,1.23,12.26-3,12.26-3,10.12-2.45,6-10.51c0,0-1.36,1.62-2,1.8,0,0-.36-4.25-3.32-5.73,0,0-1.86.43-.56,1.77,1.6,1.66,2.84,5.42-1.2,6.19-2.19.43-5.3-2-5.3-2s4.82.66,6.92-3.59c.93-1.89.81-3.29,0-4.29-1-1.24-3.09-1.82-5.48-1.86C57.59,29.84,55,34.16,50,34.8Zm3.07,13a3.45,3.45,0,0,0,3.1-1.57s1.32,1.62.18,2.27-3.28-.7-3.28-.7Z" transform="translate(0 -12.24)"/>
    </g>
    <path id="_Path_11" data-name=" Path 11" class="cls-8" d="M66.29,37.43s1.41,3.35-1.83,1.36Z" transform="translate(0 -12.24)"/>
    <path id="_Path_12" data-name=" Path 12" class="cls-8" d="M72.83,37.64a23.52,23.52,0,0,0-6-6.38l.54,2.92,2.22,3.41.15,1.77.46,1,2.14-1Z" transform="translate(0 -12.24)"/>
  </g>
  <g>
    <path id="_Path_2-2" data-name=" Path 2" class="cls-9" d="M46.18,53.24l3.8,0c.22,0,.27.15.34.31l1.24,3.13.25,5.83c-1,0-1.54-3.22-1.54-3.22a.38.38,0,0,0-.5-.18.39.39,0,0,0-.18.18s-.69,3.27-1.53,3.27l.09-5.76-2.33-3.26C45.8,53.38,46,53.24,46.18,53.24Z" transform="translate(0 -12.24)"/>
    <path id="_Path_5-2" data-name=" Path 5" class="cls-9" d="M41.74,51.77v2a10.53,10.53,0,0,0,.61,3.58,10,10,0,0,0,2.14,2.9s-5.92-.6-8-9.7Z" transform="translate(0 -12.24)"/>
    <g id="_Group_7-2" data-name=" Group 7">
      <path id="_Compound_Path_2-2" data-name=" Compound Path 2" class="cls-9" d="M38.53,30.5c-2.31.05-4.32.61-5.29,1.8-.78,1-.9,2.31,0,4.14,2,4.1,6.68,3.47,6.68,3.47s-3,2.35-5.11,1.94c-3.91-.76-2.72-4.37-1.17-6,1.24-1.31-.54-1.71-.54-1.71-2.85,1.42-3.2,5.53-3.2,5.53C29.26,39.51,28,38,28,38,24,45.73,33.79,48.1,33.79,48.1s8.46,2.16,11.84,2.9S50,49.82,50,49.82V35.2C45.17,34.59,42.67,30.41,38.53,30.5Zm5.33,17.94c-1.1-.64.17-2.2.17-2.2a3.33,3.33,0,0,0,3,1.52S45,49.07,43.86,48.44Z" transform="translate(0 -12.24)"/>
    </g>
    <path id="_Path_6-2" data-name=" Path 6" class="cls-9" d="M34.27,37.74S32.92,41,36,39.05Z" transform="translate(0 -12.24)"/>
    <path id="_Path_7-2" data-name=" Path 7" class="cls-9" d="M28,38a22.74,22.74,0,0,1,5.83-6.17l-.52,2.83L31.1,37.9,31,39.61l-.44.92-2.07-1Z" transform="translate(0 -12.24)"/>
    <path id="_Path_10-2" data-name=" Path 10" class="cls-9" d="M58.26,51.77v2a10.53,10.53,0,0,1-.61,3.58,10.15,10.15,0,0,1-2.14,2.9s5.92-.6,8-9.69Z" transform="translate(0 -12.24)"/>
    <g id="_Group_8-2" data-name=" Group 8">
      <path id="_Compound_Path_3-2" data-name=" Compound Path 3" class="cls-9" d="M50,35.2V49.79s1,1.9,4.36,1.18S66.21,48.1,66.21,48.1,76,45.73,72.05,38c0,0-1.31,1.56-2,1.73,0,0-.35-4.11-3.2-5.53,0,0-1.8.42-.55,1.71,1.55,1.61,2.75,5.23-1.16,6-2.11.41-5.11-2-5.11-2s4.65.64,6.68-3.47c.9-1.81.78-3.17,0-4.13-1-1.2-3-1.76-5.29-1.8C57.33,30.41,54.85,34.59,50,35.2Zm3,12.56a3.33,3.33,0,0,0,3-1.52s1.27,1.56.17,2.2S53,47.76,53,47.76Z" transform="translate(0 -12.24)"/>
    </g>
    <path id="_Path_11-2" data-name=" Path 11" class="cls-9" d="M65.73,37.74S67.09,41,64,39.05Z" transform="translate(0 -12.24)"/>
    <path id="_Path_12-2" data-name=" Path 12" class="cls-9" d="M72.05,38a22.74,22.74,0,0,0-5.83-6.17l.53,2.83,2.14,3.29L69,39.61l.44.92,2.07-1Z" transform="translate(0 -12.24)"/>
  </g>
</svg>
