<svg id="Layer_1" data-name="Layer 1" xmlns="http://www.w3.org/2000/svg" viewBox="0 0 100 85.86">
  <defs>
    <style>
      .cls-1 {
        fill: #63bce7;
      }

      .cls-2 {
        fill: #6377e7;
      }

      .cls-3 {
        fill: #63e2e7;
      }

      .cls-4 {
        fill: #f8af23;
      }

      .cls-5 {
        fill: #f87023;
      }

      .cls-6 {
        fill: #f8d323;
      }

      .cls-7 {
        fill: #f46275;
      }

      .cls-8 {
        fill: #321f7a;
      }

      .cls-9 {
        fill: #8f1700;
      }
    </style>
  </defs>
  <title>rafuguard_warn</title>
  <g>
    <path class="cls-1" d="M92.57,91.94H7.44A6.78,6.78,0,0,1,.66,85.17v-71A6.78,6.78,0,0,1,7.44,7.41H92.57a6.77,6.77,0,0,1,6.77,6.77v71A6.77,6.77,0,0,1,92.57,91.94Z" transform="translate(0 -6.75)"/>
    <path class="cls-2" d="M5,85.17v-71a6.77,6.77,0,0,1,6.77-6.77H7.43A6.77,6.77,0,0,0,.66,14.18v71a6.77,6.77,0,0,0,6.77,6.77h4.32A6.77,6.77,0,0,1,5,85.17Z" transform="translate(0 -6.75)"/>
    <path class="cls-3" d="M95,85.17v-71a6.78,6.78,0,0,0-6.78-6.77h4.32a6.77,6.77,0,0,1,6.77,6.77v71a6.77,6.77,0,0,1-6.77,6.77H88.25A6.78,6.78,0,0,0,95,85.17Z" transform="translate(0 -6.75)"/>
    <path class="cls-4" d="M99.34,14.18a6.77,6.77,0,0,0-6.77-6.77H7.44A6.78,6.78,0,0,0,.66,14.18V26H99.34Z" transform="translate(0 -6.75)"/>
    <path class="cls-5" d="M5,14.18a6.77,6.77,0,0,1,6.77-6.77H7.43A6.77,6.77,0,0,0,.66,14.18V26H5Z" transform="translate(0 -6.75)"/>
    <path class="cls-6" d="M99.34,14.18a6.77,6.77,0,0,0-6.77-6.77H88.25A6.78,6.78,0,0,1,95,14.18V26h4.31Z" transform="translate(0 -6.75)"/>
    <g>
      <g>
        <g>
          <circle class="cls-7" cx="87.25" cy="9.94" r="3.09"/>
          <circle class="cls-7" cx="75.34" cy="9.94" r="3.09"/>
          <circle class="cls-7" cx="63.43" cy="9.94" r="3.09"/>
        </g>
        <path class="cls-7" d="M9.66,16.89h0A2.36,2.36,0,0,1,12,14.54H51.15a2.36,2.36,0,0,1,2.35,2.35h0a2.36,2.36,0,0,1-2.35,2.36H12A2.36,2.36,0,0,1,9.66,16.89Z" transform="translate(0 -6.75)"/>
      </g>
      <path class="cls-8" d="M83.49,16.69a3.76,3.76,0,1,0,3.76-3.76A3.76,3.76,0,0,0,83.49,16.69Zm1.33,0a2.43,2.43,0,1,1,2.43,2.43A2.43,2.43,0,0,1,84.82,16.69Z" transform="translate(0 -6.75)"/>
      <path class="cls-8" d="M71.58,16.69a3.76,3.76,0,1,0,3.76-3.76A3.76,3.76,0,0,0,71.58,16.69Zm1.33,0a2.43,2.43,0,1,1,2.43,2.43A2.43,2.43,0,0,1,72.91,16.69Z" transform="translate(0 -6.75)"/>
      <path class="cls-8" d="M59.67,16.69a3.76,3.76,0,1,0,3.76-3.76A3.75,3.75,0,0,0,59.67,16.69Zm1.33,0a2.43,2.43,0,1,1,2.43,2.43A2.43,2.43,0,0,1,61,16.69Z" transform="translate(0 -6.75)"/>
      <path class="cls-8" d="M9,16.89a3,3,0,0,0,3,3H51.15a3,3,0,1,0,0-6H12A3,3,0,0,0,9,16.89Zm1.32,0A1.69,1.69,0,0,1,12,15.2H51.15a1.69,1.69,0,0,1,0,3.38H12A1.69,1.69,0,0,1,10.32,16.89Z" transform="translate(0 -6.75)"/>
    </g>
    <path class="cls-8" d="M77.54,92.6h15A7.44,7.44,0,0,0,100,85.17v-71a7.44,7.44,0,0,0-7.43-7.43H7.44A7.44,7.44,0,0,0,0,14.18v71A7.44,7.44,0,0,0,7.44,92.6h15M1.33,14.18A6.12,6.12,0,0,1,7.44,8.07H92.57a6.11,6.11,0,0,1,6.1,6.11V25.3H1.33Z" transform="translate(0 -6.75)"/>
    <path class="cls-2" d="M5.64,85.19V26.85H1.33V85.19c0,3.08,3,5.57,6.77,5.57h4.31C8.67,90.76,5.64,88.27,5.64,85.19Z" transform="translate(0 -6.75)"/>
    <path class="cls-1" d="M92.24,90.76H11.41C7.85,90.76,5,87.6,5,83.7V26.85H98.67V83.7C98.67,87.6,95.8,90.76,92.24,90.76Z" transform="translate(0 -6.75)"/>
    <path class="cls-1" d="M0,31.26" transform="translate(0 -6.75)"/>
    <path class="cls-3" d="M94.84,85.19V26.85h3.87V85.19a5.84,5.84,0,0,1-6.07,5.57H88.77A5.84,5.84,0,0,0,94.84,85.19Z" transform="translate(0 -6.75)"/>
  </g>
  <g>
    <path class="cls-4" d="M67.47,37.7a47.42,47.42,0,0,1-15.16-6.4,3.63,3.63,0,0,0-4,0,47.63,47.63,0,0,1-15.17,6.4,3.65,3.65,0,0,0-2.9,3.55V60.64a21.6,21.6,0,0,0,8.93,17.53l9.55,6.93a2.64,2.64,0,0,0,1.56.51,2.67,2.67,0,0,0,1.57-.51l9.54-6.93a21.75,21.75,0,0,0,8-11.16,21.53,21.53,0,0,0,1-6.37V41.25A3.65,3.65,0,0,0,67.47,37.7Z" transform="translate(0 -6.75)"/>
    <path class="cls-8" d="M67.47,37.7a47.42,47.42,0,0,1-15.16-6.4,3.63,3.63,0,0,0-4,0,47.63,47.63,0,0,1-15.17,6.4,3.65,3.65,0,0,0-2.9,3.55V60.64a21.6,21.6,0,0,0,8.93,17.53l9.55,6.93a2.64,2.64,0,0,0,1.56.51,2.67,2.67,0,0,0,1.57-.51l9.54-6.93a21.75,21.75,0,0,0,8-11.16,21.53,21.53,0,0,0,1-6.37V41.25A3.65,3.65,0,0,0,67.47,37.7ZM68,60.64a19,19,0,0,1-.86,5.66A19.35,19.35,0,0,1,60,76.22l-9.55,6.92a.23.23,0,0,1-.29,0l-9.55-6.92A19.25,19.25,0,0,1,32.7,60.64V41.25a1.22,1.22,0,0,1,1-1.19,49,49,0,0,0,16-6.74,1.21,1.21,0,0,1,1.32,0,49.15,49.15,0,0,0,16,6.74,1.22,1.22,0,0,1,1,1.19V60.64Z" transform="translate(0 -6.75)"/>
    <path class="cls-9" d="M60.68,58.92A10.67,10.67,0,0,1,50,69.58a10.67,10.67,0,0,1-7.55-18.22,10.67,10.67,0,0,1,15.1,0A10.3,10.3,0,0,1,60.68,58.92Zm-1.75,0a8.94,8.94,0,0,0-15.26-6.33A8.94,8.94,0,0,0,56.32,65.23,8.61,8.61,0,0,0,58.93,58.92Zm-6.74-5.51a1.9,1.9,0,0,1-.64,1.45,2.22,2.22,0,0,1-1.55.6,2.17,2.17,0,0,1-1.55-.6,2,2,0,0,1,0-2.9,2.17,2.17,0,0,1,1.55-.6,2.22,2.22,0,0,1,1.55.6A1.91,1.91,0,0,1,52.19,53.41Zm-.4,13.49H48.2V56.72h3.59Z" transform="translate(0 -6.75)"/>
  </g>
</svg>
