<svg id="Layer_1" data-name="Layer 1" xmlns="http://www.w3.org/2000/svg" viewBox="0 0 100 75.53">
  <defs>
    <style>
      .cls-1 {
        fill: #63bce7;
      }

      .cls-2 {
        fill: #f8af23;
      }

      .cls-3 {
        fill: #f87023;
      }

      .cls-4 {
        fill: #f8d323;
      }

      .cls-5 {
        fill: #9e9e9e;
      }

      .cls-6 {
        fill: #707070;
      }

      .cls-7 {
        fill: #cecece;
      }

      .cls-8 {
        fill: #f46275;
      }

      .cls-9 {
        fill: #321f7a;
      }
    </style>
  </defs>
  <title>rafuguard_history</title>
  <g>
    <g>
      <path class="cls-1" d="M10.29,76.09a5.65,5.65,0,0,1-5.65-5.65V19.22a5.65,5.65,0,0,1,5.65-5.65H89.71a5.65,5.65,0,0,1,5.65,5.65V70.44a5.65,5.65,0,0,1-5.65,5.65Z" transform="translate(0 -12.95)"/>
      <path class="cls-2" d="M91.88,17.05V70.43a2.17,2.17,0,0,1-2.18,2.18H10.3a2.17,2.17,0,0,1-2.18-2.18V17.05Z" transform="translate(0 -12.95)"/>
      <path class="cls-3" d="M12.15,70.43V17.05h-4V70.43a2.18,2.18,0,0,0,2.19,2.18h4A2.18,2.18,0,0,1,12.15,70.43Z" transform="translate(0 -12.95)"/>
      <path class="cls-4" d="M87.85,70.43V17.05h4V70.43a2.18,2.18,0,0,1-2.19,2.18h-4A2.18,2.18,0,0,0,87.85,70.43Z" transform="translate(0 -12.95)"/>
      <path class="cls-5" d="M50,76.09H.62L1.88,79a7.18,7.18,0,0,0,6.58,4.31H91.54A7.18,7.18,0,0,0,98.12,79l1.26-2.91Z" transform="translate(0 -12.95)"/>
      <path class="cls-6" d="M5.92,79,4.66,76.09h-4L1.88,79a7.18,7.18,0,0,0,6.58,4.31h4A7.17,7.17,0,0,1,5.92,79Z" transform="translate(0 -12.95)"/>
      <path class="cls-7" d="M94.08,79l1.26-2.91h4L98.12,79a7.18,7.18,0,0,1-6.58,4.31h-4A7.17,7.17,0,0,0,94.08,79Z" transform="translate(0 -12.95)"/>
      <path class="cls-8" d="M31.15,76.09l1.74,2.23a3.59,3.59,0,0,0,2.84,1.38H64.27a3.59,3.59,0,0,0,2.84-1.38l1.74-2.23Z" transform="translate(0 -12.95)"/>
    </g>
    <g>
      <path class="cls-9" d="M92.51,70.44V17.05a.62.62,0,0,0-.63-.62H8.12a.62.62,0,0,0-.63.62V70.44a2.81,2.81,0,0,0,2.8,2.8H89.71A2.81,2.81,0,0,0,92.51,70.44Zm-83.77,0V17.67H91.26V70.44A1.54,1.54,0,0,1,89.71,72H10.29A1.54,1.54,0,0,1,8.74,70.44Z" transform="translate(0 -12.95)"/>
      <path class="cls-9" d="M98.69,79.25,100,76.34a.65.65,0,0,0,0-.59.64.64,0,0,0-.52-.28H93.44a6.26,6.26,0,0,0,2.55-5V19.22A6.28,6.28,0,0,0,89.71,13H10.29A6.28,6.28,0,0,0,4,19.22V70.44a6.26,6.26,0,0,0,2.55,5H.62a.64.64,0,0,0-.52.28.65.65,0,0,0,0,.59l1.26,2.91a7.83,7.83,0,0,0,2.93,3.44H.89a.62.62,0,0,0-.62.62.62.62,0,0,0,.62.62H99.11a.62.62,0,0,0,.62-.62.62.62,0,0,0-.62-.62H95.76A7.77,7.77,0,0,0,98.69,79.25ZM5.26,70.44V19.22a5,5,0,0,1,5-5H89.71a5,5,0,0,1,5,5V70.44a5,5,0,0,1-5,5H10.29A5,5,0,0,1,5.26,70.44Zm62.32,6.28-1,1.22a3,3,0,0,1-2.35,1.14H35.73a3,3,0,0,1-2.35-1.14l-1-1.22Zm24,6H8.46a6.55,6.55,0,0,1-5-2.37H15.48a.62.62,0,0,0,.62-.62.62.62,0,0,0-.62-.62H2.61c0-.11-.11-.21-.16-.33l-.88-2H30.85l1.56,2a4.19,4.19,0,0,0,3.32,1.61H64.27a4.19,4.19,0,0,0,3.32-1.61l1.56-2H98.43l-.88,2c0,.12-.11.22-.16.33H84.52a.62.62,0,0,0-.62.62.62.62,0,0,0,.62.62H96.58A6.55,6.55,0,0,1,91.54,82.69Z" transform="translate(0 -12.95)"/>
      <path class="cls-9" d="M24,79.08H19.73a.62.62,0,0,0-.62.62.62.62,0,0,0,.62.62H24a.62.62,0,0,0,.62-.62A.62.62,0,0,0,24,79.08Z" transform="translate(0 -12.95)"/>
      <path class="cls-9" d="M80.27,79.08H76a.62.62,0,0,0-.62.62.62.62,0,0,0,.62.62h4.29a.62.62,0,0,0,.62-.62A.62.62,0,0,0,80.27,79.08Z" transform="translate(0 -12.95)"/>
      <path class="cls-9" d="M8.34,87.23H.89a.63.63,0,0,0,0,1.25H8.34a.63.63,0,0,0,0-1.25Z" transform="translate(0 -12.95)"/>
      <path class="cls-9" d="M99.11,87.23H91.66a.63.63,0,0,0,0,1.25h7.45a.63.63,0,0,0,0-1.25Z" transform="translate(0 -12.95)"/>
      <path class="cls-9" d="M87.44,87.23H12.56a.63.63,0,0,0,0,1.25H87.44a.63.63,0,0,0,0-1.25Z" transform="translate(0 -12.95)"/>
    </g>
  </g>
  <path class="cls-9" d="M65.89,75.23" transform="translate(0 -12.95)"/>
  <path class="cls-9" d="M73.66,27.06V63.18H25.48V27.06Zm-1.2,1.2H67.63v7.22H31.5V28.26H26.67V62H72.46Zm-6,0H32.7v6H66.43Z" transform="translate(0 -12.95)"/>
  <path class="cls-9" d="M49.49,48.43a8.42,8.42,0,1,1,2.47,6A8.13,8.13,0,0,1,49.49,48.43Z" transform="translate(0 -12.95)"/>
  <path class="cls-8" d="M54.91,48.45A3,3,0,0,0,60,50.58a3,3,0,0,0,0-4.26,3,3,0,0,0-4.25,0A2.93,2.93,0,0,0,54.91,48.45Z" transform="translate(0 -12.95)"/>
  <path class="cls-9" d="M32.62,48.45a6,6,0,0,1,10.3-4.27,6,6,0,0,1-8.54,8.52A5.8,5.8,0,0,1,32.62,48.45Z" transform="translate(0 -12.95)"/>
  <path class="cls-8" d="M35.65,48.43a2.87,2.87,0,0,0,.89,2.13,2.95,2.95,0,0,0,4.22,0,3,3,0,1,0-5.11-2.13Z" transform="translate(0 -12.95)"/>
</svg>
