<?xml version="1.0" encoding="UTF-8"?>
<svg id="Layer_1" data-name="Layer 1" xmlns="http://www.w3.org/2000/svg" viewBox="0 0 100.04 75.52">
  <defs>
    <style>
      .cls-1 {
        fill: #321f7a;
      }

      .cls-2 {
        fill: #707070;
      }

      .cls-3 {
        fill: #f87023;
      }

      .cls-4 {
        fill: #63bce7;
      }

      .cls-5 {
        fill: #f46275;
      }

      .cls-6 {
        fill: #f8af23;
      }

      .cls-7 {
        fill: #cecece;
      }

      .cls-8 {
        fill: #9e9e9e;
      }

      .cls-9 {
        fill: #f8d323;
      }
    </style>
  </defs>
  <g>
    <g>
      <path class="cls-4" d="m10.26,63.14c-3.12,0-5.65-2.53-5.65-5.65h0V6.27C4.61,3.15,7.14.62,10.26.62h79.42c3.12,0,5.65,2.53,5.65,5.65h0v51.22c0,3.12-2.53,5.65-5.65,5.65H10.26Z"/>
      <path class="cls-6" d="m91.85,4.1v53.38c0,1.2-.96,2.17-2.16,2.18,0,0-.01,0-.02,0H10.27c-1.2,0-2.17-.96-2.18-2.16,0,0,0-.01,0-.02V4.1h83.76Z"/>
      <path class="cls-3" d="m12.12,57.48V4.1h-4v53.38c0,1.19.96,2.16,2.15,2.18h4c-1.19-.02-2.15-.99-2.15-2.18Z"/>
      <path class="cls-9" d="m87.82,57.48V4.1h4v53.38c0,1.19-.96,2.16-2.15,2.18h-4c1.19-.02,2.15-.99,2.15-2.18Z"/>
      <path class="cls-8" d="m49.97,63.14H.59l1.26,2.91c1.14,2.62,3.72,4.31,6.58,4.31h83.08c2.86,0,5.44-1.69,6.58-4.31l1.26-2.91h-49.38Z"/>
      <path class="cls-2" d="m5.89,66.05l-1.26-2.91H.63l1.26,2.91c1.14,2.6,3.7,4.29,6.54,4.31h4c-2.84-.01-5.41-1.7-6.54-4.31Z"/>
      <path class="cls-7" d="m94.05,66.05l1.26-2.91h4l-1.26,2.91c-1.14,2.62-3.72,4.31-6.58,4.31h-4c2.86,0,5.44-1.69,6.58-4.31Z"/>
      <path class="cls-5" d="m31.12,63.14l1.74,2.23c.68.87,1.73,1.39,2.84,1.39h28.54c1.11,0,2.15-.51,2.84-1.38l1.74-2.23H31.12Z"/>
    </g>
    <g>
      <path class="cls-1" d="m92.48,57.49V4.1c0-.34-.28-.62-.62-.62,0,0,0,0-.01,0H8.09c-.34,0-.62.27-.63.61,0,0,0,0,0,.01v53.39c0,1.54,1.26,2.79,2.8,2.79h79.42c1.54,0,2.79-1.25,2.8-2.79Zm-83.77,0V4.76h82.52v52.73c0,.85-.68,1.54-1.53,1.55,0,0-.01,0-.02,0H10.26c-.85,0-1.54-.68-1.55-1.53,0,0,0-.01,0-.02Z"/>
      <path class="cls-1" d="m98.66,66.3l1.31-2.91c.09-.19.09-.4,0-.59-.12-.17-.31-.28-.52-.28h-6.04c1.59-1.17,2.54-3.02,2.55-5V6.27C95.96,2.81,93.15,0,89.68,0H10.26C6.79,0,3.98,2.8,3.97,6.27h0v51.22c.01,1.98.96,3.83,2.55,5H.59c-.21,0-.4.1-.52.27-.09.19-.09.4,0,.59l1.26,2.91c.6,1.42,1.6,2.64,2.88,3.5H.86c-.34,0-.62.28-.62.62H.24c0,.34.28.62.62.62h98.22c.34,0,.62-.28.62-.62h0c0-.34-.28-.62-.62-.62h-3.35c1.3-.84,2.32-2.04,2.93-3.46ZM5.23,57.49V6.27c0-2.76,2.24-5,5-5h79.45c2.76,0,5,2.24,5,5v51.22c0,2.76-2.24,5-5,5H10.26c-2.76.02-5.01-2.21-5.03-4.97,0-.01,0-.02,0-.03Zm62.32,6.27l-1,1.23c-.57.72-1.43,1.14-2.35,1.14h-28.5c-.92,0-1.78-.42-2.35-1.14l-1-1.23h35.2Zm24,6H8.43c-1.93-.01-3.77-.88-5-2.37h12.02c.34,0,.62-.28.62-.62,0,0,0,0,0-.01,0-.34-.28-.62-.62-.62H2.58l-.16-.38-.88-2h29.28l1.56,2c.79,1.03,2.02,1.63,3.32,1.62h28.54c1.3,0,2.53-.59,3.32-1.62l1.56-2h29.28l-.88,2-.16.33h-12.87c-.34,0-.62.28-.62.62h0c0,.34.28.62.62.62h12.06c-1.23,1.52-3.08,2.41-5.04,2.43h.04Z"/>
      <path class="cls-1" d="m23.97,66.13h-4.27c-.34,0-.62.28-.62.62h0c0,.34.28.62.62.62h4.27c.34,0,.62-.28.62-.62h0c0-.34-.28-.62-.62-.62h0Z"/>
      <path class="cls-1" d="m80.24,66.13h-4.27c-.34,0-.62.28-.62.62h0c0,.34.28.62.62.62h4.29c.34,0,.62-.28.62-.62h0c0-.34-.28-.62-.62-.62,0,0-.01,0-.02,0Z"/>
      <path class="cls-1" d="m8.31,74.28H.86c-.34,0-.62.28-.62.62H.24c0,.34.28.62.62.62h7.45c.34.02.64-.24.66-.58,0-.01,0-.03,0-.04,0-.34-.28-.62-.62-.62-.01,0-.03,0-.04,0Z"/>
      <path class="cls-1" d="m99.08,74.28h-7.45c-.34,0-.62.28-.62.62h0c0,.34.28.62.62.62h7.45c.34,0,.62-.28.62-.62h0c0-.34-.28-.62-.62-.62h0Z"/>
      <path class="cls-1" d="m87.41,74.28H12.53c-.34,0-.62.28-.62.62h0c0,.34.28.62.62.62h74.88c.34,0,.62-.28.62-.62h0c0-.34-.28-.62-.62-.62h0Z"/>
    </g>
  </g>
  <g>
    <path d="m32.66,42.89c.54.34,1.34.61,2.18.61,1.24,0,1.97-.66,1.97-1.6,0-.88-.5-1.38-1.77-1.87-1.53-.54-2.48-1.34-2.48-2.66,0-1.46,1.21-2.55,3.04-2.55.96,0,1.66.22,2.08.46l-.34.99c-.31-.17-.93-.45-1.79-.45-1.28,0-1.77.77-1.77,1.41,0,.88.57,1.31,1.87,1.81,1.59.61,2.4,1.38,2.4,2.76,0,1.45-1.07,2.71-3.29,2.71-.91,0-1.9-.26-2.4-.6l.31-1.02Z"/>
    <path d="m41.12,41.22c.03,1.66,1.09,2.34,2.31,2.34.88,0,1.41-.15,1.87-.35l.21.88c-.43.19-1.17.42-2.25.42-2.08,0-3.32-1.37-3.32-3.4s1.2-3.64,3.17-3.64c2.2,0,2.79,1.94,2.79,3.18,0,.25-.03.45-.04.57h-4.74Zm3.6-.88c.01-.78-.32-1.99-1.7-1.99-1.24,0-1.79,1.14-1.88,1.99h3.58Z"/>
    <path d="m52.93,44.12c-.32.17-1.03.39-1.94.39-2.04,0-3.36-1.38-3.36-3.44s1.42-3.58,3.63-3.58c.73,0,1.37.18,1.7.35l-.28.95c-.29-.17-.75-.32-1.42-.32-1.55,0-2.39,1.14-2.39,2.55,0,1.56,1,2.52,2.34,2.52.7,0,1.16-.18,1.51-.33l.21.92Z"/>
    <path d="m60.71,42.53c0,.7.01,1.31.06,1.84h-1.09l-.07-1.1h-.03c-.32.54-1.03,1.26-2.23,1.26-1.06,0-2.33-.59-2.33-2.96v-3.95h1.23v3.74c0,1.28.39,2.15,1.51,2.15.82,0,1.39-.57,1.62-1.12.07-.18.11-.4.11-.63v-4.14h1.23v4.91Z"/>
    <path d="m63.44,39.73c0-.8-.01-1.48-.06-2.11h1.07l.04,1.33h.06c.31-.91,1.05-1.48,1.87-1.48.14,0,.24.01.35.04v1.16c-.13-.03-.25-.04-.42-.04-.86,0-1.48.66-1.65,1.58-.03.17-.06.36-.06.57v3.6h-1.21v-4.64Z"/>
    <path d="m70.12,35.72c.01.42-.29.75-.78.75-.43,0-.74-.33-.74-.75s.32-.77.77-.77.75.34.75.77Zm-1.37,8.65v-6.75h1.23v6.75h-1.23Z"/>
    <path d="m74.19,35.68v1.94h1.76v.93h-1.76v3.64c0,.84.24,1.31.92,1.31.32,0,.56-.04.71-.08l.06.92c-.24.1-.61.17-1.09.17-.57,0-1.03-.18-1.32-.52-.35-.36-.47-.96-.47-1.76v-3.68h-1.05v-.93h1.05v-1.62l1.2-.32Z"/>
    <path d="m78.6,37.62l1.48,3.99c.15.45.32.98.43,1.38h.03c.13-.4.26-.92.43-1.41l1.34-3.96h1.3l-1.84,4.81c-.88,2.31-1.48,3.5-2.31,4.23-.6.53-1.2.74-1.51.79l-.31-1.03c.31-.1.71-.29,1.07-.6.34-.26.75-.74,1.03-1.37.06-.13.1-.22.1-.29s-.03-.17-.08-.32l-2.5-6.22h1.34Z"/>
  </g>
  <g>
    <path d="m30.45,23.68c0,4.59-2.77,7.36-6.86,7.36s-6.59-3.14-6.59-7.13,2.69-7.32,6.81-7.32,6.64,3.21,6.64,7.08Zm-10.1.18c0,2.74,1.29,4.67,3.4,4.67s3.36-2.02,3.36-4.74c0-2.52-1.19-4.67-3.37-4.67s-3.39,2.02-3.39,4.74Z"/>
    <path d="m37.26,17.76v2.9h2.27v2.33h-2.27v3.68c0,1.23.3,1.79,1.25,1.79.41,0,.72-.04.94-.09l.02,2.4c-.41.15-1.16.27-2.05.27-1.02,0-1.87-.35-2.38-.88-.59-.6-.87-1.57-.87-3.01v-4.15h-1.35v-2.33h1.35v-2.18l3.09-.71Z"/>
    <path d="m42.39,16.08h3.16v5.8h.04c.33-.44.73-.78,1.24-1.05.47-.25,1.06-.4,1.64-.4,2.02,0,3.56,1.4,3.56,4.46v5.93h-3.16v-5.58c0-1.34-.46-2.25-1.63-2.25-.84,0-1.36.54-1.58,1.12-.08.19-.1.46-.1.69v6.03h-3.16v-14.73Z"/>
    <path d="m58.02,26.75c.09,1.31,1.39,1.93,2.86,1.93,1.07,0,1.94-.14,2.79-.43l.43,2.14c-1.05.43-2.32.64-3.68.64-3.44,0-5.42-2-5.42-5.17,0-2.58,1.61-5.43,5.12-5.43,3.29,0,4.54,2.56,4.54,5.07,0,.55-.06,1.02-.11,1.25h-6.53Zm3.71-2.16c0-.76-.33-2.06-1.77-2.06-1.33,0-1.87,1.22-1.96,2.06h3.73Z"/>
    <path d="m67.59,24.01c0-1.49-.03-2.47-.08-3.35h2.71l.12,1.88h.08c.52-1.49,1.76-2.11,2.74-2.11.29,0,.44,0,.67.06v2.97c-.25-.05-.5-.09-.85-.09-1.16,0-1.95.62-2.16,1.6-.04.2-.06.45-.06.7v5.14h-3.16v-6.81Z"/>
    <path d="m76.5,28.06c.58.35,1.79.76,2.71.76s1.36-.32,1.36-.84-.32-.78-1.49-1.17c-2.11-.69-2.91-1.84-2.89-3.04,0-1.91,1.61-3.34,4.13-3.34,1.19,0,2.24.28,2.86.59l-.55,2.17c-.46-.24-1.34-.57-2.2-.57-.77,0-1.21.31-1.21.82s.4.74,1.65,1.17c1.93.65,2.73,1.65,2.75,3.13,0,1.9-1.48,3.29-4.39,3.29-1.32,0-2.51-.3-3.29-.71l.57-2.25Z"/>
  </g>
</svg>