<?xml version="1.0" encoding="utf-8"?>
<!-- Generator: Adobe Illustrator 27.1.0, SVG Export Plug-In . SVG Version: 6.00 Build 0)  -->
<svg version="1.1" id="Layer_1" xmlns="http://www.w3.org/2000/svg" xmlns:xlink="http://www.w3.org/1999/xlink" x="0px" y="0px"
	 viewBox="0 0 100 75.5" style="enable-background:new 0 0 100 75.5;" xml:space="preserve">
<style type="text/css">
	.st0{fill:#63BCE7;}
	.st1{fill:#F8AF23;}
	.st2{fill:#F87023;}
	.st3{fill:#F8D323;}
	.st4{fill:#9E9E9E;}
	.st5{fill:#707070;}
	.st6{fill:#CECECE;}
	.st7{fill:#F46275;}
	.st8{fill:#321F7A;}
	.st9{stroke:#000000;stroke-miterlimit:10;}
</style>
<g>
	<g>
		<path class="st0" d="M10.3,63.1c-3.1,0-5.7-2.5-5.7-5.7l0,0V6.3c0-3.1,2.5-5.7,5.7-5.7h79.4c3.1,0,5.7,2.5,5.7,5.7l0,0v51.2
			c0,3.1-2.5,5.7-5.7,5.7C89.7,63.1,10.3,63.1,10.3,63.1z"/>
		<path class="st1" d="M91.8,4.1v53.4c0,1.2-1,2.2-2.2,2.2c0,0,0,0,0,0H10.3c-1.2,0-2.2-1-2.2-2.2c0,0,0,0,0,0V4.1
			C8.1,4.1,91.9,4.1,91.8,4.1z"/>
		<path class="st2" d="M12.1,57.5V4.1h-4v53.4c0,1.2,1,2.2,2.2,2.2h4C13.1,59.6,12.1,58.7,12.1,57.5z"/>
		<path class="st3" d="M87.8,57.5V4.1h4v53.4c0,1.2-1,2.2-2.2,2.2h-4C86.9,59.6,87.8,58.7,87.8,57.5z"/>
		<path class="st4" d="M50,63.1H0.6l1.3,2.9c1.1,2.6,3.7,4.3,6.6,4.3h83.1c2.9,0,5.4-1.7,6.6-4.3l1.3-2.9C99.4,63.1,50,63.1,50,63.1
			z"/>
		<path class="st5" d="M5.9,66.1l-1.3-2.9h-4l1.3,2.9c1.1,2.6,3.7,4.3,6.5,4.3h4C9.6,70.3,7,68.7,5.9,66.1z"/>
		<path class="st6" d="M94.1,66.1l1.3-2.9h4l-1.3,2.9c-1.1,2.6-3.7,4.3-6.6,4.3h-4C90.3,70.4,92.9,68.7,94.1,66.1z"/>
		<path class="st7" d="M31.1,63.1l1.7,2.2c0.7,0.9,1.7,1.4,2.8,1.4h28.5c1.1,0,2.2-0.5,2.8-1.4l1.7-2.2L31.1,63.1L31.1,63.1z"/>
	</g>
	<g>
		<path class="st8" d="M92.5,57.5V4.1c0-0.3-0.3-0.6-0.6-0.6c0,0,0,0,0,0H8.1c-0.3,0-0.6,0.3-0.6,0.6c0,0,0,0,0,0v53.4
			c0,1.5,1.3,2.8,2.8,2.8h79.4C91.2,60.3,92.5,59,92.5,57.5z M8.7,57.5V4.8h82.5v52.7c0,0.8-0.7,1.5-1.5,1.5c0,0,0,0,0,0H10.3
			C9.4,59,8.7,58.4,8.7,57.5C8.7,57.5,8.7,57.5,8.7,57.5z"/>
		<path class="st8" d="M98.7,66.3l1.3-2.9c0.1-0.2,0.1-0.4,0-0.6c-0.1-0.2-0.3-0.3-0.5-0.3h-6c1.6-1.2,2.5-3,2.6-5V6.3
			C96,2.8,93.2,0,89.7,0H10.3C6.8,0,4,2.8,4,6.3l0,0v51.2c0,2,1,3.8,2.5,5H0.6c-0.2,0-0.4,0.1-0.5,0.3C0,63,0,63.2,0.1,63.4l1.3,2.9
			c0.6,1.4,1.6,2.6,2.9,3.5H0.9c-0.3,0-0.6,0.3-0.6,0.6h0c0,0.3,0.3,0.6,0.6,0.6h98.2c0.3,0,0.6-0.3,0.6-0.6l0,0
			c0-0.3-0.3-0.6-0.6-0.6h-3.3C97,68.9,98.1,67.7,98.7,66.3z M5.2,57.5V6.3c0-2.8,2.2-5,5-5h79.4c2.8,0,5,2.2,5,5v51.2
			c0,2.8-2.2,5-5,5H10.3C7.5,62.5,5.2,60.3,5.2,57.5C5.2,57.5,5.2,57.5,5.2,57.5z M67.6,63.8l-1,1.2c-0.6,0.7-1.4,1.1-2.3,1.1H35.7
			c-0.9,0-1.8-0.4-2.3-1.1l-1-1.2C32.4,63.8,67.6,63.8,67.6,63.8z M91.6,69.8H8.4c-1.9,0-3.8-0.9-5-2.4h12c0.3,0,0.6-0.3,0.6-0.6
			c0,0,0,0,0,0c0-0.3-0.3-0.6-0.6-0.6H2.6l-0.2-0.4l-0.9-2h29.3l1.6,2c0.8,1,2,1.6,3.3,1.6h28.5c1.3,0,2.5-0.6,3.3-1.6l1.6-2h29.3
			l-0.9,2l-0.2,0.3H84.5c-0.3,0-0.6,0.3-0.6,0.6l0,0c0,0.3,0.3,0.6,0.6,0.6h12.1C95.3,68.8,93.5,69.7,91.6,69.8
			C91.5,69.8,91.5,69.8,91.6,69.8z"/>
		<path class="st8" d="M24,66.1h-4.3c-0.3,0-0.6,0.3-0.6,0.6l0,0c0,0.3,0.3,0.6,0.6,0.6H24c0.3,0,0.6-0.3,0.6-0.6l0,0
			C24.6,66.4,24.3,66.1,24,66.1L24,66.1z"/>
		<path class="st8" d="M80.2,66.1H76c-0.3,0-0.6,0.3-0.6,0.6l0,0c0,0.3,0.3,0.6,0.6,0.6h4.3c0.3,0,0.6-0.3,0.6-0.6l0,0
			C80.9,66.4,80.6,66.1,80.2,66.1C80.3,66.1,80.2,66.1,80.2,66.1z"/>
		<path class="st8" d="M8.3,74.3H0.9c-0.3,0-0.6,0.3-0.6,0.6h0c0,0.3,0.3,0.6,0.6,0.6h7.4c0.3,0,0.6-0.2,0.7-0.6c0,0,0,0,0,0
			C9,74.6,8.7,74.3,8.3,74.3C8.3,74.3,8.3,74.3,8.3,74.3z"/>
		<path class="st8" d="M99.1,74.3h-7.4c-0.3,0-0.6,0.3-0.6,0.6l0,0c0,0.3,0.3,0.6,0.6,0.6h7.4c0.3,0,0.6-0.3,0.6-0.6l0,0
			C99.7,74.6,99.4,74.3,99.1,74.3L99.1,74.3z"/>
		<path class="st8" d="M87.4,74.3H12.5c-0.3,0-0.6,0.3-0.6,0.6l0,0c0,0.3,0.3,0.6,0.6,0.6h74.9c0.3,0,0.6-0.3,0.6-0.6l0,0
			C88,74.6,87.8,74.3,87.4,74.3C87.4,74.3,87.4,74.3,87.4,74.3z"/>
	</g>
</g>
<g>
	<path class="st9" d="M17.6,25.6c0.9-0.1,2-0.2,3.2-0.2c2.1,0,3.7,0.5,4.7,1.4c1,0.9,1.6,2.3,1.6,4.1c0,1.9-0.6,3.4-1.7,4.5
		c-1.1,1.1-2.9,1.7-5.1,1.7c-1.1,0-2-0.1-2.7-0.1L17.6,25.6L17.6,25.6z M19.1,35.8c0.4,0.1,0.9,0.1,1.5,0.1c3.2,0,4.9-1.8,4.9-4.9
		c0-2.7-1.5-4.5-4.7-4.5c-0.8,0-1.4,0.1-1.7,0.2L19.1,35.8L19.1,35.8z"/>
	<path class="st9" d="M31.5,26.4c0,0.5-0.4,0.9-1,0.9c-0.5,0-0.9-0.4-0.9-0.9c0-0.5,0.4-0.9,0.9-0.9S31.5,25.9,31.5,26.4z M29.8,37
		v-8.3h1.5V37H29.8z"/>
	<path class="st9" d="M34.5,35.5c0.4,0.3,1.2,0.6,2,0.6c1.1,0,1.6-0.5,1.6-1.2c0-0.7-0.4-1.1-1.5-1.5c-1.5-0.5-2.2-1.4-2.2-2.3
		c0-1.3,1.1-2.4,2.9-2.4c0.8,0,1.6,0.2,2,0.5l-0.4,1.1c-0.3-0.2-0.9-0.5-1.7-0.5c-0.9,0-1.4,0.5-1.4,1.1c0,0.7,0.5,1,1.6,1.4
		c1.4,0.5,2.2,1.3,2.2,2.5c0,1.5-1.1,2.5-3.1,2.5c-0.9,0-1.7-0.2-2.3-0.6L34.5,35.5L34.5,35.5z"/>
	<path class="st9" d="M43.8,32.5L43.8,32.5c0.2-0.3,0.5-0.7,0.8-0.9l2.4-2.9h1.8l-3.2,3.4l3.6,4.9h-1.8l-2.9-4l-0.8,0.9V37h-1.5
		V24.8h1.5V32.5z"/>
	<path class="st9" d="M57.4,26.4c0,0.5-0.4,0.9-1,0.9c-0.5,0-0.9-0.4-0.9-0.9c0-0.5,0.4-0.9,0.9-0.9C57,25.4,57.4,25.9,57.4,26.4z
		 M55.7,37v-8.3h1.5V37H55.7z"/>
	<path class="st9" d="M60.6,31c0-0.9,0-1.6-0.1-2.2h1.3l0.1,1.4h0c0.4-0.8,1.4-1.6,2.7-1.6c1.1,0,2.9,0.7,2.9,3.5v5h-1.5v-4.8
		c0-1.3-0.5-2.4-1.9-2.4c-1,0-1.8,0.7-2,1.5c-0.1,0.2-0.1,0.4-0.1,0.7v5h-1.5L60.6,31L60.6,31z"/>
	<path class="st9" d="M71.1,37v-7.1H70v-1.1h1.2v-0.4c0-1.2,0.3-2.2,1-2.9c0.6-0.5,1.3-0.8,2-0.8c0.5,0,1,0.1,1.3,0.2l-0.2,1.2
		c-0.2-0.1-0.5-0.2-1-0.2c-1.3,0-1.6,1.1-1.6,2.4v0.4h2v1.1h-2V37H71.1L71.1,37z"/>
	<path class="st9" d="M84.1,32.8c0,3.1-2.1,4.4-4.1,4.4c-2.2,0-4-1.6-4-4.3c0-2.8,1.8-4.4,4.1-4.4C82.4,28.5,84.1,30.2,84.1,32.8z
		 M77.5,32.9c0,1.8,1,3.2,2.5,3.2c1.5,0,2.5-1.4,2.5-3.2c0-1.4-0.7-3.2-2.5-3.2C78.3,29.7,77.5,31.3,77.5,32.9L77.5,32.9z"/>
</g>
</svg>
