<svg id="Layer_1" data-name="Layer 1" xmlns="http://www.w3.org/2000/svg" viewBox="0 0 100 85.86">
  <defs>
    <style>
      .cls-1 {
        fill: #63bce7;
      }

      .cls-2 {
        fill: #6377e7;
      }

      .cls-3 {
        fill: #63e2e7;
      }

      .cls-4 {
        fill: #f8af23;
      }

      .cls-5 {
        fill: #f87023;
      }

      .cls-6 {
        fill: #f8d323;
      }

      .cls-7 {
        fill: #f46275;
      }

      .cls-8 {
        fill: #321f7a;
      }

      .cls-9 {
        fill: #8f1700;
      }
    </style>
  </defs>
  <title>rafuguard_block</title>
  <g>
    <path class="cls-1" d="M92.57,91.94H7.44A6.78,6.78,0,0,1,.66,85.17v-71A6.78,6.78,0,0,1,7.44,7.41H92.57a6.77,6.77,0,0,1,6.77,6.77v71A6.77,6.77,0,0,1,92.57,91.94Z" transform="translate(0 -6.75)"/>
    <path class="cls-2" d="M5,85.17v-71a6.77,6.77,0,0,1,6.77-6.77H7.43A6.77,6.77,0,0,0,.66,14.18v71a6.77,6.77,0,0,0,6.77,6.77h4.32A6.77,6.77,0,0,1,5,85.17Z" transform="translate(0 -6.75)"/>
    <path class="cls-3" d="M95,85.17v-71a6.78,6.78,0,0,0-6.78-6.77h4.32a6.77,6.77,0,0,1,6.77,6.77v71a6.77,6.77,0,0,1-6.77,6.77H88.25A6.78,6.78,0,0,0,95,85.17Z" transform="translate(0 -6.75)"/>
    <path class="cls-4" d="M99.34,14.18a6.77,6.77,0,0,0-6.77-6.77H7.44A6.78,6.78,0,0,0,.66,14.18V26H99.34Z" transform="translate(0 -6.75)"/>
    <path class="cls-5" d="M5,14.18a6.77,6.77,0,0,1,6.77-6.77H7.43A6.77,6.77,0,0,0,.66,14.18V26H5Z" transform="translate(0 -6.75)"/>
    <path class="cls-6" d="M99.34,14.18a6.77,6.77,0,0,0-6.77-6.77H88.25A6.78,6.78,0,0,1,95,14.18V26h4.31Z" transform="translate(0 -6.75)"/>
    <g>
      <g>
        <g>
          <circle class="cls-7" cx="87.25" cy="9.94" r="3.09"/>
          <circle class="cls-7" cx="75.34" cy="9.94" r="3.09"/>
          <circle class="cls-7" cx="63.43" cy="9.94" r="3.09"/>
        </g>
        <path class="cls-7" d="M9.66,16.89h0A2.36,2.36,0,0,1,12,14.54H51.15a2.36,2.36,0,0,1,2.35,2.35h0a2.36,2.36,0,0,1-2.35,2.36H12A2.36,2.36,0,0,1,9.66,16.89Z" transform="translate(0 -6.75)"/>
      </g>
      <path class="cls-8" d="M83.49,16.69a3.76,3.76,0,1,0,3.76-3.76A3.76,3.76,0,0,0,83.49,16.69Zm1.33,0a2.43,2.43,0,1,1,2.43,2.43A2.43,2.43,0,0,1,84.82,16.69Z" transform="translate(0 -6.75)"/>
      <path class="cls-8" d="M71.58,16.69a3.76,3.76,0,1,0,3.76-3.76A3.76,3.76,0,0,0,71.58,16.69Zm1.33,0a2.43,2.43,0,1,1,2.43,2.43A2.43,2.43,0,0,1,72.91,16.69Z" transform="translate(0 -6.75)"/>
      <path class="cls-8" d="M59.67,16.69a3.76,3.76,0,1,0,3.76-3.76A3.75,3.75,0,0,0,59.67,16.69Zm1.33,0a2.43,2.43,0,1,1,2.43,2.43A2.43,2.43,0,0,1,61,16.69Z" transform="translate(0 -6.75)"/>
      <path class="cls-8" d="M9,16.89a3,3,0,0,0,3,3H51.15a3,3,0,1,0,0-6H12A3,3,0,0,0,9,16.89Zm1.32,0A1.69,1.69,0,0,1,12,15.2H51.15a1.69,1.69,0,0,1,0,3.38H12A1.69,1.69,0,0,1,10.32,16.89Z" transform="translate(0 -6.75)"/>
    </g>
    <path class="cls-8" d="M77.54,92.6h15A7.44,7.44,0,0,0,100,85.17v-71a7.44,7.44,0,0,0-7.43-7.43H7.44A7.44,7.44,0,0,0,0,14.18v71A7.44,7.44,0,0,0,7.44,92.6h15M1.33,14.18A6.12,6.12,0,0,1,7.44,8.07H92.57a6.11,6.11,0,0,1,6.1,6.11V25.3H1.33Z" transform="translate(0 -6.75)"/>
    <path class="cls-2" d="M5.64,85.19V26.85H1.33V85.19c0,3.08,3,5.57,6.77,5.57h4.31C8.67,90.76,5.64,88.27,5.64,85.19Z" transform="translate(0 -6.75)"/>
    <path class="cls-1" d="M92.24,90.76H11.41C7.85,90.76,5,87.6,5,83.7V26.85H98.67V83.7C98.67,87.6,95.8,90.76,92.24,90.76Z" transform="translate(0 -6.75)"/>
    <path class="cls-1" d="M0,31.26" transform="translate(0 -6.75)"/>
    <path class="cls-3" d="M94.84,85.19V26.85h3.87V85.19a5.84,5.84,0,0,1-6.07,5.57H88.77A5.84,5.84,0,0,0,94.84,85.19Z" transform="translate(0 -6.75)"/>
  </g>
  <path class="cls-4" d="M67.39,37.58a47.61,47.61,0,0,1-15.17-6.4,3.61,3.61,0,0,0-3.94,0,47.61,47.61,0,0,1-15.17,6.4,3.67,3.67,0,0,0-2.91,3.55V60.52a21.43,21.43,0,0,0,1,6.37,21.8,21.8,0,0,0,8,11.16L48.68,85a2.67,2.67,0,0,0,1.57.51A2.62,2.62,0,0,0,51.81,85l9.55-6.93a21.6,21.6,0,0,0,8.93-17.53V41.13A3.65,3.65,0,0,0,67.39,37.58Z" transform="translate(0 -6.75)"/>
  <path class="cls-8" d="M67.39,37.58a47.61,47.61,0,0,1-15.17-6.4,3.61,3.61,0,0,0-3.94,0,47.61,47.61,0,0,1-15.17,6.4,3.67,3.67,0,0,0-2.91,3.55V60.52a21.43,21.43,0,0,0,1,6.37,21.8,21.8,0,0,0,8,11.16L48.68,85a2.67,2.67,0,0,0,1.57.51A2.62,2.62,0,0,0,51.81,85l9.55-6.93a21.6,21.6,0,0,0,8.93-17.53V41.13A3.65,3.65,0,0,0,67.39,37.58Zm.49,23A19,19,0,0,1,67,66.18a19.29,19.29,0,0,1-7.09,9.92L50.4,83a.27.27,0,0,1-.3,0L40.56,76.1a19.31,19.31,0,0,1-7.09-9.91,19.08,19.08,0,0,1-.85-5.66V41.14a1.24,1.24,0,0,1,1-1.2,48.61,48.61,0,0,0,16-6.74,1.26,1.26,0,0,1,1.32,0,48.61,48.61,0,0,0,16,6.74,1.24,1.24,0,0,1,1,1.2V60.53Z" transform="translate(0 -6.75)"/>
  <path class="cls-9" d="M61.14,57.93a11,11,0,0,1-11,11,11,11,0,0,1-11-11,11,11,0,0,1,11-11,11,11,0,0,1,11,11Zm-5.28,7.23L42.92,52.22A9.21,9.21,0,0,0,55.86,65.16Zm3.53-7.23a9.24,9.24,0,0,0-15.23-7l13,13A9,9,0,0,0,59.39,57.93Z" transform="translate(0 -6.75)"/>
</svg>
