<?xml version="1.0" encoding="utf-8"?>
<!-- Generator: Adobe Illustrator 21.0.0, SVG Export Plug-In . SVG Version: 6.00 Build 0)  -->
<svg version="1.1" id="Layer_1" xmlns="http://www.w3.org/2000/svg" xmlns:xlink="http://www.w3.org/1999/xlink" x="0px" y="0px"
	 viewBox="0 0 256 256" style="enable-background:new 0 0 256 256;" xml:space="preserve">
<style type="text/css">
	.st0{fill:#F8AF23;}
	.st1{fill:#F87023;}
	.st2{fill:#8C8C8C;}
	.st3{fill:#63BCE7;}
	.st4{fill:#63E2E7;}
	.st5{fill:#6377E7;}
	.st6{fill:#000B75;}
	.st7{fill:#4C4C4C;}
	.st8{fill:#321F7A;}
	.st9{fill:#F8D323;}
	.st10{fill:#F46275;}
	.st11{fill:#9E9E9E;}
	.st12{fill:#F43075;}
	.st13{fill:#707070;}
	.st14{fill:#CECECE;}
	.st15{fill:#67BEEB;}
</style>
<g>
	<g>
		<path class="st3" d="M32.035,192.827c-7.535,0-13.665-6.13-13.665-13.665V55.386c0-7.535,6.13-13.665,13.665-13.665h191.931
			c7.535,0,13.665,6.13,13.665,13.665v123.776c0,7.535-6.13,13.665-13.665,13.665H32.035z"/>
		<path class="st0" d="M229.221,50.13v129.008c0,2.916-2.364,5.28-5.28,5.28H32.059c-2.916,0-5.28-2.364-5.28-5.28V50.13H229.221z"
			/>
		<path class="st1" d="M36.538,179.138V50.13h-9.76v129.008c0,2.916,2.364,5.28,5.28,5.28h9.76
			C38.903,184.418,36.538,182.054,36.538,179.138z"/>
		<path class="st9" d="M219.462,179.138V50.13h9.76v129.008c0,2.916-2.364,5.28-5.28,5.28h-9.76
			C217.098,184.418,219.462,182.054,219.462,179.138z"/>
		<path class="st11" d="M128,192.827H8.667l3.053,7.024c2.751,6.329,8.995,10.423,15.896,10.423H128h100.385
			c6.901,0,13.145-4.094,15.896-10.423l3.053-7.024H128z"/>
		<path class="st13" d="M21.479,199.851l-3.053-7.024h-9.76l3.053,7.024c2.751,6.329,8.995,10.423,15.896,10.423h9.76
			C30.474,210.274,24.23,206.18,21.479,199.851z"/>
		<path class="st14" d="M234.521,199.851l3.053-7.024h9.76l-3.053,7.024c-2.751,6.329-8.995,10.423-15.896,10.423h-9.76
			C225.526,210.274,231.77,206.18,234.521,199.851z"/>
		<path class="st10" d="M82.442,192.827l4.22,5.388c1.649,2.106,4.175,3.336,6.85,3.336h68.975c2.675,0,5.201-1.23,6.85-3.336
			l4.221-5.388H82.442z"/>
	</g>
	<g>
		<path class="st11" d="M115.363,70.361c-7.098-4.332-15.421-6.834-24.3-6.834h0c-8.879,0-17.202,2.502-24.3,6.834
			c-13.52,8.252-22.594,23.147-22.594,40.06v27.104c0,16.912,9.074,31.807,22.594,40.059c7.098,4.332,15.421,6.834,24.3,6.834h0
			c8.879,0,17.202-2.502,24.3-6.834c13.52-8.252,22.594-23.147,22.594-40.059V110.42C137.957,93.508,128.883,78.613,115.363,70.361z
			"/>
		<polygon class="st0" points="137.957,136.842 44.17,136.842 44.17,112.565 45.459,111.8 136.266,111.75 137.957,112.565 		"/>
		<g>
			<circle class="st8" cx="69.892" cy="129.058" r="4.354"/>
			<circle class="st8" cx="112.235" cy="129.058" r="4.354"/>
		</g>
		<path class="st3" d="M172.268,79.035c5.635,12.296-29.767,39.035-81.18,38.965c-51.413,0.071-86.815-26.669-81.18-38.965
			c5.353-12.784,40.974-10.222,81.18-10.628C131.292,68.813,166.915,66.251,172.268,79.035z"/>
		<path class="st3" d="M125.493,34.786c0,0-25.744,4.057-34.405,4.057s-34.405-4.057-34.405-4.057
			c-2.866-0.338-5.384,1.901-5.384,4.787V78.66c0,4.578,17.814,8.29,39.789,8.29s39.789-3.712,39.789-8.29V39.573
			C130.878,36.688,128.359,34.448,125.493,34.786z"/>
	</g>
	<rect x="137.957" y="93.031" class="st11" width="81.505" height="91.388"/>
	<g>
		<path class="st10" d="M161.603,158.793h4.307c1.914,0,3.948,0.419,3.948,2.871c0,2.512-2.273,2.871-3.948,2.871h-14.595
			c-1.675,0-3.948-0.359-3.948-2.871c0-2.452,2.034-2.871,3.948-2.871h4.546v-20.756h-4.546c-1.675,0-3.948-0.358-3.948-2.871
			c0-2.452,2.034-2.871,3.948-2.871h6.042c3.29,0,4.247,0.599,4.247,4.008V158.793z M152.929,120.692
			c0-2.034,1.137-2.692,2.692-2.692h3.29c1.556,0,2.692,0.658,2.692,2.692v2.751c0,2.034-1.136,2.692-2.692,2.692h-3.29
			c-1.555,0-2.692-0.658-2.692-2.692V120.692z"/>
	</g>
	<g>
		<path class="st8" d="M245.656,200.449l3.053-7.023c0.202-0.464,0.156-0.998-0.121-1.421c-0.277-0.422-0.749-0.677-1.254-0.677
			h-14.352c3.722-2.766,6.149-7.182,6.149-12.165V55.386c0-8.362-6.803-15.165-15.165-15.165h-91.588v-0.648
			c0-1.804-0.773-3.525-2.121-4.724c-1.348-1.198-3.149-1.763-4.939-1.553c-0.019,0.002-0.039,0.005-0.058,0.008
			c-0.256,0.041-25.727,4.039-34.171,4.039c-8.444,0-33.915-3.999-34.229-4.047c-1.792-0.208-3.592,0.355-4.939,1.553
			c-1.348,1.198-2.121,2.92-2.121,4.724v0.648H32.035c-8.362,0-15.165,6.803-15.165,15.165v15.932
			c-4.151,1.667-7.011,3.954-8.325,7.092c-1.398,3.051-0.771,6.792,1.816,10.816c1.567,2.438,3.779,4.886,6.513,7.276
			c0,0.013-0.004,0.026-0.004,0.039v82.621c0,4.983,2.427,9.399,6.149,12.165H8.667c-0.505,0-0.977,0.255-1.254,0.678
			c-0.277,0.422-0.323,0.957-0.121,1.42l3.053,7.023c1.517,3.491,4.013,6.351,7.08,8.325H9.32c-0.829,0-1.5,0.671-1.5,1.5
			s0.671,1.5,1.5,1.5h18.295h200.77h18.295c0.829,0,1.5-0.671,1.5-1.5s-0.671-1.5-1.5-1.5h-8.104
			C241.644,206.8,244.139,203.94,245.656,200.449z M107.767,182.918c2.903-1.075,5.71-2.426,8.377-4.054
			c9.477-5.784,16.565-14.645,20.312-24.795v28.849H107.767z M28.279,104.409c3.212,1.811,6.708,3.527,10.452,5.098
			c1.221,0.512,2.544,1.036,3.939,1.562v0.015v25.758v0.683c0,16.723,8.933,32.563,23.312,41.34
			c2.667,1.628,5.475,2.979,8.378,4.054H32.035c-2.071,0-3.756-1.685-3.756-3.756V104.409z M136.457,135.342H45.669v-23.187
			c10.918,3.78,26.241,7.345,45.208,7.345c0.136,0,0.274,0,0.409,0c15.712,0,31.279-2.536,45.17-7.335V135.342z M67.544,176.304
			c-13.258-8.092-21.562-22.582-21.848-37.962h43.866v16.279c0,0.829,0.671,1.5,1.5,1.5s1.5-0.671,1.5-1.5v-16.279h43.867
			c-0.286,15.381-8.59,29.87-21.848,37.962c-7.09,4.327-15.223,6.614-23.519,6.614S74.635,180.631,67.544,176.304z M139.457,137.525
			v-0.683v-25.758v-0.663v-15.89h78.504v88.388h-78.504V137.525z M219.461,91.531h-49.317c3.922-4.867,5.166-9.459,3.508-13.075
			c-2.661-6.353-10.752-10.723-41.274-11.389V51.63h95.344v127.532c0,2.071-1.685,3.756-3.756,3.756h-3.004V93.031
			C220.961,92.202,220.29,91.531,219.461,91.531z M49.8,67.065c-8.17,0.173-15.43,0.579-21.521,1.458V51.63H49.8V67.065z
			 M52.8,63.433c7.419,4.458,26.896,5.764,38.289,5.764c11.393,0,30.87-1.306,38.289-5.764V78.66c0,2.305-13.515,6.79-38.289,6.79
			c-24.774,0-38.289-4.485-38.289-6.79V63.433z M52.8,39.573c0-0.961,0.396-1.843,1.114-2.481c0.623-0.553,1.397-0.845,2.176-0.845
			c0.12,0,0.24,0.007,0.36,0.021c1.056,0.166,25.959,4.075,34.638,4.075c8.606,0,33.164-3.843,34.606-4.07
			c0.946-0.106,1.856,0.186,2.568,0.819c0.719,0.639,1.114,1.52,1.114,2.481v19.833c0,2.305-13.515,6.79-38.289,6.79
			c-24.774,0-38.289-4.485-38.289-6.79V39.573z M19.87,55.386c0-6.708,5.457-12.165,12.165-12.165H49.8v5.409H26.779
			c-0.829,0-1.5,0.671-1.5,1.5v18.883c-1.949,0.359-3.755,0.778-5.409,1.267V55.386z M12.885,87.604
			c-1.399-2.176-2.814-5.322-1.592-7.989c3.207-7.661,20.26-9.167,38.507-9.551v8.595c0,7.744,27.008,9.79,41.289,9.79
			c14.281,0,41.289-2.046,41.289-9.79v-8.595c18.24,0.383,35.298,1.887,38.527,9.596c1.346,2.937-0.383,7.263-4.744,11.868
			c-0.001,0.001-0.001,0.002-0.002,0.002h-24.694c3.936-2.546,7.065-5.27,9.202-7.989c0.512-0.651,0.399-1.594-0.252-2.106
			c-0.651-0.513-1.595-0.4-2.106,0.252c-6.301,8.014-26.533,19.916-56.479,19.916c-0.084,0-0.168,0-0.252,0
			c-18.031,0-48.752-6.826-57.655-21.523c-0.429-0.708-1.352-0.935-2.061-0.506c-0.708,0.43-0.935,1.352-0.506,2.061
			c5.784,9.548,28.264,22.97,60.163,22.969c0.102,0,0.204,0,0.305,0c17.724,0,33.438-4.318,44.633-10.166v14.55
			c-13.824,4.914-29.416,7.512-45.174,7.512c-0.135,0-0.268,0-0.402,0C49.897,116.5,20.604,99.616,12.885,87.604z M19.87,179.163
			V98.941c1.665,1.262,3.47,2.5,5.409,3.702v76.519c0,3.725,3.031,6.756,6.756,6.756h105.922h81.504h4.504
			c3.725,0,6.756-3.031,6.756-6.756V50.13c0-0.829-0.671-1.5-1.5-1.5h-96.844v-5.409h91.588c6.708,0,12.165,5.457,12.165,12.165
			v123.776c0,6.708-5.457,12.165-12.165,12.165h-50.407H82.442H32.035C25.327,191.328,19.87,185.871,19.87,179.163z
			 M170.478,194.328l-2.321,2.963c-1.375,1.754-3.441,2.76-5.669,2.76H93.513c-2.229,0-4.295-1.006-5.669-2.76l-2.321-2.963H170.478
			z M228.385,208.774H27.615c-4.787,0-9.22-2.157-12.18-5.724h29.14c0.829,0,1.5-0.671,1.5-1.5s-0.671-1.5-1.5-1.5H13.478
			c-0.132-0.263-0.264-0.526-0.382-0.798l-2.141-4.925h21.081h49.677l3.77,4.812c1.947,2.485,4.874,3.911,8.031,3.911h68.975
			c3.157,0,6.084-1.425,8.031-3.911l3.77-4.812h49.677h21.081l-2.141,4.925c-0.118,0.272-0.25,0.535-0.382,0.798h-31.099
			c-0.829,0-1.5,0.671-1.5,1.5s0.671,1.5,1.5,1.5h29.141C237.605,206.618,233.172,208.774,228.385,208.774z"/>
		<path class="st8" d="M65.22,200.051H54.845c-0.829,0-1.5,0.671-1.5,1.5s0.671,1.5,1.5,1.5H65.22c0.829,0,1.5-0.671,1.5-1.5
			S66.048,200.051,65.22,200.051z"/>
		<path class="st8" d="M201.155,200.051H190.78c-0.829,0-1.5,0.671-1.5,1.5s0.671,1.5,1.5,1.5h10.375c0.829,0,1.5-0.671,1.5-1.5
			S201.984,200.051,201.155,200.051z"/>
		<path class="st8" d="M27.323,219.748H9.32c-0.829,0-1.5,0.671-1.5,1.5s0.671,1.5,1.5,1.5h18.003c0.829,0,1.5-0.671,1.5-1.5
			S28.152,219.748,27.323,219.748z"/>
		<path class="st8" d="M246.68,219.748h-18.003c-0.829,0-1.5,0.671-1.5,1.5s0.671,1.5,1.5,1.5h18.003c0.829,0,1.5-0.671,1.5-1.5
			S247.509,219.748,246.68,219.748z"/>
		<path class="st8" d="M218.479,219.748H37.521c-0.829,0-1.5,0.671-1.5,1.5s0.671,1.5,1.5,1.5h180.959c0.829,0,1.5-0.671,1.5-1.5
			S219.308,219.748,218.479,219.748z"/>
		<path class="st8" d="M79.656,119.438H60.127c-0.829,0-1.5,0.671-1.5,1.5s0.671,1.5,1.5,1.5h19.529c0.829,0,1.5-0.671,1.5-1.5
			S80.485,119.438,79.656,119.438z"/>
		<path class="st8" d="M102.47,122.438H122c0.829,0,1.5-0.671,1.5-1.5s-0.671-1.5-1.5-1.5H102.47c-0.829,0-1.5,0.671-1.5,1.5
			S101.642,122.438,102.47,122.438z"/>
		<path class="st8" d="M165.909,157.293h-2.807v-20.99c0-4.63-2.02-5.508-5.747-5.508h-6.042c-4.74,0-5.448,2.739-5.448,4.371
			c0,1.314,0.531,4.371,5.448,4.371h3.046v17.756h-3.046c-4.74,0-5.448,2.739-5.448,4.371c0,1.314,0.531,4.371,5.448,4.371h14.595
			c4.917,0,5.448-3.057,5.448-4.371C171.357,160.032,170.649,157.293,165.909,157.293z M165.909,163.036h-14.595
			c-2.448,0-2.448-0.825-2.448-1.371c0-0.611,0-1.371,2.448-1.371h4.546c0.829,0,1.5-0.671,1.5-1.5v-20.756
			c0-0.829-0.671-1.5-1.5-1.5h-4.546c-2.448,0-2.448-0.825-2.448-1.371c0-0.611,0-1.371,2.448-1.371h6.042
			c2.644,0,2.747,0.094,2.747,2.508v22.49c0,0.829,0.671,1.5,1.5,1.5h4.307c2.448,0,2.448,0.76,2.448,1.371
			C168.357,162.21,168.357,163.036,165.909,163.036z"/>
		<path class="st8" d="M155.621,127.635h3.29c2.625,0,4.192-1.567,4.192-4.192v-2.751c0-2.625-1.567-4.192-4.192-4.192h-3.29
			c-2.625,0-4.192,1.567-4.192,4.192v2.751C151.429,126.068,152.996,127.635,155.621,127.635z M154.429,120.692
			c0-0.969,0.223-1.192,1.192-1.192h3.29c0.969,0,1.192,0.223,1.192,1.192v2.751c0,0.969-0.223,1.192-1.192,1.192h-3.29
			c-0.969,0-1.192-0.223-1.192-1.192V120.692z"/>
		<path class="st8" d="M211.424,109.217H178c-0.829,0-1.5,0.671-1.5,1.5s0.671,1.5,1.5,1.5h33.424c0.829,0,1.5-0.671,1.5-1.5
			S212.253,109.217,211.424,109.217z"/>
		<path class="st8" d="M211.424,118.217H178c-0.829,0-1.5,0.671-1.5,1.5s0.671,1.5,1.5,1.5h33.424c0.829,0,1.5-0.671,1.5-1.5
			S212.253,118.217,211.424,118.217z"/>
		<path class="st8" d="M211.424,127.217H178c-0.829,0-1.5,0.671-1.5,1.5s0.671,1.5,1.5,1.5h33.424c0.829,0,1.5-0.671,1.5-1.5
			S212.253,127.217,211.424,127.217z"/>
		<path class="st8" d="M211.424,136.217H178c-0.829,0-1.5,0.671-1.5,1.5s0.671,1.5,1.5,1.5h33.424c0.829,0,1.5-0.671,1.5-1.5
			S212.253,136.217,211.424,136.217z"/>
		<path class="st8" d="M211.424,145.217H178c-0.829,0-1.5,0.671-1.5,1.5s0.671,1.5,1.5,1.5h33.424c0.829,0,1.5-0.671,1.5-1.5
			S212.253,145.217,211.424,145.217z"/>
		<path class="st8" d="M211.424,154.217H178c-0.829,0-1.5,0.671-1.5,1.5s0.671,1.5,1.5,1.5h33.424c0.829,0,1.5-0.671,1.5-1.5
			S212.253,154.217,211.424,154.217z"/>
		<path class="st8" d="M211.424,163.217H178c-0.829,0-1.5,0.671-1.5,1.5s0.671,1.5,1.5,1.5h33.424c0.829,0,1.5-0.671,1.5-1.5
			S212.253,163.217,211.424,163.217z"/>
		<path class="st8" d="M211.424,172.217H178c-0.829,0-1.5,0.671-1.5,1.5s0.671,1.5,1.5,1.5h33.424c0.829,0,1.5-0.671,1.5-1.5
			S212.253,172.217,211.424,172.217z"/>
	</g>
</g>
</svg>
