<?xml version="1.0" encoding="utf-8"?>
<!-- Generator: Adobe Illustrator 21.0.0, SVG Export Plug-In . SVG Version: 6.00 Build 0)  -->
<svg version="1.1" id="Layer_1" xmlns="http://www.w3.org/2000/svg" xmlns:xlink="http://www.w3.org/1999/xlink" x="0px" y="0px"
	 viewBox="0 0 256 256" style="enable-background:new 0 0 256 256;" xml:space="preserve">
<style type="text/css">
	.st0{fill:#F8AF23;}
	.st1{fill:#F87023;}
	.st2{fill:#8C8C8C;}
	.st3{fill:#63BCE7;}
	.st4{fill:#63E2E7;}
	.st5{fill:#6377E7;}
	.st6{fill:#000B75;}
	.st7{fill:#4C4C4C;}
	.st8{fill:#321F7A;}
	.st9{fill:#F8D323;}
	.st10{fill:#F46275;}
	.st11{fill:#9E9E9E;}
	.st12{fill:#F43075;}
	.st13{fill:#707070;}
	.st14{fill:#CECECE;}
	.st15{fill:#67BEEB;}
</style>
<g>
	<g>
		<path class="st3" d="M29.619,201.227c-7.724,0-14.009-6.285-14.009-14.009V60.326c0-7.724,6.285-14.009,14.009-14.009h196.762
			c7.724,0,14.009,6.285,14.009,14.009v126.892c0,7.724-6.285,14.009-14.009,14.009H29.619z"/>
		<path class="st0" d="M231.769,174.916c0,2.963-2.425,5.388-5.388,5.388H29.619c-2.963,0-5.388-2.425-5.388-5.388V60.326
			c0-2.963,2.425-5.388,5.388-5.388h196.762c2.963,0,5.388,2.425,5.388,5.388V174.916z"/>
		<path class="st1" d="M33.991,174.916V60.326c0-2.963,2.425-5.388,5.388-5.388h-9.76c-2.963,0-5.388,2.425-5.388,5.388v114.59
			c0,2.963,2.425,5.388,5.388,5.388h9.76C36.415,180.304,33.991,177.88,33.991,174.916z"/>
		<path class="st9" d="M222.009,174.916V60.326c0-2.963-2.425-5.388-5.388-5.388h9.76c2.963,0,5.388,2.425,5.388,5.388v114.59
			c0,2.963-2.425,5.388-5.388,5.388h-9.76C219.585,180.304,222.009,177.88,222.009,174.916z"/>
		<rect x="88.847" y="223.943" class="st10" width="78.305" height="9.429"/>
		<rect x="99.983" y="201.227" class="st11" width="56.035" height="22.716"/>
		<rect x="88.847" y="223.943" class="st12" width="9.76" height="9.429"/>
		<rect x="99.983" y="201.227" class="st13" width="9.76" height="22.716"/>
		<circle class="st10" cx="128" cy="190.766" r="4.613"/>
		<rect x="33.989" y="103.024" class="st11" width="47.005" height="20.5"/>
		<rect x="80.994" y="103.024" class="st11" width="47.005" height="20.5"/>
		<rect x="127.999" y="103.024" class="st11" width="47.005" height="20.5"/>
		<rect x="175.004" y="103.024" class="st11" width="47.005" height="20.5"/>
		<rect x="57.492" y="123.524" class="st11" width="47.005" height="20.5"/>
		<rect x="104.497" y="123.524" class="st11" width="47.005" height="20.5"/>
		<rect x="151.503" y="123.524" class="st11" width="47.005" height="20.5"/>
		<rect x="33.989" y="144.024" class="st11" width="47.005" height="20.5"/>
		<rect x="80.994" y="144.024" class="st11" width="47.005" height="20.5"/>
		<rect x="127.999" y="144.024" class="st11" width="47.005" height="20.5"/>
		<rect x="175.004" y="144.024" class="st11" width="47.005" height="20.5"/>
		<g>
			<rect x="96.275" y="39.187" class="st3" width="63.45" height="63.837"/>
			<path class="st10" d="M151.906,35.563c0-13.182-10.724-23.906-23.906-23.906c-13.182,0-23.906,10.724-23.906,23.906v3.624h7.309
				v-3.625c0-9.166,7.431-16.597,16.597-16.597c9.166,0,16.597,7.431,16.597,16.597v3.625h7.309V35.563z"/>
			<g>
				<path class="st10" d="M136.963,49.365h-17.925c-5.183,0-9.385,4.202-9.385,9.385v33.568h36.696V58.75
					C146.348,53.567,142.146,49.365,136.963,49.365z"/>
				<path class="st13" d="M134.41,79.759l-2.295-9.476l0,0c0.919-0.965,1.484-2.27,1.484-3.708c0-2.971-2.409-5.38-5.38-5.38
					c-2.971,0-5.38,2.409-5.38,5.38c0,1.438,0.565,2.743,1.484,3.708l-2.295,9.476c-0.613,2.531,1.304,4.968,3.908,4.968h2.282
					h2.282C133.106,84.726,135.023,82.289,134.41,79.759z"/>
			</g>
		</g>
	</g>
	<g>
		<path class="st8" d="M128,196.879c3.371,0,6.113-2.742,6.113-6.113s-2.742-6.113-6.113-6.113s-6.113,2.742-6.113,6.113
			S124.629,196.879,128,196.879z M128,187.652c1.717,0,3.113,1.396,3.113,3.113s-1.396,3.113-3.113,3.113s-3.113-1.396-3.113-3.113
			S126.283,187.652,128,187.652z"/>
		<path class="st8" d="M147.848,92.318V58.75c0-6.002-4.883-10.885-10.885-10.885h-17.925c-6.002,0-10.885,4.883-10.885,10.885
			v33.568c0,0.829,0.671,1.5,1.5,1.5h36.695C147.176,93.818,147.848,93.147,147.848,92.318z M144.848,90.818h-33.695V58.75
			c0-4.348,3.537-7.885,7.885-7.885h17.925c4.348,0,7.885,3.537,7.885,7.885V90.818z"/>
		<path class="st8" d="M133.751,70.664c0.875-1.179,1.349-2.603,1.349-4.09c0-3.793-3.086-6.879-6.88-6.879
			s-6.879,3.086-6.879,6.879c0,1.487,0.474,2.911,1.349,4.09l-2.117,8.742c-0.401,1.656-0.026,3.374,1.027,4.713
			c1.053,1.339,2.635,2.107,4.339,2.107h4.563c1.704,0,3.286-0.768,4.34-2.107c1.053-1.339,1.428-3.057,1.027-4.713L133.751,70.664z
			 M132.483,82.264c-0.481,0.612-1.204,0.962-1.982,0.962h-4.563c-0.778,0-1.5-0.351-1.981-0.962
			c-0.481-0.611-0.652-1.396-0.469-2.152l2.295-9.477c0.12-0.496-0.02-1.018-0.372-1.388c-0.69-0.725-1.07-1.674-1.07-2.673
			c0-2.139,1.74-3.879,3.879-3.879s3.88,1.74,3.88,3.879c0,0.999-0.38,1.949-1.07,2.673c-0.352,0.37-0.492,0.892-0.372,1.388
			l2.295,9.477C133.135,80.868,132.964,81.652,132.483,82.264z"/>
		<path class="st8" d="M27.323,242.843H9.32c-0.829,0-1.5,0.671-1.5,1.5s0.671,1.5,1.5,1.5h18.003c0.829,0,1.5-0.671,1.5-1.5
			S28.152,242.843,27.323,242.843z"/>
		<path class="st8" d="M246.68,242.843h-18.003c-0.829,0-1.5,0.671-1.5,1.5s0.671,1.5,1.5,1.5h18.003c0.829,0,1.5-0.671,1.5-1.5
			S247.509,242.843,246.68,242.843z"/>
		<path class="st8" d="M218.479,242.843H37.521c-0.829,0-1.5,0.671-1.5,1.5s0.671,1.5,1.5,1.5h180.959c0.829,0,1.5-0.671,1.5-1.5
			S219.308,242.843,218.479,242.843z"/>
		<path class="st8" d="M9.32,234.871h79.513c0.005,0,0.01,0.001,0.015,0.001h78.306c0.005,0,0.01-0.001,0.015-0.001h79.513
			c0.829,0,1.5-0.671,1.5-1.5s-0.671-1.5-1.5-1.5h-78.027v-7.928c0-0.829-0.671-1.5-1.5-1.5h-9.635v-19.716h68.864
			c8.551,0,15.508-6.957,15.508-15.509V60.326c0-8.552-6.957-15.509-15.508-15.509h-65.156v-5.63c0-0.829-0.671-1.5-1.5-1.5h-6.319
			v-2.125c0-14.009-11.397-25.406-25.407-25.406c-14.009,0-25.406,11.397-25.406,25.406v2.125h-6.319c-0.829,0-1.5,0.671-1.5,1.5
			v5.63H29.619c-8.551,0-15.508,6.957-15.508,15.509v126.892c0,8.552,6.957,15.509,15.508,15.509h68.864v19.716h-9.635
			c-0.829,0-1.5,0.671-1.5,1.5v7.928H9.32c-0.829,0-1.5,0.671-1.5,1.5S8.491,234.871,9.32,234.871z M159.725,104.524h13.779v17.5
			h-22.002h-22.003v-17.5H159.725z M176.504,104.524h44.005v17.5h-22.001h-22.003V104.524z M173.504,163.024h-44.005v-17.5h22.003
			h22.002V163.024z M126.499,163.024H82.494v-17.5h22.003h22.001V163.024z M79.494,163.024H35.489v-17.5h22.003h22.002V163.024z
			 M79.494,122.024H57.492H35.489v-17.5h44.005V122.024z M58.992,125.024h22.002h22.003v17.5H80.994H58.992V125.024z
			 M127.999,125.024h22.003v17.5h-22.003h-22.001v-17.5H127.999z M176.504,145.524h22.003h22.001v17.5h-44.005V145.524z
			 M197.008,142.524h-22.003h-22.002v-17.5h22.002h22.003V142.524z M126.499,122.024h-22.001H82.494v-17.5h13.781h30.224V122.024z
			 M94.775,101.524H80.994H33.989c-0.829,0-1.5,0.671-1.5,1.5v20.5c0,0.829,0.671,1.5,1.5,1.5h22.003v17.5H33.989
			c-0.829,0-1.5,0.671-1.5,1.5v20.5c0,0.829,0.671,1.5,1.5,1.5h47.005h47.005h47.005h47.005c0.829,0,1.5-0.671,1.5-1.5v-20.5
			c0-0.829-0.671-1.5-1.5-1.5h-22.001v-17.5h22.001c0.829,0,1.5-0.671,1.5-1.5v-20.5c0-0.829-0.671-1.5-1.5-1.5h-47.005h-13.779
			V56.438h65.156c2.144,0,3.888,1.744,3.888,3.888v114.59c0,2.144-1.744,3.888-3.888,3.888H29.619c-2.144,0-3.888-1.744-3.888-3.888
			V60.326c0-2.144,1.744-3.888,3.888-3.888h65.156V101.524z M105.594,35.563c0-12.355,10.051-22.406,22.406-22.406
			c12.355,0,22.407,10.051,22.407,22.406v2.125h-4.309v-2.125c0-9.979-8.118-18.097-18.097-18.097s-18.097,8.118-18.097,18.097
			v2.125h-4.309V35.563z M112.903,37.688v-2.125c0-8.324,6.772-15.097,15.097-15.097s15.097,6.772,15.097,15.097v2.125H112.903z
			 M97.775,40.688h6.319h7.309h33.194h7.309h6.319v60.837h-30.226H97.775V40.688z M17.11,187.218V60.326
			c0-6.897,5.611-12.509,12.508-12.509h65.156v5.621H29.619c-3.798,0-6.888,3.09-6.888,6.888v114.59c0,3.798,3.09,6.888,6.888,6.888
			h196.762c3.798,0,6.888-3.09,6.888-6.888V60.326c0-3.798-3.09-6.888-6.888-6.888h-65.156v-5.621h65.156
			c6.897,0,12.508,5.611,12.508,12.509v126.892c0,6.897-5.611,12.509-12.508,12.509h-70.364H99.982H29.619
			C22.722,199.727,17.11,194.116,17.11,187.218z M101.482,202.727h53.035v19.716h-53.035V202.727z M90.347,225.443h9.635h56.035
			h9.635v6.428H90.347V225.443z"/>
	</g>
</g>
</svg>
