<?xml version="1.0" encoding="utf-8"?>
<!-- Generator: Adobe Illustrator 21.0.0, SVG Export Plug-In . SVG Version: 6.00 Build 0)  -->
<svg version="1.1" id="Layer_1" xmlns="http://www.w3.org/2000/svg" xmlns:xlink="http://www.w3.org/1999/xlink" x="0px" y="0px"
	 viewBox="0 0 256 256" style="enable-background:new 0 0 256 256;" xml:space="preserve">
<style type="text/css">
	.st0{fill:#F8AF23;}
	.st1{fill:#F87023;}
	.st2{fill:#8C8C8C;}
	.st3{fill:#63BCE7;}
	.st4{fill:#63E2E7;}
	.st5{fill:#6377E7;}
	.st6{fill:#000B75;}
	.st7{fill:#4C4C4C;}
	.st8{fill:#321F7A;}
	.st9{fill:#F8D323;}
	.st10{fill:#F46275;}
	.st11{fill:#9E9E9E;}
	.st12{fill:#F43075;}
	.st13{fill:#707070;}
	.st14{fill:#CECECE;}
	.st15{fill:#67BEEB;}
</style>
<g>
	<g>
		<g>
			<g>
				<g>
					<g>
						<g>
							<path class="st3" d="M32.035,215.091c-7.535,0-13.665-6.13-13.665-13.665V77.65c0-7.535,6.13-13.665,13.665-13.665h191.931
								c7.535,0,13.665,6.13,13.665,13.665v123.776c0,7.535-6.13,13.665-13.665,13.665H32.035z"/>
							<path class="st0" d="M229.221,72.394v129.008c0,2.916-2.364,5.28-5.28,5.28H32.059c-2.916,0-5.28-2.364-5.28-5.28V72.394
								H229.221z"/>
							<path class="st1" d="M36.538,201.402V72.394h-9.76v129.008c0,2.916,2.364,5.28,5.28,5.28h9.76
								C38.903,206.682,36.538,204.318,36.538,201.402z"/>
							<path class="st9" d="M219.462,201.402V72.394h9.76v129.008c0,2.916-2.364,5.28-5.28,5.28h-9.76
								C217.098,206.682,219.462,204.318,219.462,201.402z"/>
							<path class="st11" d="M128,215.091H8.667l3.053,7.024c2.751,6.329,8.995,10.423,15.896,10.423H128h100.385
								c6.901,0,13.145-4.094,15.896-10.423l3.053-7.024H128z"/>
							<path class="st13" d="M21.479,222.115l-3.053-7.024h-9.76l3.053,7.024c2.751,6.329,8.995,10.423,15.896,10.423h9.76
								C30.474,232.538,24.23,228.444,21.479,222.115z"/>
							<path class="st14" d="M234.521,222.115l3.053-7.024h9.76l-3.053,7.024c-2.751,6.329-8.995,10.423-15.896,10.423h-9.76
								C225.526,232.538,231.77,228.444,234.521,222.115z"/>
							<path class="st10" d="M82.442,215.091l4.22,5.388c1.649,2.106,4.175,3.336,6.85,3.336h68.975c2.675,0,5.201-1.23,6.85-3.336
								l4.221-5.388H82.442z"/>
						</g>
					</g>
				</g>
			</g>
		</g>
		<path class="st3" d="M198.74,192.511H57.26c-7.975,0-14.5-6.525-14.5-14.5v0c0-7.975,6.525-14.5,14.5-14.5h141.48
			c7.975,0,14.5,6.525,14.5,14.5v0C213.24,185.986,206.715,192.511,198.74,192.511z"/>
		<g>
			<rect x="98.989" y="105.076" class="st11" width="58.08" height="58.435"/>
			<g>
				<path class="st10" d="M136.287,114.392H119.77c-4.715,0-8.536,3.822-8.536,8.536v30.782h33.59v-30.782
					C144.824,118.214,141.002,114.392,136.287,114.392z"/>
				<path class="st13" d="M133.896,142.214l-2.101-8.674l0,0c0.841-0.883,1.359-2.078,1.359-3.394c0-2.72-2.205-4.924-4.924-4.924
					c-2.72,0-4.924,2.205-4.924,4.924c0,1.316,0.517,2.511,1.359,3.394l-2.101,8.674c-0.561,2.317,1.194,4.547,3.577,4.547h2.089
					h2.089C132.702,146.761,134.457,144.53,133.896,142.214z"/>
			</g>
		</g>
	</g>
	<g>
		<path class="st8" d="M27.352,242.011H9.349c-0.829,0-1.5,0.672-1.5,1.5s0.671,1.5,1.5,1.5h18.003c0.829,0,1.5-0.672,1.5-1.5
			S28.181,242.011,27.352,242.011z"/>
		<path class="st8" d="M246.709,242.011h-18.003c-0.828,0-1.5,0.672-1.5,1.5s0.672,1.5,1.5,1.5h18.003c0.828,0,1.5-0.672,1.5-1.5
			S247.537,242.011,246.709,242.011z"/>
		<path class="st8" d="M218.509,242.011H37.549c-0.829,0-1.5,0.672-1.5,1.5s0.671,1.5,1.5,1.5h180.959c0.828,0,1.5-0.672,1.5-1.5
			S219.337,242.011,218.509,242.011z"/>
		<path class="st8" d="M245.656,222.712l3.053-7.023c0.201-0.464,0.155-0.997-0.122-1.42c-0.276-0.423-0.748-0.678-1.254-0.678
			h-14.351c3.722-2.766,6.148-7.182,6.148-12.164V77.65c0-8.362-6.803-15.165-15.164-15.165h-75.554V19.614
			c0-3.102,2.523-5.625,5.625-5.625s5.625,2.523,5.625,5.625v19.057c0,4.756,3.869,8.625,8.625,8.625h0.75
			c4.756,0,8.625-3.869,8.625-8.625v-12.5c0-3.102,2.523-5.625,5.625-5.625h17.954c0.828,0,1.5-0.672,1.5-1.5s-0.672-1.5-1.5-1.5
			h-17.954c-4.756,0-8.625,3.869-8.625,8.625v12.5c0,3.102-2.523,5.625-5.625,5.625h-0.75c-3.102,0-5.625-2.523-5.625-5.625V19.614
			c0-4.756-3.869-8.625-8.625-8.625s-8.625,3.869-8.625,8.625v42.871H91.057c-0.748-3.011-1.151-6.156-1.151-9.396v-4.516
			l6.344,5.622c0.62,0.549,1.568,0.492,2.117-0.128S98.86,52.5,98.24,51.95l-8.839-7.833c-0.441-0.392-1.071-0.487-1.61-0.245
			c-0.538,0.242-0.884,0.778-0.884,1.368v7.85c0,3.23,0.379,6.373,1.073,9.396H32.035c-8.362,0-15.165,6.803-15.165,15.165v123.776
			c0,4.982,2.427,9.398,6.149,12.164H8.667c-0.505,0-0.977,0.255-1.254,0.678s-0.323,0.957-0.121,1.42l3.053,7.023
			c1.517,3.491,4.012,6.352,7.08,8.326H9.349c-0.829,0-1.5,0.672-1.5,1.5s0.671,1.5,1.5,1.5h18.267h200.77h18.324
			c0.828,0,1.5-0.672,1.5-1.5s-0.672-1.5-1.5-1.5h-8.133C241.643,229.063,244.139,226.203,245.656,222.712z M19.87,201.427V77.65
			c0-6.708,5.457-12.165,12.165-12.165h56.74c0.576,1.862,1.284,3.666,2.103,5.408H26.779c-0.829,0-1.5,0.672-1.5,1.5v129.033
			c0,3.725,3.031,6.755,6.756,6.755h191.931c3.725,0,6.755-3.03,6.755-6.755V72.394c0-0.828-0.672-1.5-1.5-1.5H94.224
			c-0.893-1.732-1.658-3.538-2.287-5.408h132.029c6.707,0,12.164,5.457,12.164,12.165v123.776c0,6.707-5.457,12.164-12.164,12.164
			h-50.408H82.442H32.035C25.327,213.591,19.87,208.134,19.87,201.427z M113.445,97.227c0.762,0.319,1.643-0.034,1.966-0.798
			c0.463-1.095,1.064-2.101,1.765-3.014c3.727,1.087,7.663,1.681,11.736,1.681c0.828,0,1.5-0.672,1.5-1.5s-0.672-1.5-1.5-1.5
			c-3.21,0-6.327-0.397-9.313-1.132c2.357-1.84,5.302-2.898,8.43-2.898c7.549,0,13.692,6.143,13.692,13.692v1.818H98.989
			c-0.829,0-1.5,0.672-1.5,1.5v56.935H57.26c-8.822,0-16,7.178-16,16s7.178,16,16,16h141.48c8.822,0,16-7.178,16-16s-7.178-16-16-16
			h-40.171v-56.935c0-0.828-0.672-1.5-1.5-1.5h-12.349v-1.818c0-9.204-7.488-16.692-16.692-16.692c-4.528,0-8.74,1.821-11.811,4.898
			c-8.441-2.915-15.575-8.646-20.276-16.07h131.779v127.533c0,2.07-1.685,3.755-3.755,3.755H32.035
			c-2.071,0-3.756-1.685-3.756-3.755V73.894h64.164c4.841,8.453,12.527,15.072,21.751,18.535c-0.595,0.883-1.12,1.826-1.546,2.833
			C112.326,96.023,112.683,96.903,113.445,97.227z M98.989,165.011h58.081h41.671c7.168,0,13,5.832,13,13s-5.832,13-13,13H57.26
			c-7.168,0-13-5.832-13-13s5.832-13,13-13H98.989z M155.569,162.011h-55.081v-55.435h55.081V162.011z M170.478,216.591l-2.32,2.964
			c-1.374,1.754-3.44,2.76-5.67,2.76H93.513c-2.229,0-4.295-1.006-5.669-2.76l-2.321-2.964H170.478z M228.385,231.038H27.615
			c-4.787,0-9.22-2.157-12.18-5.724h29.14c0.829,0,1.5-0.672,1.5-1.5s-0.671-1.5-1.5-1.5H13.478
			c-0.132-0.263-0.264-0.526-0.382-0.798l-2.141-4.926h21.081h49.677l3.77,4.813c1.946,2.485,4.874,3.91,8.031,3.91h68.975
			c3.157,0,6.085-1.425,8.031-3.91l3.769-4.813h49.678h21.08l-2.142,4.926c-0.118,0.272-0.25,0.535-0.382,0.798h-31.098
			c-0.828,0-1.5,0.672-1.5,1.5s0.672,1.5,1.5,1.5h29.141C237.605,228.881,233.172,231.038,228.385,231.038z"/>
		<path class="st8" d="M65.22,222.314H54.845c-0.829,0-1.5,0.672-1.5,1.5s0.671,1.5,1.5,1.5H65.22c0.829,0,1.5-0.672,1.5-1.5
			S66.048,222.314,65.22,222.314z"/>
		<path class="st8" d="M201.155,222.314H190.78c-0.828,0-1.5,0.672-1.5,1.5s0.672,1.5,1.5,1.5h10.375c0.828,0,1.5-0.672,1.5-1.5
			S201.983,222.314,201.155,222.314z"/>
		<path class="st8" d="M66.288,184.754c0.287,0.257,0.645,0.383,1.001,0.383c0.411,0,0.821-0.168,1.117-0.499l3.927-4.38l3.927,4.38
			c0.296,0.331,0.706,0.499,1.117,0.499c0.356,0,0.714-0.126,1.001-0.383c0.617-0.554,0.668-1.502,0.115-2.118l-4.147-4.625
			l4.147-4.625c0.553-0.616,0.501-1.564-0.115-2.118c-0.618-0.554-1.566-0.503-2.118,0.116l-3.927,4.38l-3.927-4.38
			c-0.553-0.618-1.501-0.67-2.118-0.116c-0.617,0.554-0.668,1.502-0.115,2.118l4.147,4.625l-4.147,4.625
			C65.619,183.252,65.671,184.2,66.288,184.754z"/>
		<path class="st8" d="M88.554,184.754c0.287,0.257,0.645,0.383,1.001,0.383c0.411,0,0.821-0.168,1.117-0.499l3.927-4.38l3.927,4.38
			c0.296,0.331,0.706,0.499,1.117,0.499c0.356,0,0.714-0.126,1.001-0.383c0.617-0.554,0.668-1.502,0.115-2.118l-4.147-4.625
			l4.147-4.625c0.553-0.616,0.501-1.564-0.115-2.118c-0.617-0.554-1.566-0.503-2.118,0.116l-3.927,4.38l-3.927-4.38
			c-0.552-0.618-1.501-0.67-2.118-0.116c-0.617,0.554-0.668,1.502-0.115,2.118l4.147,4.625l-4.147,4.625
			C87.886,183.252,87.937,184.2,88.554,184.754z"/>
		<path class="st8" d="M110.821,184.754c0.287,0.257,0.645,0.383,1.001,0.383c0.411,0,0.821-0.168,1.117-0.499l3.928-4.38
			l3.928,4.38c0.296,0.331,0.706,0.499,1.117,0.499c0.356,0,0.714-0.126,1.001-0.383c0.617-0.554,0.668-1.502,0.115-2.118
			l-4.147-4.625l4.147-4.625c0.553-0.616,0.501-1.564-0.115-2.118c-0.617-0.554-1.566-0.503-2.118,0.116l-3.928,4.38l-3.928-4.38
			c-0.553-0.618-1.501-0.67-2.118-0.116c-0.617,0.554-0.668,1.502-0.115,2.118l4.147,4.625l-4.147,4.625
			C110.152,183.252,110.204,184.2,110.821,184.754z"/>
		<path class="st8" d="M133.088,184.754c0.286,0.257,0.644,0.383,1,0.383c0.412,0,0.821-0.168,1.118-0.499l3.927-4.38l3.927,4.38
			c0.297,0.331,0.706,0.499,1.118,0.499c0.356,0,0.714-0.126,1-0.383c0.617-0.554,0.669-1.502,0.116-2.118l-4.147-4.625l4.147-4.625
			c0.553-0.616,0.501-1.564-0.116-2.118s-1.564-0.501-2.118,0.116l-3.927,4.38l-3.927-4.38c-0.554-0.617-1.501-0.67-2.118-0.116
			s-0.669,1.502-0.116,2.118l4.147,4.625l-4.147,4.625C132.419,183.252,132.471,184.2,133.088,184.754z"/>
		<path class="st8" d="M155.354,184.754c0.286,0.257,0.644,0.383,1,0.383c0.412,0,0.821-0.168,1.118-0.499l3.927-4.38l3.927,4.38
			c0.297,0.331,0.706,0.499,1.118,0.499c0.356,0,0.714-0.126,1-0.383c0.617-0.554,0.669-1.502,0.116-2.118l-4.147-4.625l4.147-4.625
			c0.553-0.616,0.501-1.564-0.116-2.118c-0.616-0.554-1.564-0.501-2.118,0.116l-3.927,4.38l-3.927-4.38
			c-0.555-0.617-1.502-0.67-2.118-0.116c-0.617,0.554-0.669,1.502-0.116,2.118l4.147,4.625l-4.147,4.625
			C154.686,183.252,154.737,184.2,155.354,184.754z"/>
		<path class="st8" d="M177.621,184.754c0.286,0.257,0.644,0.383,1,0.383c0.412,0,0.821-0.168,1.118-0.499l3.927-4.38l3.927,4.38
			c0.297,0.331,0.706,0.499,1.118,0.499c0.356,0,0.714-0.126,1-0.383c0.617-0.554,0.669-1.502,0.116-2.118l-4.147-4.625l4.147-4.625
			c0.553-0.616,0.501-1.564-0.116-2.118s-1.565-0.501-2.118,0.116l-3.927,4.38l-3.927-4.38c-0.554-0.617-1.501-0.67-2.118-0.116
			s-0.669,1.502-0.116,2.118l4.147,4.625l-4.147,4.625C176.952,183.252,177.004,184.2,177.621,184.754z"/>
		<path class="st8" d="M119.77,112.893c-5.534,0-10.036,4.502-10.036,10.036v30.781c0,0.828,0.671,1.5,1.5,1.5h33.59
			c0.828,0,1.5-0.672,1.5-1.5v-30.781c0-5.534-4.503-10.036-10.037-10.036H119.77z M143.324,122.929v29.281h-30.59v-29.281
			c0-3.88,3.156-7.036,7.036-7.036h16.517C140.167,115.893,143.324,119.049,143.324,122.929z"/>
		<path class="st8" d="M133.431,133.916c0.794-1.091,1.224-2.402,1.224-3.771c0-3.543-2.882-6.425-6.424-6.425
			c-3.542,0-6.424,2.882-6.424,6.425c0,1.368,0.43,2.68,1.224,3.771l-1.924,7.944c-0.376,1.555-0.025,3.166,0.963,4.423
			c0.989,1.257,2.473,1.978,4.072,1.978h4.177c1.599,0,3.083-0.721,4.072-1.978c0.988-1.256,1.34-2.868,0.964-4.422L133.431,133.916
			z M132.033,144.429c-0.417,0.528-1.042,0.832-1.715,0.832h-4.177c-0.673,0-1.298-0.304-1.714-0.832
			c-0.416-0.529-0.564-1.208-0.405-1.862l2.101-8.675c0.12-0.495-0.02-1.019-0.372-1.388c-0.609-0.639-0.945-1.477-0.945-2.358
			c0-1.889,1.536-3.425,3.424-3.425s3.424,1.536,3.424,3.425c0,0.882-0.336,1.72-0.944,2.359c-0.352,0.369-0.492,0.892-0.372,1.387
			l2.101,8.675C132.597,143.221,132.449,143.899,132.033,144.429z"/>
	</g>
</g>
</svg>
