<?xml version="1.0" encoding="utf-8"?>
<!-- Generator: Adobe Illustrator 21.0.0, SVG Export Plug-In . SVG Version: 6.00 Build 0)  -->
<svg version="1.1" id="Layer_1" xmlns="http://www.w3.org/2000/svg" xmlns:xlink="http://www.w3.org/1999/xlink" x="0px" y="0px"
	 viewBox="0 0 256 256" style="enable-background:new 0 0 256 256;" xml:space="preserve">
<style type="text/css">
	.st0{fill:#F8AF23;}
	.st1{fill:#F87023;}
	.st2{fill:#8C8C8C;}
	.st3{fill:#63BCE7;}
	.st4{fill:#63E2E7;}
	.st5{fill:#6377E7;}
	.st6{fill:#000B75;}
	.st7{fill:#4C4C4C;}
	.st8{fill:#321F7A;}
	.st9{fill:#F8D323;}
	.st10{fill:#F46275;}
	.st11{fill:#9E9E9E;}
	.st12{fill:#F43075;}
	.st13{fill:#707070;}
	.st14{fill:#CECECE;}
	.st15{fill:#67BEEB;}
</style>
<g>
	<g>
		<g>
			<path class="st3" d="M128,220.722c-54.152,0-98.208-44.056-98.208-98.208S73.848,24.305,128,24.305s98.208,44.056,98.208,98.208
				S182.152,220.722,128,220.722z M128,35.305c-48.087,0-87.208,39.122-87.208,87.208S79.913,209.722,128,209.722
				s87.208-39.122,87.208-87.208S176.087,35.305,128,35.305z"/>
		</g>
		<path class="st3" d="M124.542,54.586c-6.605,4.29-22.054,13.277-40.921,17.262c-2.972,0.628-5.128,3.202-5.128,6.24l0,50.954
			c0,5.357,0.801,10.683,2.376,15.803v0c3.425,11.131,10.373,20.848,19.799,27.688l25.082,18.203c1.341,0.973,3.156,0.973,4.497,0
			l25.082-18.203c9.425-6.84,16.374-16.557,19.799-27.688v0c1.575-5.12,2.376-10.447,2.376-15.803V78.089
			c0-3.038-2.156-5.612-5.128-6.24c-18.867-3.985-34.315-12.973-40.921-17.262C129.35,53.218,126.65,53.218,124.542,54.586z"/>
		<g>
			<path class="st5" d="M90.63,144.846L90.63,144.846c-1.575-5.12-2.376-10.447-2.376-15.803v-58.3
				c-1.521,0.396-3.06,0.773-4.632,1.106c-2.972,0.628-5.128,3.202-5.128,6.24v50.954c0,5.357,0.801,10.683,2.376,15.803v0
				c3.425,11.131,10.373,20.848,19.799,27.688l25.082,18.203c1.341,0.973,3.156,0.973,4.497,0l2.631-1.909l-22.451-16.293
				C101.003,165.694,94.055,155.977,90.63,144.846z"/>
		</g>
		<g>
			<circle class="st0" cx="128" cy="122.513" r="34.94"/>
			<path class="st10" d="M139.355,105.179l-17.664,20.164l-5.789-4.677c-2.578-2.081-6.355-1.684-8.438,0.885
				c-2.086,2.564-1.691,6.331,0.883,8.412l14.777,11.93l25.27-28.844c2.18-2.488,1.924-6.267-0.574-8.44
				C145.328,102.439,141.532,102.691,139.355,105.179z"/>
		</g>
		<g>
			<g>
				<g>
					<path class="st0" d="M128,234.451c-3.038,0-5.5-2.462-5.5-5.5v-24.333c0-3.038,2.462-5.5,5.5-5.5s5.5,2.462,5.5,5.5v24.333
						C133.5,231.989,131.038,234.451,128,234.451z"/>
				</g>
				<g>
					<path class="st0" d="M128,45.91c-3.038,0-5.5-2.462-5.5-5.5V16.076c0-3.038,2.462-5.5,5.5-5.5s5.5,2.462,5.5,5.5V40.41
						C133.5,43.447,131.038,45.91,128,45.91z"/>
				</g>
			</g>
			<g>
				<g>
					<path class="st0" d="M45.896,128.014H21.562c-3.038,0-5.5-2.462-5.5-5.5s2.462-5.5,5.5-5.5h24.333c3.038,0,5.5,2.462,5.5,5.5
						S48.934,128.014,45.896,128.014z"/>
				</g>
				<g>
					<path class="st0" d="M234.438,128.014h-24.333c-3.038,0-5.5-2.462-5.5-5.5s2.462-5.5,5.5-5.5h24.333c3.038,0,5.5,2.462,5.5,5.5
						S237.475,128.014,234.438,128.014z"/>
				</g>
			</g>
		</g>
		<g>
			<path class="st4" d="M172.378,71.849c-1.572-0.332-3.11-0.71-4.632-1.106v58.3c0,5.357-0.801,10.683-2.376,15.803v0
				c-3.425,11.131-10.373,20.848-19.799,27.688l-22.451,16.293l2.631,1.909c1.341,0.973,3.156,0.973,4.497,0l25.082-18.203
				c9.425-6.84,16.374-16.557,19.799-27.688v0c1.575-5.12,2.376-10.447,2.376-15.803V78.088
				C177.506,75.051,175.35,72.477,172.378,71.849z"/>
		</g>
	</g>
	<g>
		<path class="st8" d="M164.44,122.514c0-20.093-16.347-36.44-36.44-36.44s-36.44,16.347-36.44,36.44s16.347,36.44,36.44,36.44
			S164.44,142.607,164.44,122.514z M128,155.954c-18.439,0-33.44-15.001-33.44-33.44s15.001-33.44,33.44-33.44
			s33.44,15.001,33.44,33.44S146.439,155.954,128,155.954z"/>
		<path class="st8" d="M148.805,103.478c-3.115-2.711-7.86-2.392-10.579,0.714l-16.714,19.079l-4.668-3.771
			c-3.215-2.595-7.945-2.098-10.543,1.105c-1.261,1.551-1.842,3.499-1.635,5.486c0.208,1.99,1.18,3.779,2.739,5.04l14.777,11.93
			c0.277,0.224,0.61,0.333,0.942,0.333c0.418,0,0.833-0.174,1.129-0.512l25.271-28.844c1.318-1.505,1.97-3.432,1.835-5.426
			C151.223,106.616,150.316,104.792,148.805,103.478z M147.266,112.061l-24.321,27.76l-13.655-11.024
			c-0.934-0.755-1.517-1.826-1.641-3.018c-0.124-1.188,0.223-2.354,0.979-3.283c0.887-1.094,2.188-1.662,3.5-1.662
			c0.995,0,1.998,0.327,2.83,0.999l5.79,4.677c0.625,0.505,1.541,0.427,2.071-0.179l17.665-20.164l0,0
			c1.632-1.864,4.481-2.055,6.351-0.427c0.905,0.788,1.448,1.879,1.529,3.074C148.445,110.007,148.055,111.16,147.266,112.061z"/>
		<path class="st8" d="M131.129,191.951l25.083-18.203c9.626-6.985,16.854-17.093,20.352-28.461
			c1.621-5.267,2.442-10.732,2.442-16.244V78.088c0-3.692-2.657-6.934-6.317-7.708c-18.935-4-34.57-13.258-40.414-17.053
			c-2.597-1.686-5.952-1.686-8.549,0v0c-5.844,3.794-21.479,13.053-40.414,17.052c-3.661,0.773-6.317,4.015-6.317,7.708v50.955
			c0,5.512,0.822,10.977,2.442,16.245c3.498,11.368,10.726,21.476,20.352,28.461l25.083,18.203c0.936,0.68,2.032,1.019,3.129,1.019
			C129.097,192.97,130.194,192.63,131.129,191.951z M101.55,171.321c-9.103-6.606-15.938-16.166-19.246-26.916
			c-1.533-4.981-2.31-10.15-2.31-15.362V78.088c0-2.32,1.619-4.282,3.938-4.772c18.728-3.956,33.995-12.645,41.428-17.472v0
			c1.604-1.042,3.678-1.042,5.281,0c7.433,4.827,22.7,13.516,41.428,17.472c2.318,0.49,3.938,2.452,3.938,4.772v50.955
			c0,5.212-0.777,10.381-2.31,15.362c-3.308,10.75-10.144,20.31-19.246,26.916l-25.083,18.203c-0.817,0.594-1.916,0.595-2.735,0
			L101.55,171.321z"/>
		<path class="st8" d="M27.323,243.924H9.32c-0.829,0-1.5,0.671-1.5,1.5s0.671,1.5,1.5,1.5h18.003c0.829,0,1.5-0.671,1.5-1.5
			S28.152,243.924,27.323,243.924z"/>
		<path class="st8" d="M246.68,243.924h-18.003c-0.829,0-1.5,0.671-1.5,1.5s0.671,1.5,1.5,1.5h18.003c0.829,0,1.5-0.671,1.5-1.5
			S247.509,243.924,246.68,243.924z"/>
		<path class="st8" d="M218.479,243.924H37.521c-0.829,0-1.5,0.671-1.5,1.5s0.671,1.5,1.5,1.5h180.959c0.829,0,1.5-0.671,1.5-1.5
			S219.308,243.924,218.479,243.924z"/>
		<path class="st8" d="M9.32,235.951h237.36c0.829,0,1.5-0.671,1.5-1.5s-0.671-1.5-1.5-1.5H133.736c0.794-1.135,1.264-2.513,1.264-4
			v-6.991c49.512-3.45,88.997-42.926,92.447-92.446h6.99c3.86,0,7-3.14,7-7s-3.14-7-7-7h-6.989
			C223.997,65.98,184.508,26.518,135,23.068v-6.992c0-3.86-3.14-7-7-7s-7,3.14-7,7v6.991c-49.563,3.452-88.994,42.907-92.443,92.447
			h-6.994c-3.86,0-7,3.14-7,7s3.14,7,7,7h6.993c3.45,49.54,42.89,88.995,92.444,92.446v6.992c0,1.487,0.47,2.865,1.264,4H9.32
			c-0.829,0-1.5,0.671-1.5,1.5S8.491,235.951,9.32,235.951z M121,204.618v3.301c-41.661-3.387-75.018-36.756-78.404-78.405h3.3
			c3.86,0,7-3.14,7-7s-3.14-7-7-7h-3.301C45.982,73.863,79.347,40.495,121,37.108v3.301c0,3.86,3.14,7,7,7s7-3.14,7-7v-3.301
			c41.641,3.386,75.019,36.76,78.405,78.405h-3.301c-3.86,0-7,3.14-7,7s3.14,7,7,7h3.3c-3.386,41.626-36.748,75.02-78.404,78.407
			v-3.303c0-3.86-3.14-7-7-7S121,200.758,121,204.618z M135,218.95v-8.018c43.31-3.401,78.015-38.141,81.415-81.419h8.023
			C221,177.375,182.854,215.513,135,218.95z M238.438,122.514c0,2.206-1.794,4-4,4h-24.333c-2.206,0-4-1.794-4-4s1.794-4,4-4h24.333
			C236.643,118.514,238.438,120.308,238.438,122.514z M224.439,115.514h-8.022c-3.4-43.299-38.122-78.016-81.416-81.416v-8.02
			C182.85,29.515,221,67.639,224.439,115.514z M124,16.076c0-2.206,1.794-4,4-4s4,1.794,4,4V40.41c0,2.206-1.794,4-4,4s-4-1.794-4-4
			V16.076z M121,26.077v8.021c-43.307,3.401-78.015,38.111-81.415,81.416h-8.019C35.002,67.633,73.097,29.516,121,26.077z
			 M17.562,122.514c0-2.206,1.794-4,4-4h24.333c2.206,0,4,1.794,4,4s-1.794,4-4,4H21.562
			C19.357,126.514,17.562,124.719,17.562,122.514z M31.565,129.514h8.02c3.401,43.303,38.099,78.015,81.415,81.416v8.02
			C73.106,215.511,35.003,177.395,31.565,129.514z M124,228.951v-24.333c0-2.206,1.794-4,4-4s4,1.794,4,4v24.333
			c0,2.206-1.794,4-4,4S124,231.157,124,228.951z"/>
	</g>
</g>
</svg>
