<?xml version="1.0" encoding="UTF-8"?>
<svg id="Layer_1" data-name="Layer 1" xmlns="http://www.w3.org/2000/svg" viewBox="0 0 100.04 75.52">
  <defs>
    <style>
      .cls-1 {
        fill: #321f7a;
      }

      .cls-2 {
        fill: #707070;
      }

      .cls-3 {
        fill: #f87023;
      }

      .cls-4 {
        fill: #63bce7;
      }

      .cls-5 {
        fill: #f46275;
      }

      .cls-6 {
        fill: #f8af23;
      }

      .cls-7 {
        fill: #cecece;
      }

      .cls-8 {
        fill: #9e9e9e;
      }

      .cls-9 {
        fill: #f8d323;
      }
    </style>
  </defs>
  <g>
    <g>
      <path class="cls-4" d="m10.26,63.14c-3.12,0-5.65-2.53-5.65-5.65h0V6.27C4.61,3.15,7.14.62,10.26.62h79.42c3.12,0,5.65,2.53,5.65,5.65h0v51.22c0,3.12-2.53,5.65-5.65,5.65H10.26Z"/>
      <path class="cls-6" d="m91.85,4.1v53.38c0,1.2-.96,2.17-2.16,2.18,0,0-.01,0-.02,0H10.27c-1.2,0-2.17-.96-2.18-2.16,0,0,0-.01,0-.02V4.1h83.76Z"/>
      <path class="cls-3" d="m12.12,57.48V4.1h-4v53.38c0,1.19.96,2.16,2.15,2.18h4c-1.19-.02-2.15-.99-2.15-2.18Z"/>
      <path class="cls-9" d="m87.82,57.48V4.1h4v53.38c0,1.19-.96,2.16-2.15,2.18h-4c1.19-.02,2.15-.99,2.15-2.18Z"/>
      <path class="cls-8" d="m49.97,63.14H.59l1.26,2.91c1.14,2.62,3.72,4.31,6.58,4.31h83.08c2.86,0,5.44-1.69,6.58-4.31l1.26-2.91h-49.38Z"/>
      <path class="cls-2" d="m5.89,66.05l-1.26-2.91H.63l1.26,2.91c1.14,2.6,3.7,4.29,6.54,4.31h4c-2.84-.01-5.41-1.7-6.54-4.31Z"/>
      <path class="cls-7" d="m94.05,66.05l1.26-2.91h4l-1.26,2.91c-1.14,2.62-3.72,4.31-6.58,4.31h-4c2.86,0,5.44-1.69,6.58-4.31Z"/>
      <path class="cls-5" d="m31.12,63.14l1.74,2.23c.68.87,1.73,1.39,2.84,1.39h28.54c1.11,0,2.15-.51,2.84-1.38l1.74-2.23H31.12Z"/>
    </g>
    <g>
      <path class="cls-1" d="m92.48,57.49V4.1c0-.34-.28-.62-.62-.62,0,0,0,0-.01,0H8.09c-.34,0-.62.27-.63.61,0,0,0,0,0,.01v53.39c0,1.54,1.26,2.79,2.8,2.79h79.42c1.54,0,2.79-1.25,2.8-2.79Zm-83.77,0V4.76h82.52v52.73c0,.85-.68,1.54-1.53,1.55,0,0-.01,0-.02,0H10.26c-.85,0-1.54-.68-1.55-1.53,0,0,0-.01,0-.02Z"/>
      <path class="cls-1" d="m98.66,66.3l1.31-2.91c.09-.19.09-.4,0-.59-.12-.17-.31-.28-.52-.28h-6.04c1.59-1.17,2.54-3.02,2.55-5V6.27C95.96,2.81,93.15,0,89.68,0H10.26C6.79,0,3.98,2.8,3.97,6.27h0v51.22c.01,1.98.96,3.83,2.55,5H.59c-.21,0-.4.1-.52.27-.09.19-.09.4,0,.59l1.26,2.91c.6,1.42,1.6,2.64,2.88,3.5H.86c-.34,0-.62.28-.62.62H.24c0,.34.28.62.62.62h98.22c.34,0,.62-.28.62-.62h0c0-.34-.28-.62-.62-.62h-3.35c1.3-.84,2.32-2.04,2.93-3.46ZM5.23,57.49V6.27c0-2.76,2.24-5,5-5h79.45c2.76,0,5,2.24,5,5v51.22c0,2.76-2.24,5-5,5H10.26c-2.76.02-5.01-2.21-5.03-4.97,0-.01,0-.02,0-.03Zm62.32,6.27l-1,1.23c-.57.72-1.43,1.14-2.35,1.14h-28.5c-.92,0-1.78-.42-2.35-1.14l-1-1.23h35.2Zm24,6H8.43c-1.93-.01-3.77-.88-5-2.37h12.02c.34,0,.62-.28.62-.62,0,0,0,0,0-.01,0-.34-.28-.62-.62-.62H2.58l-.16-.38-.88-2h29.28l1.56,2c.79,1.03,2.02,1.63,3.32,1.62h28.54c1.3,0,2.53-.59,3.32-1.62l1.56-2h29.28l-.88,2-.16.33h-12.87c-.34,0-.62.28-.62.62h0c0,.34.28.62.62.62h12.06c-1.23,1.52-3.08,2.41-5.04,2.43h.04Z"/>
      <path class="cls-1" d="m23.97,66.13h-4.27c-.34,0-.62.28-.62.62h0c0,.34.28.62.62.62h4.27c.34,0,.62-.28.62-.62h0c0-.34-.28-.62-.62-.62h0Z"/>
      <path class="cls-1" d="m80.24,66.13h-4.27c-.34,0-.62.28-.62.62h0c0,.34.28.62.62.62h4.29c.34,0,.62-.28.62-.62h0c0-.34-.28-.62-.62-.62,0,0-.01,0-.02,0Z"/>
      <path class="cls-1" d="m8.31,74.28H.86c-.34,0-.62.28-.62.62H.24c0,.34.28.62.62.62h7.45c.34.02.64-.24.66-.58,0-.01,0-.03,0-.04,0-.34-.28-.62-.62-.62-.01,0-.03,0-.04,0Z"/>
      <path class="cls-1" d="m99.08,74.28h-7.45c-.34,0-.62.28-.62.62h0c0,.34.28.62.62.62h7.45c.34,0,.62-.28.62-.62h0c0-.34-.28-.62-.62-.62h0Z"/>
      <path class="cls-1" d="m87.41,74.28H12.53c-.34,0-.62.28-.62.62h0c0,.34.28.62.62.62h74.88c.34,0,.62-.28.62-.62h0c0-.34-.28-.62-.62-.62h0Z"/>
    </g>
  </g>
  <g>
    <rect class="cls-8" x="15.44" y="21.71" width="17.26" height="7.53"/>
    <rect class="cls-8" x="32.69" y="21.71" width="17.26" height="7.53"/>
    <rect class="cls-8" x="49.95" y="21.71" width="17.26" height="7.53"/>
    <rect class="cls-8" x="67.21" y="21.71" width="17.26" height="7.53"/>
    <rect class="cls-8" x="24.07" y="29.24" width="17.26" height="7.53"/>
    <rect class="cls-8" x="41.32" y="29.24" width="17.26" height="7.53"/>
    <rect class="cls-8" x="58.58" y="29.24" width="17.26" height="7.53"/>
    <rect class="cls-8" x="15.44" y="36.77" width="17.26" height="7.53"/>
    <rect class="cls-8" x="32.69" y="36.77" width="17.26" height="7.53"/>
    <rect class="cls-8" x="49.95" y="36.77" width="17.26" height="7.53"/>
    <rect class="cls-8" x="67.21" y="36.77" width="17.26" height="7.53" rx=".41" ry=".41"/>
    <path class="cls-1" d="m61.05,21.71h5.06v6.42h-16.15v-6.42h11.1Zm6.16,0h16.15v6.42h-16.15v-6.42h0Zm-1.1,21.48h-16.15v-6.42h16.15v6.42Zm-17.26,0h-16.15v-6.42h16.15v6.42h0Zm-17.26,0H15.44v-6.42h16.15s0,6.42,0,6.42Zm0-15.05H15.44v-6.42h16.15v6.42Zm-7.53,1.1h16.15v6.42h-16.15v-6.42Zm25.33,0h8.08v6.42h-16.15v-6.42h8.08Zm17.81,7.53h16.15v6.42h-16.15v-6.42h0Zm7.53-1.1h-16.15v-6.42h16.15v6.42Zm-25.88-7.53h-16.15v-6.42h16.15v6.42Zm-11.65-7.53H14.89c-.3,0-.55.25-.55.55v7.53c0,.3.25.55.55.55h8.08v6.42h-8.08c-.3,0-.55.25-.55.55v7.53c0,.3.25.55.55.55h69.02c.3,0,.55-.25.55-.55v-7.53c0-.3-.25-.55-.55-.55h-8.08v-6.42h8.08c.3,0,.55-.25.55-.55v-7.53c0-.3-.25-.55-.55-.55h-23.42s-11.1,0-11.1,0h-12.2Z"/>
  </g>
</svg>