<svg id="Layer_1" data-name="Layer 1" xmlns="http://www.w3.org/2000/svg" viewBox="0 0 100 85.86">
  <defs>
    <style>
      .cls-1 {
        fill: #63bce7;
      }

      .cls-2 {
        fill: #6377e7;
      }

      .cls-3 {
        fill: #63e2e7;
      }

      .cls-4 {
        fill: #f8af23;
      }

      .cls-5 {
        fill: #f87023;
      }

      .cls-6 {
        fill: #f8d323;
      }

      .cls-7 {
        fill: #f46275;
      }

      .cls-8 {
        fill: #321f7a;
      }
    </style>
  </defs>
  <title>rafuguard_ai_engine</title>
  <g>
    <path class="cls-1" d="M92.57,92.94H7.43A6.77,6.77,0,0,1,.66,86.17v-71A6.77,6.77,0,0,1,7.43,8.41H92.57a6.77,6.77,0,0,1,6.77,6.77v71A6.77,6.77,0,0,1,92.57,92.94Z" transform="translate(0 -7.75)"/>
    <path class="cls-2" d="M5,86.17v-71a6.78,6.78,0,0,1,6.78-6.77H7.43A6.77,6.77,0,0,0,.66,15.18v71a6.77,6.77,0,0,0,6.77,6.77h4.32A6.78,6.78,0,0,1,5,86.17Z" transform="translate(0 -7.75)"/>
    <path class="cls-3" d="M95,86.17v-71a6.78,6.78,0,0,0-6.78-6.77h4.32a6.77,6.77,0,0,1,6.77,6.77v71a6.77,6.77,0,0,1-6.77,6.77H88.25A6.78,6.78,0,0,0,95,86.17Z" transform="translate(0 -7.75)"/>
    <path class="cls-4" d="M99.34,15.18a6.77,6.77,0,0,0-6.77-6.77H7.43A6.77,6.77,0,0,0,.66,15.18V27H99.34Z" transform="translate(0 -7.75)"/>
    <path class="cls-5" d="M5,15.18a6.78,6.78,0,0,1,6.78-6.77H7.43A6.77,6.77,0,0,0,.66,15.18V27H5Z" transform="translate(0 -7.75)"/>
    <path class="cls-6" d="M99.34,15.18a6.77,6.77,0,0,0-6.77-6.77H88.25A6.78,6.78,0,0,1,95,15.18V27h4.31Z" transform="translate(0 -7.75)"/>
    <g>
      <g>
        <g>
          <circle class="cls-7" cx="87.25" cy="9.94" r="3.09"/>
          <circle class="cls-7" cx="75.34" cy="9.94" r="3.09"/>
          <circle class="cls-7" cx="63.43" cy="9.94" r="3.09"/>
        </g>
        <path class="cls-7" d="M9.66,17.89h0A2.36,2.36,0,0,1,12,15.53H51.15a2.36,2.36,0,0,1,2.35,2.36h0a2.36,2.36,0,0,1-2.35,2.36H12A2.36,2.36,0,0,1,9.66,17.89Z" transform="translate(0 -7.75)"/>
      </g>
      <path class="cls-8" d="M83.49,17.69a3.76,3.76,0,1,0,3.76-3.76A3.76,3.76,0,0,0,83.49,17.69Zm1.33,0a2.43,2.43,0,1,1,2.43,2.43A2.43,2.43,0,0,1,84.82,17.69Z" transform="translate(0 -7.75)"/>
      <path class="cls-8" d="M71.58,17.69a3.76,3.76,0,1,0,3.76-3.76A3.76,3.76,0,0,0,71.58,17.69Zm1.33,0a2.43,2.43,0,1,1,2.43,2.43A2.43,2.43,0,0,1,72.91,17.69Z" transform="translate(0 -7.75)"/>
      <path class="cls-8" d="M59.67,17.69a3.76,3.76,0,1,0,3.76-3.76A3.75,3.75,0,0,0,59.67,17.69Zm1.33,0a2.43,2.43,0,1,1,2.43,2.43A2.43,2.43,0,0,1,61,17.69Z" transform="translate(0 -7.75)"/>
      <path class="cls-8" d="M9,17.89a3,3,0,0,0,3,3H51.15a3,3,0,0,0,0-6H12A3,3,0,0,0,9,17.89Zm1.32,0A1.69,1.69,0,0,1,12,16.2H51.15a1.69,1.69,0,0,1,0,3.38H12A1.69,1.69,0,0,1,10.32,17.89Z" transform="translate(0 -7.75)"/>
    </g>
    <path class="cls-8" d="M77.54,93.6h15A7.44,7.44,0,0,0,100,86.17v-71a7.44,7.44,0,0,0-7.43-7.43H7.43A7.44,7.44,0,0,0,0,15.18v71A7.44,7.44,0,0,0,7.43,93.6h15M1.33,15.18a6.11,6.11,0,0,1,6.1-6.11H92.57a6.11,6.11,0,0,1,6.1,6.11V26.3H1.33Z" transform="translate(0 -7.75)"/>
    <path class="cls-2" d="M5.64,86.19V27.85H1.33V86.19c0,3.08,3,5.57,6.77,5.57h4.31C8.67,91.76,5.64,89.27,5.64,86.19Z" transform="translate(0 -7.75)"/>
    <path class="cls-1" d="M92.24,91.76H11.4C7.85,91.76,5,88.6,5,84.7V27.85h93.7V84.7C98.67,88.6,95.8,91.76,92.24,91.76Z" transform="translate(0 -7.75)"/>
    <path class="cls-1" d="M0,32.26" transform="translate(0 -7.75)"/>
    <path class="cls-3" d="M94.84,86.19V27.85h3.87V86.19a5.84,5.84,0,0,1-6.07,5.57H88.77A5.84,5.84,0,0,0,94.84,86.19Z" transform="translate(0 -7.75)"/>
  </g>
  <g>
    <path class="cls-4" d="M91.12,58.79a8.23,8.23,0,0,1-4.24,6,6,6,0,0,1-1,.44c.42,5.67-8.6,7.74-13.46,6.38L74.26,78l-4.64.16L61.49,66.49c-2.74.77-6,1.14-8.06-2.21a9.81,9.81,0,0,1-.52-1,7.92,7.92,0,0,1-1.61.16,11.32,11.32,0,0,1-5.44-1.37,6.64,6.64,0,0,1-2.38-2.79c-2.79.38-5.16-.28-6.71-1.9-2-2-2.52-5.35-1.49-8.92,1.34-4.77,5.44-10.15,13.58-12.17a10.68,10.68,0,0,1,2.5-2.24c5.12-3.27,13.42-3.56,19.72-.44a13.18,13.18,0,0,1,7.27.69c4.53,1.7,7.82,5.25,8.44,8.86a6.75,6.75,0,0,1,2.88,2.84,8.17,8.17,0,0,1,.64,7.17A9,9,0,0,1,91.12,58.79Z" transform="translate(0 -7.75)"/>
    <path class="cls-8" d="M91.12,58.79a8.23,8.23,0,0,1-4.24,6,6,6,0,0,1-1,.44c.42,5.67-8.6,7.74-13.46,6.38L74.26,78l-4.64.16L61.49,66.49c-2.74.77-6,1.14-8.06-2.21a9.81,9.81,0,0,1-.52-1,7.92,7.92,0,0,1-1.61.16,11.32,11.32,0,0,1-5.44-1.37,6.64,6.64,0,0,1-2.38-2.79c-2.79.38-5.16-.28-6.71-1.9-2-2-2.52-5.35-1.49-8.92,1.34-4.77,5.44-10.15,13.58-12.17a10.68,10.68,0,0,1,2.5-2.24c5.12-3.27,13.42-3.56,19.72-.44a13.18,13.18,0,0,1,7.27.69c4.53,1.7,7.82,5.25,8.44,8.86a6.75,6.75,0,0,1,2.88,2.84,8.17,8.17,0,0,1,.64,7.17A9,9,0,0,1,91.12,58.79Zm-3.35-2.68a5,5,0,0,1-4.68,0l.38-2.5A3.66,3.66,0,0,0,87,52.25c.76-1.13.64-2.81-.32-4.61-1.07-2-3.39-2.33-4.67-2.35H82a9.3,9.3,0,0,0-7.82,4.22l-1.93-.92a8.84,8.84,0,0,1,1.88-3.32,5.48,5.48,0,0,1-1.62-2.37A5.39,5.39,0,0,1,72.25,40l1.9-.18a3.89,3.89,0,0,0,.92,2.1,3.93,3.93,0,0,0,2,1.2,11.84,11.84,0,0,1,5-1c.24,0,.48,0,.72,0a10.75,10.75,0,0,0-5.53-4.78,9,9,0,0,0-10.45,2.4c-2.13,2.85-.76,5.55.27,7.29l-1.7,1.55a8.51,8.51,0,0,1-2.82-5c-2.18.66-5.11.52-6.75-2.28l1.55-1.06a4.41,4.41,0,0,0,5.81-.42,9.78,9.78,0,0,1,1.17-2A11.71,11.71,0,0,1,67,35.35c-4.28-1.16-10.32-1-14,1.37a6.26,6.26,0,0,0-3.12,5.68c0,1.84,1.44,4.75,3.39,5.2l-1.13,2.19a6.38,6.38,0,0,1-3.24-1.87l-1.67,2.14-1.68-.82L47.22,45a8.34,8.34,0,0,1-.41-2.58A10.91,10.91,0,0,1,47,40.31c-5.16,2.13-7.71,5.67-8.64,8.91-.72,2.49-.44,4.74.73,6a4.66,4.66,0,0,0,3.71,1.1l3.62-2.81,1.18,1L46.56,58c.56,1.79,2.4,2.71,5.76,2.06A7.91,7.91,0,0,1,54,56.14a7.17,7.17,0,0,1,2.52-2.25l1.76-4.76L60,49.06,59.8,53c3-.3,6.29.3,9.38-.16l.57,2.06c-4.53,2.09-9.17-1.32-13.38,3.18-1.51,1.62-.93,3,0,4.45,1.35,2,3.88.81,6.46,0,3.92-1.2,6.76-2.06,12.12-1.62-1.28-2.43-1.15-5.37.56-8.6l2.52,1c-1.77,4.08-.11,6.44,1,7.48,1.77,1.61,4.44,2.1,6.2,1.13A5.16,5.16,0,0,0,87,60.34a4.9,4.9,0,0,0,.84-2.12,6,6,0,0,0,0-2.11Z" transform="translate(0 -7.75)"/>
  </g>
  <g>
    <g>
      <path d="M30.88,79.83h-2.3c-.11-.19-.54-1-1.31-2.48a1.36,1.36,0,0,0-1.29-.8H17.72a1.38,1.38,0,0,0-1.31.8l-1.27,2.48H12.82l7.61-14.35h2.85Q23.52,65.93,30.88,79.83Zm-5.54-6.08-3-5.68a.57.57,0,0,0-1,0l-3,5.68a.57.57,0,0,0,0,.64.59.59,0,0,0,.55.32h5.91a.61.61,0,0,0,.55-.32A.59.59,0,0,0,25.34,73.75Z" transform="translate(0 -7.75)"/>
      <path d="M34.08,79.85H32.23V65.48h1.85Z" transform="translate(0 -7.75)"/>
    </g>
    <path d="M24.13,57.39A15.86,15.86,0,1,0,40,73.25,15.85,15.85,0,0,0,24.13,57.39Zm0,30.39A14.54,14.54,0,1,1,38.66,73.25,14.53,14.53,0,0,1,24.13,87.78Z" transform="translate(0 -7.75)"/>
  </g>
</svg>
