<svg width="500" height="630" version="1.1" viewBox="0 0 132.29 166.69" xmlns="http://www.w3.org/2000/svg" xmlns:xlink="http://www.w3.org/1999/xlink">
 <defs>
  <linearGradient id="linearGradient56975" x1="117.38" x2="106.73" y1="256.16" y2="270.44" gradientTransform="matrix(2.0274 0 0 2.0274 -195.41 -394.32)" gradientUnits="userSpaceOnUse">
   <stop stop-color="#800000" offset="0"/>
   <stop stop-color="#d40000" offset="1"/>
  </linearGradient>
  <linearGradient id="linearGradient117191" x1="488.34" x2="563.42" y1="379.95" y2="272.45" gradientUnits="userSpaceOnUse">
   <stop stop-color="#fc0" offset="0"/>
   <stop stop-color="#fd5" offset="1"/>
  </linearGradient>
  <linearGradient id="linearGradient121357" x1="488.34" x2="563.42" y1="379.95" y2="272.45" gradientUnits="userSpaceOnUse">
   <stop stop-color="#d4aa00" offset="0"/>
   <stop stop-color="#fd5" offset="1"/>
  </linearGradient>
  <radialGradient id="radialGradient56957" cx="54.912" cy="181.69" r="29.666" gradientTransform="matrix(-1.1374 -.46335 .33472 -.82199 56.556 357.17)" gradientUnits="userSpaceOnUse">
   <stop stop-color="#ffb400" offset="0"/>
   <stop stop-color="#fc0" offset="1"/>
  </radialGradient>
  <radialGradient id="radialGradient56959" cx="76.118" cy="182.31" r="29.666" gradientTransform="matrix(1 0 0 .94255 0 11.131)" gradientUnits="userSpaceOnUse">
   <stop stop-color="#eea500" stop-opacity="0" offset="0"/>
   <stop stop-color="#ffc806" stop-opacity="0" offset="1"/>
  </radialGradient>
  <linearGradient id="linearGradient76168" x1="71.728" x2="101.88" y1="188.09" y2="192.64" gradientTransform="translate(-19.067,5.6397)" gradientUnits="userSpaceOnUse">
   <stop stop-color="#ffe16b" offset="0"/>
   <stop stop-color="#ffad04" offset="1"/>
  </linearGradient>
  <linearGradient id="linearGradient121148" x1="1.3512" x2="57.527" y1="194.34" y2="194.34" gradientUnits="userSpaceOnUse">
   <stop stop-color="#f9b700" offset="0"/>
   <stop stop-color="#f9b700" stop-opacity="0" offset="1"/>
  </linearGradient>
  <linearGradient id="linearGradient77440" x1="29.804" x2="38.022" y1="202.07" y2="197.71" gradientTransform="translate(-19.067,5.6397)" gradientUnits="userSpaceOnUse">
   <stop stop-color="#ffaf13" offset="0"/>
   <stop stop-color="#ffcb00" offset="1"/>
  </linearGradient>
  <linearGradient id="linearGradient77809" x1="26.048" x2="72.709" y1="187.86" y2="187.86" gradientTransform="translate(-19.067,5.6397)" gradientUnits="userSpaceOnUse">
   <stop stop-color="#ffcd06" offset="0"/>
   <stop stop-color="#ffeeac" offset="1"/>
  </linearGradient>
  <linearGradient id="linearGradient116643" x1="6.8732" x2="53.749" y1="193.5" y2="193.5" gradientUnits="userSpaceOnUse">
   <stop stop-color="#ffb928" offset="0"/>
   <stop stop-color="#ffb928" stop-opacity="0" offset="1"/>
  </linearGradient>
  <linearGradient id="linearGradient56955" x1="154.97" x2="159.73" y1="243.76" y2="243.57" gradientTransform="matrix(.72645 0 0 .72645 -59.802 -137.2)" gradientUnits="userSpaceOnUse" xlink:href="#linearGradient87990"/>
  <linearGradient id="linearGradient87990">
   <stop stop-color="#d40000" offset="0"/>
   <stop stop-color="#800000" offset="1"/>
  </linearGradient>
  <linearGradient id="linearGradient56953" x1="150.3" x2="150.38" y1="241.16" y2="245.06" gradientTransform="matrix(.72645 0 0 .72645 -59.802 -137.2)" gradientUnits="userSpaceOnUse" xlink:href="#linearGradient88044"/>
  <linearGradient id="linearGradient88044">
   <stop stop-color="#a00" offset="0"/>
   <stop stop-color="#500" offset="1"/>
  </linearGradient>
  <linearGradient id="linearGradient56951" x1="108.82" x2="96.743" y1="244.29" y2="241.75" gradientTransform="matrix(.72645 0 0 .72645 -59.802 -137.2)" gradientUnits="userSpaceOnUse" xlink:href="#linearGradient87990"/>
  <linearGradient id="linearGradient56949" x1="105.07" x2="105.06" y1="244.31" y2="239.6" gradientTransform="matrix(.72645 0 0 .72645 -59.802 -137.2)" gradientUnits="userSpaceOnUse">
   <stop stop-color="#600000" offset="0"/>
   <stop stop-color="#a10000" offset="1"/>
  </linearGradient>
  <linearGradient id="linearGradient56945" x1="101.75" x2="155.89" y1="248.06" y2="248.06" gradientTransform="matrix(.72645 0 0 .72645 -59.802 -137.2)" gradientUnits="userSpaceOnUse" xlink:href="#linearGradient88044"/>
  <radialGradient id="radialGradient56947" cx="59.969" cy="224.81" r="27.891" gradientTransform="matrix(.18958 -.31687 .31862 .19063 -50.089 16.669)" gradientUnits="userSpaceOnUse">
   <stop stop-color="#faa" offset="0"/>
   <stop stop-color="#f00" stop-opacity="0" offset="1"/>
  </radialGradient>
 </defs>
 <g stroke-width="2.7908">
  <path d="m126.07 83.713s0.67225 0.03243 0.98091 0.15165c0.23052 0.08919 0.43238 0.2464 0.61892 0.40871 0.1641 0.14314 0.2887 0.32636 0.43207 0.49043 0.15014 0.17172 0.30927 0.36543 0.34042 0.59132 0.10549 0.76538-0.014 1.5573-0.014 1.5573l-1.0062 0.93497-4.8632 2.9158z" fill="#800000"/>
  <path d="m15.227 138.82s1.2722-2.6826 2.1138-3.8974c0.88002-1.2702 2.0434-2.319 3.0386-3.5011 1.0986-1.3048 2.1772-2.6267 3.2368-3.9635 2.019-2.5471 5.9452-7.7286 5.9452-7.7286l26.621-0.19806s-4.8261 9.4628-7.4643 14.07c-2.2106 3.8605-4.352 7.7886-7.0021 11.362-1.208 1.6288-2.6751 3.0487-4.0294 4.5579-1.1138 1.2413-2.4256 2.3238-3.3688 3.6992-2.8405 4.1416-6.7378 13.476-6.7378 13.476l-7.3984-17.439z" fill="url(#linearGradient56975)"/>
  <path d="m103.48 121.65 5.4167 7.2661s4.2353 4.4619 5.945 7.0021c0.63789 0.94776 1.5854 3.0386 1.5854 3.0386l-12.419 27.083s-4.3796-9.5884-7.3984-13.872c-2.2627-3.2108-5.609-5.5481-7.9267-8.7196-3.6325-4.9701-6.1707-10.654-9.2479-15.986-1.6765-2.9047-5.0204-8.7196-5.0204-8.7196l28.274-0.92482z" fill="#a00"/>
  <path d="m2.6856 86.448c-0.13217-0.48194 0.17082-1.0222 0.4671-1.4246 0.29454-0.40009 0.78321-0.61738 1.2144-0.86412 0.49604-0.28382 1.0068-0.57705 1.5647-0.70063 0.50929-0.11272 1.5647-0.02344 1.5647-0.02344l1.6388 6.9616s-4.5825-2.1292-4.8736-2.2731c-0.68754-0.3397-1.3916-1.0027-1.5762-1.6759z" fill="#a00"/>
  <path d="m25.52 125.15 4.0419-5.413 25.486 2.1102z" fill="#800000"/>
  <path d="m75.738 121.57 9.2484 1.5881 7.567 0.46707 6.4459 2.8025 7.9407 3.7369 4.1926 1.3739-4.2161-5.2702-6.4222-8.9021z" fill="#800000"/>
 </g>
 <g transform="matrix(2.7908,0,0,2.7908,-28.51,-11.425)" stroke-dashoffset="3.7758" stroke-linecap="round" stroke-linejoin="round">
  <path transform="matrix(.18835 .038326 -.038326 .18835 -45.997 -57.739)" d="m587.69 434.93c-0.46265 0.51758-22.526 1.443-23.064 1.8819s-5.875 21.867-6.4749 22.216c-0.59994 0.34929-21.869-5.5885-22.517-5.3373-0.64719 0.25114-12.345 18.981-13.023 19.128-0.67852 0.14679-19.072-12.073-19.765-12.034-0.69313 0.0389-17.606 14.237-18.297 14.167-0.69067-0.0701-14.408-17.376-15.079-17.553-0.6712-0.17724-21.144 8.1-21.779 7.82-0.63522-0.28006-8.3333-20.977-8.9169-21.353-0.58359-0.37598-22.612 1.1698-23.13 0.70714-0.51759-0.46264-1.443-22.526-1.8819-23.064-0.43884-0.53791-21.867-5.875-22.216-6.4749-0.34929-0.59995 5.5885-21.869 5.3373-22.517s-18.981-12.345-19.128-13.023c-0.1468-0.67851 12.073-19.072 12.034-19.765-0.0389-0.69312-14.237-17.606-14.167-18.297 0.0701-0.69067 17.376-14.408 17.553-15.079s-8.1-21.144-7.82-21.779c0.28006-0.63521 20.977-8.3333 21.353-8.9169 0.37598-0.58358-1.1698-22.612-0.70714-23.13 0.46264-0.51758 22.526-1.443 23.064-1.8819 0.53791-0.43884 5.875-21.867 6.4749-22.216 0.59994-0.34928 21.869 5.5885 22.517 5.3374 0.6472-0.25114 12.345-18.981 13.023-19.128 0.67851-0.1468 19.072 12.073 19.765 12.034 0.69312-0.0388 17.606-14.237 18.297-14.167 0.69067 0.0701 14.408 17.376 15.079 17.553 0.67121 0.17724 21.144-8.1 21.779-7.82 0.63521 0.28006 8.3333 20.977 8.9169 21.353 0.58359 0.37598 22.612-1.1698 23.13-0.70714 0.51758 0.46265 1.443 22.526 1.8819 23.064 0.43883 0.53792 21.867 5.875 22.216 6.4749 0.34928 0.59995-5.5885 21.869-5.3373 22.517 0.25113 0.6472 18.981 12.345 19.128 13.023 0.1468 0.67852-12.073 19.072-12.034 19.765 0.0388 0.69313 14.237 17.606 14.167 18.297-0.0701 0.69067-17.376 14.408-17.553 15.079-0.17725 0.67121 8.1 21.144 7.82 21.779-0.28006 0.63522-20.977 8.3333-21.353 8.9169-0.37598 0.58358 1.1698 22.612 0.70714 23.13z" fill="#ffb400" stroke="#ffa739" stroke-width="2.9556"/>
  <path transform="matrix(.19204 .0079344 -.0079344 .19204 -58.567 -43.947)" d="m587.69 434.93c-0.46265 0.51758-22.526 1.443-23.064 1.8819s-5.875 21.867-6.4749 22.216c-0.59994 0.34929-21.869-5.5885-22.517-5.3373-0.64719 0.25114-12.345 18.981-13.023 19.128-0.67852 0.14679-19.072-12.073-19.765-12.034-0.69313 0.0389-17.606 14.237-18.297 14.167-0.69067-0.0701-14.408-17.376-15.079-17.553-0.6712-0.17724-21.144 8.1-21.779 7.82-0.63522-0.28006-8.3333-20.977-8.9169-21.353-0.58359-0.37598-22.612 1.1698-23.13 0.70714-0.51759-0.46264-1.443-22.526-1.8819-23.064-0.43884-0.53791-21.867-5.875-22.216-6.4749-0.34929-0.59995 5.5885-21.869 5.3373-22.517s-18.981-12.345-19.128-13.023c-0.1468-0.67851 12.073-19.072 12.034-19.765-0.0389-0.69312-14.237-17.606-14.167-18.297 0.0701-0.69067 17.376-14.408 17.553-15.079s-8.1-21.144-7.82-21.779c0.28006-0.63521 20.977-8.3333 21.353-8.9169 0.37598-0.58358-1.1698-22.612-0.70714-23.13 0.46264-0.51758 22.526-1.443 23.064-1.8819 0.53791-0.43884 5.875-21.867 6.4749-22.216 0.59994-0.34928 21.869 5.5885 22.517 5.3374 0.6472-0.25114 12.345-18.981 13.023-19.128 0.67851-0.1468 19.072 12.073 19.765 12.034 0.69312-0.0388 17.606-14.237 18.297-14.167 0.69067 0.0701 14.408 17.376 15.079 17.553 0.67121 0.17724 21.144-8.1 21.779-7.82 0.63521 0.28006 8.3333 20.977 8.9169 21.353 0.58359 0.37598 22.612-1.1698 23.13-0.70714 0.51758 0.46265 1.443 22.526 1.8819 23.064 0.43883 0.53792 21.867 5.875 22.216 6.4749 0.34928 0.59995-5.5885 21.869-5.3373 22.517 0.25113 0.6472 18.981 12.345 19.128 13.023 0.1468 0.67852-12.073 19.072-12.034 19.765 0.0388 0.69313 14.237 17.606 14.167 18.297-0.0701 0.69067-17.376 14.408-17.553 15.079-0.17725 0.67121 8.1 21.144 7.82 21.779-0.28006 0.63522-20.977 8.3333-21.353 8.9169-0.37598 0.58358 1.1698 22.612 0.70714 23.13z" fill="#e59c00" stroke="#ab8900" stroke-width=".68787"/>
  <path transform="matrix(.18444 .0067155 -.0066021 .18687 -55.167 -41.493)" d="m587.69 434.93c-0.46265 0.51758-22.526 1.443-23.064 1.8819s-5.875 21.867-6.4749 22.216c-0.59994 0.34929-21.869-5.5885-22.517-5.3373-0.64719 0.25114-12.345 18.981-13.023 19.128-0.67852 0.14679-19.072-12.073-19.765-12.034-0.69313 0.0389-17.606 14.237-18.297 14.167-0.69067-0.0701-14.408-17.376-15.079-17.553-0.6712-0.17724-21.144 8.1-21.779 7.82-0.63522-0.28006-8.3333-20.977-8.9169-21.353-0.58359-0.37598-22.612 1.1698-23.13 0.70714-0.51759-0.46264-1.443-22.526-1.8819-23.064-0.43884-0.53791-21.867-5.875-22.216-6.4749-0.34929-0.59995 5.5885-21.869 5.3373-22.517s-18.981-12.345-19.128-13.023c-0.1468-0.67851 12.073-19.072 12.034-19.765-0.0389-0.69312-14.237-17.606-14.167-18.297 0.0701-0.69067 17.376-14.408 17.553-15.079s-8.1-21.144-7.82-21.779c0.28006-0.63521 20.977-8.3333 21.353-8.9169 0.37598-0.58358-1.1698-22.612-0.70714-23.13 0.46264-0.51758 22.526-1.443 23.064-1.8819 0.53791-0.43884 5.875-21.867 6.4749-22.216 0.59994-0.34928 21.869 5.5885 22.517 5.3374 0.6472-0.25114 12.345-18.981 13.023-19.128 0.67851-0.1468 19.072 12.073 19.765 12.034 0.69312-0.0388 17.606-14.237 18.297-14.167 0.69067 0.0701 14.408 17.376 15.079 17.553 0.67121 0.17724 21.144-8.1 21.779-7.82 0.63521 0.28006 8.3333 20.977 8.9169 21.353 0.58359 0.37598 22.612-1.1698 23.13-0.70714 0.51758 0.46265 1.443 22.526 1.8819 23.064 0.43883 0.53792 21.867 5.875 22.216 6.4749 0.34928 0.59995-5.5885 21.869-5.3373 22.517 0.25113 0.6472 18.981 12.345 19.128 13.023 0.1468 0.67852-12.073 19.072-12.034 19.765 0.0388 0.69313 14.237 17.606 14.167 18.297-0.0701 0.69067-17.376 14.408-17.553 15.079-0.17725 0.67121 8.1 21.144 7.82 21.779-0.28006 0.63522-20.977 8.3333-21.353 8.9169-0.37598 0.58358 1.1698 22.612 0.70714 23.13z" fill="url(#linearGradient117191)" stroke="url(#linearGradient121357)" stroke-width=".68787"/>
 </g>
 <g transform="matrix(1.7264 0 0 1.7264 15.099 -267.37)">
  <ellipse transform="matrix(.99999 -.0053294 .0056194 .99998 0 0)" cx="29.223" cy="193.76" rx="29.535" ry="27.83" fill="url(#radialGradient56957)" stroke="url(#radialGradient56959)" stroke-dashoffset="3.7758" stroke-linecap="round" stroke-linejoin="round" stroke-width=".26213"/>
  <ellipse cx="29.439" cy="194.34" rx="27.728" ry="26.83" fill="url(#linearGradient76168)" stroke="url(#linearGradient121148)" stroke-dashoffset="3.7758" stroke-linecap="round" stroke-linejoin="round" stroke-width=".7187"/>
  <ellipse cx="28.537" cy="195.05" rx="23.331" ry="23.571" fill="url(#linearGradient77440)"/>
  <ellipse cx="30.311" cy="193.5" rx="23.331" ry="23.571" fill="url(#linearGradient77809)" stroke="url(#linearGradient116643)" stroke-dashoffset="3.7758" stroke-linecap="round" stroke-linejoin="round" stroke-width=".21441"/>
 </g>
 <g transform="matrix(2.7908,0,0,2.7908,-28.51,-11.425)">
  <path d="m47.294 37.291c0.0367-0.28308 0.23147-0.55939 0.4704-0.71557 0.44528-0.29104 0.98218-0.30709 1.5141-0.31513 0.7169-0.01082 1.3088 0.0194 1.9337 0.0138 0.87027-0.0078 1.7472 0.10633 2.611 0 0.45661-0.05623 0.91756-0.15014 1.339-0.33474 0.39118-0.17135 1.0712-0.70295 1.0712-0.70295s-1.0694 5.3364-1.4729 6.9625c-0.085 0.34246-0.35644 0.61746-0.60253 0.87033-0.2895 0.29748-0.62343 0.57115-1.0042 0.73641-0.71867 0.31192-2.3097 0.43516-2.3097 0.43516l-0.66947-3.0126-2.6434-3.231s-0.26903-0.46001-0.23713-0.7063z" fill="url(#linearGradient56955)"/>
  <path d="m53.355 38.316s0.11971-0.37314 0.0699-0.55168c-0.0785-0.28127-0.2833-0.55561-0.5444-0.68642-0.247-0.12374-0.55515-0.064-0.82844-0.02368-0.69111 0.10203-1.3279 0.43478-1.9882 0.66274-0.33262 0.11482-0.64635 0.30154-0.99412 0.35505-0.41359 0.06356-0.88638 0.15171-1.2545-0.04729-0.26383-0.14264-0.52073-0.73375-0.52073-0.73375l0.23669 3.4084 4.8759-0.33138z" fill="url(#linearGradient56953)"/>
  <path d="m11.178 35.07s0.63806 5.0314 1.7406 7.2638c0.20373 0.41248 0.52062 0.77223 0.87032 1.0712 0.30403 0.25989 0.65541 0.48482 1.0377 0.60253 0.5987 0.18434 1.8745 0.13389 1.8745 0.13389l2.4436-2.9122 1.0954-3.6769s0.0117-0.49105-0.12465-0.67466c-0.23949-0.32253-0.68481-0.44224-1.0712-0.55232-0.54361-0.15488-1.1256-0.11156-1.6904-0.13389-0.69683-0.02753-1.3947 0-2.0921 0-0.55232 0-1.1119 0.08935-1.6569 0-0.64634-0.10595-1.2943-0.30089-1.8621-0.62737-0.21683-0.12467-0.56479-0.494-0.56479-0.494z" fill="url(#linearGradient56951)"/>
  <path d="m14.204 37.93c0.0036-0.1875 0.08467-0.384 0.21303-0.52073 0.19804-0.21096 0.4923-0.36048 0.78109-0.37871 0.68974-0.04359 1.3042 0.45905 1.9646 0.66275 0.5872 0.18112 1.1612 0.52163 1.7752 0.49706 0.31926-0.01279 0.89944-0.33138 0.89944-0.33138l0.40238-0.3077-0.16569 2.9587-3.5267-0.02368-1.3728-0.49706-0.7811-1.5385s-0.193-0.33604-0.18936-0.52068z" fill="url(#linearGradient56949)"/>
  <path d="m14.204 37.93s1.2306 6.1821 1.8936 8.521c0.14381 0.50739 0.7492 0.77923 1.2308 0.99411 0.905 0.40378 1.9466 0.40157 2.935 0.47341 4.2498 0.30886 12.782-0.18937 12.782-0.18937s8.3635-0.0773 12.545-0.14202c1.6096-0.0249 3.3394 0.5169 4.8286-0.0947 0.40266-0.16537 0.73982-0.51648 0.94677-0.89944 0.41938-0.77604 0.47339-2.6036 0.47339-2.6036l1.516-5.6734s-0.65902 1.0277-1.1846 1.2709c-0.93188 0.43112-2.0509 0.10544-3.077 0.14202-2.5082 0.08942-5.0174 0.15094-7.5269 0.18936-2.8874 0.04424-5.7754 0.02695-8.663 0.04729-3.6452 0.02572-7.2926 0.2304-10.935 0.09468-2.0887-0.07782-4.3119 0.26503-6.2487-0.52073-0.52984-0.21495-0.8202-0.56305-1.1557-0.95819-0.14467-0.17041-0.35917-0.65131-0.35917-0.65131z" fill="url(#linearGradient56945)" stroke="url(#radialGradient56947)" stroke-width=".18656px"/>
 </g>
 <g transform="matrix(.85633 -.010234 .0069338 1.1677 0 0)" shape-rendering="auto" stroke-width=".6904" style="font-variant-ligatures:no-contextual" aria-label="SATISFACTION">
  <g>
   <path d="m39.843 97.792c0 0.5536-0.14904 1.0356-0.44713 1.4459-0.29422 0.41036-0.70845 0.71619-1.2427 0.9175-0.53424 0.20131-1.1769 0.30196-1.9279 0.30196-0.87104 0-1.6685-0.14711-2.3925-0.44133v-2.2821c0.34842 0.2555 0.73361 0.46262 1.1556 0.62134 0.42197 0.15485 0.81491 0.23228 1.1788 0.23228 0.27486 0 0.48778-0.04839 0.63876-0.14517 0.15098-0.10065 0.22647-0.24583 0.22647-0.43552 0-0.1355-0.03871-0.25357-0.11614-0.35422-0.07355-0.10452-0.18776-0.20131-0.34261-0.29035-0.15098-0.08904-0.43358-0.21098-0.84781-0.36584-1.3395-0.51488-2.0092-1.3472-2.0092-2.497 0-0.80523 0.30583-1.4479 0.9175-1.9279 0.61166-0.48391 1.4324-0.72587 2.4621-0.72587 0.29035 0 0.55747 0.01161 0.80136 0.03484s0.46456 0.05226 0.66199 0.0871c0.20131 0.03484 0.48198 0.10065 0.842 0.19744v2.1195c-0.7007-0.38326-1.3898-0.57489-2.0673-0.57489-0.27873 0-0.50327 0.05226-0.6736 0.15679-0.17034 0.10452-0.2555 0.24776-0.2555 0.42971 0 0.17421 0.06775 0.31938 0.20324 0.43552 0.13937 0.11227 0.42778 0.25938 0.86523 0.44133 0.8633 0.34842 1.473 0.72974 1.8292 1.144 0.36003 0.41423 0.54004 0.90588 0.54004 1.475z" color="#000000" color-rendering="auto" dominant-baseline="auto" fill="#fff" image-rendering="auto" solid-color="#000000" stop-color="#000000" style="font-feature-settings:normal;font-variant-alternates:normal;font-variant-caps:normal;font-variant-east-asian:normal;font-variant-ligatures:no-contextual;font-variant-numeric:normal;font-variant-position:normal;font-variation-settings:normal;inline-size:0;isolation:auto;mix-blend-mode:normal;shape-margin:0;shape-padding:0;text-decoration-color:#000000;text-decoration-line:none;text-decoration-style:solid;text-indent:0;text-orientation:mixed;text-transform:none;white-space:normal"/>
   <path d="m37.096 91.5c-1.0831 0-1.9884 0.25913-2.6738 0.80078-0.68541 0.53791-1.0508 1.3066-1.0508 2.1992 0 1.2838 0.81068 2.2726 2.2305 2.8184h0.001954l0.001953 0.001953c0.40678 0.15207 0.68555 0.27649 0.79297 0.33984h0.001953l0.001953 0.001953c0.12472 0.071717 0.19793 0.14044 0.23242 0.18945l0.003906 0.00586 0.003906 0.005859c0.031785 0.04132 0.044922 0.072835 0.044922 0.14258 0 0.097066-0.006594 0.10266-0.072266 0.14648-0.071528 0.045034-0.21487 0.089843-0.44726 0.089844-0.31438 0-0.66758-0.067668-1.0586-0.21094h-0.001953c-0.39348-0.14817-0.74846-0.34014-1.0703-0.57617l-0.54883-0.40234v3.1953l0.21484 0.08789c0.76867 0.3124 1.6116 0.46679 2.5215 0.46679 0.78187 0 1.4666-0.10409 2.0508-0.32421 0.58709-0.22123 1.0641-0.57002 1.4004-1.0391 0.34074-0.46977 0.51172-1.0335 0.51172-1.6484 0-0.64099-0.21279-1.2263-0.62305-1.6992l-0.001953-0.001953c-0.41464-0.48139-1.067-0.87693-1.957-1.2363h-0.001953c-0.41925-0.17453-0.69237-0.32445-0.76953-0.38477-6.49e-4 -5.56e-4 6.39e-4 -0.001402 0-0.001953-0.069028-0.059496-0.083984-0.085986-0.083984-0.16992 0-0.07423-0.002436-0.078894 0.091797-0.13672 0.098796-0.060625 0.2566-0.10547 0.49219-0.10547 0.61238-1e-6 1.2427 0.17242 1.9023 0.5332l0.50977 0.2793v-2.9668l-0.25586-0.06836c-0.36558-0.098275-0.65094-0.16698-0.87109-0.20508-0.20846-0.036786-0.4381-0.065906-0.68945-0.089844-0.25676-0.024452-0.53443-0.037109-0.83398-0.037109zm0 0.69141c0.28114 0 0.53851 0.011202 0.76953 0.033203 0.23643 0.022516 0.44836 0.049137 0.63477 0.082032v0.001953c0.12496 0.021626 0.34927 0.077292 0.55664 0.12891v1.4043c-0.5743-0.24396-1.1496-0.47656-1.7227-0.47656-0.32188 0-0.61164 0.058607-0.85352 0.20703-0.24644 0.15122-0.41992 0.43494-0.41992 0.72461 0 0.2637 0.12397 0.52562 0.32422 0.69727l0.003906 0.003906 0.003906 0.001953c0.20583 0.16581 0.50052 0.30556 0.94922 0.49219h0.001953c0.83455 0.33681 1.3998 0.70287 1.6973 1.0488v0.001953h0.001953c0.30868 0.35515 0.45508 0.75176 0.45508 1.248 0 0.49164-0.12615 0.8935-0.38086 1.2441h-0.001954v0.001953c-0.25214 0.35167-0.6026 0.61353-1.084 0.79492-0.48429 0.18249-1.0865 0.2793-1.8066 0.2793-0.75315 0-1.4197-0.15056-2.0469-0.37696v-1.4277c0.22761 0.12701 0.43897 0.27688 0.68945 0.37109v0.001954h0.001953c0.4521 0.16591 0.88596 0.25391 1.2988 0.25391 0.31538 0 0.59311-0.053028 0.82422-0.20117l0.001953-0.001953h0.003906c0.23426-0.15617 0.37891-0.44333 0.37891-0.72461 0-0.19978-0.064217-0.4011-0.18555-0.56055-0.11156-0.15508-0.26291-0.27678-0.44336-0.38086l-0.001953-0.001953c-0.19451-0.11445-0.47982-0.23145-0.90039-0.38867h0.003906c-1.2591-0.484-1.7871-1.1581-1.7871-2.1738 0-0.71782 0.24724-1.2341 0.78516-1.6562v-0.001953c0.53774-0.42543 1.2724-0.65039 2.248-0.65039z" color="#000000" color-rendering="auto" dominant-baseline="auto" fill="#8f0000" image-rendering="auto" solid-color="#000000" stop-color="#000000" style="font-feature-settings:normal;font-variant-alternates:normal;font-variant-caps:normal;font-variant-east-asian:normal;font-variant-ligatures:no-contextual;font-variant-numeric:normal;font-variant-position:normal;font-variation-settings:normal;inline-size:0;isolation:auto;mix-blend-mode:normal;shape-margin:0;shape-padding:0;text-decoration-color:#000000;text-decoration-line:none;text-decoration-style:solid;text-indent:0;text-orientation:mixed;text-transform:none;white-space:normal"/>
  </g>
  <g>
   <path d="m46.085 100.31-0.36584-1.533h-2.4854l-0.39487 1.533h-2.7118l2.8686-8.3271h3.1125l2.7002 8.3271zm-1.5795-6.5154h-0.05807c-0.0077 0.09291-0.03484 0.24583-0.0813 0.45875-0.04645 0.21292-0.28067 1.1265-0.70264 2.7409h1.5911l-0.58069-2.2647c-0.0813-0.33293-0.13743-0.64457-0.1684-0.93492z" color="#000000" color-rendering="auto" dominant-baseline="auto" fill="#fff" image-rendering="auto" solid-color="#000000" stop-color="#000000" style="font-feature-settings:normal;font-variant-alternates:normal;font-variant-caps:normal;font-variant-east-asian:normal;font-variant-ligatures:no-contextual;font-variant-numeric:normal;font-variant-position:normal;font-variation-settings:normal;inline-size:0;isolation:auto;mix-blend-mode:normal;shape-margin:0;shape-padding:0;text-decoration-color:#000000;text-decoration-line:none;text-decoration-style:solid;text-indent:0;text-orientation:mixed;text-transform:none;white-space:normal"/>
   <path d="m42.75 91.641-3.1074 9.0176h3.4648l0.39453-1.5332h1.9453l0.36523 1.5332h0.27344 3.1973l-2.9238-9.0176h-3.6094zm0.49219 0.68945h2.6152l2.4766 7.6367h-1.9746l-0.36719-1.5332h-3.0254l-0.39453 1.5332h-1.9609l2.6309-7.6367zm0.88867 1.1211-0.027343 0.31641c-0.004808 0.057706-0.029137 0.20746-0.074219 0.41406-0.038781 0.17776-0.2774 1.1128-0.69922 2.7266l-0.11328 0.43359h2.4824l-0.68945-2.6914c-0.078208-0.32028-0.13109-0.61812-0.16016-0.89062l-0.033203-0.30859h-0.31055-0.375zm0.32812 1.8301 0.34961 1.3691h-0.69922c0.17981-0.6901 0.26139-1.02 0.34961-1.3691z" color="#000000" color-rendering="auto" dominant-baseline="auto" fill="#8f0000" image-rendering="auto" solid-color="#000000" stop-color="#000000" style="font-feature-settings:normal;font-variant-alternates:normal;font-variant-caps:normal;font-variant-east-asian:normal;font-variant-ligatures:no-contextual;font-variant-numeric:normal;font-variant-position:normal;font-variation-settings:normal;inline-size:0;isolation:auto;mix-blend-mode:normal;shape-margin:0;shape-padding:0;text-decoration-color:#000000;text-decoration-line:none;text-decoration-style:solid;text-indent:0;text-orientation:mixed;text-transform:none;white-space:normal"/>
  </g>
  <g>
   <path d="m53.994 93.948v6.3644h-2.5202v-6.3644h-2.3286v-1.9627h7.2064v1.9627z" color="#000000" color-rendering="auto" dominant-baseline="auto" fill="#fff" image-rendering="auto" solid-color="#000000" stop-color="#000000" style="font-feature-settings:normal;font-variant-alternates:normal;font-variant-caps:normal;font-variant-east-asian:normal;font-variant-ligatures:no-contextual;font-variant-numeric:normal;font-variant-position:normal;font-variation-settings:normal;inline-size:0;isolation:auto;mix-blend-mode:normal;shape-margin:0;shape-padding:0;text-decoration-color:#000000;text-decoration-line:none;text-decoration-style:solid;text-indent:0;text-orientation:mixed;text-transform:none;white-space:normal"/>
   <path d="m48.801 91.641v2.6523h2.3281v6.3652h3.2109v-6.3652h2.3574v-2.6523h-7.8965zm0.68945 0.68945h6.5156v1.2715h-2.3574v0.3457 6.0195h-1.8281v-6.3652h-2.3301v-1.2715z" color="#000000" color-rendering="auto" dominant-baseline="auto" fill="#8f0000" image-rendering="auto" solid-color="#000000" stop-color="#000000" style="font-feature-settings:normal;font-variant-alternates:normal;font-variant-caps:normal;font-variant-east-asian:normal;font-variant-ligatures:no-contextual;font-variant-numeric:normal;font-variant-position:normal;font-variation-settings:normal;inline-size:0;isolation:auto;mix-blend-mode:normal;shape-margin:0;shape-padding:0;text-decoration-color:#000000;text-decoration-line:none;text-decoration-style:solid;text-indent:0;text-orientation:mixed;text-transform:none;white-space:normal"/>
  </g>
  <g>
   <path d="m57.357 100.31v-8.3271h2.5086v8.3271z" color="#000000" color-rendering="auto" dominant-baseline="auto" fill="#fff" image-rendering="auto" solid-color="#000000" stop-color="#000000" style="font-feature-settings:normal;font-variant-alternates:normal;font-variant-caps:normal;font-variant-east-asian:normal;font-variant-ligatures:no-contextual;font-variant-numeric:normal;font-variant-position:normal;font-variation-settings:normal;inline-size:0;isolation:auto;mix-blend-mode:normal;shape-margin:0;shape-padding:0;text-decoration-color:#000000;text-decoration-line:none;text-decoration-style:solid;text-indent:0;text-orientation:mixed;text-transform:none;white-space:normal"/>
   <path d="m57.012 91.641v9.0176h0.3457 2.8535v-9.0176h-3.1992zm0.68945 0.68945h1.8184v7.6367h-1.8184v-7.6367z" color="#000000" color-rendering="auto" dominant-baseline="auto" fill="#8f0000" image-rendering="auto" solid-color="#000000" stop-color="#000000" style="font-feature-settings:normal;font-variant-alternates:normal;font-variant-caps:normal;font-variant-east-asian:normal;font-variant-ligatures:no-contextual;font-variant-numeric:normal;font-variant-position:normal;font-variation-settings:normal;inline-size:0;isolation:auto;mix-blend-mode:normal;shape-margin:0;shape-padding:0;text-decoration-color:#000000;text-decoration-line:none;text-decoration-style:solid;text-indent:0;text-orientation:mixed;text-transform:none;white-space:normal"/>
  </g>
  <g>
   <path d="m67.298 97.792c0 0.5536-0.14904 1.0356-0.44713 1.4459-0.29422 0.41036-0.70845 0.71619-1.2427 0.9175-0.53424 0.20131-1.1769 0.30196-1.9279 0.30196-0.87104 0-1.6685-0.14711-2.3925-0.44133v-2.2821c0.34842 0.2555 0.73361 0.46262 1.1556 0.62134 0.42197 0.15485 0.81491 0.23228 1.1788 0.23228 0.27486 0 0.48778-0.04839 0.63876-0.14517 0.15098-0.10065 0.22647-0.24583 0.22647-0.43552 0-0.1355-0.03871-0.25357-0.11614-0.35422-0.07355-0.10452-0.18776-0.20131-0.34261-0.29035-0.15098-0.08904-0.43358-0.21098-0.84781-0.36584-1.3395-0.51488-2.0092-1.3472-2.0092-2.497 0-0.80523 0.30583-1.4479 0.9175-1.9279 0.61166-0.48391 1.4324-0.72587 2.4621-0.72587 0.29035 0 0.55747 0.01161 0.80136 0.03484s0.46456 0.05226 0.66199 0.0871c0.20131 0.03484 0.48198 0.10065 0.84201 0.19744v2.1195c-0.7007-0.38326-1.3898-0.57489-2.0673-0.57489-0.27873 0-0.50327 0.05226-0.6736 0.15679-0.17034 0.10452-0.2555 0.24776-0.2555 0.42971 0 0.17421 0.06775 0.31938 0.20324 0.43552 0.13937 0.11227 0.42778 0.25938 0.86523 0.44133 0.8633 0.34842 1.473 0.72974 1.8292 1.144 0.36003 0.41423 0.54004 0.90588 0.54004 1.475z" color="#000000" color-rendering="auto" dominant-baseline="auto" fill="#fff" image-rendering="auto" solid-color="#000000" stop-color="#000000" style="font-feature-settings:normal;font-variant-alternates:normal;font-variant-caps:normal;font-variant-east-asian:normal;font-variant-ligatures:no-contextual;font-variant-numeric:normal;font-variant-position:normal;font-variation-settings:normal;inline-size:0;isolation:auto;mix-blend-mode:normal;shape-margin:0;shape-padding:0;text-decoration-color:#000000;text-decoration-line:none;text-decoration-style:solid;text-indent:0;text-orientation:mixed;text-transform:none;white-space:normal"/>
   <path d="m64.551 91.5c-1.0831 0-1.9884 0.25913-2.6738 0.80078-0.68541 0.53791-1.0508 1.3066-1.0508 2.1992 0 1.2838 0.81068 2.2726 2.2305 2.8184h0.001953l0.001953 0.001953c0.40679 0.15207 0.68555 0.2765 0.79297 0.33984h0.001953l0.001953 0.001953c0.12472 0.071717 0.19793 0.14044 0.23242 0.18945l0.003906 0.00586 0.003906 0.005859c0.031785 0.04132 0.044922 0.072835 0.044922 0.14258 0 0.097066-0.006594 0.10266-0.072266 0.14648-0.071528 0.045034-0.21487 0.089844-0.44726 0.089844-0.31438 0-0.66758-0.067668-1.0586-0.21094h-0.001953c-0.39348-0.14817-0.74846-0.34014-1.0703-0.57617l-0.54883-0.40234v3.1953l0.21484 0.08789c0.76867 0.3124 1.6116 0.46679 2.5215 0.46679 0.78187 0 1.4666-0.10409 2.0508-0.32421 0.5871-0.22123 1.0641-0.57002 1.4004-1.0391 0.34074-0.46977 0.51172-1.0335 0.51172-1.6484 0-0.64123-0.21249-1.2262-0.62305-1.6992-0.41456-0.48215-1.0679-0.87847-1.959-1.2383h-0.001953c-0.41925-0.17453-0.69237-0.32446-0.76953-0.38477-6.48e-4 -5.56e-4 6.4e-4 -0.001402 0-0.001953-0.069029-0.059496-0.083984-0.085987-0.083984-0.16992 0-0.07423-0.002436-0.078894 0.091797-0.13672 0.098797-0.060625 0.2566-0.10547 0.49219-0.10547 0.61238-1e-6 1.2427 0.17242 1.9023 0.5332l0.50977 0.2793v-2.9668l-0.25391-0.06836c-0.36558-0.098275-0.65289-0.16698-0.87305-0.20508-0.20846-0.036786-0.4381-0.065906-0.68945-0.089844-0.25676-0.024452-0.53443-0.037109-0.83398-0.037109zm0 0.69141c0.28114 0 0.53851 0.011202 0.76953 0.033203 0.23643 0.022516 0.44836 0.049137 0.63477 0.082032v0.001953c0.12496 0.021626 0.34927 0.077292 0.55664 0.12891v1.4043c-0.5743-0.24396-1.1496-0.47656-1.7227-0.47656-0.32188 0-0.61164 0.058607-0.85352 0.20703-0.24644 0.15122-0.41992 0.43494-0.41992 0.72461 0 0.2637 0.12397 0.52562 0.32422 0.69727l0.003906 0.003906 0.003906 0.001953c0.20583 0.16581 0.50052 0.30556 0.94922 0.49219h0.001953c0.83455 0.33681 1.3998 0.70287 1.6973 1.0488v0.001953h0.001953c0.30868 0.35515 0.45508 0.75176 0.45508 1.248 0 0.49164-0.12615 0.8935-0.38086 1.2441h-0.001954v0.001953c-0.25214 0.35167-0.6026 0.61353-1.084 0.79492-0.48429 0.18249-1.0865 0.2793-1.8066 0.2793-0.75315 0-1.4197-0.15056-2.0469-0.37696v-1.4277c0.22761 0.12701 0.43897 0.27688 0.68945 0.37109l0.001953 0.001954c0.4521 0.16591 0.88596 0.25391 1.2988 0.25391 0.31538 0 0.59311-0.053028 0.82422-0.20117l0.001953-0.001953h0.003906c0.23426-0.15617 0.37891-0.44333 0.37891-0.72461 0-0.19978-0.064217-0.4011-0.18555-0.56055-0.11127-0.15469-0.26155-0.27696-0.44141-0.38086l-0.003906-0.001953c-0.19413-0.11405-0.47794-0.23216-0.89648-0.38867h-0.001954c-1.2578-0.48395-1.7852-1.1586-1.7852-2.1738 0-0.71782 0.24724-1.2341 0.78516-1.6562v-0.001953c0.53774-0.42543 1.2724-0.65039 2.248-0.65039z" color="#000000" color-rendering="auto" dominant-baseline="auto" fill="#8f0000" image-rendering="auto" solid-color="#000000" stop-color="#000000" style="font-feature-settings:normal;font-variant-alternates:normal;font-variant-caps:normal;font-variant-east-asian:normal;font-variant-ligatures:no-contextual;font-variant-numeric:normal;font-variant-position:normal;font-variation-settings:normal;inline-size:0;isolation:auto;mix-blend-mode:normal;shape-margin:0;shape-padding:0;text-decoration-color:#000000;text-decoration-line:none;text-decoration-style:solid;text-indent:0;text-orientation:mixed;text-transform:none;white-space:normal"/>
  </g>
  <g>
   <path d="m70.829 93.948v1.4982h2.4738v1.9627h-2.4738v2.9035h-2.5086v-8.3271h5.2204v1.9627z" color="#000000" color-rendering="auto" dominant-baseline="auto" fill="#fff" image-rendering="auto" solid-color="#000000" stop-color="#000000" style="font-feature-settings:normal;font-variant-alternates:normal;font-variant-caps:normal;font-variant-east-asian:normal;font-variant-ligatures:no-contextual;font-variant-numeric:normal;font-variant-position:normal;font-variation-settings:normal;inline-size:0;isolation:auto;mix-blend-mode:normal;shape-margin:0;shape-padding:0;text-decoration-color:#000000;text-decoration-line:none;text-decoration-style:solid;text-indent:0;text-orientation:mixed;text-transform:none;white-space:normal"/>
   <path d="m67.975 91.641v9.0176h3.1992v-2.9043h2.4746v-2.6523h-2.4746v-0.80859h2.7129v-2.6523h-5.9121zm0.69141 0.68945h4.5293v1.2715h-2.7109v0.3457 1.8438h2.4727v1.2715h-2.4727v2.9043h-1.8184v-7.6367z" color="#000000" color-rendering="auto" dominant-baseline="auto" fill="#8f0000" image-rendering="auto" solid-color="#000000" stop-color="#000000" style="font-feature-settings:normal;font-variant-alternates:normal;font-variant-caps:normal;font-variant-east-asian:normal;font-variant-ligatures:no-contextual;font-variant-numeric:normal;font-variant-position:normal;font-variation-settings:normal;inline-size:0;isolation:auto;mix-blend-mode:normal;shape-margin:0;shape-padding:0;text-decoration-color:#000000;text-decoration-line:none;text-decoration-style:solid;text-indent:0;text-orientation:mixed;text-transform:none;white-space:normal"/>
  </g>
  <g>
   <path d="m79.975 100.31-0.36584-1.533h-2.4854l-0.39487 1.533h-2.7118l2.8686-8.3271h3.1125l2.7002 8.3271zm-1.5795-6.5154h-0.05807c-0.0077 0.09291-0.03484 0.24583-0.0813 0.45875-0.04645 0.21292-0.28067 1.1265-0.70264 2.7409h1.5911l-0.58069-2.2647c-0.0813-0.33293-0.13743-0.64457-0.1684-0.93492z" color="#000000" color-rendering="auto" dominant-baseline="auto" fill="#fff" image-rendering="auto" solid-color="#000000" stop-color="#000000" style="font-feature-settings:normal;font-variant-alternates:normal;font-variant-caps:normal;font-variant-east-asian:normal;font-variant-ligatures:no-contextual;font-variant-numeric:normal;font-variant-position:normal;font-variation-settings:normal;inline-size:0;isolation:auto;mix-blend-mode:normal;shape-margin:0;shape-padding:0;text-decoration-color:#000000;text-decoration-line:none;text-decoration-style:solid;text-indent:0;text-orientation:mixed;text-transform:none;white-space:normal"/>
   <path d="m76.639 91.641-3.1055 9.0176h3.4629l0.39453-1.5332h1.9453l0.36523 1.5332h0.27344 3.1992l-2.9258-9.0176h-3.6094zm0.49219 0.68945h2.6152l2.4766 7.6367h-1.9746l-0.36719-1.5332h-3.0254l-0.39453 1.5332h-1.959l2.6289-7.6367zm0.88867 1.1211-0.027343 0.31641c-0.004808 0.057706-0.029138 0.20746-0.074219 0.41406-0.038781 0.17776-0.2774 1.1128-0.69922 2.7266l-0.11328 0.43359h2.4844l-0.69141-2.6914v-0.003907c-0.077665-0.31872-0.13121-0.61537-0.16016-0.88672l-0.033203-0.30859h-0.31055-0.375zm0.32812 1.832 0.35156 1.3672h-0.70117c0.17954-0.68908 0.26139-1.0181 0.34961-1.3672z" color="#000000" color-rendering="auto" dominant-baseline="auto" fill="#8f0000" image-rendering="auto" solid-color="#000000" stop-color="#000000" style="font-feature-settings:normal;font-variant-alternates:normal;font-variant-caps:normal;font-variant-east-asian:normal;font-variant-ligatures:no-contextual;font-variant-numeric:normal;font-variant-position:normal;font-variation-settings:normal;inline-size:0;isolation:auto;mix-blend-mode:normal;shape-margin:0;shape-padding:0;text-decoration-color:#000000;text-decoration-line:none;text-decoration-style:solid;text-indent:0;text-orientation:mixed;text-transform:none;white-space:normal"/>
  </g>
  <g>
   <path d="m89.87 100.09c-0.68909 0.24777-1.4846 0.37165-2.3866 0.37165-0.88652 0-1.6511-0.1684-2.2937-0.50521-0.64263-0.34067-1.1343-0.82265-1.475-1.4459-0.3368-0.62715-0.5052-1.3491-0.5052-2.166 0-0.87878 0.18969-1.6608 0.56908-2.346 0.37939-0.68522 0.91556-1.2136 1.6085-1.5853 0.69296-0.37552 1.4904-0.56327 2.3925-0.56327 0.72006 0 1.4169 0.0871 2.0905 0.26131v2.317c-0.23228-0.13937-0.50908-0.24776-0.83039-0.32519-0.32132-0.07743-0.6465-0.11614-0.97556-0.11614-0.68135 0-1.2195 0.1955-1.6143 0.5865-0.391 0.391-0.5865 0.92137-0.5865 1.5911 0 0.66586 0.1955 1.1924 0.5865 1.5795 0.39487 0.38326 0.92137 0.57489 1.5795 0.57489 0.60779 0 1.2214-0.15485 1.8408-0.46456z" color="#000000" color-rendering="auto" dominant-baseline="auto" fill="#fff" image-rendering="auto" solid-color="#000000" stop-color="#000000" style="font-feature-settings:normal;font-variant-alternates:normal;font-variant-caps:normal;font-variant-east-asian:normal;font-variant-ligatures:no-contextual;font-variant-numeric:normal;font-variant-position:normal;font-variation-settings:normal;inline-size:0;isolation:auto;mix-blend-mode:normal;shape-margin:0;shape-padding:0;text-decoration-color:#000000;text-decoration-line:none;text-decoration-style:solid;text-indent:0;text-orientation:mixed;text-transform:none;white-space:normal"/>
   <path d="m87.779 91.5c-0.94991 0-1.8085 0.20006-2.5566 0.60547-0.74771 0.401-1.3364 0.9807-1.7461 1.7207-0.40968 0.73993-0.61328 1.5852-0.61328 2.5137 0 0.86429 0.18052 1.6479 0.54688 2.3301l0.001953 0.001953c0.37179 0.68021 0.91793 1.2163 1.6152 1.5859h0.001953c0.70044 0.3671 1.5229 0.54492 2.4531 0.54492 0.93362 0 1.7697-0.12858 2.5039-0.39257l0.22852-0.08204v-0.24218-2.7949l-0.5 0.25c-0.57901 0.2895-1.1364 0.42773-1.6855 0.42773-0.59007 0-1.012-0.15921-1.3379-0.47461l-0.001953-0.001953c-0.31956-0.3173-0.48047-0.73479-0.48047-1.332 0-0.60256 0.16306-1.0263 0.48438-1.3477 0.32415-0.32007 0.75683-0.48438 1.3711-0.48438 0.30199 0 0.5993 0.03433 0.89453 0.10547 0.29388 0.070814 0.53618 0.16936 0.73242 0.28711l0.52344 0.3125v-3.1934l-0.25781-0.066406c-0.70247-0.18167-1.4298-0.27344-2.1777-0.27344zm0 0.69141c0.6032 0 1.1792 0.092096 1.7461 0.21875v1.5117c-0.13725-0.050758-0.25205-0.12152-0.4043-0.1582-0.34741-0.083712-0.70051-0.12695-1.0566-0.12695-0.74738 0-1.392 0.22665-1.8574 0.6875h-0.001953c-0.46068 0.46068-0.6875 1.099-0.6875 1.8359 0 0.73343 0.22814 1.3675 0.68945 1.8242v0.001953l0.001953 0.001953c0.46365 0.45001 1.0952 0.67188 1.8203 0.67188 0.50001 0 0.99817-0.18951 1.4961-0.37695v1.5137c-0.59974 0.18826-1.2595 0.31446-2.043 0.31446-0.84207 0-1.5463-0.15886-2.1309-0.46485h-0.001953c-0.5873-0.31163-1.0227-0.74072-1.332-1.3066-0.30612-0.57138-0.46289-1.232-0.46289-2 0-0.82911 0.1763-1.5472 0.52539-2.1777 0.34906-0.63044 0.83249-1.1069 1.4707-1.4492 0.6378-0.34562 1.3744-0.52148 2.2285-0.52148z" color="#000000" color-rendering="auto" dominant-baseline="auto" fill="#8f0000" image-rendering="auto" solid-color="#000000" stop-color="#000000" style="font-feature-settings:normal;font-variant-alternates:normal;font-variant-caps:normal;font-variant-east-asian:normal;font-variant-ligatures:no-contextual;font-variant-numeric:normal;font-variant-position:normal;font-variation-settings:normal;inline-size:0;isolation:auto;mix-blend-mode:normal;shape-margin:0;shape-padding:0;text-decoration-color:#000000;text-decoration-line:none;text-decoration-style:solid;text-indent:0;text-orientation:mixed;text-transform:none;white-space:normal"/>
  </g>
  <g>
   <path d="m95.386 93.948v6.3644h-2.5202v-6.3644h-2.3286v-1.9627h7.2064v1.9627z" color="#000000" color-rendering="auto" dominant-baseline="auto" fill="#fff" image-rendering="auto" solid-color="#000000" stop-color="#000000" style="font-feature-settings:normal;font-variant-alternates:normal;font-variant-caps:normal;font-variant-east-asian:normal;font-variant-ligatures:no-contextual;font-variant-numeric:normal;font-variant-position:normal;font-variation-settings:normal;inline-size:0;isolation:auto;mix-blend-mode:normal;shape-margin:0;shape-padding:0;text-decoration-color:#000000;text-decoration-line:none;text-decoration-style:solid;text-indent:0;text-orientation:mixed;text-transform:none;white-space:normal"/>
   <path d="m90.191 91.641v2.6523h2.3301v6.3652h3.209v-6.3652h2.3594v-2.6523h-7.8984zm0.69141 0.68945h6.5156v1.2715h-2.3574v0.3457 6.0195h-1.8301v-6.3652h-2.3281v-1.2715z" color="#000000" color-rendering="auto" dominant-baseline="auto" fill="#8f0000" image-rendering="auto" solid-color="#000000" stop-color="#000000" style="font-feature-settings:normal;font-variant-alternates:normal;font-variant-caps:normal;font-variant-east-asian:normal;font-variant-ligatures:no-contextual;font-variant-numeric:normal;font-variant-position:normal;font-variation-settings:normal;inline-size:0;isolation:auto;mix-blend-mode:normal;shape-margin:0;shape-padding:0;text-decoration-color:#000000;text-decoration-line:none;text-decoration-style:solid;text-indent:0;text-orientation:mixed;text-transform:none;white-space:normal"/>
  </g>
  <g>
   <path d="m98.748 100.31v-8.3271h2.5086v8.3271z" color="#000000" color-rendering="auto" dominant-baseline="auto" fill="#fff" image-rendering="auto" solid-color="#000000" stop-color="#000000" style="font-feature-settings:normal;font-variant-alternates:normal;font-variant-caps:normal;font-variant-east-asian:normal;font-variant-ligatures:no-contextual;font-variant-numeric:normal;font-variant-position:normal;font-variation-settings:normal;inline-size:0;isolation:auto;mix-blend-mode:normal;shape-margin:0;shape-padding:0;text-decoration-color:#000000;text-decoration-line:none;text-decoration-style:solid;text-indent:0;text-orientation:mixed;text-transform:none;white-space:normal"/>
   <path d="m98.402 91.641v9.0176h0.3457 2.8535v-9.0176h-3.1992zm0.69141 0.68945h1.8184v7.6367h-1.8184v-7.6367z" color="#000000" color-rendering="auto" dominant-baseline="auto" fill="#8f0000" image-rendering="auto" solid-color="#000000" stop-color="#000000" style="font-feature-settings:normal;font-variant-alternates:normal;font-variant-caps:normal;font-variant-east-asian:normal;font-variant-ligatures:no-contextual;font-variant-numeric:normal;font-variant-position:normal;font-variation-settings:normal;inline-size:0;isolation:auto;mix-blend-mode:normal;shape-margin:0;shape-padding:0;text-decoration-color:#000000;text-decoration-line:none;text-decoration-style:solid;text-indent:0;text-orientation:mixed;text-transform:none;white-space:normal"/>
  </g>
  <g>
   <path d="m110.83 96.125c0 0.8362-0.18001 1.5853-0.54004 2.2473-0.36003 0.65812-0.8633 1.1711-1.5098 1.5388-0.64651 0.3639-1.3704 0.54586-2.1718 0.54586-0.782 0-1.4943-0.17614-2.137-0.52843-0.63876-0.35616-1.1362-0.85362-1.4924-1.4924-0.35616-0.64263-0.53424-1.3685-0.53424-2.1776 0-0.84781 0.18002-1.6105 0.54005-2.2879 0.36003-0.67748 0.86523-1.2001 1.5156-1.5679 0.65037-0.37164 1.3898-0.55747 2.2182-0.55747 0.79748 0 1.5098 0.17808 2.137 0.53424 0.63102 0.35229 1.1169 0.85749 1.4575 1.5156 0.34454 0.65425 0.51681 1.3975 0.51681 2.2299zm-2.6596 0.06968c0-0.68522-0.13162-1.2253-0.39487-1.6201s-0.62328-0.59231-1.0801-0.59231c-0.4994 0-0.88847 0.18969-1.1672 0.56908-0.27873 0.37939-0.4181 0.91556-0.4181 1.6085 0 0.67748 0.13743 1.2059 0.4123 1.5853 0.27873 0.37939 0.65618 0.56908 1.1324 0.56908 0.29035 0 0.55166-0.08517 0.78393-0.2555 0.23228-0.17034 0.4123-0.41423 0.54005-0.73167 0.12775-0.31744 0.19163-0.6949 0.19163-1.1324z" color="#000000" color-rendering="auto" dominant-baseline="auto" fill="#fff" image-rendering="auto" solid-color="#000000" stop-color="#000000" style="font-feature-settings:normal;font-variant-alternates:normal;font-variant-caps:normal;font-variant-east-asian:normal;font-variant-ligatures:no-contextual;font-variant-numeric:normal;font-variant-position:normal;font-variation-settings:normal;inline-size:0;isolation:auto;mix-blend-mode:normal;shape-margin:0;shape-padding:0;text-decoration-color:#000000;text-decoration-line:none;text-decoration-style:solid;text-indent:0;text-orientation:mixed;text-transform:none;white-space:normal"/>
   <path d="m106.71 91.5c-0.8794 0-1.6819 0.20117-2.3867 0.60352-0.70567 0.39904-1.2621 0.9744-1.6504 1.7051-0.38803 0.73017-0.58203 1.5545-0.58203 2.4512 0 0.85975 0.19219 1.6474 0.57813 2.3438v0.001953c0.38561 0.69159 0.93536 1.2394 1.627 1.625l0.00195 0.00195c0.69439 0.38066 1.4689 0.57031 2.3027 0.57031 0.85361 0 1.6422-0.19603 2.3418-0.58984v-0.00195c0.69948-0.39792 1.2538-0.96119 1.6426-1.6719v-0.001953c0.38918-0.71558 0.58204-1.5264 0.58204-2.4121-1e-5 -0.87996-0.18398-1.683-0.55665-2.3906-0.36863-0.71099-0.90598-1.2708-1.5918-1.6543-0.68179-0.38718-1.4597-0.58008-2.3086-0.58008zm0 0.69141c0.74609 0 1.3943 0.16315 1.9668 0.48828h0.00195v0.001953c0.57422 0.32058 1.0081 0.76987 1.3203 1.373v0.001953c0.31641 0.60085 0.47851 1.2837 0.47851 2.0684 0 0.78666-0.16716 1.4736-0.49804 2.082-0.33128 0.60555-0.78539 1.0667-1.3789 1.4043-0.59296 0.33339-1.2516 0.5-2 0.5-0.72948 0-1.3783-0.16106-1.9688-0.48438h-0.00195c-0.58489-0.3264-1.031-0.77253-1.3574-1.3574v-0.001953c-0.32579-0.5885-0.49023-1.2501-0.49023-2.0078 0-0.79895 0.16797-1.5022 0.5-2.127 0.33175-0.62427 0.78578-1.0932 1.3809-1.4297 0.59555-0.34032 1.27-0.51172 2.0469-0.51172zm-0.02343 1.4453c-0.58682 0-1.1083 0.25228-1.4453 0.71094-0.3381 0.4602-0.48437 1.0733-0.48437 1.8125 0 0.72416 0.14637 1.3287 0.47851 1.7871v0.001953c0.33427 0.45497 0.84427 0.71094 1.4121 0.71094 0.35786 0 0.7007-0.11136 0.98828-0.32226 0.29041-0.21296 0.50748-0.51603 0.6543-0.88086 0.14826-0.36839 0.2168-0.79066 0.2168-1.2617 0-0.72942-0.13681-1.3409-0.45117-1.8125-0.31437-0.47155-0.81287-0.74609-1.3691-0.74609zm0 0.69141c0.35735 0 0.58084 0.11931 0.79297 0.4375 0.21212 0.31819 0.33789 0.78868 0.33789 1.4297 0 0.40385-0.05877 0.73741-0.16602 1.0039-0.10868 0.27006-0.24968 0.45432-0.42383 0.58203-0.17696 0.12977-0.35723 0.1875-0.58008 0.1875-0.38343 0-0.63079-0.12379-0.85351-0.42578v-0.001953c-0.21707-0.30033-0.34571-0.75091-0.34571-1.3809 0-0.64668 0.13026-1.1057 0.34961-1.4043 0.2205-0.30011 0.47669-0.42773 0.88868-0.42773z" color="#000000" color-rendering="auto" dominant-baseline="auto" fill="#8f0000" image-rendering="auto" solid-color="#000000" stop-color="#000000" style="font-feature-settings:normal;font-variant-alternates:normal;font-variant-caps:normal;font-variant-east-asian:normal;font-variant-ligatures:no-contextual;font-variant-numeric:normal;font-variant-position:normal;font-variation-settings:normal;inline-size:0;isolation:auto;mix-blend-mode:normal;shape-margin:0;shape-padding:0;text-decoration-color:#000000;text-decoration-line:none;text-decoration-style:solid;text-indent:0;text-orientation:mixed;text-transform:none;white-space:normal"/>
  </g>
  <g>
   <path d="m117.83 100.31-2.9383-4.0184c-0.23227-0.31744-0.42197-0.60392-0.56908-0.85943h-0.0232c0.0232 0.41036 0.0348 0.87104 0.0348 1.382v3.4958h-2.3228v-8.3271h2.3692l2.8164 3.821c0.0349 0.05033 0.0775 0.11033 0.12775 0.18002 0.0503 0.06968 0.10066 0.1413 0.15098 0.21486 0.0503 0.07355 0.0968 0.14517 0.13937 0.21486 0.0465 0.06968 0.0813 0.13162 0.10452 0.18582h0.0232c-0.0232-0.17034-0.0348-0.46456-0.0348-0.88265v-3.7339h2.3228v8.3271z" color="#000000" color-rendering="auto" dominant-baseline="auto" fill="#fff" image-rendering="auto" solid-color="#000000" stop-color="#000000" style="font-feature-settings:normal;font-variant-alternates:normal;font-variant-caps:normal;font-variant-east-asian:normal;font-variant-ligatures:no-contextual;font-variant-numeric:normal;font-variant-position:normal;font-variation-settings:normal;inline-size:0;isolation:auto;mix-blend-mode:normal;shape-margin:0;shape-padding:0;text-decoration-color:#000000;text-decoration-line:none;text-decoration-style:solid;text-indent:0;text-orientation:mixed;text-transform:none;white-space:normal"/>
   <path d="m111.67 91.641v9.0176h3.0137v-3.8418c0-0.086997-0.0052-0.15213-0.00586-0.23633l2.9805 4.0781h0.17578 2.5469v-9.0176h-3.0137v3.8086l-2.8086-3.8086h-2.8887zm0.6914 0.68945h1.8496l2.7129 3.6797c0.03566 0.051339 0.07598 0.10982 0.125 0.17773 0.04855 0.067212 0.09777 0.13777 0.14649 0.20898 0.04726 0.069067 0.0897 0.13506 0.1289 0.19922l0.00391 0.005859 0.0039 0.00586c0.03827 0.05739 0.06275 0.10407 0.07422 0.13086l0.08985 0.20898h0.64648l-0.05469-0.39258c-0.0181-0.13292-0.03125-0.42422-0.03125-0.83594v-3.3887h1.6328v7.6367h-1.6797l-2.8359-3.877c-0.22672-0.30986-0.41007-0.58713-0.54883-0.82812l-0.09961-0.17188h-0.58789l0.02149 0.36328c0.02274 0.40229 0.0332 0.8575 0.0332 1.3633v3.1504h-1.6309v-7.6367z" color="#000000" color-rendering="auto" dominant-baseline="auto" fill="#8f0000" image-rendering="auto" solid-color="#000000" stop-color="#000000" style="font-feature-settings:normal;font-variant-alternates:normal;font-variant-caps:normal;font-variant-east-asian:normal;font-variant-ligatures:no-contextual;font-variant-numeric:normal;font-variant-position:normal;font-variation-settings:normal;inline-size:0;isolation:auto;mix-blend-mode:normal;shape-margin:0;shape-padding:0;text-decoration-color:#000000;text-decoration-line:none;text-decoration-style:solid;text-indent:0;text-orientation:mixed;text-transform:none;white-space:normal"/>
  </g>
 </g>
 <g transform="scale(.94902 1.0537)" shape-rendering="auto" stroke-width=".46667" style="font-variant-ligatures:no-contextual" aria-label="GUARANTEE">
  <g>
   <path d="m44.576 84.876c-0.28848 0.16383-0.71942 0.31163-1.2928 0.4434-0.5734 0.12821-1.1201 0.19232-1.6401 0.19232-1.3427 0-2.3791-0.33478-3.1092-1.0043-0.7301-0.67312-1.0952-1.6151-1.0952-2.826 0-0.81202 0.18342-1.5332 0.55025-2.1636 0.3704-0.63038 0.89037-1.1094 1.5599-1.4371 0.66956-0.32766 1.4584-0.49149 2.3666-0.49149 0.666 0 1.3765 0.09438 2.1316 0.28314v2.014c-0.35259-0.16027-0.69093-0.27067-1.015-0.33122-0.3241-0.06411-0.67846-0.09616-1.0631-0.09616-0.63394 0-1.1397 0.19054-1.5172 0.57162-0.37396 0.38108-0.56094 0.90462-0.56094 1.5706 0 0.63751 0.15671 1.1361 0.47012 1.4958 0.31697 0.35971 0.7586 0.53957 1.3249 0.53957 0.26355 0 0.45765-0.01425 0.5823-0.04274v-1.0952h-1.4691v-1.7469h3.777z" color="#000000" color-rendering="auto" dominant-baseline="auto" image-rendering="auto" solid-color="#000000" stop-color="#000000" style="font-feature-settings:normal;font-variant-alternates:normal;font-variant-caps:normal;font-variant-east-asian:normal;font-variant-ligatures:no-contextual;font-variant-numeric:normal;font-variant-position:normal;font-variation-settings:normal;inline-size:0;isolation:auto;mix-blend-mode:normal;shape-margin:0;shape-padding:0;text-decoration-color:#000000;text-decoration-line:none;text-decoration-style:solid;text-indent:0;text-orientation:mixed;text-transform:none;white-space:normal"/>
   <path d="m41.916 77.355c-0.93624 0-1.7618 0.16966-2.4688 0.51562-0.70737 0.34616-1.2676 0.86119-1.6602 1.5293-0.38874 0.66803-0.58203 1.4341-0.58203 2.2812 0 1.2578 0.38855 2.2777 1.1699 2.998h0.001953c0.78262 0.71772 1.8842 1.0664 3.2656 1.0664 0.53916 0 1.1033-0.067727 1.6914-0.19922h0.001954c0.58565-0.13459 1.0326-0.2854 1.3555-0.46875l0.11719-0.066406v-0.13477-4.3574h-4.2422v2.2129h1.4688v0.64648c-0.10012 0.010695-0.18167 0.025391-0.34961 0.025391-0.51612 0-0.87717-0.15384-1.1484-0.46094-0.26856-0.30824-0.41211-0.74253-0.41211-1.3418 0-0.62233 0.16778-1.0756 0.49414-1.4082 0.33133-0.33352 0.76344-0.5 1.3496-0.5 0.37168 0 0.71072 0.0311 1.0176 0.091797h0.001953c0.30258 0.056526 0.62474 0.16075 0.96289 0.31445l0.33008 0.14844v-2.5586l-0.17773-0.042969c-0.7707-0.19267-1.4995-0.29102-2.1875-0.29102zm0 0.4668c0.58938 0 1.2291 0.099218 1.8984 0.25391v1.4902c-0.24799-0.093425-0.49841-0.19556-0.73633-0.24023h-0.003906c-0.34034-0.067041-0.70925-0.09961-1.1055-0.09961-0.6807 0-1.2601 0.21316-1.6836 0.64063-0.42155 0.42958-0.62695 1.0247-0.62695 1.7344 0 0.67574 0.16908 1.2373 0.52734 1.6484v0.001953c0.36254 0.41142 0.88432 0.61914 1.5 0.61914 0.27196 0 0.47529-0.012375 0.63476-0.048828l0.18164-0.042969v-1.5137h-1.4688v-1.2812h3.3086v3.7305c-0.25746 0.1304-0.60458 0.2605-1.1113 0.37695-0.558 0.12463-1.0877 0.1875-1.5879 0.1875-1.3039 0-2.2736-0.32196-2.9512-0.94336-0.67884-0.62586-1.0195-1.4903-1.0195-2.6543 0-0.77688 0.1746-1.4541 0.51953-2.0469 0.34812-0.59143 0.83006-1.035 1.4609-1.3438 0.63215-0.30935 1.3836-0.46875 2.2637-0.46875z" color="#000000" color-rendering="auto" dominant-baseline="auto" fill="#fff" image-rendering="auto" solid-color="#000000" stop-color="#000000" style="font-feature-settings:normal;font-variant-alternates:normal;font-variant-caps:normal;font-variant-east-asian:normal;font-variant-ligatures:no-contextual;font-variant-numeric:normal;font-variant-position:normal;font-variation-settings:normal;inline-size:0;isolation:auto;mix-blend-mode:normal;shape-margin:0;shape-padding:0;text-decoration-color:#000000;text-decoration-line:none;text-decoration-style:solid;text-indent:0;text-orientation:mixed;text-transform:none;white-space:normal"/>
  </g>
  <g>
   <path d="m52.493 81.879c0 1.2287-0.28136 2.1422-0.84407 2.7406-0.55915 0.59477-1.4228 0.89215-2.591 0.89215-1.0898 0-1.9179-0.29738-2.4841-0.89215-0.56272-0.59833-0.84407-1.4976-0.84407-2.6978v-4.2043h2.3185v4.2898c0 0.49148 0.09082 0.87078 0.27245 1.1379 0.1852 0.26355 0.44875 0.39533 0.79065 0.39533 0.34546 0 0.60723-0.12465 0.78531-0.37396 0.18164-0.2493 0.27245-0.61792 0.27245-1.1058v-4.3432h2.3239z" color="#000000" color-rendering="auto" dominant-baseline="auto" image-rendering="auto" solid-color="#000000" stop-color="#000000" style="font-feature-settings:normal;font-variant-alternates:normal;font-variant-caps:normal;font-variant-east-asian:normal;font-variant-ligatures:no-contextual;font-variant-numeric:normal;font-variant-position:normal;font-variation-settings:normal;inline-size:0;isolation:auto;mix-blend-mode:normal;shape-margin:0;shape-padding:0;text-decoration-color:#000000;text-decoration-line:none;text-decoration-style:solid;text-indent:0;text-orientation:mixed;text-transform:none;white-space:normal"/>
   <path d="m45.496 77.484v4.4375c0 1.2367 0.29214 2.2024 0.9082 2.8574v0.001953c0.61782 0.64891 1.522 0.96484 2.6543 0.96484 1.2078 0 2.1451-0.31295 2.7598-0.9668 0.61733-0.6564 0.9082-1.6361 0.9082-2.9004v-4.3945h-2.791v4.5762c0 0.45897-0.087589 0.778-0.22656 0.96875h-0.001953v0.001953c-0.13659 0.19123-0.30637 0.27539-0.5957 0.27539-0.28085 0-0.45167-0.086439-0.59766-0.29297v-0.001953c-0.14374-0.21213-0.23242-0.54202-0.23242-1.0039v-4.5234h-2.7852zm0.4668 0.4668h1.8516v4.0566c0 0.52023 0.093445 0.94739 0.3125 1.2695h0.001953l0.001953 0.001953c0.22403 0.31882 0.57861 0.49414 0.98047 0.49414 0.40159 0 0.75505-0.16332 0.97461-0.4707 0.22358-0.30773 0.31641-0.72607 0.31641-1.2422v-4.1094h1.8574v3.9277c0 1.1931-0.27314 2.0398-0.78125 2.5801-0.50361 0.53569-1.2914 0.82031-2.4199 0.82031-1.0466 0-1.7998-0.28045-2.3145-0.82031-0.50937-0.54161-0.78125-1.3734-0.78125-2.5371v-3.9707z" color="#000000" color-rendering="auto" dominant-baseline="auto" fill="#fff" image-rendering="auto" solid-color="#000000" stop-color="#000000" style="font-feature-settings:normal;font-variant-alternates:normal;font-variant-caps:normal;font-variant-east-asian:normal;font-variant-ligatures:no-contextual;font-variant-numeric:normal;font-variant-position:normal;font-variation-settings:normal;inline-size:0;isolation:auto;mix-blend-mode:normal;shape-margin:0;shape-padding:0;text-decoration-color:#000000;text-decoration-line:none;text-decoration-style:solid;text-indent:0;text-orientation:mixed;text-transform:none;white-space:normal"/>
  </g>
  <g>
   <path d="m58.717 85.378-0.33656-1.4104h-2.2865l-0.36327 1.4104h-2.4948l2.6391-7.6608h2.8634l2.4841 7.6608zm-1.4531-5.994h-0.05342c-0.0071 0.08548-0.03205 0.22616-0.07479 0.42204s-0.25821 1.0364-0.64641 2.5215h1.4638l-0.53422-2.0835c-0.07479-0.30629-0.12643-0.59299-0.15492-0.8601z" color="#000000" color-rendering="auto" dominant-baseline="auto" image-rendering="auto" solid-color="#000000" stop-color="#000000" style="font-feature-settings:normal;font-variant-alternates:normal;font-variant-caps:normal;font-variant-east-asian:normal;font-variant-ligatures:no-contextual;font-variant-numeric:normal;font-variant-position:normal;font-variation-settings:normal;inline-size:0;isolation:auto;mix-blend-mode:normal;shape-margin:0;shape-padding:0;text-decoration-color:#000000;text-decoration-line:none;text-decoration-style:solid;text-indent:0;text-orientation:mixed;text-transform:none;white-space:normal"/>
   <path d="m55.709 77.484-2.8008 8.127h3.0039l0.36328-1.4102h1.9199l0.33789 1.4102h0.18359 2.8262l-2.6348-8.127h-3.1992zm0.33203 0.4668h2.5273l2.332 7.1934h-2l-0.33594-1.4102h-2.6523l-0.36328 1.4102h-1.9844l2.4766-7.1934zm0.95508 1.1992-0.017578 0.21484c-0.005138 0.061681-0.028505 0.19901-0.070313 0.39062-0.037556 0.17212-0.25644 1.0289-0.64453 2.5137l-0.076172 0.29102h2.0664l-0.60938-2.3711v-0.003906c-0.072162-0.29619-0.12136-0.57228-0.14844-0.82617l-0.023438-0.20898h-0.20898-0.26758zm0.22461 1.2637 0.43164 1.6797h-0.86328c0.23082-0.88513 0.35129-1.3547 0.43164-1.6797z" color="#000000" color-rendering="auto" dominant-baseline="auto" fill="#fff" image-rendering="auto" solid-color="#000000" stop-color="#000000" style="font-feature-settings:normal;font-variant-alternates:normal;font-variant-caps:normal;font-variant-east-asian:normal;font-variant-ligatures:no-contextual;font-variant-numeric:normal;font-variant-position:normal;font-variation-settings:normal;inline-size:0;isolation:auto;mix-blend-mode:normal;shape-margin:0;shape-padding:0;text-decoration-color:#000000;text-decoration-line:none;text-decoration-style:solid;text-indent:0;text-orientation:mixed;text-transform:none;white-space:normal"/>
  </g>
  <g>
   <path d="m66.094 85.378-0.57162-1.6508c-0.11041-0.3241-0.25465-0.57874-0.43272-0.76394-0.17451-0.1852-0.36505-0.2778-0.57162-0.2778h-0.09082v2.6925h-2.3078v-7.6608h3.0664c1.072 0 1.8627 0.17629 2.372 0.52888 0.51286 0.34903 0.76928 0.87435 0.76928 1.576 0 0.5271-0.14958 0.96873-0.44875 1.3249-0.2956 0.35615-0.73723 0.61436-1.3249 0.77462v0.02137c0.3241 0.09972 0.59299 0.26177 0.80668 0.48614 0.21725 0.22437 0.41135 0.55737 0.5823 0.999l0.75326 1.9499zm-0.21903-5.23c0-0.25643-0.07835-0.45943-0.23506-0.60902-0.1567-0.14958-0.40245-0.22437-0.73723-0.22437h-0.47546v1.7523h0.4167c0.30985 0 0.55915-0.08726 0.74791-0.26177 0.18876-0.17451 0.28314-0.39354 0.28314-0.6571z" color="#000000" color-rendering="auto" dominant-baseline="auto" image-rendering="auto" solid-color="#000000" stop-color="#000000" style="font-feature-settings:normal;font-variant-alternates:normal;font-variant-caps:normal;font-variant-east-asian:normal;font-variant-ligatures:no-contextual;font-variant-numeric:normal;font-variant-position:normal;font-variation-settings:normal;inline-size:0;isolation:auto;mix-blend-mode:normal;shape-margin:0;shape-padding:0;text-decoration-color:#000000;text-decoration-line:none;text-decoration-style:solid;text-indent:0;text-orientation:mixed;text-transform:none;white-space:normal"/>
   <path d="m61.887 77.484v8.127h2.7734v-2.6191c0.084414 0.027894 0.16748 0.032924 0.25977 0.13086l0.001953 0.001953c0.14764 0.15354 0.27843 0.37704 0.38086 0.67773l0.625 1.8086h0.16602 2.9434l-0.87695-2.2676c-0.17816-0.46025-0.38362-0.81881-0.63281-1.0762-0.14764-0.15476-0.35845-0.23233-0.55078-0.33398 0.41415-0.16873 0.83045-0.33643 1.0801-0.63672 0.33563-0.39956 0.50391-0.90336 0.50391-1.4746 0-0.75741-0.29773-1.3775-0.86914-1.7676-0.57229-0.3962-1.4083-0.57031-2.5059-0.57031h-3.2988zm0.4668 0.4668h2.832c1.0464 0 1.7939 0.17735 2.2402 0.48633v0.001953h0.001953c0.45273 0.30811 0.66602 0.73805 0.66602 1.3828 0 0.48296-0.13183 0.86304-0.39453 1.1758-0.25806 0.31091-0.65213 0.54788-1.207 0.69922l-0.17188 0.046875v0.37109l0.16406 0.050782c0.29086 0.089495 0.52206 0.22961 0.70703 0.42383v0.001953h0.001953c0.18531 0.19138 0.36751 0.49692 0.53125 0.91992l0.63086 1.6328h-2.0957l-0.51562-1.4922v-0.001953c-0.11831-0.34669-0.27818-0.63118-0.48633-0.84766-0.20581-0.2178-0.46453-0.34961-0.74023-0.34961h-0.32227v2.6914h-1.8418v-7.1934zm1.8418 1.1309v2.2188h0.64844c0.35366 0 0.67076-0.1065 0.90625-0.32422 0.23175-0.21426 0.35938-0.50887 0.35938-0.82812 0-0.30396-0.10372-0.58178-0.30859-0.77734-0.21674-0.20689-0.5289-0.28906-0.89844-0.28906h-0.70703zm0.46484 0.4668h0.24219c0.30003 0 0.4795 0.067878 0.57617 0.16016 0.10853 0.1036 0.16406 0.23056 0.16406 0.43945 0 0.20784-0.063217 0.35156-0.20898 0.48633-0.14203 0.13131-0.3238 0.19922-0.58984 0.19922h-0.18359v-1.2852z" color="#000000" color-rendering="auto" dominant-baseline="auto" fill="#fff" image-rendering="auto" solid-color="#000000" stop-color="#000000" style="font-feature-settings:normal;font-variant-alternates:normal;font-variant-caps:normal;font-variant-east-asian:normal;font-variant-ligatures:no-contextual;font-variant-numeric:normal;font-variant-position:normal;font-variation-settings:normal;inline-size:0;isolation:auto;mix-blend-mode:normal;shape-margin:0;shape-padding:0;text-decoration-color:#000000;text-decoration-line:none;text-decoration-style:solid;text-indent:0;text-orientation:mixed;text-transform:none;white-space:normal"/>
  </g>
  <g>
   <path d="m74.38 85.378-0.33656-1.4104h-2.2865l-0.36327 1.4104h-2.4948l2.6391-7.6608h2.8634l2.4841 7.6608zm-1.4531-5.994h-0.05342c-0.0071 0.08548-0.03205 0.22616-0.07479 0.42204s-0.25821 1.0364-0.64641 2.5215h1.4638l-0.53422-2.0835c-0.07479-0.30629-0.12643-0.59299-0.15492-0.8601z" color="#000000" color-rendering="auto" dominant-baseline="auto" image-rendering="auto" solid-color="#000000" stop-color="#000000" style="font-feature-settings:normal;font-variant-alternates:normal;font-variant-caps:normal;font-variant-east-asian:normal;font-variant-ligatures:no-contextual;font-variant-numeric:normal;font-variant-position:normal;font-variation-settings:normal;inline-size:0;isolation:auto;mix-blend-mode:normal;shape-margin:0;shape-padding:0;text-decoration-color:#000000;text-decoration-line:none;text-decoration-style:solid;text-indent:0;text-orientation:mixed;text-transform:none;white-space:normal"/>
   <path d="m71.371 77.484-2.7988 8.127h3.002l0.36328-1.4102h1.9219l0.33594 1.4102h0.18555 2.8262l-2.6348-8.127h-3.2012zm0.33398 0.4668h2.5273l2.332 7.1934h-2l-0.33594-1.4102h-2.6523l-0.36328 1.4102h-1.9863l2.4785-7.1934zm0.95312 1.1992-0.017578 0.21484c-0.005138 0.061681-0.028504 0.19901-0.070313 0.39062-0.037556 0.17212-0.25448 1.0289-0.64258 2.5137l-0.078125 0.29102h2.0684l-0.60938-2.3711v-0.003906c-0.072163-0.29619-0.12136-0.57228-0.14844-0.82617l-0.023437-0.20898h-0.20898-0.26953zm0.22656 1.2637 0.43164 1.6797h-0.86328c0.23082-0.88513 0.35129-1.3547 0.43164-1.6797z" color="#000000" color-rendering="auto" dominant-baseline="auto" fill="#fff" image-rendering="auto" solid-color="#000000" stop-color="#000000" style="font-feature-settings:normal;font-variant-alternates:normal;font-variant-caps:normal;font-variant-east-asian:normal;font-variant-ligatures:no-contextual;font-variant-numeric:normal;font-variant-position:normal;font-variation-settings:normal;inline-size:0;isolation:auto;mix-blend-mode:normal;shape-margin:0;shape-padding:0;text-decoration-color:#000000;text-decoration-line:none;text-decoration-style:solid;text-indent:0;text-orientation:mixed;text-transform:none;white-space:normal"/>
  </g>
  <g>
   <path d="m83.136 85.378-2.7032-3.6968c-0.21369-0.29204-0.3882-0.55559-0.52354-0.79065h-0.02137c0.02137 0.37752 0.03205 0.80134 0.03205 1.2715v3.216h-2.1369v-7.6608h2.1796l2.591 3.5152c0.03205 0.0463 0.07123 0.1015 0.11753 0.16561 0.0463 0.06411 0.0926 0.12999 0.1389 0.19766 0.0463 0.06767 0.08904 0.13356 0.12821 0.19766 0.04274 0.06411 0.07479 0.12109 0.09616 0.17095h0.02137c-0.02137-0.1567-0.03205-0.42738-0.03205-0.81202v-3.4351h2.1369v7.6608z" color="#000000" color-rendering="auto" dominant-baseline="auto" image-rendering="auto" solid-color="#000000" stop-color="#000000" style="font-feature-settings:normal;font-variant-alternates:normal;font-variant-caps:normal;font-variant-east-asian:normal;font-variant-ligatures:no-contextual;font-variant-numeric:normal;font-variant-position:normal;font-variation-settings:normal;inline-size:0;isolation:auto;mix-blend-mode:normal;shape-margin:0;shape-padding:0;text-decoration-color:#000000;text-decoration-line:none;text-decoration-style:solid;text-indent:0;text-orientation:mixed;text-transform:none;white-space:normal"/>
   <path d="m77.551 77.484v8.127h2.6035v-3.4492c0-0.18356-0.010433-0.32816-0.013672-0.49805 0.038746 0.054814 0.061966 0.097512 0.10352 0.1543l2.7734 3.793h0.11914 2.2578v-8.127h-2.6035v3.668c0 0.005394-4e-6 0.006369 0 0.011718-0.014513-0.020541-0.032752-0.046873-0.044922-0.064453l-0.001953-0.001953-2.6641-3.6133h-2.5293zm0.4668 0.4668h1.8281l2.5195 3.4199c0.032607 0.047006 0.071825 0.10125 0.11719 0.16406 0.045099 0.062444 0.089544 0.12727 0.13477 0.19336 0.044227 0.064639 0.08615 0.12712 0.12305 0.1875l0.001954 0.003906 0.001953 0.003906c0.037206 0.055807 0.062731 0.10145 0.076171 0.13281l0.060547 0.14062h0.44336l-0.03711-0.26367c-0.017914-0.13138-0.029297-0.40093-0.029297-0.78125v-3.2012h1.6699v7.1934h-1.6738l-2.6328-3.6016c-0.20994-0.28691-0.38008-0.54233-0.50977-0.76758l-0.066406-0.11719h-0.4043l0.013672 0.24609c0.021058 0.37206 0.033203 0.79123 0.033203 1.2578v2.9824h-1.6699v-7.1934z" color="#000000" color-rendering="auto" dominant-baseline="auto" fill="#fff" image-rendering="auto" solid-color="#000000" stop-color="#000000" style="font-feature-settings:normal;font-variant-alternates:normal;font-variant-caps:normal;font-variant-east-asian:normal;font-variant-ligatures:no-contextual;font-variant-numeric:normal;font-variant-position:normal;font-variation-settings:normal;inline-size:0;isolation:auto;mix-blend-mode:normal;shape-margin:0;shape-padding:0;text-decoration-color:#000000;text-decoration-line:none;text-decoration-style:solid;text-indent:0;text-orientation:mixed;text-transform:none;white-space:normal"/>
  </g>
  <g>
   <path d="m90.546 79.523v5.8551h-2.3185v-5.8551h-2.1422v-1.8057h6.6297v1.8057z" color="#000000" color-rendering="auto" dominant-baseline="auto" image-rendering="auto" solid-color="#000000" stop-color="#000000" style="font-feature-settings:normal;font-variant-alternates:normal;font-variant-caps:normal;font-variant-east-asian:normal;font-variant-ligatures:no-contextual;font-variant-numeric:normal;font-variant-position:normal;font-variation-settings:normal;inline-size:0;isolation:auto;mix-blend-mode:normal;shape-margin:0;shape-padding:0;text-decoration-color:#000000;text-decoration-line:none;text-decoration-style:solid;text-indent:0;text-orientation:mixed;text-transform:none;white-space:normal"/>
   <path d="m85.852 77.484v2.2715h2.1426v5.8555h2.7852v-5.8555h2.168v-2.2715h-7.0957zm0.4668 0.4668h6.1641v1.3379h-2.1699v0.23438 5.6211h-1.8516v-5.8555h-2.1426v-1.3379z" color="#000000" color-rendering="auto" dominant-baseline="auto" fill="#fff" image-rendering="auto" solid-color="#000000" stop-color="#000000" style="font-feature-settings:normal;font-variant-alternates:normal;font-variant-caps:normal;font-variant-east-asian:normal;font-variant-ligatures:no-contextual;font-variant-numeric:normal;font-variant-position:normal;font-variation-settings:normal;inline-size:0;isolation:auto;mix-blend-mode:normal;shape-margin:0;shape-padding:0;text-decoration-color:#000000;text-decoration-line:none;text-decoration-style:solid;text-indent:0;text-orientation:mixed;text-transform:none;white-space:normal"/>
  </g>
  <g>
   <path d="m93.639 85.378v-7.6608h4.7706v1.8057h-2.4628v1.1165h2.3132v1.8057h-2.3132v1.1272h2.6391v1.8057z" color="#000000" color-rendering="auto" dominant-baseline="auto" image-rendering="auto" solid-color="#000000" stop-color="#000000" style="font-feature-settings:normal;font-variant-alternates:normal;font-variant-caps:normal;font-variant-east-asian:normal;font-variant-ligatures:no-contextual;font-variant-numeric:normal;font-variant-position:normal;font-variation-settings:normal;inline-size:0;isolation:auto;mix-blend-mode:normal;shape-margin:0;shape-padding:0;text-decoration-color:#000000;text-decoration-line:none;text-decoration-style:solid;text-indent:0;text-orientation:mixed;text-transform:none;white-space:normal"/>
   <path d="m93.406 77.484v8.127h0.23242 5.1797v-2.2715h-2.6387v-0.66016h2.3145v-2.2734h-2.3145v-0.65039h2.4629v-2.2715h-5.2363zm0.4668 0.4668h4.3027v1.3379h-2.4629v1.584h2.3145v1.3398h-2.3145v1.5938h2.6406v1.3379h-4.4805v-7.1934z" color="#000000" color-rendering="auto" dominant-baseline="auto" fill="#fff" image-rendering="auto" solid-color="#000000" stop-color="#000000" style="font-feature-settings:normal;font-variant-alternates:normal;font-variant-caps:normal;font-variant-east-asian:normal;font-variant-ligatures:no-contextual;font-variant-numeric:normal;font-variant-position:normal;font-variation-settings:normal;inline-size:0;isolation:auto;mix-blend-mode:normal;shape-margin:0;shape-padding:0;text-decoration-color:#000000;text-decoration-line:none;text-decoration-style:solid;text-indent:0;text-orientation:mixed;text-transform:none;white-space:normal"/>
  </g>
  <g>
   <path d="m99.686 85.378v-7.6608h4.7706v1.8057h-2.4628v1.1165h2.3132v1.8057h-2.3132v1.1272h2.6391v1.8057z" color="#000000" color-rendering="auto" dominant-baseline="auto" image-rendering="auto" solid-color="#000000" stop-color="#000000" style="font-feature-settings:normal;font-variant-alternates:normal;font-variant-caps:normal;font-variant-east-asian:normal;font-variant-ligatures:no-contextual;font-variant-numeric:normal;font-variant-position:normal;font-variation-settings:normal;inline-size:0;isolation:auto;mix-blend-mode:normal;shape-margin:0;shape-padding:0;text-decoration-color:#000000;text-decoration-line:none;text-decoration-style:solid;text-indent:0;text-orientation:mixed;text-transform:none;white-space:normal"/>
   <path d="m99.453 77.484v8.127h0.23242 5.1816v-2.2715h-2.6387v-0.66016h2.3125v-2.2734h-2.3125v-0.65039h2.4629v-2.2715h-5.2383zm0.4668 0.4668h4.3047v1.3379h-2.4629v1.584h2.3125v1.3398h-2.3125v1.5938h2.6387v1.3379h-4.4805v-7.1934z" color="#000000" color-rendering="auto" dominant-baseline="auto" fill="#fff" image-rendering="auto" solid-color="#000000" stop-color="#000000" style="font-feature-settings:normal;font-variant-alternates:normal;font-variant-caps:normal;font-variant-east-asian:normal;font-variant-ligatures:no-contextual;font-variant-numeric:normal;font-variant-position:normal;font-variation-settings:normal;inline-size:0;isolation:auto;mix-blend-mode:normal;shape-margin:0;shape-padding:0;text-decoration-color:#000000;text-decoration-line:none;text-decoration-style:solid;text-indent:0;text-orientation:mixed;text-transform:none;white-space:normal"/>
  </g>
 </g>
 <g transform="scale(.82501 1.2121)" shape-rendering="auto" stroke-width="1.4229" style="font-variant-ligatures:no-contextual" aria-label="100%">
  <g>
   <path d="m59.882 35.771v26.999h-6.7374v-14.475c0-2.0901-0.05003-3.3464-0.15009-3.7689-0.10006-0.42247-0.378-0.73933-0.83383-0.95057-0.44471-0.22236-1.4453-0.33353-3.0018-0.33353h-0.66706v-3.1519c3.2575-0.70042 5.7312-2.1402 7.4211-4.3192z" color="#000000" color-rendering="auto" dominant-baseline="auto" image-rendering="auto" solid-color="#000000" stop-color="#000000" style="font-feature-settings:normal;font-variant-alternates:normal;font-variant-caps:normal;font-variant-east-asian:normal;font-variant-ligatures:no-contextual;font-variant-numeric:normal;font-variant-position:normal;font-variation-settings:normal;inline-size:0;isolation:auto;mix-blend-mode:normal;shape-margin:0;shape-padding:0;text-decoration-color:#000000;text-decoration-line:none;text-decoration-style:solid;text-indent:0;text-orientation:mixed;text-transform:none;white-space:normal"/>
   <path d="m55.564 35.061-0.21484 0.27539c-1.5768 2.0333-3.8738 3.3847-7.0078 4.0586l-0.5625 0.12109v4.4375h1.3789c1.5226 0 2.5359 0.1859 2.6836 0.25977l0.019531 0.007812c0.30967 0.14351 0.39106 0.25812 0.44141 0.4707 0.019709 0.083216 0.06936 0.51057 0.09375 1.123 0.024391 0.61248 0.03711 1.4411 0.03711 2.4805v15.188h8.1602v-28.422h-0.71289-4.3164zm0.59375 1.4219h3.0117v25.576h-5.3145v-13.764c0-1.0507-0.011471-1.8933-0.03711-2.5371-0.025639-0.64383-0.050508-1.0553-0.13086-1.3945-0.1489-0.62867-0.62371-1.1456-1.2207-1.4258-0.73072-0.36218-1.7165-0.39933-3.2637-0.40039v-1.9609c2.9276-0.73582 5.2789-2.0922 6.9551-4.0938z" color="#000000" color-rendering="auto" dominant-baseline="auto" fill="#fff" image-rendering="auto" solid-color="#000000" stop-color="#000000" style="font-feature-settings:normal;font-variant-alternates:normal;font-variant-caps:normal;font-variant-east-asian:normal;font-variant-ligatures:no-contextual;font-variant-numeric:normal;font-variant-position:normal;font-variation-settings:normal;inline-size:0;isolation:auto;mix-blend-mode:normal;shape-margin:0;shape-padding:0;text-decoration-color:#000000;text-decoration-line:none;text-decoration-style:solid;text-indent:0;text-orientation:mixed;text-transform:none;white-space:normal"/>
  </g>
  <g>
   <path d="m78.393 44.91v9.0054c0 2.0457-0.11118 3.5354-0.33353 4.4693-0.22236 0.93389-0.68374 1.8066-1.3842 2.6182-0.70042 0.8116-1.5454 1.3953-2.5348 1.751-0.98948 0.35577-2.0957 0.53365-3.3186 0.53365-1.6121 0-2.9518-0.18344-4.0191-0.55033-1.0673-0.378-1.9178-0.96168-2.5515-1.751-0.63371-0.78936-1.084-1.6176-1.3508-2.4848-0.26683-0.8783-0.40024-2.268-0.40024-4.1692v-9.4223c0-2.4793 0.21124-4.3359 0.63371-5.57 0.43359-1.2341 1.2841-2.2235 2.5515-2.9684 1.2785-0.74489 2.8239-1.1173 4.6361-1.1173 1.4787 0 2.8017 0.26127 3.969 0.7838 1.1674 0.51142 2.0401 1.1396 2.6182 1.8845 0.57812 0.74489 0.96724 1.5843 1.1674 2.5182 0.21124 0.93389 0.31686 2.4237 0.31686 4.4693zm-6.7374-2.268c0-1.4342-0.07227-2.3292-0.2168-2.6849-0.13341-0.36688-0.45583-0.55033-0.96724-0.55033-0.5003 0-0.83383 0.19456-1.0006 0.58368-0.15565 0.378-0.23347 1.2619-0.23347 2.6516v13.175c0 1.5676 0.07227 2.5126 0.2168 2.835 0.15565 0.32241 0.48362 0.48362 0.98392 0.48362 0.5003 0 0.82827-0.189 0.98392-0.567 0.15565-0.378 0.23347-1.2285 0.23347-2.5515z" color="#000000" color-rendering="auto" dominant-baseline="auto" image-rendering="auto" solid-color="#000000" stop-color="#000000" style="font-feature-settings:normal;font-variant-alternates:normal;font-variant-caps:normal;font-variant-east-asian:normal;font-variant-ligatures:no-contextual;font-variant-numeric:normal;font-variant-position:normal;font-variation-settings:normal;inline-size:0;isolation:auto;mix-blend-mode:normal;shape-margin:0;shape-padding:0;text-decoration-color:#000000;text-decoration-line:none;text-decoration-style:solid;text-indent:0;text-orientation:mixed;text-transform:none;white-space:normal"/>
   <path d="m70.32 34.543c-1.9097 0-3.5893 0.39635-4.9941 1.2148h-0.001953c-1.3848 0.8139-2.3707 1.9493-2.8613 3.3457l-0.001953 0.003906v0.001953c-0.46976 1.3722-0.67188 3.2811-0.67188 5.8008v9.4219c1e-6 1.9344 0.12136 3.362 0.42969 4.377h0.001953v0.001954c0.29554 0.96051 0.79179 1.8702 1.4746 2.7207 0.72107 0.89818 1.6967 1.5613 2.8691 1.9766l0.003906 0.001953h0.001953c1.1714 0.40268 2.5859 0.58984 4.252 0.58984 1.2919 0 2.4813-0.18883 3.5586-0.57617 1.1013-0.39596 2.0569-1.057 2.832-1.9551 0.76428-0.88559 1.2885-1.8675 1.5391-2.9199 0.24947-1.0478 0.35156-2.5614 0.35156-4.6328v-9.0059c0-2.0684-0.098515-3.5802-0.33398-4.623-0.22171-1.0315-0.65769-1.9747-1.2988-2.8008-0.67117-0.86478-1.6486-1.5529-2.8906-2.0977-5.6e-4 -2.51e-4 -0.001393 2.5e-4 -0.001953 0-1.2692-0.56779-2.696-0.8457-4.2578-0.8457zm0 1.4238c1.3949 0 2.6146 0.24394 3.6797 0.7207l0.001953 0.001953h0.001953c1.0906 0.47779 1.8575 1.046 2.3418 1.6699 0.5142 0.66253 0.85633 1.3959 1.0352 2.2305v0.003906l0.001953 0.003906c0.18658 0.82486 0.29883 2.2913 0.29883 4.3125v9.0059c0 2.0199-0.11921 3.4847-0.31445 4.3047-0.19412 0.81532-0.59391 1.5808-1.2305 2.3184-0.62574 0.72507-1.3586 1.2294-2.2363 1.5449-0.90166 0.32419-1.9242 0.49219-3.0781 0.49219-1.5565 0-2.8224-0.18127-3.7852-0.51172-0.96072-0.34075-1.6847-0.84358-2.2305-1.5234-0.58421-0.7277-0.98839-1.4728-1.2266-2.2461v-0.001953c-0.22514-0.74193-0.36914-2.094-0.36914-3.9609v-9.4219c0-2.4371 0.22101-4.2398 0.5957-5.3359 2.71e-4 -7.93e-4 -2.71e-4 -0.003115 0-0.003907 0.37682-1.0682 1.0899-1.9096 2.2363-2.584l0.001953-0.001953c1.1518-0.67048 2.5617-1.0176 4.2754-1.0176zm0.15039 2.7285c-0.68475 0-1.3861 0.38973-1.6543 1.0156l-0.003906 0.007812c-0.27253 0.66185-0.28711 1.5075-0.28711 2.9238v13.174c0 0.79473 0.018227 1.4371 0.05664 1.9395 0.038413 0.50233 0.062362 0.82992 0.22266 1.1875l0.003906 0.007813 0.003906 0.009766c0.2854 0.59118 0.97187 0.88672 1.625 0.88672 0.67948 0 1.3847-0.38164 1.6426-1.0078 0.26692-0.64823 0.28711-1.4714 0.28711-2.8223v-13.375c0-0.72904-0.018055-1.3268-0.056641-1.8047-0.037992-0.47052-0.078953-0.80345-0.20898-1.1309-0.11781-0.31712-0.35346-0.6112-0.65234-0.78125-0.30174-0.17168-0.63774-0.23047-0.97852-0.23047zm0 1.4238c0.17064 0 0.25277 0.031207 0.27344 0.042968 0.020672 0.011762 0.008574-0.007182 0.02539 0.039063l0.00586 0.011719 0.003906 0.011718c0.009529 0.023456 0.079602 0.31142 0.11328 0.72852s0.050781 0.98431 0.050781 1.6895v13.375c0 1.2951-0.13531 2.1715-0.17969 2.2793-0.053463 0.12984-0.005059 0.12695-0.32617 0.12695-0.34138 0-0.31229-0.02826-0.33594-0.080078 0.010688 0.018123-0.068538-0.26542-0.10156-0.69727-0.033852-0.44268-0.050781-1.0572-0.050781-1.8301v-13.174c0-1.3587 0.14038-2.2738 0.17969-2.373 0.06232-0.14713 0.0296-0.15039 0.3418-0.15039z" color="#000000" color-rendering="auto" dominant-baseline="auto" fill="#fff" image-rendering="auto" solid-color="#000000" stop-color="#000000" style="font-feature-settings:normal;font-variant-alternates:normal;font-variant-caps:normal;font-variant-east-asian:normal;font-variant-ligatures:no-contextual;font-variant-numeric:normal;font-variant-position:normal;font-variation-settings:normal;inline-size:0;isolation:auto;mix-blend-mode:normal;shape-margin:0;shape-padding:0;text-decoration-color:#000000;text-decoration-line:none;text-decoration-style:solid;text-indent:0;text-orientation:mixed;text-transform:none;white-space:normal"/>
  </g>
  <g>
   <path d="m96.737 44.91v9.0054c0 2.0457-0.11118 3.5354-0.33353 4.4693-0.22236 0.93389-0.68374 1.8066-1.3842 2.6182-0.70042 0.8116-1.5454 1.3953-2.5348 1.751-0.98948 0.35577-2.0957 0.53365-3.3186 0.53365-1.6121 0-2.9518-0.18344-4.0191-0.55033-1.0673-0.378-1.9178-0.96168-2.5515-1.751-0.63371-0.78936-1.084-1.6176-1.3508-2.4848-0.26683-0.8783-0.40024-2.268-0.40024-4.1692v-9.4223c0-2.4793 0.21124-4.3359 0.63371-5.57 0.43359-1.2341 1.2841-2.2235 2.5515-2.9684 1.2785-0.74489 2.8239-1.1173 4.6361-1.1173 1.4787 0 2.8017 0.26127 3.969 0.7838 1.1674 0.51142 2.0401 1.1396 2.6182 1.8845s0.96724 1.5843 1.1674 2.5182c0.21124 0.93389 0.31686 2.4237 0.31686 4.4693zm-6.7374-2.268c0-1.4342-0.07227-2.3292-0.2168-2.6849-0.13341-0.36688-0.45583-0.55033-0.96724-0.55033-0.5003 0-0.83383 0.19456-1.0006 0.58368-0.15565 0.378-0.23347 1.2619-0.23347 2.6516v13.175c0 1.5676 0.07227 2.5126 0.2168 2.835 0.15565 0.32241 0.48362 0.48362 0.98392 0.48362 0.5003 0 0.82827-0.189 0.98392-0.567 0.15565-0.378 0.23347-1.2285 0.23347-2.5515z" color="#000000" color-rendering="auto" dominant-baseline="auto" image-rendering="auto" solid-color="#000000" stop-color="#000000" style="font-feature-settings:normal;font-variant-alternates:normal;font-variant-caps:normal;font-variant-east-asian:normal;font-variant-ligatures:no-contextual;font-variant-numeric:normal;font-variant-position:normal;font-variation-settings:normal;inline-size:0;isolation:auto;mix-blend-mode:normal;shape-margin:0;shape-padding:0;text-decoration-color:#000000;text-decoration-line:none;text-decoration-style:solid;text-indent:0;text-orientation:mixed;text-transform:none;white-space:normal"/>
   <path d="m88.666 34.543c-1.9097 0-3.5893 0.39635-4.9941 1.2148h-0.001953-0.001953c-1.3848 0.8139-2.3707 1.9493-2.8613 3.3457v0.003906l-0.001953 0.001953c-0.46976 1.3722-0.67188 3.2811-0.67188 5.8008v9.4219c0 1.9344 0.12331 3.362 0.43164 4.377v0.001954c0.29554 0.96051 0.79374 1.8702 1.4766 2.7207 0.72107 0.89818 1.6967 1.5613 2.8691 1.9766l0.001953 0.001953h0.003907c1.1714 0.40268 2.584 0.58984 4.25 0.58984 1.2919 0 2.4813-0.18883 3.5586-0.57617 1.1013-0.39596 2.0589-1.057 2.834-1.9551 0.76428-0.88559 1.2865-1.8675 1.5371-2.9199 0.24947-1.0478 0.35352-2.5614 0.35352-4.6328v-9.0059c0-2.0684-0.10047-3.5802-0.33594-4.623-0.22171-1.0315-0.65769-1.9747-1.2988-2.8008-0.67147-0.86516-1.6498-1.5528-2.8926-2.0977-1.2688-0.56729-2.6948-0.8457-4.2559-0.8457zm0 1.4238c1.3949 0 2.6126 0.24394 3.6777 0.7207l0.001953 0.001953h0.003906c1.0906 0.47779 1.8575 1.046 2.3418 1.6699 0.5142 0.66253 0.85438 1.3959 1.0332 2.2305v0.003906l0.001953 0.003906c0.18658 0.82486 0.29883 2.2913 0.29883 4.3125v9.0059c0 2.0199-0.11921 3.4847-0.31445 4.3047-0.19412 0.81532-0.59391 1.5808-1.2305 2.3184-0.62574 0.72507-1.3586 1.2294-2.2363 1.5449-0.90166 0.32419-1.9242 0.49219-3.0781 0.49219-1.5565 0-2.8204-0.18127-3.7832-0.51172-0.96073-0.34075-1.6866-0.84358-2.2324-1.5234-0.584-0.72744-0.9864-1.4731-1.2246-2.2461-0.22532-0.74169-0.36914-2.095-0.36914-3.9629v-9.4219c0-2.4371 0.21906-4.2398 0.59375-5.3359 2.71e-4 -7.93e-4 -2.71e-4 -0.003115 0-0.003907 0.37666-1.0677 1.0908-1.9097 2.2363-2.584l0.003906-0.001953c1.1515-0.66991 2.5625-1.0176 4.2754-1.0176zm0.15039 2.7285c-0.68475 0-1.388 0.38973-1.6562 1.0156l-0.003906 0.007812c-0.27253 0.66185-0.28711 1.5075-0.28711 2.9238v13.174c0 0.79473 0.018227 1.4371 0.05664 1.9395 0.038413 0.50233 0.062362 0.82992 0.22266 1.1875l0.003906 0.007813 0.005859 0.009766c0.2854 0.59118 0.97187 0.88672 1.625 0.88672 0.67948 0 1.3828-0.38164 1.6406-1.0078 0.26692-0.64823 0.28711-1.4714 0.28711-2.8223v-13.375c0-0.72904-0.018055-1.3268-0.056641-1.8047-0.037992-0.47052-0.078952-0.80345-0.20898-1.1309-0.11781-0.31712-0.35346-0.6112-0.65234-0.78125-0.30174-0.17168-0.63579-0.23047-0.97656-0.23047zm0 1.4238c0.17064 0 0.25277 0.031207 0.27344 0.042968 0.020671 0.011762 0.006621-0.007182 0.023437 0.039063l0.00586 0.011719 0.003906 0.011718c0.009529 0.023456 0.079602 0.31142 0.11328 0.72852s0.052734 0.98431 0.052734 1.6895v13.375c0 1.2951-0.13726 2.1715-0.18164 2.2793-0.053463 0.12984-0.003105 0.12695-0.32422 0.12695-0.34141 0-0.31423-0.028249-0.33789-0.080078 0.010685 0.018115-0.066586-0.26542-0.099609-0.69727-0.033852-0.44268-0.052734-1.0572-0.052734-1.8301v-13.174c0-1.3587 0.14038-2.2738 0.17969-2.373 0.062334-0.14716 0.031536-0.15039 0.34375-0.15039z" color="#000000" color-rendering="auto" dominant-baseline="auto" fill="#fff" image-rendering="auto" solid-color="#000000" stop-color="#000000" style="font-feature-settings:normal;font-variant-alternates:normal;font-variant-caps:normal;font-variant-east-asian:normal;font-variant-ligatures:no-contextual;font-variant-numeric:normal;font-variant-position:normal;font-variation-settings:normal;inline-size:0;isolation:auto;mix-blend-mode:normal;shape-margin:0;shape-padding:0;text-decoration-color:#000000;text-decoration-line:none;text-decoration-style:solid;text-indent:0;text-orientation:mixed;text-transform:none;white-space:normal"/>
  </g>
  <g>
   <path d="m116.38 35.254-10.556 28.033h-2.5682l10.59-28.033zm-7.8547 5.1197v4.6361c0 1.2118-0.11674 2.1235-0.35021 2.735-0.22235 0.60036-0.71153 1.1285-1.4675 1.5843-0.74489 0.44471-1.7344 0.66706-2.9684 0.66706-1.4231 0-2.507-0.21124-3.2519-0.63371-0.74489-0.43359-1.2507-0.95057-1.5176-1.5509-0.25571-0.60036-0.38356-1.462-0.38356-2.5849v-4.8529c0-1.3341 0.13341-2.318 0.40024-2.9518 0.27794-0.64483 0.80604-1.1674 1.5843-1.5676 0.77824-0.40024 1.7399-0.60036 2.885-0.60036 1.2674 0 2.2958 0.22236 3.0852 0.66706 0.78936 0.43359 1.3174 0.96168 1.5843 1.5843 0.26683 0.62259 0.40024 1.5787 0.40024 2.8684zm-4.2692-1.184c0-0.71154-0.0389-1.1507-0.11674-1.3175-0.0667-0.16677-0.26127-0.25015-0.58368-0.25015-0.30018 0-0.49474 0.08894-0.58368 0.26682-0.0889 0.17788-0.13341 0.61148-0.13341 1.3008v6.8041c0 0.77824 0.0389 1.2452 0.11673 1.4008 0.0778 0.15565 0.28351 0.23347 0.61704 0.23347 0.28906 0 0.4725-0.08894 0.55033-0.26683 0.0889-0.17788 0.13341-0.5948 0.13341-1.2507zm16.793 14.225v4.6528c0 1.2007-0.11674 2.1068-0.35021 2.7183-0.22235 0.61148-0.71153 1.1451-1.4675 1.601-0.74489 0.44471-1.7344 0.66706-2.9684 0.66706-1.412 0-2.4959-0.2168-3.2519-0.65039-0.74489-0.43359-1.2507-0.95057-1.5176-1.5509-0.25571-0.60036-0.38356-1.4564-0.38356-2.5682v-4.8696c0-1.323 0.13341-2.3014 0.40023-2.9351 0.27795-0.64483 0.80604-1.1674 1.5843-1.5676 0.77825-0.41136 1.7399-0.61704 2.8851-0.61704 1.2785 0 2.3125 0.22236 3.1018 0.66706 0.78936 0.44471 1.3119 0.97836 1.5676 1.601 0.26683 0.62259 0.40024 1.5732 0.40024 2.8517zm-4.2692-1.1674c0-0.71154-0.0389-1.1507-0.11673-1.3175-0.0667-0.17788-0.26127-0.26683-0.58368-0.26683-0.30018 0-0.49474 0.08894-0.58368 0.26683-0.0778 0.17788-0.11674 0.61704-0.11674 1.3175v6.8041c0 0.76712 0.0389 1.2285 0.11674 1.3842 0.0778 0.15565 0.27794 0.23347 0.60035 0.23347 0.30018 0 0.48918-0.08338 0.56701-0.25015 0.0778-0.17788 0.11673-0.60036 0.11673-1.2674z" color="#000000" color-rendering="auto" dominant-baseline="auto" image-rendering="auto" solid-color="#000000" stop-color="#000000" style="font-feature-settings:normal;font-variant-alternates:normal;font-variant-caps:normal;font-variant-east-asian:normal;font-variant-ligatures:no-contextual;font-variant-numeric:normal;font-variant-position:normal;font-variation-settings:normal;inline-size:0;isolation:auto;mix-blend-mode:normal;shape-margin:0;shape-padding:0;text-decoration-color:#000000;text-decoration-line:none;text-decoration-style:solid;text-indent:0;text-orientation:mixed;text-transform:none;white-space:normal"/>
   <path d="m103.46 34.543c-1.228 0-2.3045 0.21454-3.209 0.67969-0.88581 0.45556-1.5598 1.1006-1.9121 1.918l-0.001954 0.001953-0.001953 0.003906c-0.33612 0.79828-0.45508 1.847-0.45508 3.2285v4.8516c0 1.1769 0.12108 2.1158 0.43945 2.8633l0.001953 0.005859 0.003907 0.005859c0.3408 0.7668 0.97224 1.3901 1.8086 1.877l0.00391 0.001953 0.0039 0.001953c0.91401 0.51839 2.1081 0.72461 3.6016 0.72461 1.3195 0 2.4406-0.23422 3.334-0.76758h0.00195c0.38071-0.22955 0.51171-0.59065 0.79297-0.875l-5.6406 14.936h4.0898l4.1406-10.996c-0.00416 0.16523-0.05859 0.23628-0.05859 0.41211v4.8691c0 1.1663 0.12366 2.0997 0.44141 2.8457l0.00195 0.00586 0.00195 0.005859c0.34081 0.7668 0.9742 1.3901 1.8106 1.877h0.00195l0.00196 0.001953c0.92182 0.52869 2.1207 0.74414 3.6055 0.74414 1.3195 0 2.4387-0.23422 3.332-0.76758h0.00195l0.00195-0.001953c0.84871-0.51172 1.4736-1.1631 1.7656-1.9629 0.28709-0.75556 0.39648-1.7213 0.39648-2.9648v-4.6523c0-1.3255-0.12221-2.3429-0.45703-3.127-0.33134-0.80379-0.98997-1.4498-1.873-1.9473-0.93248-0.52534-2.0901-0.75781-3.4512-0.75781-1.228 0-2.3082 0.22039-3.2129 0.69727-0.3962 0.20404-0.55395 0.58083-0.85547 0.85938l5.4961-14.598h-1.0274-3.0273l-4.2051 11.135c0.01158-0.25344 0.08789-0.38692 0.08789-0.66797v-4.6348c0-1.3387-0.12014-2.3643-0.45703-3.1504-0.34334-0.80111-1.0108-1.4393-1.8965-1.9258-0.93011-0.52211-2.0802-0.75586-3.4277-0.75586zm0 1.4238c1.1842 0 2.0888 0.20944 2.7363 0.57422l0.00391 0.001953 0.0039 0.001953c0.69306 0.3807 1.0812 0.79616 1.2715 1.2402 0.19676 0.45911 0.34375 1.3493 0.34375 2.5898v4.6348c0 1.1661-0.12709 2.0173-0.30469 2.4824v0.001953l-0.00195 0.003906c-0.15127 0.40841-0.50398 0.82088-1.166 1.2207-0.00108 6.54e-4 -8.7e-4 0.001299-0.00195 0.001953-0.59629 0.35504-1.4548 0.56445-2.6016 0.56445-1.3509 0-2.3204-0.21517-2.8965-0.54102-0.64648-0.37751-1.0237-0.78461-1.2168-1.2148-0.19252-0.45357-0.32812-1.2356-0.32812-2.3027v-4.8516c0-1.2858 0.14838-2.2044 0.3457-2.6738 0.20382-0.47132 0.58428-0.86851 1.2539-1.2129 0.65202-0.33533 1.4964-0.52148 2.5586-0.52148zm10.883 0h1.0137l-10.02 26.609h-1.0469l10.053-26.609zm-10.781 0.94336c-0.44071 0-0.98858 0.19591-1.2207 0.66016-0.12666 0.25333-0.14574 0.45022-0.17187 0.70508-0.02614 0.25486-0.03711 0.55411-0.03711 0.91406v6.8047c0 0.40098 0.00908 0.72612 0.03125 0.99219s0.01519 0.43662 0.16015 0.72656c0.12983 0.25964 0.37577 0.43948 0.59766 0.52344s0.43415 0.10352 0.65625 0.10352c0.2175 0 0.44034-0.0302 0.66406-0.13867 0.21813-0.10576 0.41913-0.31122 0.52539-0.54102 0.23547-0.48226 0.20508-0.86926 0.20508-1.5488v-6.9219c0-0.36874-0.00881-0.67255-0.03125-0.92578-0.02161-0.2439-0.03591-0.42188-0.14453-0.66602-0.10939-0.26053-0.3422-0.47032-0.56641-0.56641-0.22807-0.097744-0.44543-0.12109-0.66797-0.12109zm12.424 12.098c1.196 0 2.1057 0.21014 2.752 0.57422 0.69427 0.39114 1.0772 0.81228 1.2578 1.252l0.0039 0.003907 0.00196 0.005859c0.19736 0.46052 0.34179 1.3432 0.34179 2.5723v4.6523c0 1.1546-0.12461 1.9983-0.30273 2.4648l-0.00195 0.003906-0.00196 0.00586c-0.153 0.42077-0.5042 0.83391-1.1641 1.2324-0.59641 0.35606-1.4549 0.56836-2.6035 0.56836-1.3382 0-2.3062-0.21853-2.8965-0.55664h-0.00195c-0.64847-0.37837-1.0238-0.78741-1.2168-1.2188-0.19287-0.45516-0.32617-1.2286-0.32617-2.2832v-4.8691c0-1.2733 0.14608-2.1851 0.34375-2.6562 0.20382-0.47133 0.58428-0.87047 1.2539-1.2148l0.0039-0.001953 0.00391-0.001953c0.65078-0.34399 1.4928-0.5332 2.5527-0.5332zm0.09961 0.94336c-0.44072 0-0.98858 0.19591-1.2207 0.66016l-0.00781 0.017578-0.00782 0.015625c-0.10763 0.24602-0.12214 0.43285-0.14453 0.68555s-0.03125 0.55458-0.03125 0.91797v6.8047c0 0.39559 0.00902 0.71687 0.03125 0.98047 0.02223 0.2636 0.0167 0.43379 0.16016 0.7207 0.12678 0.25359 0.36754 0.43384 0.58789 0.51953 0.22035 0.085694 0.42998 0.10742 0.64844 0.10742 0.21596 0 0.43253-0.025209 0.65429-0.12305 0.22177-0.097837 0.44556-0.2949 0.5586-0.53711l0.0039-0.007812 0.00391-0.007813c0.20871-0.47707 0.17578-0.858 0.17578-1.5527v-6.9043c0-0.36874-0.01077-0.67256-0.0332-0.92578-0.02124-0.23969-0.03921-0.4186-0.14258-0.65625-0.10329-0.25727-0.32577-0.47828-0.55274-0.58203-0.23243-0.10625-0.45696-0.13281-0.68359-0.13281z" color="#000000" color-rendering="auto" dominant-baseline="auto" fill="#fff" image-rendering="auto" solid-color="#000000" stop-color="#000000" style="font-feature-settings:normal;font-variant-alternates:normal;font-variant-caps:normal;font-variant-east-asian:normal;font-variant-ligatures:no-contextual;font-variant-numeric:normal;font-variant-position:normal;font-variation-settings:normal;inline-size:0;isolation:auto;mix-blend-mode:normal;shape-margin:0;shape-padding:0;text-decoration-color:#000000;text-decoration-line:none;text-decoration-style:solid;text-indent:0;text-orientation:mixed;text-transform:none;white-space:normal"/>
  </g>
 </g>
</svg>
