<?xml version="1.0" encoding="utf-8"?>
<!-- Generator: Adobe Illustrator 21.0.0, SVG Export Plug-In . SVG Version: 6.00 Build 0)  -->
<svg version="1.1" id="Layer_1" xmlns="http://www.w3.org/2000/svg" xmlns:xlink="http://www.w3.org/1999/xlink" x="0px" y="0px"
	 viewBox="0 0 256 256" style="enable-background:new 0 0 256 256;" xml:space="preserve">
<style type="text/css">
	.st0{fill:#F8AF23;}
	.st1{fill:#F87023;}
	.st2{fill:#8C8C8C;}
	.st3{fill:#63BCE7;}
	.st4{fill:#63E2E7;}
	.st5{fill:#6377E7;}
	.st6{fill:#000B75;}
	.st7{fill:#4C4C4C;}
	.st8{fill:#321F7A;}
	.st9{fill:#F8D323;}
	.st10{fill:#F46275;}
	.st11{fill:#9E9E9E;}
	.st12{fill:#F43075;}
	.st13{fill:#707070;}
	.st14{fill:#CECECE;}
	.st15{fill:#67BEEB;}
</style>
<g>
	<g>
		<path class="st0" d="M171.314,224.335H87.747c-9.104,0-16.484-7.38-16.484-16.484V37.176c0-9.104,7.38-16.484,16.484-16.484
			h83.567c9.104,0,16.484,7.38,16.484,16.484v170.675C187.799,216.955,180.419,224.335,171.314,224.335z"/>
		<path class="st1" d="M81.023,207.851V37.176c0-9.104,7.38-16.484,16.484-16.484h-9.76c-9.104,0-16.484,7.38-16.484,16.484v170.675
			c0,9.104,7.38,16.484,16.484,16.484h9.76C88.403,224.335,81.023,216.955,81.023,207.851z"/>
		<path class="st9" d="M178.039,207.851V37.176c0-9.104-7.38-16.484-16.484-16.484h9.76c9.104,0,16.484,7.38,16.484,16.484v170.675
			c0,9.104-7.38,16.484-16.484,16.484h-9.76C170.659,224.335,178.039,216.955,178.039,207.851z"/>
		<path class="st3" d="M71.263,207.855c0,9.102,7.378,16.48,16.48,16.48h83.576c9.102,0,16.48-7.378,16.48-16.48v-9.738H71.263
			V207.855z"/>
		<path class="st5" d="M81.023,207.855v-9.738h-9.76v9.738c0,9.102,7.378,16.48,16.48,16.48h9.76
			C88.401,224.335,81.023,216.957,81.023,207.855z"/>
		<path class="st4" d="M178.039,207.855v-9.738h9.76v9.738c0,9.102-7.378,16.48-16.48,16.48h-9.76
			C170.661,224.335,178.039,216.957,178.039,207.855z"/>
		<path class="st3" d="M187.799,37.172c0-9.102-7.378-16.48-16.48-16.48H87.743c-9.102,0-16.48,7.378-16.48,16.48v9.738h116.536
			V37.172z"/>
		<path class="st5" d="M97.503,20.692h-9.76c-9.102,0-16.48,7.378-16.48,16.48v9.738h9.76v-9.738
			C81.023,28.07,88.401,20.692,97.503,20.692z"/>
		<path class="st4" d="M161.559,20.692h9.76c9.102,0,16.48,7.378,16.48,16.48v9.738h-9.76v-9.738
			C178.039,28.07,170.661,20.692,161.559,20.692z"/>
		<rect x="108.679" y="30.858" class="st10" width="41.2" height="5.886"/>
		<circle class="st10" cx="128.984" cy="211.681" r="5.003"/>
	</g>
	<g>
		<path class="st3" d="M126.822,54.707c-5.176,3.361-17.282,10.404-32.066,13.527c-2.329,0.492-4.018,2.509-4.018,4.89l0,39.929
			c0,4.198,0.628,8.372,1.862,12.384v0c2.684,8.722,8.129,16.337,15.515,21.697l19.655,14.264c1.051,0.763,2.473,0.763,3.524,0
			l19.655-14.264c7.386-5.36,12.831-12.975,15.515-21.697v0c1.235-4.012,1.862-8.186,1.862-12.384V73.124
			c0-2.38-1.689-4.398-4.018-4.89c-14.784-3.123-26.89-10.166-32.066-13.527C130.589,53.635,128.473,53.635,126.822,54.707z"/>
		<g>
			<g>
				<g>
					<path class="st10" d="M114.594,118.5c-1.024,0-2.047-0.391-2.829-1.171l-9.28-9.28c-1.562-1.562-1.562-4.095,0-5.657l9.28-9.28
						c1.562-1.562,4.095-1.562,5.657,0c1.562,1.562,1.562,4.095,0,5.657l-6.452,6.451l6.452,6.451c1.562,1.562,1.562,4.095,0,5.657
						C116.641,118.11,115.617,118.5,114.594,118.5z"/>
				</g>
				<g>
					<path class="st10" d="M144.469,118.5c-1.024,0-2.047-0.391-2.829-1.171c-1.562-1.562-1.562-4.095,0-5.657l6.452-6.451
						l-6.452-6.451c-1.562-1.562-1.562-4.095,0-5.657c1.562-1.562,4.095-1.562,5.657,0l9.28,9.28c1.562,1.562,1.562,4.095,0,5.657
						l-9.28,9.28C146.516,118.11,145.492,118.5,144.469,118.5z"/>
				</g>
			</g>
			<g>
				<path class="st10" d="M126.407,118.501c-0.423,0-0.854-0.067-1.277-0.21c-2.094-0.705-3.22-2.974-2.515-5.067l6.25-18.56
					c0.706-2.093,2.974-3.219,5.067-2.515c2.094,0.705,3.22,2.974,2.515,5.067l-6.25,18.56
					C129.635,117.447,128.076,118.501,126.407,118.501z"/>
			</g>
		</g>
	</g>
	<g>
		<g>
			<path class="st0" d="M163.83,212.117l-14.82-31.224c-1.61-3.391-0.165-7.446,3.226-9.055c3.391-1.61,7.446-0.165,9.055,3.226
				l3.151,6.639v-7.241v-34.563c0-3.754,3.043-6.797,6.797-6.797c3.754,0,6.797,3.043,6.797,6.797v27.442
				c0-3.754,3.043-6.797,6.797-6.797c3.754,0,6.797,3.043,6.797,6.797v2.458c0-3.754,3.043-6.797,6.797-6.797
				c3.754,0,6.797,3.043,6.797,6.797v2.688c0-3.754,3.043-6.797,6.797-6.797c3.754,0,6.797,3.043,6.797,6.797v1.975v32.588v17.286
				h-54.379V213.4L163.83,212.117z"/>
		</g>
		<g>
			<path class="st9" d="M212.024,165.69c-1.916,0-3.644,0.796-4.88,2.071c1.185,1.224,1.918,2.888,1.918,4.726v1.975v32.587v17.286
				h9.76v-17.286v-32.587v-1.975C218.821,168.732,215.778,165.69,212.024,165.69z"/>
		</g>
	</g>
	<g>
		<path class="st0" d="M71.26,109.83v29.755l5.857-6.871c2.428-2.849,6.746-3.193,9.596-0.765l0,0
			c2.849,2.428,3.193,6.746,0.765,9.596l-13.323,15.631c0,0,3.977,16.782-6.505,26.37H38.015l2.627-36.05
			c0.315-3.329,2.368-6.146,4.456-8.475L71.26,109.83z"/>
		
			<rect x="31.969" y="183.546" transform="matrix(-1 -4.527768e-11 4.527768e-11 -1 109.6561 388.4801)" class="st11" width="45.718" height="21.389"/>
		<rect x="31.969" y="183.546" class="st13" width="9.428" height="21.389"/>
		
			<rect x="31.969" y="204.934" transform="matrix(-1 -4.527768e-11 4.527768e-11 -1 109.6561 429.2696)" class="st3" width="45.718" height="19.401"/>
		<rect x="31.969" y="204.934" class="st5" width="9.428" height="19.401"/>
		<circle class="st3" cx="67.118" cy="194.24" r="3.919"/>
		<path class="st1" d="M54.526,139.021L71.26,120.35v-10.52l-26.162,29.19c-2.088,2.329-4.141,5.146-4.456,8.475l-2.627,36.05h9.428
			l2.627-36.05C50.386,144.166,52.439,141.35,54.526,139.021z"/>
	</g>
	<g>
		<g>
			<circle class="st3" cx="41.338" cy="74.696" r="6.307"/>
			<circle class="st3" cx="53.951" cy="94.598" r="6.307"/>
			<circle class="st3" cx="41.338" cy="114.5" r="6.307"/>
		</g>
		<g>
			<circle class="st3" cx="217.724" cy="74.696" r="6.307"/>
			<circle class="st3" cx="205.111" cy="94.598" r="6.307"/>
			<g>
				<circle class="st3" cx="217.724" cy="114.5" r="6.307"/>
				<g>
					<path class="st8" d="M27.323,233.808H9.32c-0.829,0-1.5,0.671-1.5,1.5s0.671,1.5,1.5,1.5h18.003c0.829,0,1.5-0.671,1.5-1.5
						S28.152,233.808,27.323,233.808z"/>
					<path class="st8" d="M246.68,233.808h-18.003c-0.829,0-1.5,0.671-1.5,1.5s0.671,1.5,1.5,1.5h18.003c0.829,0,1.5-0.671,1.5-1.5
						S247.509,233.808,246.68,233.808z"/>
					<path class="st8" d="M218.479,233.808H37.521c-0.829,0-1.5,0.671-1.5,1.5s0.671,1.5,1.5,1.5h180.959c0.829,0,1.5-0.671,1.5-1.5
						S219.308,233.808,218.479,233.808z"/>
					<path class="st8" d="M87.743,225.835h0.004h76.695h6.872h0.004h47.502h27.859c0.829,0,1.5-0.671,1.5-1.5s-0.671-1.5-1.5-1.5
						h-26.359v-50.348c0-4.575-3.722-8.297-8.297-8.297c-2.311,0-4.404,0.95-5.91,2.479c-1.238-3.028-4.216-5.167-7.685-5.167
						c-2.346,0-4.467,0.979-5.978,2.549c-0.66-1.522-1.769-2.801-3.152-3.689V116h20.767c0.702,3.589,3.867,6.307,7.659,6.307
						c4.305,0,7.807-3.502,7.807-7.807s-3.502-7.807-7.807-7.807c-3.791,0-6.957,2.718-7.659,6.307h-20.767V96.099h8.154
						c0.702,3.589,3.867,6.306,7.659,6.306c4.305,0,7.807-3.502,7.807-7.806c0-4.305-3.502-7.807-7.807-7.807
						c-3.791,0-6.957,2.718-7.659,6.307h-8.154V76.196h20.767c0.702,3.589,3.867,6.307,7.659,6.307c4.305,0,7.807-3.502,7.807-7.807
						c0-4.304-3.502-7.806-7.807-7.806c-3.791,0-6.957,2.718-7.659,6.306h-20.767V46.91v-9.734v-0.004
						c0-9.914-8.066-17.98-17.98-17.98h-0.004H87.743c-9.914,0-17.98,8.066-17.98,17.98v9.738v26.286H48.996
						c-0.702-3.589-3.867-6.306-7.659-6.306c-4.304,0-7.806,3.502-7.806,7.806c0,4.305,3.502,7.807,7.806,7.807
						c3.791,0,6.957-2.718,7.659-6.307h20.767v16.902h-8.154c-0.702-3.589-3.867-6.307-7.659-6.307
						c-4.305,0-7.807,3.502-7.807,7.807c0,4.304,3.502,7.806,7.807,7.806c3.791,0,6.957-2.718,7.659-6.306h8.154v13.154L66.404,113
						H48.996c-0.702-3.589-3.867-6.307-7.659-6.307c-4.304,0-7.806,3.502-7.806,7.807s3.502,7.807,7.806,7.807
						c3.791,0,6.957-2.718,7.659-6.307h14.72L43.981,138.02c-2.055,2.293-4.462,5.427-4.835,9.367l-2.526,34.659h-4.652
						c-0.829,0-1.5,0.671-1.5,1.5v21.389v17.9H9.32c-0.829,0-1.5,0.671-1.5,1.5s0.671,1.5,1.5,1.5h22.649h45.718H87.743z
						 M217.725,109.694c2.65,0,4.807,2.156,4.807,4.807s-2.156,4.807-4.807,4.807s-4.807-2.156-4.807-4.807
						S215.074,109.694,217.725,109.694z M205.111,89.792c2.65,0,4.807,2.156,4.807,4.807c0,2.65-2.156,4.806-4.807,4.806
						s-4.807-2.156-4.807-4.806C200.305,91.948,202.461,89.792,205.111,89.792z M217.725,69.89c2.65,0,4.807,2.156,4.807,4.806
						c0,2.65-2.156,4.807-4.807,4.807s-4.807-2.156-4.807-4.807C212.918,72.046,215.074,69.89,217.725,69.89z M41.337,79.503
						c-2.65,0-4.806-2.156-4.806-4.807c0-2.65,2.156-4.806,4.806-4.806c2.65,0,4.807,2.156,4.807,4.806
						C46.144,77.347,43.988,79.503,41.337,79.503z M53.951,99.405c-2.65,0-4.807-2.156-4.807-4.806c0-2.65,2.156-4.807,4.807-4.807
						s4.807,2.156,4.807,4.807C58.757,97.249,56.601,99.405,53.951,99.405z M41.337,119.307c-2.65,0-4.806-2.156-4.806-4.807
						s2.156-4.807,4.806-4.807c2.65,0,4.807,2.156,4.807,4.807S43.988,119.307,41.337,119.307z M87.743,222.835
						c-3.098,0-6.039-0.938-8.556-2.696v-15.204v-5.318h77.049l6.239,13.143c0,0.001,0.001,0.002,0.001,0.003l0.466,0.977v9.096
						H87.748H87.743z M191.631,171.298c0.829,0,1.5-0.671,1.5-1.5c0-2.921,2.376-5.297,5.297-5.297s5.297,2.376,5.297,5.297v2.688
						c0,0.829,0.671,1.5,1.5,1.5s1.5-0.671,1.5-1.5c0-2.921,2.376-5.297,5.297-5.297s5.297,2.376,5.297,5.297v50.348h-46.002h-0.004
						h-5.372v-9.436c0-0.224-0.05-0.444-0.146-0.646l-15.432-32.503c-1.252-2.639-0.125-5.805,2.514-7.057
						c2.638-1.253,5.804-0.125,7.058,2.514l3.151,6.64c0.301,0.634,1,0.978,1.685,0.82c0.685-0.154,1.17-0.762,1.17-1.463v-41.804
						c0-2.921,2.376-5.297,5.297-5.297s5.297,2.376,5.297,5.297v27.442c0,0.829,0.671,1.5,1.5,1.5s1.5-0.671,1.5-1.5
						c0-2.921,2.376-5.297,5.297-5.297s5.297,2.376,5.297,5.297v2.458C190.131,170.627,190.803,171.298,191.631,171.298z
						 M186.299,159.186c-0.477-0.086-0.963-0.143-1.464-0.143c-2.012,0-3.859,0.72-5.297,1.916v-21.06
						c0-4.575-3.722-8.297-8.297-8.297s-8.297,3.722-8.297,8.297v35.146l-0.296-0.624c-1.962-4.133-6.921-5.901-11.054-3.938
						c-4.133,1.961-5.899,6.92-3.938,11.053l7.158,15.081H79.187v-13.071c0-0.829-0.671-1.5-1.5-1.5h-6.609
						c7.048-8.968,5.304-21.263,4.695-24.456l12.847-15.071c2.971-3.486,2.552-8.739-0.933-11.71
						c-3.486-2.971-8.739-2.553-11.71,0.934l-3.212,3.769V116h16.578c0.227,3.349,0.834,6.66,1.824,9.877
						c2.762,8.975,8.468,16.955,16.067,22.47l19.655,14.264c0.791,0.574,1.717,0.861,2.644,0.861c0.926,0,1.853-0.287,2.643-0.861
						l19.655-14.264c7.6-5.516,13.306-13.496,16.067-22.47c0.99-3.217,1.597-6.528,1.824-9.877h16.578V159.186z M166.825,113.053
						c0,4.052-0.604,8.07-1.795,11.943c-2.572,8.357-7.885,15.788-14.962,20.924l-19.656,14.264c-0.526,0.382-1.234,0.382-1.762,0
						l-19.655-14.264c-7.077-5.136-12.39-12.567-14.962-20.924c-1.191-3.873-1.795-7.891-1.795-11.943V73.124
						c0-1.663,1.163-3.07,2.828-3.422c14.726-3.111,26.729-9.942,32.573-13.737c1.149-0.746,2.635-0.746,3.785,0
						c5.844,3.795,17.847,10.626,32.573,13.737c1.665,0.352,2.828,1.759,2.828,3.422V113.053z M186.299,113h-16.474V96.099h16.474
						V113z M186.299,93.099h-16.474V76.196h16.474V93.099z M72.763,37.172c0-8.26,6.72-14.98,14.98-14.98h83.571
						c8.262,0,14.984,6.722,14.984,14.984v8.234H72.763V37.172z M72.763,48.41h113.536v24.786h-16.474v-0.072
						c0-3.046-2.19-5.72-5.208-6.357c-14.783-3.123-26.995-10.354-31.56-13.318c-2.142-1.391-4.911-1.39-7.052,0v0
						c-4.564,2.964-16.776,10.195-31.56,13.317c-3.018,0.637-5.208,3.311-5.208,6.357v0.072H72.763V48.41z M72.763,76.196h16.474
						v16.902H72.763V76.196z M89.237,96.099V113H72.763V96.099H89.237z M42.135,147.637c0.288-3.036,2.332-5.665,4.08-7.616
						L67.744,116h2.016v23.032l-10.762,12.626c-0.538,0.63-0.462,1.577,0.168,2.115c0.283,0.241,0.628,0.358,0.973,0.358
						c0.424,0,0.845-0.179,1.142-0.527l11.121-13.047l5.857-6.871c1.897-2.227,5.254-2.495,7.481-0.597
						c2.227,1.898,2.494,5.254,0.596,7.481l-13.323,15.631c-0.31,0.364-0.428,0.854-0.318,1.319
						c0.037,0.157,3.556,15.568-5.642,24.524H39.628L42.135,147.637z M33.469,185.045h4.546h29.633h8.539v18.389H33.469V185.045z
						 M33.469,222.835v-16.4h42.718v16.4H33.469z"/>
					<path class="st8" d="M149.878,29.358h-41.199c-0.829,0-1.5,0.671-1.5,1.5v5.886c0,0.829,0.671,1.5,1.5,1.5h41.199
						c0.829,0,1.5-0.671,1.5-1.5v-5.886C151.378,30.03,150.707,29.358,149.878,29.358z M148.378,35.244h-38.199v-2.886h38.199
						V35.244z"/>
					<path class="st8" d="M128.984,205.178c-3.586,0-6.503,2.917-6.503,6.503c0,3.585,2.917,6.502,6.503,6.502
						s6.503-2.917,6.503-6.502C135.487,208.095,132.57,205.178,128.984,205.178z M128.984,215.184c-1.932,0-3.503-1.571-3.503-3.502
						c0-1.932,1.571-3.503,3.503-3.503s3.503,1.571,3.503,3.503C132.487,213.612,130.916,215.184,128.984,215.184z"/>
					<path class="st8" d="M118.483,92.051c-2.144-2.143-5.633-2.143-7.778,0l-9.28,9.28c-2.144,2.145-2.144,5.634,0,7.778l9.28,9.28
						c1.04,1.039,2.42,1.61,3.889,1.61c1.469,0,2.85-0.572,3.89-1.611c2.144-2.145,2.144-5.634,0-7.778l-5.391-5.391l5.391-5.391
						C120.627,97.686,120.627,94.196,118.483,92.051z M116.362,97.709l-6.452,6.451c-0.281,0.281-0.439,0.663-0.439,1.061
						s0.158,0.779,0.439,1.061l6.451,6.451c0.975,0.975,0.975,2.561,0,3.536c-0.944,0.944-2.592,0.944-3.536,0l-9.279-9.28
						c-0.975-0.975-0.975-2.561,0-3.536l9.28-9.279c0.487-0.487,1.128-0.731,1.768-0.731s1.281,0.244,1.768,0.73
						C117.336,95.148,117.336,96.734,116.362,97.709z"/>
					<path class="st8" d="M148.358,92.051c-2.144-2.143-5.633-2.143-7.779,0c-2.144,2.145-2.144,5.634,0,7.778l5.391,5.391
						l-5.391,5.391c-2.144,2.145-2.144,5.634,0,7.779c1.04,1.039,2.42,1.61,3.889,1.61c1.469,0,2.85-0.572,3.889-1.611l9.28-9.28
						c2.144-2.145,2.144-5.634,0-7.778L148.358,92.051z M155.517,106.989l-9.28,9.279c-0.944,0.944-2.592,0.944-3.536,0
						c-0.975-0.975-0.975-2.561,0-3.536l6.452-6.451c0.281-0.281,0.439-0.663,0.439-1.061s-0.158-0.779-0.439-1.061l-6.451-6.451
						c-0.975-0.975-0.975-2.561,0-3.536c0.487-0.487,1.128-0.731,1.768-0.731c0.641,0,1.281,0.244,1.768,0.73l9.279,9.28
						C156.491,104.428,156.491,106.014,155.517,106.989z"/>
					<path class="st8" d="M134.411,90.729c-2.873-0.969-5.999,0.583-6.967,3.458l-6.25,18.559c-0.469,1.393-0.368,2.884,0.286,4.2
						c0.653,1.316,1.779,2.299,3.171,2.768c0.568,0.191,1.159,0.289,1.756,0.289c2.363,0,4.458-1.505,5.212-3.746l6.25-18.559
						c0.469-1.393,0.368-2.884-0.286-4.2C136.93,92.18,135.804,91.197,134.411,90.729z M135.026,96.739l-6.25,18.56
						c-0.43,1.275-1.88,2.002-3.167,1.572c-0.633-0.213-1.145-0.66-1.442-1.258c-0.297-0.599-0.343-1.276-0.13-1.909l6.25-18.559
						c0.352-1.043,1.328-1.703,2.372-1.703c0.264,0,0.532,0.042,0.795,0.13c0.633,0.213,1.145,0.66,1.442,1.258
						C135.193,95.428,135.239,96.106,135.026,96.739z"/>
					<path class="st8" d="M67.118,188.821c-2.988,0-5.418,2.431-5.418,5.419s2.431,5.418,5.418,5.418s5.419-2.431,5.419-5.418
						S70.105,188.821,67.118,188.821z M67.118,196.659c-1.333,0-2.418-1.085-2.418-2.418c0-1.334,1.085-2.419,2.418-2.419
						c1.334,0,2.419,1.085,2.419,2.419C69.537,195.574,68.452,196.659,67.118,196.659z"/>
				</g>
			</g>
		</g>
	</g>
</g>
</svg>
