<?xml version="1.0" encoding="utf-8"?>
<!-- Generator: Adobe Illustrator 21.0.0, SVG Export Plug-In . SVG Version: 6.00 Build 0)  -->
<svg version="1.1" id="Layer_1" xmlns="http://www.w3.org/2000/svg" xmlns:xlink="http://www.w3.org/1999/xlink" x="0px" y="0px"
	 viewBox="0 0 256 256" style="enable-background:new 0 0 256 256;" xml:space="preserve">
<style type="text/css">
	.st0{fill:#F8AF23;}
	.st1{fill:#F87023;}
	.st2{fill:#8C8C8C;}
	.st3{fill:#63BCE7;}
	.st4{fill:#63E2E7;}
	.st5{fill:#6377E7;}
	.st6{fill:#000B75;}
	.st7{fill:#4C4C4C;}
	.st8{fill:#321F7A;}
	.st9{fill:#F8D323;}
	.st10{fill:#F46275;}
	.st11{fill:#9E9E9E;}
	.st12{fill:#F43075;}
	.st13{fill:#707070;}
	.st14{fill:#CECECE;}
	.st15{fill:#67BEEB;}
</style>
<g>
	<g>
		<path class="st3" d="M32.035,189.343c-7.535,0-13.665-6.13-13.665-13.665V51.902c0-7.535,6.13-13.665,13.665-13.665h191.931
			c7.535,0,13.665,6.13,13.665,13.665v123.776c0,7.535-6.13,13.665-13.665,13.665H32.035z"/>
		<path class="st0" d="M229.221,46.646v129.008c0,2.916-2.364,5.28-5.28,5.28H32.059c-2.916,0-5.28-2.364-5.28-5.28V46.646H229.221z
			"/>
		<path class="st1" d="M36.538,175.654V46.646h-9.76v129.008c0,2.916,2.364,5.28,5.28,5.28h9.76
			C38.903,180.934,36.538,178.57,36.538,175.654z"/>
		<path class="st9" d="M219.462,175.654V46.646h9.76v129.008c0,2.916-2.364,5.28-5.28,5.28h-9.76
			C217.098,180.934,219.462,178.57,219.462,175.654z"/>
		<path class="st11" d="M128,189.343H8.667l3.053,7.024c2.751,6.329,8.995,10.423,15.896,10.423H128h100.385
			c6.901,0,13.145-4.094,15.896-10.423l3.053-7.024H128z"/>
		<path class="st13" d="M21.479,196.367l-3.053-7.024h-9.76l3.053,7.024c2.751,6.329,8.995,10.423,15.896,10.423h9.76
			C30.474,206.79,24.23,202.696,21.479,196.367z"/>
		<path class="st14" d="M234.521,196.367l3.053-7.024h9.76l-3.053,7.024c-2.751,6.329-8.995,10.423-15.896,10.423h-9.76
			C225.526,206.79,231.77,202.696,234.521,196.367z"/>
		<path class="st10" d="M82.442,189.343l4.22,5.388c1.649,2.106,4.175,3.336,6.85,3.336h68.975c2.675,0,5.201-1.23,6.85-3.336
			l4.221-5.388H82.442z"/>
	</g>
	<path class="st3" d="M126.364,81.656c-3.125,2.029-10.433,6.281-19.358,8.166c-1.406,0.297-2.426,1.515-2.426,2.952v24.105
		c0,2.534,0.379,5.054,1.124,7.476v0c1.62,5.266,4.907,9.863,9.366,13.098l11.866,8.611c0.634,0.46,1.493,0.46,2.127,0l11.866-8.611
		c4.459-3.236,7.746-7.833,9.366-13.098v0c0.745-2.422,1.124-4.942,1.124-7.476V92.774c0-1.437-1.02-2.655-2.426-2.952
		c-8.925-1.885-16.233-6.137-19.358-8.166C128.639,81.008,127.361,81.008,126.364,81.656z"/>
	<g>
		<path class="st3" d="M176.295,102.809c-2.261,0-4.379-1.405-5.182-3.656c-1.138-3.196-2.639-6.272-4.461-9.141
			c-1.629-2.564-0.87-5.963,1.694-7.592c2.562-1.628,5.961-0.87,7.591,1.694c2.262,3.562,4.125,7.379,5.539,11.348
			c1.019,2.861-0.475,6.007-3.337,7.026C177.53,102.706,176.907,102.809,176.295,102.809z"/>
	</g>
	<g>
		<path class="st3" d="M156.34,77.296c-1.047,0-2.104-0.298-3.041-0.921c-3.172-2.109-6.595-3.814-10.176-5.067
			c-2.866-1.004-4.377-4.142-3.374-7.008c1.004-2.866,4.14-4.378,7.009-3.375c4.446,1.557,8.696,3.673,12.633,6.291
			c2.529,1.682,3.216,5.096,1.534,7.625C159.865,76.435,158.119,77.296,156.34,77.296z"/>
	</g>
	<path class="st3" d="M179.454,111.508c-3.018-0.143-5.612,2.195-5.758,5.229c-1.172,24.4-21.245,43.513-45.696,43.513
		c-25.227,0-45.75-20.523-45.75-45.75c0-6.695,1.485-13.271,4.278-19.281l0.149,0.358c0.881,2.111,2.925,3.382,5.078,3.382
		c0.706,0,1.424-0.137,2.117-0.426c2.803-1.17,4.126-4.392,2.956-7.194l-5.213-12.484c-1.17-2.803-4.392-4.127-7.194-2.956
		l-12.484,5.212c-2.803,1.17-4.126,4.391-2.956,7.194c1.17,2.803,4.391,4.127,7.194,2.956l0.059-0.025
		c-3.27,7.278-4.984,15.207-4.984,23.263c0,31.292,25.458,56.75,56.75,56.75c30.33,0,55.229-23.713,56.685-53.985
		C184.83,114.231,182.488,111.654,179.454,111.508z"/>
	<g>
		<path class="st10" d="M136.898,99.23l-13.842,15.801l-4.537-3.665c-2.02-1.631-4.98-1.319-6.612,0.693
			c-1.635,2.009-1.325,4.961,0.692,6.592L124.179,128l19.802-22.603c1.708-1.949,1.507-4.911-0.449-6.614
			C141.578,97.083,138.604,97.281,136.898,99.23z"/>
		<g>
			<path class="st8" d="M230.721,175.678V46.646c0-0.829-0.672-1.5-1.5-1.5H26.779c-0.829,0-1.5,0.671-1.5,1.5v129.032
				c0,3.725,3.031,6.756,6.756,6.756h191.931C227.69,182.434,230.721,179.403,230.721,175.678z M28.279,175.678V48.146h199.442
				v127.532c0,2.071-1.685,3.756-3.755,3.756H32.035C29.964,179.434,28.279,177.749,28.279,175.678z"/>
			<path class="st8" d="M245.656,196.965l3.053-7.024c0.201-0.463,0.155-0.998-0.122-1.42c-0.276-0.422-0.748-0.677-1.254-0.677
				h-14.351c3.722-2.766,6.148-7.182,6.148-12.165V51.902c0-8.362-6.803-15.165-15.164-15.165H32.035
				c-8.362,0-15.165,6.803-15.165,15.165v123.776c0,4.983,2.427,9.399,6.149,12.165H8.667c-0.505,0-0.977,0.255-1.254,0.678
				c-0.277,0.422-0.323,0.957-0.121,1.42l3.053,7.024c1.517,3.491,4.013,6.351,7.08,8.325H9.32c-0.829,0-1.5,0.671-1.5,1.5
				s0.671,1.5,1.5,1.5h18.295h200.77h18.295c0.828,0,1.5-0.671,1.5-1.5s-0.672-1.5-1.5-1.5h-8.104
				C241.643,203.315,244.139,200.456,245.656,196.965z M19.87,175.678V51.902c0-6.708,5.457-12.165,12.165-12.165h191.931
				c6.707,0,12.164,5.457,12.164,12.165v123.776c0,6.708-5.457,12.165-12.164,12.165h-50.408H82.442H32.035
				C25.327,187.843,19.87,182.386,19.87,175.678z M170.478,190.843l-2.32,2.963c-1.374,1.754-3.441,2.76-5.67,2.76H93.513
				c-2.229,0-4.295-1.006-5.669-2.76l-2.321-2.963H170.478z M228.385,205.29H27.615c-4.787,0-9.22-2.157-12.18-5.724h29.14
				c0.829,0,1.5-0.671,1.5-1.5s-0.671-1.5-1.5-1.5H13.478c-0.132-0.263-0.264-0.526-0.382-0.798l-2.141-4.926h21.081h49.677
				l3.77,4.813c1.947,2.485,4.874,3.911,8.031,3.911h68.975c3.157,0,6.085-1.425,8.031-3.911l3.769-4.813h49.678h21.08l-2.142,4.926
				c-0.118,0.272-0.25,0.535-0.382,0.798h-31.098c-0.828,0-1.5,0.671-1.5,1.5s0.672,1.5,1.5,1.5h29.141
				C237.605,203.133,233.172,205.29,228.385,205.29z"/>
			<path class="st8" d="M65.22,196.566H54.845c-0.829,0-1.5,0.671-1.5,1.5s0.671,1.5,1.5,1.5H65.22c0.829,0,1.5-0.671,1.5-1.5
				S66.048,196.566,65.22,196.566z"/>
			<path class="st8" d="M201.155,196.566H190.78c-0.828,0-1.5,0.671-1.5,1.5s0.672,1.5,1.5,1.5h10.375c0.828,0,1.5-0.671,1.5-1.5
				S201.983,196.566,201.155,196.566z"/>
			<path class="st8" d="M27.323,216.263H9.32c-0.829,0-1.5,0.671-1.5,1.5s0.671,1.5,1.5,1.5h18.003c0.829,0,1.5-0.671,1.5-1.5
				S28.152,216.263,27.323,216.263z"/>
			<path class="st8" d="M246.68,216.263h-18.003c-0.828,0-1.5,0.671-1.5,1.5s0.672,1.5,1.5,1.5h18.003c0.828,0,1.5-0.671,1.5-1.5
				S247.508,216.263,246.68,216.263z"/>
			<path class="st8" d="M218.479,216.263H37.521c-0.829,0-1.5,0.671-1.5,1.5s0.671,1.5,1.5,1.5h180.959c0.828,0,1.5-0.671,1.5-1.5
				S219.308,216.263,218.479,216.263z"/>
			<path class="st8" d="M114.189,138.667l11.866,8.611c0.582,0.422,1.263,0.633,1.945,0.633s1.363-0.211,1.944-0.633l11.866-8.611
				c4.692-3.405,8.215-8.332,9.919-13.872c0.79-2.568,1.19-5.231,1.19-7.917V92.774c0-2.118-1.521-3.977-3.616-4.419
				c-8.825-1.864-16.123-6.186-18.851-7.957c-1.49-0.968-3.416-0.968-4.906,0c-2.727,1.771-10.023,6.092-18.852,7.957
				c-2.095,0.442-3.616,2.301-3.616,4.419v24.105c0,2.686,0.401,5.35,1.191,7.917C105.976,130.336,109.498,135.262,114.189,138.667z
				 M106.08,92.774c0-0.72,0.508-1.331,1.236-1.484c8.986-1.898,16.303-6.063,19.865-8.376c0.498-0.322,1.141-0.322,1.638,0
				c3.563,2.314,10.881,6.479,19.866,8.376c0.728,0.153,1.235,0.764,1.235,1.484v24.105c0,2.386-0.355,4.753-1.058,7.035
				c-1.515,4.922-4.645,9.3-8.813,12.326l-11.867,8.611c-0.108,0.079-0.256,0.079-0.365,0l-11.865-8.611
				c-4.169-3.026-7.299-7.403-8.813-12.326c-0.702-2.281-1.058-4.648-1.058-7.035V92.774z"/>
			<path class="st8" d="M169.7,99.657c0.992,2.783,3.643,4.652,6.595,4.652c0.8,0,1.59-0.137,2.348-0.407
				c3.637-1.294,5.542-5.306,4.247-8.943c-1.452-4.075-3.365-7.994-5.687-11.649c-2.068-3.257-6.402-4.226-9.66-2.156
				c-1.579,1.002-2.673,2.559-3.08,4.384s-0.079,3.699,0.923,5.278C167.148,93.591,168.6,96.565,169.7,99.657z M167.391,86.191
				c0.233-1.042,0.858-1.933,1.761-2.505c0.662-0.421,1.403-0.622,2.137-0.622c1.324,0,2.622,0.656,3.383,1.854
				c2.201,3.466,4.016,7.183,5.393,11.047c0.739,2.078-0.349,4.371-2.428,5.11c-0.434,0.155-0.885,0.233-1.341,0.233
				c-1.687,0-3.201-1.069-3.769-2.659c-1.175-3.302-2.726-6.479-4.607-9.442C167.346,88.306,167.158,87.234,167.391,86.191z"/>
			<path class="st8" d="M142.628,72.724c3.461,1.21,6.771,2.859,9.84,4.9c1.152,0.767,2.491,1.172,3.872,1.172
				c2.352,0,4.532-1.168,5.834-3.124c2.137-3.214,1.261-7.568-1.952-9.705c-4.042-2.688-8.404-4.86-12.969-6.458
				c-3.642-1.275-7.643,0.653-8.92,4.295C137.059,67.447,138.985,71.448,142.628,72.724z M141.165,64.796
				c0.576-1.646,2.127-2.68,3.78-2.68c0.437,0,0.882,0.072,1.316,0.225c4.328,1.515,8.466,3.576,12.298,6.125
				c1.837,1.221,2.337,3.709,1.116,5.546c-0.743,1.118-1.99,1.785-3.336,1.785c-0.787,0-1.552-0.231-2.21-0.67
				c-3.278-2.18-6.814-3.941-10.511-5.234C141.537,69.164,140.437,66.877,141.165,64.796z"/>
			<path class="st8" d="M179.526,110.01C179.525,110.01,179.525,110.009,179.526,110.01c-3.855-0.171-7.144,2.803-7.328,6.656
				C171.064,140.265,151.65,158.75,128,158.75c-24.399,0-44.25-19.851-44.25-44.25c0-5.457,1.048-10.966,3.048-16.093
				c1.287,1.292,3.055,2.053,4.958,2.053c0.926,0,1.833-0.183,2.695-0.542c1.725-0.721,3.067-2.07,3.777-3.799
				s0.705-3.632-0.015-5.357L93,78.277c-0.721-1.725-2.07-3.067-3.799-3.778c-1.729-0.71-3.633-0.705-5.357,0.016l-12.484,5.212
				c-1.725,0.721-3.067,2.07-3.777,3.799c-0.71,1.729-0.705,3.632,0.015,5.357c0.72,1.726,2.069,3.067,3.799,3.778
				c0.771,0.317,1.577,0.492,2.391,0.521c-2.68,6.801-4.037,13.959-4.037,21.317c0,32.119,26.131,58.25,58.25,58.25
				c31.133,0,56.689-24.34,58.183-55.413C186.368,113.482,183.382,110.195,179.526,110.01z M128,169.75
				c-30.465,0-55.25-24.785-55.25-55.25c0-7.861,1.632-15.481,4.852-22.648c0.252-0.562,0.106-1.208-0.323-1.649
				c-0.285-0.292-0.682-0.445-1.083-0.445c-0.203,0-0.408,0.04-0.599,0.119c-0.985,0.412-2.074,0.416-3.062,0.009
				c-0.988-0.406-1.759-1.172-2.17-2.159c-0.412-0.986-0.415-2.073-0.009-3.061c0.406-0.988,1.172-1.759,2.159-2.171L85,77.283
				c0.985-0.411,2.071-0.416,3.061-0.009c0.988,0.406,1.759,1.173,2.171,2.159l5.213,12.484c0.412,0.986,0.415,2.073,0.009,3.061
				c-0.406,0.988-1.172,1.759-2.159,2.171c-0.493,0.206-1.011,0.311-1.539,0.311c-1.62,0-3.069-0.966-3.693-2.46l-0.149-0.358
				c-0.229-0.549-0.76-0.91-1.354-0.922c-0.632-0.031-1.14,0.329-1.39,0.867c-2.89,6.218-4.418,13.104-4.418,19.913
				c0,26.054,21.196,47.25,47.25,47.25c25.254,0,45.984-19.741,47.194-44.941c0.105-2.201,2.017-3.915,4.188-3.803
				c2.203,0.106,3.909,1.985,3.804,4.187C181.77,146.665,157.529,169.75,128,169.75z"/>
			<path class="st8" d="M111.657,119.818l11.58,9.349c0.277,0.224,0.61,0.333,0.942,0.333c0.418,0,0.833-0.174,1.129-0.512
				l19.802-22.603c1.091-1.245,1.63-2.838,1.518-4.487c-0.111-1.651-0.861-3.159-2.11-4.247c-2.575-2.241-6.499-1.978-8.746,0.59
				l-12.893,14.717l-3.416-2.759c-2.657-2.147-6.571-1.736-8.718,0.914c-1.043,1.282-1.523,2.894-1.352,4.537
				C109.564,117.296,110.368,118.776,111.657,119.818z M113.072,113.004c0.631-0.778,1.557-1.182,2.491-1.182
				c0.708,0,1.421,0.232,2.014,0.711l4.537,3.665c0.626,0.506,1.54,0.427,2.071-0.179l13.842-15.801c0.001,0,0.001,0,0.001,0
				c1.161-1.327,3.187-1.463,4.52-0.304c0.644,0.561,1.03,1.337,1.087,2.186c0.058,0.848-0.22,1.667-0.78,2.308L124,125.928
				l-10.458-8.443c-0.664-0.537-1.078-1.298-1.167-2.146C112.288,114.494,112.534,113.666,113.072,113.004z"/>
		</g>
	</g>
</g>
</svg>
