<?xml version="1.0" encoding="iso-8859-1"?>
<!-- Generator: Adobe Illustrator 25.2.0, SVG Export Plug-In . SVG Version: 6.00 Build 0)  -->
<svg version="1.1" xmlns="http://www.w3.org/2000/svg" xmlns:xlink="http://www.w3.org/1999/xlink" x="0px" y="0px"
	 viewBox="0 0 492 492" style="enable-background:new 0 0 492 492;" xml:space="preserve">
<g id="Master_Layer_2">
</g>
<g id="Layer_1">
	<g>
		<g>
			<rect x="139.94" y="387.62" style="fill-rule:evenodd;clip-rule:evenodd;fill:#656D78;" width="212.639" height="37.68"/>
			<rect x="139.94" y="68.18" style="fill-rule:evenodd;clip-rule:evenodd;fill:#E6E9ED;" width="212.639" height="319.439"/>
			<path style="fill-rule:evenodd;clip-rule:evenodd;fill:#E6E9ED;" d="M262.22,412.22h-31.68c-3.181,0-5.76-2.579-5.76-5.76
				c0-3.181,2.579-5.76,5.76-5.76h31.68c3.181,0,5.76,2.579,5.76,5.76C267.98,409.641,265.401,412.22,262.22,412.22z"/>
			<path style="fill-rule:evenodd;clip-rule:evenodd;fill:#656D78;" d="M262.1,99.86h-31.68c-3.181,0-5.76-2.579-5.76-5.76
				c0-3.181,2.579-5.76,5.76-5.76h31.68c3.181,0,5.76,2.579,5.76,5.76C267.86,97.281,265.281,99.86,262.1,99.86z"/>
			<g>
				<polygon style="fill-rule:evenodd;clip-rule:evenodd;fill:#656D78;" points="398.42,173.06 398.42,246.74 352.58,246.74 
					139.94,246.74 94.1,246.74 94.1,173.06 139.94,173.06 352.58,173.06 				"/>
				<path style="fill-rule:evenodd;clip-rule:evenodd;fill:#A3E583;" d="M159.456,213.912l-7.156-4.132l7.156-4.132
					c2.755-1.59,3.699-5.113,2.109-7.868c-1.591-2.755-5.113-3.699-7.868-2.108l-7.156,4.132v-8.263c0-3.181-2.579-5.76-5.76-5.76
					c-3.181,0-5.76,2.579-5.76,5.76v8.264l-7.156-4.132c-2.755-1.591-6.278-0.647-7.868,2.108c-1.59,2.755-0.646,6.278,2.108,7.868
					l7.156,4.131l-7.156,4.132c-2.755,1.59-3.699,5.113-2.108,7.868c1.067,1.848,3.003,2.881,4.994,2.881
					c0.977,0,1.968-0.249,2.875-0.773l7.156-4.132v8.263c0,3.181,2.579,5.76,5.76,5.76c3.181,0,5.76-2.579,5.76-5.76v-8.264
					l7.156,4.132c0.907,0.524,1.898,0.773,2.875,0.773c1.99,0,3.927-1.033,4.994-2.881
					C163.155,219.025,162.211,215.502,159.456,213.912z"/>
				<path style="fill-rule:evenodd;clip-rule:evenodd;fill:#A3E583;" d="M229.776,213.912l-7.156-4.132l7.156-4.132
					c2.755-1.59,3.699-5.113,2.109-7.868c-1.591-2.755-5.114-3.699-7.868-2.108l-7.156,4.132v-8.263c0-3.181-2.579-5.76-5.76-5.76
					c-3.181,0-5.76,2.579-5.76,5.76v8.264l-7.156-4.132c-2.755-1.591-6.278-0.647-7.868,2.108c-1.59,2.755-0.646,6.278,2.108,7.868
					l7.156,4.131l-7.156,4.132c-2.755,1.59-3.699,5.113-2.108,7.868c1.067,1.848,3.003,2.881,4.994,2.881
					c0.977,0,1.968-0.249,2.875-0.773l7.156-4.132v8.263c0,3.181,2.579,5.76,5.76,5.76c3.181,0,5.76-2.579,5.76-5.76v-8.264
					l7.156,4.132c0.907,0.524,1.898,0.773,2.875,0.773c1.99,0,3.927-1.033,4.994-2.881
					C233.475,219.025,232.531,215.502,229.776,213.912z"/>
				<path style="fill-rule:evenodd;clip-rule:evenodd;fill:#A3E583;" d="M300.096,213.912l-7.156-4.132l7.156-4.132
					c2.755-1.59,3.699-5.113,2.108-7.868c-1.591-2.755-5.113-3.699-7.868-2.108l-7.156,4.132v-8.263c0-3.181-2.579-5.76-5.76-5.76
					s-5.76,2.579-5.76,5.76v8.264l-7.156-4.132c-2.755-1.59-6.278-0.647-7.868,2.108c-1.591,2.755-0.647,6.278,2.108,7.868
					l7.156,4.131l-7.156,4.132c-2.755,1.59-3.699,5.113-2.108,7.868c1.067,1.848,3.003,2.881,4.994,2.881
					c0.977,0,1.967-0.249,2.875-0.773l7.156-4.132l0,8.264c0,3.181,2.579,5.76,5.76,5.76s5.76-2.579,5.76-5.76v-8.264l7.156,4.132
					c0.907,0.524,1.897,0.773,2.875,0.773c1.991,0,3.927-1.033,4.994-2.881C303.795,219.025,302.851,215.502,300.096,213.912z"/>
				<path style="fill-rule:evenodd;clip-rule:evenodd;fill:#A3E583;" d="M370.416,213.912l-7.156-4.132l7.156-4.132
					c2.755-1.59,3.699-5.113,2.108-7.868c-1.591-2.755-5.113-3.699-7.868-2.108l-7.156,4.132v-8.263c0-3.181-2.579-5.76-5.76-5.76
					s-5.76,2.579-5.76,5.76v8.264l-7.156-4.132c-2.755-1.59-6.278-0.647-7.868,2.108c-1.591,2.755-0.647,6.278,2.108,7.868
					l7.156,4.131l-7.156,4.132c-2.755,1.59-3.699,5.113-2.108,7.868c1.067,1.848,3.003,2.881,4.994,2.881
					c0.977,0,1.967-0.249,2.875-0.773l7.156-4.132v8.264c0,3.181,2.579,5.76,5.76,5.76s5.76-2.579,5.76-5.76v-8.264l7.156,4.132
					c0.907,0.524,1.897,0.773,2.875,0.773c1.991,0,3.927-1.033,4.994-2.881C374.115,219.025,373.171,215.502,370.416,213.912z"/>
			</g>
		</g>
	</g>
</g>
</svg>
