<?xml version="1.0" encoding="iso-8859-1"?>
<!-- Generator: Adobe Illustrator 25.2.0, SVG Export Plug-In . SVG Version: 6.00 Build 0)  -->
<svg version="1.1" xmlns="http://www.w3.org/2000/svg" xmlns:xlink="http://www.w3.org/1999/xlink" x="0px" y="0px"
	 viewBox="0 0 492 492" style="enable-background:new 0 0 492 492;" xml:space="preserve">
<g id="Master_Layer_2">
</g>
<g id="Layer_1">
	<g>
		<path style="fill-rule:evenodd;clip-rule:evenodd;fill:#E6E9ED;" d="M250.224,378.476v3.176c0,2.19-1.774,3.964-3.964,3.964
			c-2.19,0-3.964-1.774-3.964-3.964v-3.176c1.311,1.063,2.633,2.121,3.964,3.176C247.591,380.597,248.914,379.539,250.224,378.476z"
			/>
		<g>
			<path style="fill-rule:evenodd;clip-rule:evenodd;fill:#E6E9ED;" d="M403.935,132.566v42.884
				c0,93.656-55.888,184.26-157.675,255.61C144.473,359.711,88.585,269.106,88.585,175.45v-42.884L246.26,62.42L403.935,132.566z"/>
			<g>
				<path style="fill-rule:evenodd;clip-rule:evenodd;fill:#82D65F;" d="M364.296,158.316v17.134
					c0,21.011-3.369,41.925-10.058,62.575c-0.394-0.131-0.817-0.203-1.256-0.203H250.224V107.568L364.296,158.316z"/>
				<path style="fill-rule:evenodd;clip-rule:evenodd;fill:#82D65F;" d="M250.224,245.749h101.351
					c-5.545,15.197-12.9,30.242-22.044,45.062c-11.8,19.131-26.615,37.857-44.031,55.663c-10.737,10.98-22.539,21.682-35.276,32.003
					V245.749z"/>
				<path style="fill-rule:evenodd;clip-rule:evenodd;fill:#82D65F;" d="M242.296,245.749v132.727
					c-12.736-10.321-24.539-21.023-35.276-32.003c-17.416-17.805-32.231-36.532-44.031-55.663
					c-9.144-14.82-16.5-29.865-22.044-45.062H242.296z"/>
				<path style="fill-rule:evenodd;clip-rule:evenodd;fill:#82D65F;" d="M242.296,107.568v130.253H139.538
					c-0.438,0-0.862,0.072-1.256,0.203c-6.689-20.649-10.059-41.563-10.059-62.575v-17.134L242.296,107.568z"/>
			</g>
		</g>
	</g>
</g>
</svg>
