<?xml version="1.0" encoding="iso-8859-1"?>
<!-- Generator: Adobe Illustrator 25.2.0, SVG Export Plug-In . SVG Version: 6.00 Build 0)  -->
<svg version="1.1" xmlns="http://www.w3.org/2000/svg" xmlns:xlink="http://www.w3.org/1999/xlink" x="0px" y="0px"
	 viewBox="0 0 492 492" style="enable-background:new 0 0 492 492;" xml:space="preserve">
<g id="Master_Layer_2">
</g>
<g id="Layer_1">
	<g>
		<g>
			<path style="fill-rule:evenodd;clip-rule:evenodd;fill:#FDD7AD;" d="M246.378,268.059L246.378,268.059
				c-23.26,0-44.275-16.824-53.399-42.75l-6.758-19.204c-16.332-46.405,11.767-97.942,53.399-97.942h13.284
				c41.321,0,69.413,50.831,53.68,97.13l-6.525,19.204C291.101,250.856,269.902,268.059,246.378,268.059z"/>
			<path style="fill-rule:evenodd;clip-rule:evenodd;fill:#FE646F;" d="M389.856,431.06H102.664l0,0
				c0-69.017,55.949-124.967,124.967-124.967h37.257C333.906,306.093,389.856,362.042,389.856,431.06L389.856,431.06z"/>
			<g>
				<path style="fill-rule:evenodd;clip-rule:evenodd;fill:#CCD1D9;" d="M407.666,128.99c-3.566,0-6.458-2.891-6.458-6.458V75.336
					h-47.197c-3.567,0-6.458-2.891-6.458-6.458c0-3.567,2.891-6.458,6.458-6.458l53.654,0c3.567,0,6.458,2.891,6.458,6.458v53.655
					C414.124,126.099,411.232,128.99,407.666,128.99z"/>
			</g>
			<g>
				<path style="fill-rule:evenodd;clip-rule:evenodd;fill:#CCD1D9;" d="M407.666,297.596h-53.654c-3.567,0-6.458-2.891-6.458-6.458
					c0-3.566,2.891-6.458,6.458-6.458h47.197v-47.197c0-3.567,2.891-6.458,6.458-6.458c3.567,0,6.458,2.891,6.458,6.458v53.655
					C414.124,294.705,411.232,297.596,407.666,297.596z"/>
			</g>
			<g>
				<path style="fill-rule:evenodd;clip-rule:evenodd;fill:#CCD1D9;" d="M84.854,128.99c-3.567,0-6.458-2.891-6.458-6.458V68.878
					c0-3.567,2.891-6.458,6.458-6.458l53.654,0c3.567,0,6.458,2.891,6.458,6.458c0,3.567-2.891,6.458-6.458,6.458l-47.197,0v47.196
					C91.312,126.099,88.421,128.99,84.854,128.99z"/>
			</g>
			<g>
				<path style="fill-rule:evenodd;clip-rule:evenodd;fill:#CCD1D9;" d="M138.509,297.596H84.854c-3.567,0-6.458-2.891-6.458-6.458
					v-53.654c0-3.567,2.891-6.458,6.458-6.458c3.567,0,6.458,2.891,6.458,6.458v47.197h47.197c3.566,0,6.458,2.891,6.458,6.458
					C144.967,294.705,142.075,297.596,138.509,297.596z"/>
			</g>
		</g>
	</g>
</g>
</svg>
