<?xml version="1.0" encoding="iso-8859-1"?>
<!-- Generator: Adobe Illustrator 25.2.0, SVG Export Plug-In . SVG Version: 6.00 Build 0)  -->
<svg version="1.1" xmlns="http://www.w3.org/2000/svg" xmlns:xlink="http://www.w3.org/1999/xlink" x="0px" y="0px"
	 viewBox="0 0 492 492" style="enable-background:new 0 0 492 492;" xml:space="preserve">
<g id="Master_Layer_2">
</g>
<g id="Layer_1">
	<g>
		<g>
			<rect x="77.028" y="161.826" style="fill-rule:evenodd;clip-rule:evenodd;fill:#CCD1D9;" width="338.464" height="207.313"/>
			<path style="fill-rule:evenodd;clip-rule:evenodd;fill:#656D78;" d="M430.58,355.994v15.843c0,9.756-9.699,17.664-21.665,17.664
				H83.605c-11.966,0-21.665-7.908-21.665-17.664v-15.843h15.087h134.858c0,5.916,4.797,10.712,10.712,10.712h47.574
				c5.916,0,10.71-4.796,10.71-10.712h134.611H430.58z"/>
			<rect x="105.543" y="190.361" style="fill-rule:evenodd;clip-rule:evenodd;fill:#E6E9ED;" width="281.434" height="137.159"/>
			<g>
				<path style="fill-rule:evenodd;clip-rule:evenodd;fill:#656D78;" d="M272.538,180.939c-2.284,0-4.463-1.324-5.443-3.548
					c-1.325-3.005,0.037-6.514,3.041-7.839l3.019-1.331c4.498-2.086,8.287-5.402,10.959-9.591c2.648-4.146,4.047-8.95,4.047-13.897
					c0-3.284,2.662-5.946,5.946-5.946c3.284,0,5.946,2.662,5.946,5.946c0,7.219-2.045,14.237-5.914,20.295
					c-3.906,6.124-9.454,10.97-16.044,14.011c-0.031,0.014-0.061,0.028-0.092,0.041l-3.067,1.353
					C274.154,180.776,273.34,180.939,272.538,180.939z"/>
				<path style="fill-rule:evenodd;clip-rule:evenodd;fill:#656D78;" d="M220.002,180.892c-0.772,0-1.557-0.151-2.314-0.471
					l-3.087-1.306c-0.059-0.025-0.117-0.051-0.175-0.077c-6.589-3.041-12.138-7.887-16.046-14.014
					c-3.867-6.055-5.913-13.072-5.913-20.292c0-3.284,2.662-5.946,5.946-5.946c3.284,0,5.946,2.662,5.946,5.946
					c0,4.947,1.399,9.751,4.045,13.893c2.666,4.181,6.441,7.489,10.922,9.576l2.994,1.266c3.025,1.279,4.439,4.768,3.16,7.793
					C224.521,179.529,222.319,180.892,220.002,180.892z"/>
				<path style="fill-rule:evenodd;clip-rule:evenodd;fill:#656D78;" d="M240.582,136c-0.295,0-0.594-0.022-0.895-0.067
					c-3.247-0.49-5.482-3.52-4.992-6.767c0.063-0.416,0.095-0.846,0.095-1.278c0-5.503-4.695-12.018-8.661-12.018
					c-3.284,0-5.946-2.662-5.946-5.946c0-3.284,2.662-5.946,5.946-5.946c5.566,0,11.057,3.028,15.064,8.308
					c3.488,4.595,5.488,10.282,5.488,15.602c0,1.024-0.077,2.052-0.228,3.053C246.009,133.887,243.473,136,240.582,136z"/>
				<path style="fill-rule:evenodd;clip-rule:evenodd;fill:#656D78;" d="M251.938,136c-2.891,0-5.427-2.112-5.872-5.058
					c-0.151-1.001-0.228-2.028-0.228-3.054c0-5.32,2-11.006,5.488-15.602c4.008-5.28,9.499-8.308,15.065-8.308
					c3.284,0,5.946,2.662,5.946,5.946c0,3.284-2.662,5.946-5.946,5.946c-3.966,0-8.661,6.514-8.661,12.018
					c0,0.433,0.032,0.863,0.094,1.277c0.491,3.247-1.744,6.277-4.991,6.768C252.533,135.978,252.233,136,251.938,136z"/>
				<g>
					<path style="fill-rule:evenodd;clip-rule:evenodd;fill:#656D78;" d="M219.981,202.866c2.285,0,4.463,1.324,5.443,3.548
						c1.325,3.005-0.037,6.514-3.041,7.839l-3.019,1.331c-4.498,2.086-8.287,5.402-10.959,9.591
						c-2.648,4.146-4.047,8.95-4.047,13.897c0,3.284-2.662,5.946-5.946,5.946c-3.284,0-5.946-2.662-5.946-5.946
						c0-7.219,2.045-14.237,5.914-20.295c3.906-6.124,9.454-10.97,16.044-14.011c0.031-0.014,0.062-0.028,0.092-0.041l3.067-1.353
						C218.366,203.029,219.18,202.866,219.981,202.866z"/>
					<path style="fill-rule:evenodd;clip-rule:evenodd;fill:#656D78;" d="M272.518,202.913c0.772,0,1.557,0.151,2.314,0.471
						l3.087,1.306c0.059,0.025,0.117,0.051,0.175,0.077c6.589,3.041,12.138,7.887,16.046,14.014
						c3.867,6.055,5.913,13.072,5.913,20.292c0,3.284-2.662,5.946-5.946,5.946c-3.284,0-5.946-2.662-5.946-5.946
						c0-4.947-1.399-9.751-4.045-13.893c-2.666-4.181-6.441-7.489-10.922-9.576l-2.994-1.266c-3.025-1.279-4.439-4.768-3.16-7.793
						C267.999,204.276,270.201,202.913,272.518,202.913z"/>
				</g>
				<path style="fill-rule:evenodd;clip-rule:evenodd;fill:#FE646F;" d="M251.44,242.001c-1.655,1.122-3.382,2.185-5.18,3.191
					c-1.798-1.006-3.525-2.068-5.18-3.191c-18.633-12.6-28.101-32.127-25.572-51.639c0.538-4.145,1.618-8.289,3.265-12.367
					l1.231-3.05l11.901-29.447l28.708,0l11.919,29.494l1.214,3.003c1.647,4.078,2.728,8.223,3.265,12.367
					C279.542,209.874,270.073,229.4,251.44,242.001z"/>
				<path style="fill-rule:evenodd;clip-rule:evenodd;fill:#EF5B6D;" d="M260.361,133.663v11.835H246.26h-14.101v-11.835
					c0-6.461,6.312-11.696,14.101-11.696c3.895,0,7.42,1.308,9.971,3.424C258.783,127.509,260.361,130.433,260.361,133.663z"/>
				<path style="fill-rule:evenodd;clip-rule:evenodd;fill:#656D78;" d="M251.462,165.686v75.846c0,0.159-0.007,0.315-0.022,0.468
					c-1.655,1.122-3.382,2.185-5.18,3.191c-1.798-1.006-3.525-2.068-5.18-3.191c-0.015-0.154-0.022-0.31-0.022-0.468v-75.846
					c0-2.874,2.329-5.202,5.202-5.202C249.134,160.484,251.462,162.813,251.462,165.686z"/>
			</g>
		</g>
	</g>
</g>
</svg>
