<?xml version="1.0" encoding="iso-8859-1"?>
<!-- Generator: Adobe Illustrator 25.2.0, SVG Export Plug-In . SVG Version: 6.00 Build 0)  -->
<svg version="1.1" xmlns="http://www.w3.org/2000/svg" xmlns:xlink="http://www.w3.org/1999/xlink" x="0px" y="0px"
	 viewBox="0 0 492 492" style="enable-background:new 0 0 492 492;" xml:space="preserve">
<g id="Master_Layer_2">
</g>
<g id="Layer_1">
	<g>
		<g>
			<polygon style="fill-rule:evenodd;clip-rule:evenodd;fill:#E6E9ED;" points="430.58,151.34 430.58,376.804 61.94,376.804 
				61.94,151.132 			"/>
			<polygon style="fill-rule:evenodd;clip-rule:evenodd;fill:#CCD1D9;" points="430.58,116.676 430.58,151.34 61.94,151.132 
				61.94,116.676 			"/>
			
				<ellipse transform="matrix(0.8507 -0.5257 0.5257 0.8507 -102.1873 168.944)" style="fill-rule:evenodd;clip-rule:evenodd;fill:#82D65F;" cx="246.26" cy="264.329" rx="50.044" ry="50.044"/>
			<path style="fill-rule:evenodd;clip-rule:evenodd;fill:#E6E9ED;" d="M236.446,285.979c-1.015,0-2.029-0.387-2.803-1.161
				l-15.342-15.342c-1.548-1.548-1.548-4.058,0-5.606c1.548-1.548,4.058-1.548,5.606,0l12.539,12.539l29.752-29.752
				c1.548-1.548,4.058-1.548,5.606,0c1.548,1.548,1.548,4.058,0,5.606l-32.555,32.554
				C238.476,285.592,237.461,285.979,236.446,285.979z"/>
			<path style="fill-rule:evenodd;clip-rule:evenodd;fill:#656D78;" d="M132.547,134.017c0-3.82-3.116-6.937-6.937-6.937
				c-3.821,0-6.937,3.116-6.937,6.937s3.116,6.937,6.937,6.937C129.431,140.954,132.547,137.838,132.547,134.017z"/>
			<path style="fill-rule:evenodd;clip-rule:evenodd;fill:#656D78;" d="M110.746,134.017c0-3.82-3.116-6.937-6.937-6.937
				c-3.82,0-6.937,3.116-6.937,6.937s3.116,6.937,6.937,6.937C107.629,140.954,110.746,137.838,110.746,134.017z"/>
			<path style="fill-rule:evenodd;clip-rule:evenodd;fill:#656D78;" d="M88.944,134.017c0-3.82-3.116-6.937-6.937-6.937
				c-3.821,0-6.937,3.116-6.937,6.937s3.116,6.937,6.937,6.937C85.828,140.954,88.944,137.838,88.944,134.017z"/>
		</g>
	</g>
</g>
</svg>
