<?xml version="1.0" encoding="iso-8859-1"?>
<!-- Generator: Adobe Illustrator 25.2.0, SVG Export Plug-In . SVG Version: 6.00 Build 0)  -->
<svg version="1.1" xmlns="http://www.w3.org/2000/svg" xmlns:xlink="http://www.w3.org/1999/xlink" x="0px" y="0px"
	 viewBox="0 0 492 492" style="enable-background:new 0 0 492 492;" xml:space="preserve">
<g id="Master_Layer_2">
</g>
<g id="Layer_1">
	<g>
		<g>
			<g>
				<g>
					<path style="fill-rule:evenodd;clip-rule:evenodd;fill:#CCD1D9;" d="M424.82,149.54c-3.181,0-5.76-2.579-5.76-5.76V73.94
						h-69.84c-3.181,0-5.76-2.579-5.76-5.76c0-3.181,2.579-5.76,5.76-5.76h75.6c3.181,0,5.76,2.579,5.76,5.76v75.6
						C430.58,146.961,428.001,149.54,424.82,149.54z"/>
				</g>
			</g>
			<g>
				<g>
					<path style="fill-rule:evenodd;clip-rule:evenodd;fill:#CCD1D9;" d="M67.7,149.54c-3.181,0-5.76-2.579-5.76-5.76v-75.6
						c0-3.181,2.579-5.76,5.76-5.76h75.6c3.181,0,5.76,2.579,5.76,5.76c0,3.181-2.579,5.76-5.76,5.76H73.46v69.84
						C73.46,146.961,70.881,149.54,67.7,149.54z"/>
				</g>
			</g>
			<g>
				<g>
					<path style="fill-rule:evenodd;clip-rule:evenodd;fill:#CCD1D9;" d="M424.82,431.06h-75.6c-3.181,0-5.76-2.579-5.76-5.76
						s2.579-5.76,5.76-5.76h69.84V349.7c0-3.181,2.579-5.76,5.76-5.76s5.76,2.579,5.76,5.76v75.6
						C430.58,428.481,428.001,431.06,424.82,431.06z"/>
				</g>
			</g>
			<g>
				<g>
					<path style="fill-rule:evenodd;clip-rule:evenodd;fill:#CCD1D9;" d="M143.3,431.06H67.7c-3.181,0-5.76-2.579-5.76-5.76v-75.6
						c0-3.181,2.579-5.76,5.76-5.76c3.181,0,5.76,2.579,5.76,5.76v69.84h69.84c3.181,0,5.76,2.579,5.76,5.76
						S146.481,431.06,143.3,431.06z"/>
				</g>
			</g>
			<g>
				<g>
					<path style="fill-rule:evenodd;clip-rule:evenodd;fill:#5D9CEC;" d="M246.26,378.5c-17.484,0-34.732-4.51-49.878-13.044
						c-14.679-8.27-27.197-20.175-36.203-34.429c-10.258-16.224-15.679-34.997-15.679-54.288v-30c0-3.181,2.579-5.76,5.76-5.76
						c3.181,0,5.76,2.579,5.76,5.76v30c0,17.108,4.806,33.753,13.897,48.133c16.658,26.367,45.197,42.107,76.342,42.107
						c31.145,0,59.684-15.74,76.341-42.105c9.093-14.382,13.898-31.026,13.898-48.134v-60c0-17.109-4.806-33.753-13.897-48.133
						c-3.575-5.662-7.791-10.935-12.533-15.675c-17.043-17.046-39.704-26.432-63.81-26.432c-31.145,0-59.684,15.74-76.342,42.105
						c-1.699,2.689-5.257,3.492-7.946,1.793c-2.689-1.699-3.492-5.257-1.793-7.946c9.005-14.254,21.524-26.159,36.203-34.429
						c15.146-8.533,32.394-13.043,49.878-13.043c13.736,0,27.063,2.691,39.612,7.999c12.118,5.126,23,12.463,32.343,21.807
						c5.345,5.342,10.098,11.287,14.127,17.668c10.257,16.222,15.678,34.995,15.678,54.286v60c0,19.291-5.422,38.064-15.68,54.289
						c-9.005,14.252-21.523,26.158-36.202,34.427C280.992,373.989,263.744,378.5,246.26,378.5z"/>
				</g>
			</g>
			<g>
				<g>
					<path style="fill-rule:evenodd;clip-rule:evenodd;fill:#5D9CEC;" d="M246.26,306.5c-3.181,0-5.76-2.579-5.76-5.76
						s2.579-5.76,5.76-5.76c6.573,0,10.902-3.347,12.897-5.343c1.995-1.996,5.343-6.324,5.343-12.897v-60
						c0-6.574-3.347-10.902-5.342-12.897c-1.995-1.995-6.324-5.343-12.898-5.343c-6.573,0-10.902,3.347-12.897,5.343
						c-1.995,1.995-5.343,6.324-5.343,12.897v54c0,3.181-2.579,5.76-5.76,5.76s-5.76-2.579-5.76-5.76v-54
						c0-10.725,5.461-17.788,8.716-21.044c3.256-3.255,10.318-8.717,21.044-8.717c10.725,0,17.788,5.461,21.043,8.717
						c3.256,3.255,8.717,10.318,8.717,21.044v60c0,10.725-5.461,17.788-8.717,21.044C264.048,301.039,256.985,306.5,246.26,306.5z"
						/>
				</g>
			</g>
			<g>
				<g>
					<path style="fill-rule:evenodd;clip-rule:evenodd;fill:#5D9CEC;" d="M246.26,330.5c-14.362,0-27.863-5.592-38.014-15.747
						c-5.912-5.909-10.254-12.874-12.906-20.699c-1.884-5.551-2.839-11.377-2.839-17.315v-60c0-5.938,0.955-11.764,2.84-17.317
						c2.651-7.823,6.994-14.787,12.907-20.698c10.15-10.153,23.651-15.745,38.013-15.745c3.181,0,5.76,2.579,5.76,5.76
						c0,3.181-2.579,5.76-5.76,5.76c-11.284,0-21.891,4.394-29.867,12.372c-4.652,4.65-8.064,10.117-10.143,16.252
						c-1.479,4.36-2.229,8.941-2.229,13.617v60c0,4.676,0.75,9.256,2.229,13.615c2.08,6.136,5.492,11.604,10.142,16.252
						c7.977,7.979,18.584,12.372,29.869,12.372c11.284,0,21.892-4.394,29.867-12.371c4.652-4.65,8.064-10.117,10.143-16.252
						c1.479-4.36,2.229-8.941,2.229-13.616v-60c0-4.675-0.75-9.256-2.229-13.615c-1.022-3.012,0.591-6.283,3.604-7.306
						c3.013-1.022,6.283,0.591,7.305,3.604c1.884,5.553,2.84,11.379,2.84,17.317v60c0,5.937-0.956,11.763-2.84,17.317
						c-2.652,7.824-6.995,14.788-12.908,20.698C274.123,324.907,260.622,330.5,246.26,330.5z"/>
				</g>
			</g>
			<g>
				<g>
					<path style="fill-rule:evenodd;clip-rule:evenodd;fill:#5D9CEC;" d="M246.26,354.5c-20.77,0-40.297-8.089-54.984-22.776
						c-5.529-5.529-10.166-11.79-13.781-18.609c-5.884-11.093-8.994-23.672-8.994-36.375v-60c0-12.704,3.111-25.282,8.995-36.376
						c3.615-6.818,8.252-13.079,13.781-18.608c14.687-14.687,34.214-22.776,54.984-22.776c20.77,0,40.297,8.089,54.984,22.776
						c5.529,5.529,10.165,11.79,13.781,18.609c5.884,11.093,8.994,23.671,8.994,36.375v60c0,12.704-3.11,25.282-8.995,36.376
						c-1.491,2.811-4.977,3.88-7.788,2.389c-2.81-1.491-3.88-4.977-2.389-7.788c5.006-9.437,7.652-20.149,7.652-30.978v-60
						c0-10.829-2.646-21.541-7.652-30.978c-3.079-5.806-7.032-11.143-11.75-15.86c-12.512-12.511-29.146-19.402-46.838-19.402
						s-34.327,6.89-46.838,19.402c-4.718,4.718-8.671,10.054-11.75,15.86c-5.006,9.438-7.652,20.15-7.652,30.979v60
						c0,10.829,2.646,21.54,7.652,30.978c3.078,5.806,7.032,11.142,11.75,15.86c12.512,12.511,29.146,19.401,46.839,19.401
						c3.181,0,5.76,2.579,5.76,5.76S249.441,354.5,246.26,354.5z"/>
				</g>
			</g>
			<g>
				<g>
					<path style="fill-rule:evenodd;clip-rule:evenodd;fill:#5D9CEC;" d="M246.26,282.5c-3.181,0-5.76-2.579-5.76-5.76v-60
						c0-3.181,2.579-5.76,5.76-5.76c3.181,0,5.76,2.579,5.76,5.76v60C252.02,279.921,249.441,282.5,246.26,282.5z"/>
				</g>
			</g>
		</g>
	</g>
</g>
</svg>
