<?xml version="1.0" encoding="iso-8859-1"?>
<!-- Generator: Adobe Illustrator 25.2.0, SVG Export Plug-In . SVG Version: 6.00 Build 0)  -->
<svg version="1.1" xmlns="http://www.w3.org/2000/svg" xmlns:xlink="http://www.w3.org/1999/xlink" x="0px" y="0px"
	 viewBox="0 0 492 492" style="enable-background:new 0 0 492 492;" xml:space="preserve">
<g id="Master_Layer_2">
</g>
<g id="Layer_1">
	<g>
		<g>
			<rect x="77.028" y="188.288" style="fill-rule:evenodd;clip-rule:evenodd;fill:#CCD1D9;" width="338.464" height="210.851"/>
			<rect x="105.543" y="216.823" style="fill-rule:evenodd;clip-rule:evenodd;fill:#E6E9ED;" width="281.434" height="137.159"/>
			<g>
				<g>
					<path style="fill-rule:evenodd;clip-rule:evenodd;fill:#CCD1D9;" d="M159.302,192.934c-2.189,0-3.964-1.775-3.964-3.964
						l0-41.713l-42.304-42.305c-1.548-1.548-1.548-4.058,0-5.606c1.548-1.548,4.058-1.548,5.606,0l43.465,43.465
						c0.743,0.743,1.161,1.752,1.161,2.803v43.355C163.267,191.159,161.492,192.934,159.302,192.934z"/>
				</g>
				<g>
					<path style="fill-rule:evenodd;clip-rule:evenodd;fill:#CCD1D9;" d="M333.217,193.677c-2.189,0-3.964-1.775-3.964-3.964
						v-44.098c0-1.051,0.418-2.059,1.161-2.803l43.466-43.465c1.548-1.548,4.058-1.548,5.606,0c1.548,1.548,1.548,4.058,0,5.606
						l-42.305,42.305v42.456C337.181,191.903,335.407,193.677,333.217,193.677z"/>
				</g>
				<path style="fill-rule:evenodd;clip-rule:evenodd;fill:#56AAFF;" d="M121.15,92.382c0-8.187-6.677-14.865-14.864-14.865
					c-8.187,0-14.865,6.678-14.865,14.865c0,8.187,6.678,14.864,14.865,14.864C114.473,107.246,121.15,100.569,121.15,92.382z"/>
				<path style="fill-rule:evenodd;clip-rule:evenodd;fill:#56AAFF;" d="M401.346,92.63c0-8.187-6.678-14.865-14.865-14.865
					c-8.187,0-14.864,6.677-14.864,14.865c0,8.187,6.677,14.864,14.864,14.864C394.668,107.494,401.346,100.817,401.346,92.63z"/>
				<g>
					<g>
						<path style="fill-rule:evenodd;clip-rule:evenodd;fill:#CCD1D9;" d="M247.253,153.575c-1.512,0-2.956-0.87-3.617-2.338
							c-3.019-6.709-2.115-14.47,2.304-19.772c0.077-0.092,0.157-0.181,0.242-0.265c1.067-1.067,2.222-1.863,3.241-2.566
							c1.149-0.792,2.141-1.476,2.756-2.355c0.011-0.016,0.023-0.032,0.034-0.048c2.793-3.867,1.544-8.4,0.551-10.758
							c-0.849-2.018,0.098-4.342,2.115-5.191c2.017-0.85,4.342,0.097,5.191,2.115c2.784,6.612,2.268,13.336-1.414,18.453
							c-1.432,2.034-3.261,3.295-4.733,4.31c-0.754,0.52-1.468,1.012-2.012,1.525c-2.386,2.988-2.801,7.399-1.046,11.298
							c0.898,1.997,0.008,4.343-1.988,5.241C248.349,153.463,247.797,153.575,247.253,153.575z"/>
					</g>
					<path style="fill-rule:evenodd;clip-rule:evenodd;fill:#FE646F;" d="M229.661,176.119v-29.263h33.445v29.263
						c-5.25-1.904-10.873-2.938-16.722-2.938S234.911,174.215,229.661,176.119z"/>
					<path style="fill-rule:evenodd;clip-rule:evenodd;fill:#EF5B6D;" d="M263.106,174.119c8.403,2.844,15.848,7.772,21.717,14.168
						c7.09,7.727,11.879,17.602,13.281,28.535c0.283,2.195,0.429,4.435,0.429,6.709c0,28.8-23.347,52.149-52.149,52.149
						c-28.802,0-52.149-23.35-52.149-52.149c0-2.274,0.146-4.514,0.429-6.709c1.402-10.933,6.191-20.808,13.281-28.535
						c5.869-6.397,13.314-11.324,21.717-14.168c5.25-1.774,10.873-2.737,16.722-2.737S257.857,172.346,263.106,174.119z"/>
				</g>
			</g>
			<path style="fill-rule:evenodd;clip-rule:evenodd;fill:#656D78;" d="M430.58,382.458v15.843c0,9.756-9.699,17.661-21.665,17.661
				H83.605c-11.966,0-21.665-7.905-21.665-17.661v-15.843h15.087h134.858c0,5.916,4.797,10.71,10.712,10.71h47.574
				c5.916,0,10.71-4.794,10.71-10.71h134.611H430.58z"/>
		</g>
	</g>
</g>
</svg>
