<?xml version="1.0" encoding="iso-8859-1"?>
<!-- Generator: Adobe Illustrator 25.2.0, SVG Export Plug-In . SVG Version: 6.00 Build 0)  -->
<svg version="1.1" xmlns="http://www.w3.org/2000/svg" xmlns:xlink="http://www.w3.org/1999/xlink" x="0px" y="0px"
	 viewBox="0 0 492 492" style="enable-background:new 0 0 492 492;" xml:space="preserve">
<g id="Master_Layer_2">
</g>
<g id="Layer_1">
	<g>
		<g>
			<path style="fill-rule:evenodd;clip-rule:evenodd;fill:#FE646F;" d="M235.801,91.55L63.576,389.853
				c-4.649,8.051,1.162,18.116,10.459,18.116h344.451c9.297,0,15.107-10.064,10.459-18.116L256.719,91.55
				C252.071,83.499,240.449,83.499,235.801,91.55z"/>
			<path style="fill-rule:evenodd;clip-rule:evenodd;fill:#E6E9ED;" d="M246.26,317.18L246.26,317.18c-3,0-5.566-2.563-6.087-6.08
				L224.83,207.601c-1.932-13.031,6.489-24.98,17.604-24.98h7.651c11.115,0,19.536,11.948,17.604,24.98L252.347,311.1
				C251.826,314.616,249.26,317.18,246.26,317.18z"/>
			<path style="fill-rule:evenodd;clip-rule:evenodd;fill:#E6E9ED;" d="M260.299,356.117c0-7.732-6.307-14.039-14.039-14.039
				c-7.732,0-14.038,6.306-14.038,14.039c0,7.732,6.306,14.038,14.038,14.038C253.992,370.156,260.299,363.849,260.299,356.117z"/>
		</g>
	</g>
</g>
</svg>
