<?xml version="1.0" encoding="iso-8859-1"?>
<!-- Generator: Adobe Illustrator 25.2.0, SVG Export Plug-In . SVG Version: 6.00 Build 0)  -->
<svg version="1.1" xmlns="http://www.w3.org/2000/svg" xmlns:xlink="http://www.w3.org/1999/xlink" x="0px" y="0px"
	 viewBox="0 0 492 492" style="enable-background:new 0 0 492 492;" xml:space="preserve">
<g id="Master_Layer_2">
</g>
<g id="Layer_1">
	<g>
		<g>
			<path style="fill-rule:evenodd;clip-rule:evenodd;fill:#FF8900;" d="M235.025,110.935
				c71.134,32.149,124.995,89.977,150.22,163.626c10.085,29.447,15.04,60.407,15.04,91.531v64.968H234.98L235.025,110.935z"/>
			<path style="fill-rule:evenodd;clip-rule:evenodd;fill:#FFA631;" d="M235.025,174.471
				c-16.738-11.471-34.914-20.994-54.204-28.247c-0.733-0.275-1.424-0.644-2.056-1.098c-0.632-0.454-1.204-0.986-1.707-1.593
				c-0.121-0.146-0.24-0.295-0.352-0.448L117.97,62.42l-1.39,82.897c0.201,15.053-2.792,29.974-8.8,43.776
				C85.32,240.67,93.808,411.872,93.808,411.872h43.62c12.486,0,23.159-9.01,25.213-21.328
				c2.544-15.243,10.777-36.113,34.763-53.844c13.442-9.935,21.645-21.036,26.553-31.654c3.012,9.399,4.806,19.998,4.501,31.765
				c-0.892,34.597-28.367,85.545-21.722,94.248l139.344,0v-46.068C346.08,297.569,302.084,220.415,235.025,174.471z"/>
			<path style="fill-rule:evenodd;clip-rule:evenodd;fill:#FF8900;" d="M176.342,223.249v14.193
				c0,16.418-13.311,29.729-29.729,29.729l-2.847,0v-14.193c0-16.418,13.311-29.729,29.729-29.729L176.342,223.249z"/>
		</g>
	</g>
</g>
</svg>
