<?xml version="1.0" encoding="iso-8859-1"?>
<!-- Generator: Adobe Illustrator 25.2.0, SVG Export Plug-In . SVG Version: 6.00 Build 0)  -->
<svg version="1.1" xmlns="http://www.w3.org/2000/svg" xmlns:xlink="http://www.w3.org/1999/xlink" x="0px" y="0px"
	 viewBox="0 0 492 492" style="enable-background:new 0 0 492 492;" xml:space="preserve">
<g id="Master_Layer_2">
</g>
<g id="Layer_1">
	<g>
		<g>
			<g>
				<path style="fill-rule:evenodd;clip-rule:evenodd;fill:#CCD1D9;" d="M175.571,399.158h-31.898
					c-25.325,0-45.929-20.604-45.929-45.929v-81.814c0-1.344-1.003-2.503-2.334-2.695l-16.493-2.38
					c-4.713-0.679-9.026-3.035-12.144-6.635c-3.117-3.598-4.834-8.203-4.834-12.965c0-4.764,1.717-9.368,4.836-12.967
					c3.113-3.6,7.428-5.958,12.146-6.634l16.488-2.379c1.33-0.192,2.333-1.35,2.333-2.695l0-81.814
					c0-25.326,20.604-45.929,45.929-45.929h31.898c3.181,0,5.76,2.579,5.76,5.76c0,3.181-2.579,5.76-5.76,5.76h-31.898
					c-18.973,0-34.409,15.436-34.409,34.409v81.814c0,7.032-5.249,13.092-12.208,14.096l-16.493,2.38
					c-1.975,0.283-3.776,1.267-5.077,2.772c-1.308,1.509-2.026,3.434-2.026,5.426c0,4.09,3.053,7.615,7.102,8.198l16.494,2.38
					c6.96,1.004,12.208,7.064,12.208,14.096v81.814c0,18.973,15.436,34.409,34.409,34.409l31.898,0.001
					c3.181,0,5.76,2.579,5.76,5.76C181.331,396.579,178.752,399.158,175.571,399.158z"/>
			</g>
			<g>
				<path style="fill-rule:evenodd;clip-rule:evenodd;fill:#CCD1D9;" d="M348.847,399.158H316.95c-3.181,0-5.76-2.579-5.76-5.76
					c0-3.181,2.579-5.76,5.76-5.76h31.897c18.973,0,34.409-15.436,34.409-34.409v-81.814c0-7.032,5.248-13.092,12.208-14.096
					l16.493-2.38c4.05-0.584,7.103-4.108,7.103-8.198c0-1.992-0.718-3.917-2.021-5.422c-1.305-1.509-3.107-2.493-5.077-2.776
					l-16.498-2.38c-6.96-1.004-12.208-7.064-12.208-14.096v-81.815c0-18.973-15.436-34.409-34.409-34.409H316.95
					c-3.181,0-5.76-2.579-5.76-5.76c0-3.181,2.579-5.76,5.76-5.76h31.897c25.325,0,45.929,20.604,45.929,45.929v81.814
					c0,1.344,1.003,2.503,2.333,2.695l16.493,2.38c4.713,0.676,9.028,3.034,12.145,6.639c3.115,3.593,4.832,8.198,4.832,12.962
					c0,4.762-1.716,9.367-4.834,12.965c-3.118,3.599-7.431,5.956-12.145,6.635l-16.492,2.38c-1.33,0.192-2.333,1.35-2.333,2.695
					v81.814C394.776,378.554,374.173,399.158,348.847,399.158z"/>
			</g>
			<g>
				<path style="fill-rule:evenodd;clip-rule:evenodd;fill:#656D78;" d="M279.578,254.795c-2.897,0-5.658-1.678-6.902-4.499
					c-1.68-3.809,0.046-8.259,3.855-9.939l3.828-1.688c5.703-2.645,10.506-6.848,13.895-12.16c3.357-5.257,5.13-11.348,5.13-17.619
					c0-4.164,3.375-7.539,7.539-7.539c4.164,0,7.539,3.375,7.539,7.539c0,9.153-2.593,18.05-7.499,25.731
					c-4.952,7.764-11.987,13.908-20.342,17.764c-0.039,0.018-0.078,0.035-0.117,0.053l-3.889,1.715
					C281.627,254.589,280.594,254.795,279.578,254.795z"/>
				<path style="fill-rule:evenodd;clip-rule:evenodd;fill:#656D78;" d="M212.968,254.736c-0.979,0-1.975-0.192-2.933-0.598
					l-3.914-1.655c-0.075-0.031-0.149-0.064-0.222-0.098c-8.355-3.855-15.39-9.999-20.344-17.768
					c-4.903-7.676-7.496-16.574-7.496-25.727c0-4.163,3.375-7.539,7.539-7.539c4.163,0,7.539,3.375,7.539,7.539
					c0,6.272,1.773,12.363,5.128,17.615c3.381,5.301,8.167,9.495,13.848,12.141l3.796,1.605c3.835,1.622,5.628,6.045,4.006,9.88
					C218.698,253.008,215.906,254.736,212.968,254.736z"/>
				<path style="fill-rule:evenodd;clip-rule:evenodd;fill:#656D78;" d="M239.061,197.819c-0.375,0-0.753-0.028-1.135-0.085
					c-4.117-0.621-6.95-4.463-6.329-8.579c0.08-0.527,0.12-1.072,0.12-1.62c0-6.978-5.952-15.237-10.981-15.237
					c-4.163,0-7.539-3.375-7.539-7.539c0-4.164,3.375-7.538,7.538-7.538c7.057,0,14.019,3.839,19.1,10.533
					c4.422,5.826,6.959,13.036,6.959,19.781c0,1.299-0.097,2.601-0.289,3.87C245.941,195.14,242.727,197.819,239.061,197.819z"/>
				<path style="fill-rule:evenodd;clip-rule:evenodd;fill:#656D78;" d="M253.459,197.819c-3.666,0-6.88-2.678-7.445-6.413
					c-0.192-1.269-0.289-2.571-0.289-3.872c0-6.745,2.536-13.955,6.958-19.781c5.081-6.694,12.043-10.533,19.1-10.533
					c4.164,0,7.539,3.375,7.539,7.539c0,4.164-3.375,7.539-7.539,7.539c-5.029,0-10.981,8.259-10.981,15.237
					c0,0.549,0.04,1.093,0.12,1.619c0.622,4.117-2.211,7.958-6.328,8.58C254.214,197.791,253.834,197.819,253.459,197.819z"/>
				<g>
					<path style="fill-rule:evenodd;clip-rule:evenodd;fill:#656D78;" d="M212.942,282.597c2.896,0,5.658,1.678,6.901,4.499
						c1.68,3.809-0.046,8.259-3.855,9.939l-3.828,1.688c-5.703,2.645-10.506,6.848-13.895,12.16
						c-3.357,5.257-5.13,11.348-5.13,17.619c0,4.164-3.375,7.539-7.539,7.539c-4.164,0-7.539-3.375-7.539-7.539
						c0-9.152,2.593-18.05,7.499-25.731c4.952-7.764,11.987-13.908,20.341-17.764c0.039-0.018,0.078-0.035,0.117-0.053l3.889-1.715
						C210.893,282.803,211.926,282.597,212.942,282.597z"/>
					<path style="fill-rule:evenodd;clip-rule:evenodd;fill:#656D78;" d="M279.552,282.656c0.979,0,1.975,0.192,2.933,0.598
						l3.914,1.655c0.075,0.031,0.149,0.064,0.222,0.098c8.354,3.855,15.39,9.999,20.344,17.767
						c4.903,7.677,7.496,16.574,7.496,25.727c0,4.163-3.375,7.539-7.539,7.539c-4.163,0-7.539-3.375-7.539-7.539
						c0-6.272-1.773-12.363-5.128-17.615c-3.381-5.301-8.167-9.495-13.848-12.141l-3.796-1.606c-3.835-1.622-5.628-6.045-4.006-9.88
						C273.822,284.385,276.615,282.656,279.552,282.656z"/>
				</g>
				<path style="fill-rule:evenodd;clip-rule:evenodd;fill:#FE646F;" d="M252.828,332.214c-2.098,1.423-4.288,2.77-6.568,4.046
					c-2.281-1.275-4.47-2.623-6.568-4.046c-23.624-15.975-35.629-40.733-32.422-65.472c0.682-5.255,2.051-10.51,4.14-15.68
					l1.561-3.867l15.089-37.334h36.399l15.111,37.394l1.539,3.807c2.089,5.17,3.458,10.425,4.14,15.68
					C288.457,291.481,276.452,316.239,252.828,332.214z"/>
				<path style="fill-rule:evenodd;clip-rule:evenodd;fill:#EF5B6D;" d="M264.139,194.856v15.005H246.26h-17.879v-15.005
					c0-8.192,8.004-14.829,17.879-14.829c4.938,0,9.408,1.658,12.643,4.341C262.138,187.054,264.139,190.76,264.139,194.856z"/>
				<path style="fill-rule:evenodd;clip-rule:evenodd;fill:#656D78;" d="M252.856,235.457v96.163c0,0.201-0.009,0.399-0.028,0.594
					c-2.098,1.423-4.288,2.77-6.568,4.046c-2.281-1.275-4.47-2.623-6.568-4.046c-0.019-0.195-0.028-0.393-0.028-0.594v-96.163
					c0-3.644,2.952-6.596,6.596-6.596C249.904,228.861,252.856,231.814,252.856,235.457z"/>
			</g>
		</g>
	</g>
</g>
</svg>
