<?xml version="1.0" encoding="iso-8859-1"?>
<!-- Generator: Adobe Illustrator 25.2.0, SVG Export Plug-In . SVG Version: 6.00 Build 0)  -->
<svg version="1.1" xmlns="http://www.w3.org/2000/svg" xmlns:xlink="http://www.w3.org/1999/xlink" x="0px" y="0px"
	 viewBox="0 0 492 492" style="enable-background:new 0 0 492 492;" xml:space="preserve">
<g id="Master_Layer_2">
</g>
<g id="Layer_1">
	<g>
		<g>
			<g>
				<path style="fill-rule:evenodd;clip-rule:evenodd;fill:#CCD1D9;" d="M67.7,144.928c-3.181,0-5.76-2.579-5.76-5.76V68.18
					c0-3.181,2.579-5.76,5.76-5.76h69.73c3.181,0,5.76,2.579,5.76,5.76c0,3.181-2.579,5.76-5.76,5.76H73.46v65.228
					C73.46,142.349,70.881,144.928,67.7,144.928z"/>
			</g>
			<g>
				<path style="fill-rule:evenodd;clip-rule:evenodd;fill:#CCD1D9;" d="M424.82,144.928c-3.181,0-5.76-2.579-5.76-5.76V73.94
					h-63.97c-3.181,0-5.76-2.579-5.76-5.76c0-3.181,2.579-5.76,5.76-5.76h69.73c3.181,0,5.76,2.579,5.76,5.76v70.988
					C430.58,142.349,428.001,144.928,424.82,144.928z"/>
			</g>
			<g>
				<path style="fill-rule:evenodd;clip-rule:evenodd;fill:#CCD1D9;" d="M137.43,431.06H67.7c-3.181,0-5.76-2.579-5.76-5.76v-70.988
					c0-3.181,2.579-5.76,5.76-5.76c3.181,0,5.76,2.579,5.76,5.76v65.228h63.97c3.181,0,5.76,2.579,5.76,5.76
					S140.611,431.06,137.43,431.06z"/>
			</g>
			<g>
				<path style="fill-rule:evenodd;clip-rule:evenodd;fill:#CCD1D9;" d="M424.82,431.06h-69.73c-3.181,0-5.76-2.579-5.76-5.76
					s2.579-5.76,5.76-5.76h63.97v-65.228c0-3.181,2.579-5.76,5.76-5.76s5.76,2.579,5.76,5.76V425.3
					C430.58,428.481,428.001,431.06,424.82,431.06z"/>
			</g>
			<g>
				<path style="fill-rule:evenodd;clip-rule:evenodd;fill:#5D9CEC;" d="M348.26,210.74c-3.181,0-5.76-2.579-5.76-5.76v-53.462
					h-51.391v53.462c0,3.181-2.579,5.76-5.76,5.76s-5.76-2.579-5.76-5.76l0-59.222c0-3.181,2.579-5.76,5.76-5.76h62.911
					c3.181,0,5.76,2.579,5.76,5.76v59.222C354.02,208.161,351.441,210.74,348.26,210.74z"/>
			</g>
			<g>
				<path style="fill-rule:evenodd;clip-rule:evenodd;fill:#5D9CEC;" d="M144.26,210.828c-3.181,0-5.76-2.579-5.76-5.76v-59.31
					c0-3.181,2.579-5.76,5.76-5.76h62.91c3.181,0,5.76,2.579,5.76,5.76s-2.579,5.76-5.76,5.76l-57.15,0v53.55
					C150.02,208.249,147.441,210.828,144.26,210.828z"/>
			</g>
			<g>
				<path style="fill-rule:evenodd;clip-rule:evenodd;fill:#5D9CEC;" d="M348.26,301.566h-62.91c-3.181,0-5.76-2.579-5.76-5.76
					c0-3.181,2.579-5.76,5.76-5.76h57.15v-57.15c0-3.181,2.579-5.76,5.76-5.76c3.181,0,5.76,2.579,5.76,5.76v62.91
					C354.02,298.987,351.441,301.566,348.26,301.566z"/>
			</g>
			<g>
				<path style="fill-rule:evenodd;clip-rule:evenodd;fill:#5D9CEC;" d="M348.26,353.482c-3.181,0-5.76-2.579-5.76-5.76v-23.15
					h-57.15c-3.181,0-5.76-2.579-5.76-5.76c0-3.181,2.579-5.76,5.76-5.76h62.91c3.181,0,5.76,2.579,5.76,5.76v28.91
					C354.02,350.903,351.441,353.482,348.26,353.482z"/>
			</g>
			<g>
				<path style="fill-rule:evenodd;clip-rule:evenodd;fill:#5D9CEC;" d="M144.26,270.008c-3.181,0-5.76-2.579-5.76-5.76V232.82
					c0-3.181,2.579-5.76,5.76-5.76c3.181,0,5.76,2.579,5.76,5.76v31.428C150.02,267.429,147.441,270.008,144.26,270.008z"/>
			</g>
			<g>
				<path style="fill-rule:evenodd;clip-rule:evenodd;fill:#5D9CEC;" d="M207.17,353.482h-62.91c-3.181,0-5.76-2.579-5.76-5.76
					v-62.91c0-3.181,2.579-5.76,5.76-5.76h62.91c3.181,0,5.76,2.579,5.76,5.76v62.91C212.93,350.903,210.352,353.482,207.17,353.482
					L207.17,353.482z M150.02,341.962h51.39v-51.39h-51.39V341.962z"/>
			</g>
			<g>
				<path style="fill-rule:evenodd;clip-rule:evenodd;fill:#5D9CEC;" d="M229.566,210.74c-3.181,0-5.76-2.579-5.76-5.76v-59.222
					c0-3.181,2.579-5.76,5.76-5.76c3.181,0,5.76,2.579,5.76,5.76v59.222C235.326,208.161,232.747,210.74,229.566,210.74z"/>
			</g>
			<g>
				<path style="fill-rule:evenodd;clip-rule:evenodd;fill:#5D9CEC;" d="M262.954,353.482h-33.389c-3.181,0-5.76-2.579-5.76-5.76
					V232.82c0-3.181,2.579-5.76,5.76-5.76c3.181,0,5.76,2.579,5.76,5.76v109.142h27.629c3.181,0,5.76,2.579,5.76,5.76
					S266.135,353.482,262.954,353.482z"/>
			</g>
			<g>
				<path style="fill-rule:evenodd;clip-rule:evenodd;fill:#5D9CEC;" d="M262.954,210.74c-3.181,0-5.76-2.579-5.76-5.76v-59.222
					c0-3.181,2.579-5.76,5.76-5.76c3.181,0,5.76,2.579,5.76,5.76v59.222C268.715,208.161,266.135,210.74,262.954,210.74z"/>
			</g>
			<g>
				<path style="fill-rule:evenodd;clip-rule:evenodd;fill:#5D9CEC;" d="M326.475,280.288c-3.181,0-5.76-2.579-5.76-5.76V259.08
					h-57.761c-3.181,0-5.76-2.579-5.76-5.76c0-3.181,2.579-5.76,5.76-5.76h63.521c3.181,0,5.76,2.579,5.76,5.76v21.208
					C332.236,277.709,329.657,280.288,326.475,280.288z"/>
			</g>
			<g>
				<path style="fill-rule:evenodd;clip-rule:evenodd;fill:#5D9CEC;" d="M262.955,353.482c-3.181,0-5.76-2.579-5.76-5.76v-73.194
					c0-3.181,2.579-5.76,5.76-5.76c3.181,0,5.76,2.579,5.76,5.76v73.194C268.715,350.903,266.136,353.482,262.955,353.482z"/>
			</g>
			<g>
				<path style="fill-rule:evenodd;clip-rule:evenodd;fill:#5D9CEC;" d="M207.171,268.177H168.63c-3.181,0-5.76-2.579-5.76-5.76
					c0-3.181,2.579-5.76,5.76-5.76h32.782V232.82c0-3.181,2.579-5.76,5.76-5.76c3.181,0,5.76,2.579,5.76,5.76v29.597
					C212.931,265.598,210.352,268.177,207.171,268.177z"/>
			</g>
			<g>
				<path style="fill-rule:evenodd;clip-rule:evenodd;fill:#5D9CEC;" d="M207.171,210.74c-3.181,0-5.76-2.579-5.76-5.76v-29.234
					h-35.367c-3.181,0-5.76-2.579-5.76-5.76c0-3.181,2.579-5.76,5.76-5.76h41.126c3.181,0,5.76,2.579,5.76,5.76l0,34.994
					C212.931,208.161,210.352,210.74,207.171,210.74z"/>
			</g>
			<g>
				<path style="fill-rule:evenodd;clip-rule:evenodd;fill:#5D9CEC;" d="M166.045,210.74c-3.181,0-5.76-2.579-5.76-5.76v-9.672
					c0-3.181,2.579-5.76,5.76-5.76s5.76,2.579,5.76,5.76v9.672C171.805,208.161,169.226,210.74,166.045,210.74z"/>
			</g>
			<rect x="94.4" y="204.5" style="fill-rule:evenodd;clip-rule:evenodd;fill:#CCD1D9;" width="303.721" height="28.8"/>
		</g>
	</g>
</g>
</svg>
