<?xml version="1.0" encoding="iso-8859-1"?>
<!-- Generator: Adobe Illustrator 25.2.0, SVG Export Plug-In . SVG Version: 6.00 Build 0)  -->
<svg version="1.1" xmlns="http://www.w3.org/2000/svg" xmlns:xlink="http://www.w3.org/1999/xlink" x="0px" y="0px"
	 viewBox="0 0 492 492" style="enable-background:new 0 0 492 492;" xml:space="preserve">
<g id="Master_Layer_2">
</g>
<g id="Layer_1">
	<g>
		<g>
			<path style="fill-rule:evenodd;clip-rule:evenodd;fill:#E6E9ED;" d="M246.26,431.06L246.26,431.06L246.26,431.06
				C144.474,359.71,88.584,269.107,88.584,175.451v-42.884L246.26,62.42l157.676,70.147v42.884
				C403.936,269.107,348.046,359.71,246.26,431.06z"/>
			
				<ellipse transform="matrix(0.9732 -0.2298 0.2298 0.9732 -44.4664 62.5233)" style="fill-rule:evenodd;clip-rule:evenodd;fill:#82D65F;" cx="246.26" cy="222.213" rx="77.791" ry="77.791"/>
			<g>
				<path style="fill-rule:evenodd;clip-rule:evenodd;fill:#E6E9ED;" d="M232.109,256.295c-1.577,0-3.089-0.626-4.204-1.741
					l-23.848-23.848c-2.322-2.322-2.322-6.087,0-8.409c2.322-2.322,6.086-2.322,8.409,0l19.644,19.644l46.4-46.4
					c2.322-2.322,6.086-2.322,8.409,0c2.322,2.322,2.322,6.086,0,8.409l-50.605,50.605
					C235.198,255.669,233.686,256.295,232.109,256.295z"/>
			</g>
		</g>
	</g>
</g>
</svg>
