<?xml version="1.0" encoding="iso-8859-1"?>
<!-- Generator: Adobe Illustrator 25.2.0, SVG Export Plug-In . SVG Version: 6.00 Build 0)  -->
<svg version="1.1" xmlns="http://www.w3.org/2000/svg" xmlns:xlink="http://www.w3.org/1999/xlink" x="0px" y="0px"
	 viewBox="0 0 492 492" style="enable-background:new 0 0 492 492;" xml:space="preserve">
<g id="Master_Layer_2">
</g>
<g id="Layer_1">
	<g>
		<g>
			<g>
				<path style="fill-rule:evenodd;clip-rule:evenodd;fill:#FFD400;" d="M283.575,152.787c2.801-10.519,11.233-58.106-55.907-85.046
					c0,0,23.25,26.392-11.883,59.148c-11.486-20.481-27.123-27.906-27.45-28.057c2.244,2.754,3.798,7.689,4.88,13.352
					c3.27,17.115-0.212,34.792-9.355,49.627c-1.228,1.993-2.366,4.027-3.419,6.08c-11.584,17.303-14.51,40.616-9.159,53.89h154.616
					c-0.047-10.162-2.102-24.743-7.871-38.235c-6.853-16.023-7.686-34.02-1.924-50.465c1.907-5.445,4.175-10.098,6.803-12.488
					C322.39,120.79,290.472,132.948,283.575,152.787z"/>
			</g>
			<g>
				<rect x="61.941" y="221.019" style="fill-rule:evenodd;clip-rule:evenodd;fill:#E6E9ED;" width="368.639" height="204.719"/>
			</g>
			<g>
				<path style="fill-rule:evenodd;clip-rule:evenodd;" d="M182.477,105.365c-0.015,0-0.035-0.008-0.046-0.019
					c-0.024-0.023-0.025-0.061-0.002-0.085c0.02-0.021,0.05-0.024,0.073-0.01c0.02,0.01,0.035,0.03,0.035,0.054
					C182.536,105.338,182.51,105.365,182.477,105.365z"/>
			</g>
			<g>
				<rect x="313.695" y="221.009" style="fill-rule:evenodd;clip-rule:evenodd;fill:#C86D36;" width="116.884" height="45.191"/>
			</g>
			<g>
				<rect x="190.725" y="221.009" style="fill-rule:evenodd;clip-rule:evenodd;fill:#A85120;" width="111.07" height="45.191"/>
			</g>
			<g>
				<rect x="61.94" y="221.009" style="fill-rule:evenodd;clip-rule:evenodd;fill:#C86D36;" width="116.884" height="45.191"/>
			</g>
			<g>
				<rect x="61.94" y="380.387" style="fill-rule:evenodd;clip-rule:evenodd;fill:#C86D36;" width="55.399" height="45.269"/>
			</g>
			<g>
				<polygon style="fill-rule:evenodd;clip-rule:evenodd;fill:#A85120;" points="240.31,380.387 240.31,425.656 129.24,425.656 
					129.24,380.387 184.77,380.387 184.775,380.387 184.78,380.387 				"/>
			</g>
			<g>
				<polygon style="fill-rule:evenodd;clip-rule:evenodd;fill:#C86D36;" points="363.28,380.387 363.28,425.656 252.21,425.656 
					252.21,380.387 307.74,380.387 307.745,380.387 307.75,380.387 				"/>
			</g>
			<g>
				<rect x="375.181" y="380.387" style="fill-rule:evenodd;clip-rule:evenodd;fill:#A85120;" width="55.399" height="45.269"/>
			</g>
			<g>
				<rect x="313.695" y="329.245" style="fill-rule:evenodd;clip-rule:evenodd;fill:#A85120;" width="116.884" height="39.242"/>
			</g>
			<g>
				<rect x="61.94" y="329.245" style="fill-rule:evenodd;clip-rule:evenodd;fill:#A85120;" width="116.884" height="39.242"/>
			</g>
			<g>
				<rect x="61.94" y="278.1" style="fill-rule:evenodd;clip-rule:evenodd;fill:#A85120;" width="55.399" height="39.244"/>
			</g>
			<g>
				<rect x="375.181" y="278.1" style="fill-rule:evenodd;clip-rule:evenodd;fill:#C86D36;" width="55.399" height="39.244"/>
			</g>
			<g>
				<rect x="190.725" y="329.245" style="fill-rule:evenodd;clip-rule:evenodd;fill:#C86D36;" width="111.07" height="39.242"/>
			</g>
			<g>
				<rect x="252.21" y="278.1" style="fill-rule:evenodd;clip-rule:evenodd;fill:#A85120;" width="111.07" height="39.244"/>
			</g>
			<g>
				<rect x="129.24" y="278.1" style="fill-rule:evenodd;clip-rule:evenodd;fill:#C86D36;" width="111.07" height="39.244"/>
			</g>
		</g>
	</g>
</g>
</svg>
