<?xml version="1.0" encoding="iso-8859-1"?>
<!-- Generator: Adobe Illustrator 25.2.0, SVG Export Plug-In . SVG Version: 6.00 Build 0)  -->
<svg version="1.1" xmlns="http://www.w3.org/2000/svg" xmlns:xlink="http://www.w3.org/1999/xlink" x="0px" y="0px"
	 viewBox="0 0 492 492" style="enable-background:new 0 0 492 492;" xml:space="preserve">
<g id="Master_Layer_2">
</g>
<g id="Layer_1">
	<g>
		<g>
			<polygon style="fill-rule:evenodd;clip-rule:evenodd;fill:#CCD1D9;" points="182.159,62.42 379.959,62.42 379.959,112.934 
				430.466,112.934 430.466,294.321 430.466,413.661 182.18,413.661 			"/>
			<polygon style="fill-rule:evenodd;clip-rule:evenodd;fill:#E6E9ED;" points="379.959,62.42 430.466,112.934 379.959,112.934 			
				"/>
			<path style="fill-rule:evenodd;clip-rule:evenodd;fill:#E6E9ED;" d="M182.159,190.864c66.325,0.005,120.09,53.772,120.09,120.098
				c0,43.518-23.149,81.633-57.803,102.699c-18.162,11.04-39.485,17.399-62.295,17.399c-66.328,0-120.098-53.77-120.098-120.098
				s53.77-120.098,120.098-120.098C182.155,190.864,182.157,190.864,182.159,190.864z"/>
			<path style="fill-rule:evenodd;clip-rule:evenodd;fill:#56AAFF;" d="M253.543,328.593c-3.284,0-5.946-2.662-5.946-5.946V312.6
				c0-3.284,2.662-5.946,5.946-5.946c3.284,0,5.946,2.662,5.946,5.946v10.047C259.489,325.931,256.827,328.593,253.543,328.593z"/>
			<path style="fill-rule:evenodd;clip-rule:evenodd;fill:#56AAFF;" d="M237.888,335.369c-3.284,0-5.946-2.662-5.946-5.946V312.6
				c0-3.284,2.662-5.946,5.946-5.946c3.284,0,5.946,2.662,5.946,5.946v16.823C243.834,332.707,241.173,335.369,237.888,335.369z"/>
			<path style="fill-rule:evenodd;clip-rule:evenodd;fill:#56AAFF;" d="M222.234,325.088c-3.284,0-5.946-2.662-5.946-5.946v-6.542
				c0-3.284,2.662-5.946,5.946-5.946c3.284,0,5.946,2.662,5.946,5.946v6.542C228.18,322.426,225.518,325.088,222.234,325.088z"/>
			<path style="fill-rule:evenodd;clip-rule:evenodd;fill:#55A7FA;" d="M262.889,316.443h-97.905c-3.284,0-5.946-2.662-5.946-5.946
				c0-3.284,2.662-5.946,5.946-5.946h97.905c3.284,0,5.946,2.662,5.946,5.946C268.835,313.781,266.173,316.443,262.889,316.443z"/>
			
				<ellipse transform="matrix(0.9871 -0.1602 0.1602 0.9871 -48.0132 25.8223)" style="fill-rule:evenodd;clip-rule:evenodd;fill:#56AAFF;" cx="136.157" cy="310.715" rx="31.817" ry="31.816"/>
			<path style="fill-rule:evenodd;clip-rule:evenodd;fill:#0478ED;" d="M148.301,310.715c0-6.689-5.455-12.144-12.144-12.144
				c-6.689,0-12.144,5.455-12.144,12.144c0,6.689,5.455,12.144,12.144,12.144C142.846,322.858,148.301,317.403,148.301,310.715z"/>
		</g>
	</g>
</g>
</svg>
