<?xml version="1.0" encoding="iso-8859-1"?>
<!-- Generator: Adobe Illustrator 25.2.0, SVG Export Plug-In . SVG Version: 6.00 Build 0)  -->
<svg version="1.1" xmlns="http://www.w3.org/2000/svg" xmlns:xlink="http://www.w3.org/1999/xlink" x="0px" y="0px"
	 viewBox="0 0 492 492" style="enable-background:new 0 0 492 492;" xml:space="preserve">
<g id="Master_Layer_2">
</g>
<g id="Layer_1">
	<g>
		<g>
			<path style="fill-rule:evenodd;clip-rule:evenodd;fill:#FCCE9F;" d="M220.904,343.776
				c-16.098,30.232-16.889,70.064-16.889,70.064H84.296c22.729-25.019,22.496-71.128,20.798-93.681
				c-0.611-8.107-4.885-15.492-11.603-20.072h0c-12.096-8.248-20.591-20.796-23.753-35.089
				C56.573,205.495,48.031,99.302,148.652,82.533c141.053-23.509,154.277,104.027,154.277,104.027l-14.105,18.53
				c-0.528,0.694-0.559,1.645-0.077,2.372l30.632,46.216c1.131,1.707,0.633,4.011-1.102,5.099l-21.224,13.297l9.687,20.205
				c0.31,0.646-0.038,1.416-0.728,1.609c-17.036,4.763-30.999,12.862-30.999,12.862l23.48,14.993
				c0.499,0.319,0.637,0.986,0.305,1.476l-8.948,13.211c9.221,34.845-6.703,31.918-14.337,28.837
				c-10.486-4.232-20.959-8.494-31.499-12.588l-23.007-8.938L220.904,343.776z"/>
			<path style="fill-rule:evenodd;clip-rule:evenodd;fill:#5D9CEC;" d="M355.788,341.568c-1.641,0-3.272-0.686-4.429-2.025
				c-2.114-2.445-1.845-6.14,0.599-8.254c5.177-4.476,8.146-10.966,8.146-17.804c0-6.903-3.016-13.432-8.273-17.912
				c-2.46-2.096-2.755-5.789-0.658-8.249c2.095-2.46,5.789-2.754,8.249-0.658c7.871,6.708,12.385,16.483,12.385,26.819
				c0,10.24-4.445,19.956-12.195,26.657C358.506,341.099,357.144,341.568,355.788,341.568z"/>
			<path style="fill-rule:evenodd;clip-rule:evenodd;fill:#5D9CEC;" d="M376.593,362.374c-1.569,0-3.134-0.627-4.287-1.867
				c-2.201-2.367-2.065-6.069,0.301-8.27c10.73-9.976,16.884-24.1,16.884-38.75c0-14.718-6.204-28.889-17.022-38.878
				c-2.374-2.192-2.522-5.895-0.329-8.269c2.193-2.374,5.895-2.521,8.269-0.329c6.485,5.988,11.593,13.095,15.183,21.123
				c3.717,8.313,5.602,17.179,5.602,26.354c0,9.135-1.869,17.966-5.555,26.249c-3.56,7.999-8.628,15.089-15.064,21.073
				C379.448,361.855,378.018,362.374,376.593,362.374z"/>
			<path style="fill-rule:evenodd;clip-rule:evenodd;fill:#5D9CEC;" d="M397.38,383.161c-1.546,0-3.088-0.608-4.238-1.815
				c-2.229-2.34-2.139-6.044,0.201-8.273c16.466-15.685,25.534-36.846,25.534-59.587c0-22.815-9.118-44.024-25.674-59.721
				c-2.345-2.223-2.444-5.927-0.22-8.272c2.224-2.345,5.927-2.444,8.272-0.22c9.165,8.689,16.376,18.935,21.433,30.455
				c5.236,11.926,7.892,24.631,7.892,37.759c0,13.09-2.64,25.759-7.847,37.656c-5.028,11.49-12.201,21.72-21.318,30.404
				C400.282,382.626,398.829,383.161,397.38,383.161z"/>
		</g>
	</g>
</g>
</svg>
