<?xml version="1.0" encoding="iso-8859-1"?>
<!-- Generator: Adobe Illustrator 25.2.0, SVG Export Plug-In . SVG Version: 6.00 Build 0)  -->
<svg version="1.1" xmlns="http://www.w3.org/2000/svg" xmlns:xlink="http://www.w3.org/1999/xlink" x="0px" y="0px"
	 viewBox="0 0 492 492" style="enable-background:new 0 0 492 492;" xml:space="preserve">
<g id="Master_Layer_2">
</g>
<g id="Layer_1">
	<g>
		<g>
			
				<ellipse transform="matrix(0.7071 -0.7071 0.7071 0.7071 -55.0486 226.8579)" style="fill-rule:evenodd;clip-rule:evenodd;fill:#90CAF9;" cx="246.317" cy="179.879" rx="117.458" ry="117.458"/>
			<g>
				<path style="fill-rule:evenodd;clip-rule:evenodd;fill:#56AAFF;" d="M246.318,297.337c-15.854,0-31.238-3.106-45.722-9.232
					c-13.988-5.916-26.548-14.385-37.334-25.17c-10.786-10.785-19.254-23.346-25.17-37.334c-6.126-14.484-9.232-29.867-9.232-45.722
					c0-15.854,3.106-31.238,9.232-45.722c5.916-13.988,14.385-26.549,25.17-37.334c10.786-10.786,23.346-19.254,37.334-25.17
					c14.484-6.126,29.867-9.232,45.722-9.232c15.855,0,31.237,3.106,45.722,9.232c13.988,5.916,26.548,14.385,37.334,25.17
					c10.785,10.785,19.254,23.346,25.17,37.334c6.126,14.484,9.232,29.867,9.232,45.722c0,15.855-3.106,31.238-9.232,45.722
					c-5.916,13.987-14.385,26.548-25.17,37.334c-10.785,10.785-23.346,19.254-37.334,25.17
					C277.555,294.23,262.172,297.337,246.318,297.337L246.318,297.337z M246.318,72.91c-58.983,0-106.969,47.986-106.969,106.969
					c0,58.983,47.986,106.969,106.969,106.969c58.983,0,106.969-47.986,106.969-106.969
					C353.286,120.896,305.301,72.91,246.318,72.91z"/>
			</g>
			<g>
				<path style="fill-rule:evenodd;clip-rule:evenodd;fill:#56AAFF;" d="M246.203,297.337c-16.757,0-32.181-12.744-43.432-35.884
					c-10.639-21.881-16.498-50.851-16.498-81.574c0-30.723,5.859-59.693,16.498-81.574c11.251-23.14,26.675-35.884,43.432-35.884
					c16.757,0,32.181,12.744,43.432,35.884c10.639,21.881,16.498,50.851,16.498,81.574c0,30.723-5.859,59.693-16.498,81.574
					C278.384,284.593,262.96,297.337,246.203,297.337L246.203,297.337z M246.203,73.4c-5.987,0-11.904,2.507-17.587,7.451
					c-5.923,5.152-11.296,12.639-15.971,22.254c-9.926,20.415-15.393,47.68-15.393,76.773s5.467,56.358,15.393,76.773
					c4.675,9.615,10.048,17.102,15.971,22.254c5.683,4.944,11.601,7.451,17.587,7.451c5.986,0,11.904-2.507,17.588-7.451
					c5.922-5.152,11.296-12.639,15.971-22.254c9.926-20.415,15.393-47.68,15.393-76.773c0-29.093-5.467-56.358-15.393-76.773
					c-4.675-9.615-10.048-17.102-15.971-22.254C258.107,75.907,252.19,73.4,246.203,73.4z"/>
			</g>
			<g>
				<path style="fill-rule:evenodd;clip-rule:evenodd;fill:#56AAFF;" d="M246.203,239.809c-30.723,0-59.693-5.859-81.574-16.498
					c-23.14-11.251-35.884-26.675-35.884-43.432c0-16.757,12.744-32.181,35.884-43.432c21.881-10.639,50.851-16.498,81.574-16.498
					s59.693,5.859,81.574,16.498c23.14,11.251,35.884,26.675,35.884,43.432c0,16.757-12.744,32.181-35.884,43.432
					C305.896,233.95,276.926,239.809,246.203,239.809L246.203,239.809z M246.203,130.928c-29.093,0-56.358,5.467-76.773,15.393
					c-9.615,4.675-17.102,10.048-22.255,15.971c-4.944,5.683-7.451,11.6-7.451,17.587c0,5.987,2.507,11.904,7.451,17.588
					c5.152,5.922,12.639,11.296,22.255,15.971c20.415,9.926,47.68,15.393,76.773,15.393c29.093,0,56.358-5.467,76.773-15.393
					c9.615-4.675,17.102-10.048,22.254-15.971c4.944-5.684,7.451-11.601,7.451-17.588c0-5.987-2.507-11.904-7.451-17.588
					c-5.152-5.922-12.639-11.296-22.254-15.971C302.561,136.395,275.296,130.928,246.203,130.928z"/>
			</g>
			<g>
				<path style="fill-rule:evenodd;clip-rule:evenodd;fill:#56AAFF;" d="M246.203,297.337c-3.032,0-5.49-2.458-5.49-5.49l0-223.937
					c0-3.032,2.458-5.49,5.49-5.49c3.032,0,5.49,2.458,5.49,5.49v223.937C251.693,294.879,249.235,297.337,246.203,297.337z"/>
			</g>
			<g>
				<path style="fill-rule:evenodd;clip-rule:evenodd;fill:#56AAFF;" d="M358.172,185.368H134.235c-3.032,0-5.49-2.458-5.49-5.49
					c0-3.032,2.458-5.49,5.49-5.49l223.937,0c3.032,0,5.49,2.458,5.49,5.49C363.661,182.911,361.204,185.368,358.172,185.368z"/>
			</g>
			<g>
				<path style="fill-rule:evenodd;clip-rule:evenodd;fill:#E6E9ED;" d="M353.865,227.246v29.281
					c0,63.949-38.161,125.815-107.662,174.533c-69.501-48.718-107.662-110.583-107.662-174.533l0-29.281l107.662-47.896
					L353.865,227.246z"/>
				<g>
					<path style="fill-rule:evenodd;clip-rule:evenodd;fill:#82D65F;" d="M326.799,244.828v11.699
						c0,14.346-2.301,28.627-6.868,42.726c-0.269-0.09-0.558-0.139-0.858-0.139l-70.164,0v-88.937L326.799,244.828z"/>
					<path style="fill-rule:evenodd;clip-rule:evenodd;fill:#82D65F;" d="M248.91,304.528h69.203
						c-3.786,10.376-8.808,20.649-15.052,30.768c-8.057,13.062-18.173,25.849-30.065,38.007
						c-7.331,7.497-15.39,14.805-24.087,21.852L248.91,304.528L248.91,304.528z"/>
					<path style="fill-rule:evenodd;clip-rule:evenodd;fill:#82D65F;" d="M243.497,304.528v90.628
						c-8.697-7.047-16.755-14.355-24.087-21.852c-11.892-12.158-22.008-24.944-30.065-38.007
						c-6.244-10.119-11.266-20.392-15.052-30.768H243.497z"/>
					<path style="fill-rule:evenodd;clip-rule:evenodd;fill:#82D65F;" d="M243.497,210.178v88.937h-70.164
						c-0.3,0-0.589,0.049-0.857,0.139c-4.567-14.1-6.868-28.38-6.868-42.726v-11.699L243.497,210.178z"/>
				</g>
			</g>
		</g>
	</g>
</g>
</svg>
