<?xml version="1.0" encoding="iso-8859-1"?>
<!-- Generator: Adobe Illustrator 25.2.0, SVG Export Plug-In . SVG Version: 6.00 Build 0)  -->
<svg version="1.1" xmlns="http://www.w3.org/2000/svg" xmlns:xlink="http://www.w3.org/1999/xlink" x="0px" y="0px"
	 viewBox="0 0 492 492" style="enable-background:new 0 0 492 492;" xml:space="preserve">
<g id="Master_Layer_2">
</g>
<g id="Layer_1">
	<g>
		<g>
			
				<ellipse transform="matrix(0.7071 -0.7071 0.7071 0.7071 -102.3435 246.4007)" style="fill-rule:evenodd;clip-rule:evenodd;fill:#FE646F;" cx="246.26" cy="246.74" rx="184.32" ry="184.32"/>
			<path style="fill-rule:evenodd;clip-rule:evenodd;fill:#E6E9ED;" d="M246.26,302.352L246.26,302.352
				c-4.089,0-7.588-3.495-8.299-8.289L217.045,152.96c-2.633-17.766,8.846-34.055,24-34.055h10.43c15.154,0,26.634,16.289,24,34.055
				l-20.916,141.102C253.848,298.857,250.349,302.352,246.26,302.352z"/>
			<path style="fill-rule:evenodd;clip-rule:evenodd;fill:#E6E9ED;" d="M265.399,355.435c0-10.541-8.597-19.139-19.139-19.139
				c-10.541,0-19.139,8.598-19.139,19.139c0,10.542,8.597,19.139,19.139,19.139C256.802,374.574,265.399,365.977,265.399,355.435z"
				/>
		</g>
	</g>
</g>
</svg>
