<?xml version="1.0" encoding="iso-8859-1"?>
<!-- Generator: Adobe Illustrator 25.2.0, SVG Export Plug-In . SVG Version: 6.00 Build 0)  -->
<svg version="1.1" xmlns="http://www.w3.org/2000/svg" xmlns:xlink="http://www.w3.org/1999/xlink" x="0px" y="0px"
	 viewBox="0 0 492 492" style="enable-background:new 0 0 492 492;" xml:space="preserve">
<g id="Master_Layer_2">
</g>
<g id="Layer_1">
	<g>
		<g>
			<polygon style="fill-rule:evenodd;clip-rule:evenodd;fill:#CCD1D9;" points="121.316,177.372 121.316,67.375 153.935,67.375 
				153.935,147.685 			"/>
			<polygon style="fill-rule:evenodd;clip-rule:evenodd;fill:#E6E9ED;" points="408.574,214.781 408.574,427.963 83.946,427.963 
				83.946,214.781 246.26,83.963 			"/>
			<polygon style="fill-rule:evenodd;clip-rule:evenodd;fill:#FE646F;" points="61.94,214.76 61.94,249.772 246.26,100.53 
				430.58,249.772 430.58,214.76 430.58,214.76 246.26,65.517 			"/>
			<path style="fill-rule:evenodd;clip-rule:evenodd;fill:#CCD1D9;" d="M291.079,284.496c-2.583,0-4.677-2.094-4.677-4.677v-21.598
				c0-10.688-4.163-20.738-11.723-28.298c-7.56-7.56-17.61-11.723-28.298-11.723c-22.068,0-40.021,17.954-40.021,40.022v21.598
				c0,2.583-2.094,4.677-4.677,4.677s-4.677-2.094-4.677-4.677v-21.598c0-13.188,5.136-25.587,14.462-34.913
				c9.326-9.326,21.725-14.462,34.913-14.462c13.187,0,25.586,5.136,34.913,14.463c9.326,9.327,14.463,21.726,14.463,34.912v21.598
				C295.756,282.402,293.663,284.496,291.079,284.496z"/>
			<rect x="184.703" y="276.507" style="fill-rule:evenodd;clip-rule:evenodd;fill:#FFA631;" width="123.356" height="89.397"/>
			<path style="fill-rule:evenodd;clip-rule:evenodd;fill:#FF8900;" d="M255.155,314.879c0-4.833-3.941-8.773-8.774-8.773
				c-4.832,0-8.774,3.941-8.774,8.773c0,4.832,3.941,8.774,8.774,8.774C251.213,323.653,255.155,319.711,255.155,314.879z"/>
			<path style="fill-rule:evenodd;clip-rule:evenodd;fill:#E6E9ED;" d="M246.381,328.329c-7.416,0-13.45-6.034-13.45-13.45
				c0-7.416,6.034-13.45,13.45-13.45c7.417,0,13.45,6.034,13.45,13.45C259.831,322.295,253.797,328.329,246.381,328.329
				L246.381,328.329L246.381,328.329z M246.381,310.782c-2.259,0-4.097,1.838-4.097,4.097c0,2.259,1.838,4.097,4.097,4.097
				c2.259,0,4.097-1.838,4.097-4.097C250.478,312.62,248.64,310.782,246.381,310.782z"/>
			<path style="fill-rule:evenodd;clip-rule:evenodd;fill:#E6E9ED;" d="M246.381,343.106c-2.583,0-4.677-2.094-4.677-4.677v-14.545
				c0-2.583,2.094-4.676,4.677-4.676c2.583,0,4.677,2.094,4.677,4.676v14.545C251.058,341.012,248.964,343.106,246.381,343.106z"/>
		</g>
	</g>
</g>
</svg>
