<?xml version="1.0" encoding="iso-8859-1"?>
<!-- Generator: Adobe Illustrator 25.2.0, SVG Export Plug-In . SVG Version: 6.00 Build 0)  -->
<svg version="1.1" xmlns="http://www.w3.org/2000/svg" xmlns:xlink="http://www.w3.org/1999/xlink" x="0px" y="0px"
	 viewBox="0 0 492 492" style="enable-background:new 0 0 492 492;" xml:space="preserve">
<g id="Master_Layer_2">
</g>
<g id="Layer_1">
	<g>
		<g>
			<path style="fill-rule:evenodd;clip-rule:evenodd;fill:#5D9CEC;" d="M430.579,183.608H252.783v-51.326
				c0-3.194-2.589-5.783-5.783-5.783s-5.783,2.589-5.783,5.783v228.915c0,3.194,2.589,5.783,5.783,5.783s5.783-2.589,5.783-5.783
				v-51.325h177.796V183.608z"/>
			<g>
				<path style="fill-rule:evenodd;clip-rule:evenodd;fill:#FE646F;" d="M223.386,312.764h-0.12c-3.194,0-5.783-2.589-5.783-5.783
					c0-3.194,2.589-5.783,5.783-5.783l0.12,0c3.194,0,5.783,2.589,5.783,5.783C229.169,310.174,226.58,312.764,223.386,312.764z"/>
				<path style="fill-rule:evenodd;clip-rule:evenodd;fill:#FE646F;" d="M197.576,312.764h-0.257c-3.194,0-5.783-2.589-5.783-5.783
					c0-3.194,2.589-5.783,5.783-5.783l0.257,0c3.194,0,5.783,2.589,5.783,5.783C203.359,310.174,200.769,312.764,197.576,312.764
					L197.576,312.764z M171.63,312.764h-0.257c-3.194,0-5.783-2.589-5.783-5.783c0-3.194,2.589-5.783,5.783-5.783l0.257,0
					c3.194,0,5.783,2.589,5.783,5.783C177.412,310.174,174.823,312.764,171.63,312.764L171.63,312.764z M145.683,312.764h-0.257
					c-3.194,0-5.783-2.589-5.783-5.783c0-3.194,2.589-5.783,5.783-5.783l0.257,0c3.194,0,5.783,2.589,5.783,5.783
					C151.466,310.174,148.877,312.764,145.683,312.764L145.683,312.764z M119.737,312.764h-0.257c-3.194,0-5.783-2.589-5.783-5.783
					c0-3.194,2.589-5.783,5.783-5.783l0.257,0c3.194,0,5.783,2.589,5.783,5.783C125.52,310.174,122.931,312.764,119.737,312.764
					L119.737,312.764z M93.79,312.764h-0.257c-3.194,0-5.783-2.589-5.783-5.783c0-3.194,2.589-5.783,5.783-5.783l0.257,0
					c3.194,0,5.783,2.589,5.783,5.783C99.573,310.174,96.984,312.764,93.79,312.764z"/>
				<path style="fill-rule:evenodd;clip-rule:evenodd;fill:#FE646F;" d="M67.844,312.764h-0.121c-3.194,0-5.783-2.589-5.783-5.783
					v-0.12c0-3.194,2.589-5.783,5.783-5.783c1.628,0,3.098,0.672,4.149,1.754c1.082,1.051,1.755,2.521,1.755,4.149
					C73.627,310.175,71.038,312.764,67.844,312.764z"/>
				<path style="fill-rule:evenodd;clip-rule:evenodd;fill:#FE646F;" d="M67.723,288.786c-3.194,0-5.783-2.589-5.783-5.783v-0.239
					c0-3.194,2.589-5.783,5.783-5.783c3.194,0,5.783,2.589,5.783,5.783v0.239C73.507,286.197,70.917,288.786,67.723,288.786
					L67.723,288.786z M67.723,264.69c-3.194,0-5.783-2.589-5.783-5.783v-0.239c0-3.194,2.589-5.783,5.783-5.783
					c3.194,0,5.783,2.589,5.783,5.783v0.239C73.507,262.101,70.917,264.69,67.723,264.69L67.723,264.69z M67.723,240.595
					c-3.194,0-5.783-2.589-5.783-5.783v-0.239c0-3.194,2.589-5.783,5.783-5.783c3.194,0,5.783,2.589,5.783,5.783v0.239
					C73.507,238.006,70.917,240.595,67.723,240.595L67.723,240.595z M67.723,216.499c-3.194,0-5.783-2.589-5.783-5.783v-0.239
					c0-3.194,2.589-5.783,5.783-5.783c3.194,0,5.783,2.589,5.783,5.783v0.239C73.507,213.91,70.917,216.499,67.723,216.499z"/>
				<path style="fill-rule:evenodd;clip-rule:evenodd;fill:#FE646F;" d="M67.723,192.403c-3.194,0-5.783-2.589-5.783-5.783v-0.12
					c0-3.194,2.589-5.783,5.783-5.783l0.121,0c3.194,0,5.783,2.589,5.783,5.783c0,1.628-0.672,3.098-1.755,4.149
					C70.821,191.731,69.351,192.403,67.723,192.403z"/>
				<path style="fill-rule:evenodd;clip-rule:evenodd;fill:#FE646F;" d="M197.576,192.282h-0.257c-3.194,0-5.783-2.589-5.783-5.783
					s2.589-5.783,5.783-5.783l0.257,0c3.194,0,5.783,2.589,5.783,5.783C203.359,189.693,200.769,192.282,197.576,192.282
					L197.576,192.282z M171.63,192.282h-0.257c-3.194,0-5.783-2.589-5.783-5.783s2.589-5.783,5.783-5.783h0.257
					c3.194,0,5.783,2.589,5.783,5.783C177.412,189.693,174.823,192.282,171.63,192.282L171.63,192.282z M145.683,192.282h-0.257
					c-3.194,0-5.783-2.589-5.783-5.783s2.589-5.783,5.783-5.783h0.257c3.194,0,5.783,2.589,5.783,5.783
					C151.466,189.693,148.877,192.282,145.683,192.282L145.683,192.282z M119.736,192.282h-0.257c-3.194,0-5.783-2.589-5.783-5.783
					s2.589-5.783,5.783-5.783h0.257c3.194,0,5.783,2.589,5.783,5.783C125.519,189.693,122.93,192.282,119.736,192.282
					L119.736,192.282z M93.79,192.282h-0.257c-3.194,0-5.783-2.589-5.783-5.783s2.589-5.783,5.783-5.783h0.257
					c3.194,0,5.783,2.589,5.783,5.783C99.573,189.693,96.984,192.282,93.79,192.282z"/>
				<path style="fill-rule:evenodd;clip-rule:evenodd;fill:#FE646F;" d="M223.386,192.282h-0.12c-3.194,0-5.783-2.589-5.783-5.783
					s2.589-5.783,5.783-5.783l0.12,0c3.194,0,5.783,2.589,5.783,5.783C229.169,189.693,226.58,192.282,223.386,192.282z"/>
			</g>
			<path style="fill-rule:evenodd;clip-rule:evenodd;fill:#E6E9ED;" d="M335.916,218.547c-11.688,0-20.843,12.384-20.843,28.192
				c0,15.809,9.156,28.193,20.843,28.193s20.843-12.384,20.843-28.193C356.759,230.931,347.603,218.547,335.916,218.547
				L335.916,218.547z M341.765,259.36c-1.006,1.496-3.102,4.006-5.849,4.006c-2.747,0-4.844-2.51-5.849-4.006
				c-2.178-3.241-3.428-7.841-3.428-12.62c0-4.779,1.249-9.378,3.428-12.62c1.006-1.496,3.102-4.006,5.849-4.006
				c2.747,0,4.844,2.51,5.849,4.006c2.178,3.241,3.428,7.841,3.428,12.62C345.193,251.519,343.944,256.119,341.765,259.36z"/>
			<path style="fill-rule:evenodd;clip-rule:evenodd;fill:#E6E9ED;" d="M393.867,263.608h-6.506v-39.132
				c0-0.021-0.001-0.042-0.002-0.063c0.023-1.689-0.689-3.372-2.091-4.534c-2.459-2.039-6.105-1.697-8.143,0.762l-8.072,9.739
				c-2.038,2.459-1.697,6.105,0.762,8.143c1.079,0.895,2.387,1.331,3.687,1.331c0.785,0,1.566-0.161,2.292-0.473v24.228l-6.505,0
				c-3.194,0-5.783,2.589-5.783,5.783c0,3.194,2.589,5.783,5.783,5.783h24.578c3.194,0,5.783-2.589,5.783-5.783
				C399.65,266.196,397.061,263.608,393.867,263.608z"/>
			<path style="fill-rule:evenodd;clip-rule:evenodd;fill:#E6E9ED;" d="M302.542,263.366h-6.506v-39.131
				c0-0.021-0.001-0.042-0.002-0.063c0.023-1.689-0.689-3.372-2.091-4.534c-2.459-2.038-6.105-1.697-8.143,0.762l-8.073,9.739
				c-2.038,2.459-1.697,6.105,0.762,8.143c1.079,0.895,2.387,1.331,3.687,1.331c0.785,0,1.565-0.161,2.292-0.473v24.228l-6.505,0
				c-3.194,0-5.783,2.589-5.783,5.783c0,3.194,2.589,5.783,5.783,5.783h24.578c3.194,0,5.783-2.589,5.783-5.783
				C308.325,265.955,305.736,263.366,302.542,263.366z"/>
			<g>
				<path style="fill-rule:evenodd;clip-rule:evenodd;fill:#FE646F;" d="M130.561,235.415c-1.597-2.766-5.134-3.713-7.9-2.117
					l-5.933,3.425v-6.851c0-3.194-2.589-5.783-5.783-5.783c-3.194,0-5.783,2.589-5.783,5.783v6.851l-5.933-3.425
					c-2.766-1.597-6.303-0.649-7.9,2.117c-1.597,2.766-0.649,6.303,2.117,7.9l5.932,3.425l-5.933,3.425
					c-2.766,1.597-3.714,5.134-2.117,7.9c1.072,1.855,3.015,2.892,5.014,2.892c0.981,0,1.976-0.25,2.886-0.776l5.933-3.425v6.851
					c0,3.194,2.589,5.783,5.783,5.783c3.194,0,5.783-2.589,5.783-5.783v-6.851l5.933,3.425c0.911,0.526,1.905,0.776,2.886,0.776
					c1.998,0,3.943-1.037,5.014-2.892c1.597-2.766,0.649-6.303-2.117-7.9l-5.933-3.425l5.933-3.425
					C131.21,241.718,132.158,238.181,130.561,235.415z"/>
				<path style="fill-rule:evenodd;clip-rule:evenodd;fill:#FE646F;" d="M179.387,235.415c-1.597-2.766-5.134-3.713-7.9-2.117
					l-5.933,3.425v-6.851c0-3.194-2.589-5.783-5.783-5.783c-3.194,0-5.783,2.589-5.783,5.783v6.851l-5.933-3.425
					c-2.766-1.597-6.303-0.649-7.9,2.117c-1.597,2.766-0.649,6.303,2.117,7.9l5.932,3.425l-5.933,3.425
					c-2.766,1.597-3.714,5.134-2.117,7.9c1.071,1.855,3.015,2.892,5.014,2.892c0.981,0,1.975-0.25,2.886-0.776l5.933-3.425v6.851
					c0,3.194,2.589,5.783,5.783,5.783s5.783-2.589,5.783-5.783v-6.851l5.933,3.425c0.911,0.526,1.905,0.776,2.886,0.776
					c1.998,0,3.943-1.037,5.014-2.892c1.597-2.766,0.649-6.303-2.117-7.9l-5.933-3.425l5.933-3.425
					C180.037,241.718,180.984,238.181,179.387,235.415z"/>
				<path style="fill-rule:evenodd;clip-rule:evenodd;fill:#FE646F;" d="M228.214,235.415c-1.597-2.766-5.134-3.713-7.9-2.117
					l-5.933,3.425v-6.851c0-3.194-2.589-5.783-5.783-5.783s-5.783,2.589-5.783,5.783v6.851l-5.933-3.425
					c-2.767-1.597-6.303-0.649-7.9,2.117c-1.597,2.766-0.649,6.303,2.117,7.9l5.932,3.425l-5.933,3.425
					c-2.766,1.597-3.714,5.134-2.117,7.9c1.071,1.855,3.015,2.892,5.014,2.892c0.981,0,1.975-0.25,2.886-0.776l5.933-3.425v6.851
					c0,3.194,2.589,5.783,5.783,5.783s5.783-2.589,5.783-5.783v-6.851l5.933,3.425c0.911,0.526,1.905,0.776,2.886,0.776
					c1.998,0,3.943-1.037,5.014-2.892c1.597-2.766,0.649-6.303-2.117-7.9l-5.933-3.425l5.933-3.425
					C228.863,241.718,229.811,238.181,228.214,235.415z"/>
			</g>
		</g>
	</g>
</g>
</svg>
