<?xml version="1.0" encoding="iso-8859-1"?>
<!-- Generator: Adobe Illustrator 25.2.0, SVG Export Plug-In . SVG Version: 6.00 Build 0)  -->
<svg version="1.1" xmlns="http://www.w3.org/2000/svg" xmlns:xlink="http://www.w3.org/1999/xlink" x="0px" y="0px"
	 viewBox="0 0 492 492" style="enable-background:new 0 0 492 492;" xml:space="preserve">
<g id="Master_Layer_2">
</g>
<g id="Layer_1">
	<g>
		<g>
			<g>
				<polygon style="fill-rule:evenodd;clip-rule:evenodd;fill:#E6E9ED;" points="61.94,335.565 61.94,129.786 430.58,130.044 
					430.58,335.565 				"/>
				<polygon style="fill-rule:evenodd;clip-rule:evenodd;fill:#CCD1D9;" points="61.94,95.256 430.58,95.256 430.58,130.044 
					61.94,129.786 				"/>
				<g>
					<path style="fill-rule:evenodd;clip-rule:evenodd;fill:#82D65F;" d="M333.99,232.143v23.86c0,27.43-8.616,54.389-25.039,79.562
						c-14.773,22.651-35.868,43.858-62.691,62.659c-26.823-18.801-47.918-40.008-62.691-62.659
						c-16.423-25.173-25.039-52.132-25.039-79.562v-23.86l87.73-39.029L333.99,232.143z"/>
					<path style="fill-rule:evenodd;clip-rule:evenodd;fill:#E6E9ED;" d="M287.789,261.803c2.323,2.321,2.323,6.087,0,8.409
						l-47.331,47.333c-1.162,1.159-2.683,1.742-4.204,1.742c-1.524,0-3.045-0.582-4.207-1.742l-22.304-22.307
						c-2.324-2.321-2.324-6.087,0-8.409c2.321-2.321,6.085-2.321,8.408,0l18.102,18.102l43.127-43.129
						C281.704,259.481,285.468,259.481,287.789,261.803z"/>
				</g>
			</g>
			<path style="fill-rule:evenodd;clip-rule:evenodd;fill:#656D78;" d="M131.824,112.716c0-3.411-2.782-6.193-6.194-6.193
				c-3.411,0-6.193,2.782-6.193,6.193c0,3.411,2.782,6.194,6.193,6.194C129.041,118.91,131.824,116.128,131.824,112.716z"/>
			<path style="fill-rule:evenodd;clip-rule:evenodd;fill:#656D78;" d="M109.963,112.716c0-3.411-2.782-6.193-6.193-6.193
				c-3.411,0-6.193,2.782-6.193,6.193c0,3.411,2.782,6.194,6.193,6.194C107.18,118.91,109.963,116.128,109.963,112.716z"/>
			<path style="fill-rule:evenodd;clip-rule:evenodd;fill:#656D78;" d="M88.104,112.716c0-3.411-2.782-6.193-6.193-6.193
				c-3.411,0-6.193,2.782-6.193,6.193c0,3.411,2.782,6.194,6.193,6.194C85.322,118.91,88.104,116.128,88.104,112.716z"/>
		</g>
	</g>
</g>
</svg>
