<?xml version="1.0" encoding="iso-8859-1"?>
<!-- Generator: Adobe Illustrator 25.2.0, SVG Export Plug-In . SVG Version: 6.00 Build 0)  -->
<svg version="1.1" xmlns="http://www.w3.org/2000/svg" xmlns:xlink="http://www.w3.org/1999/xlink" x="0px" y="0px"
	 viewBox="0 0 492 492" style="enable-background:new 0 0 492 492;" xml:space="preserve">
<g id="Master_Layer_2">
</g>
<g id="Layer_1">
	<g>
		<g>
			<g>
				<polygon style="fill-rule:evenodd;clip-rule:evenodd;fill:#547B8C;" points="367.241,109.688 391.15,72.278 430.58,111.708 
					393.17,135.616 127.89,400.896 81.655,421.202 101.961,374.967 				"/>
			</g>
			<path style="fill-rule:evenodd;clip-rule:evenodd;fill:#56AAFF;" d="M409.351,159.899l-66.393-66.393
				c-1.676-1.676-1.676-4.394,0-6.071l2.03-2.029c1.676-1.676,4.395-1.676,6.071,0l66.393,66.392c1.676,1.676,1.676,4.395,0,6.071
				l-2.03,2.03C413.746,161.576,411.028,161.576,409.351,159.899z"/>
			<polygon style="fill-rule:evenodd;clip-rule:evenodd;fill:#547B8C;" points="390.559,374.967 410.865,421.202 364.63,400.896 
				99.35,135.616 61.94,111.708 101.37,72.278 125.279,109.688 			"/>
			<path style="fill-rule:evenodd;clip-rule:evenodd;fill:#56AAFF;" d="M77.098,159.899l-2.029-2.03
				c-1.676-1.676-1.676-4.395,0-6.071l66.393-66.393c1.676-1.676,4.394-1.676,6.071,0l2.03,2.029c1.677,1.676,1.677,4.395,0,6.071
				l-66.393,66.393C81.493,161.576,78.774,161.576,77.098,159.899z"/>
			<path style="fill-rule:evenodd;clip-rule:evenodd;fill:#E6E9ED;" d="M246.259,267.539v125.289
				c-51.416-36.044-85.603-79.311-99.775-125.289H246.259z"/>
			<path style="fill-rule:evenodd;clip-rule:evenodd;fill:#56AAFF;" d="M346.034,267.539
				c-14.169,45.977-48.356,89.245-99.775,125.289V267.539H346.034z"/>
			<path style="fill-rule:evenodd;clip-rule:evenodd;fill:#56AAFF;" d="M246.259,142.25v125.289h-99.774
				c-4.897-15.893-7.403-32.106-7.403-48.458l0-29.149L246.259,142.25z"/>
			<path style="fill-rule:evenodd;clip-rule:evenodd;fill:#E6E9ED;" d="M353.438,189.931v29.149c0,16.352-2.506,32.565-7.403,48.458
				h-99.775V142.25L353.438,189.931z"/>
		</g>
	</g>
</g>
</svg>
