<?xml version="1.0" encoding="iso-8859-1"?>
<!-- Generator: Adobe Illustrator 25.2.0, SVG Export Plug-In . SVG Version: 6.00 Build 0)  -->
<svg version="1.1" xmlns="http://www.w3.org/2000/svg" xmlns:xlink="http://www.w3.org/1999/xlink" x="0px" y="0px"
	 viewBox="0 0 492 492" style="enable-background:new 0 0 492 492;" xml:space="preserve">
<g id="Master_Layer_2">
</g>
<g id="Layer_1">
	<g>
		<g>
			<polygon style="fill-rule:evenodd;clip-rule:evenodd;fill:#CCD1D9;" points="182.947,64.164 380.209,64.164 380.209,114.543 
				430.58,114.543 430.58,414.451 182.9,414.451 			"/>
			<g>
				<path style="fill-rule:evenodd;clip-rule:evenodd;fill:#E6E9ED;" d="M303.939,308.316c0,45.75-25.391,85.572-62.852,106.135
					c-17.255,9.476-37.072,14.865-58.147,14.865c-66.826,0-120.999-54.174-120.999-120.999c0-66.825,54.174-120.999,120.999-120.999
					h0.007C249.77,187.322,303.939,241.493,303.939,308.316z"/>
				<g>
					<path style="fill-rule:evenodd;clip-rule:evenodd;fill:#FFD400;" d="M219.401,290.645c-3.284,0-5.946-2.662-5.946-5.946v-14.9
						c0-8.139-3.17-15.791-8.927-21.548c-5.757-5.756-13.409-8.927-21.548-8.927c-16.804,0-30.475,13.671-30.475,30.475v14.9
						c0,3.284-2.662,5.946-5.946,5.946c-3.284,0-5.946-2.662-5.946-5.946v-14.9c0-23.361,19.006-42.367,42.367-42.367
						c11.316,0,21.954,4.407,29.957,12.41c8.003,8.003,12.41,18.642,12.41,29.957v14.9
						C225.347,287.982,222.685,290.645,219.401,290.645z"/>
					<rect x="132.723" y="284.699" style="fill-rule:evenodd;clip-rule:evenodd;fill:#FF8900;" width="100.514" height="72.843"/>
					<circle style="fill-rule:evenodd;clip-rule:evenodd;fill:#FFD400;" cx="182.98" cy="315.995" r="11.756"/>
					<path style="fill-rule:evenodd;clip-rule:evenodd;fill:#FFD400;" d="M182.979,343.216c-3.284,0-5.946-2.662-5.946-5.946
						v-11.852c0-3.284,2.662-5.946,5.946-5.946c3.284,0,5.946,2.662,5.946,5.946v11.852
						C188.925,340.554,186.263,343.216,182.979,343.216z"/>
				</g>
			</g>
			<polygon style="fill-rule:evenodd;clip-rule:evenodd;fill:#E6E9ED;" points="430.58,114.543 380.209,114.543 380.209,64.164 			
				"/>
		</g>
	</g>
</g>
</svg>
