<?xml version="1.0" encoding="iso-8859-1"?>
<!-- Generator: Adobe Illustrator 25.2.0, SVG Export Plug-In . SVG Version: 6.00 Build 0)  -->
<svg version="1.1" xmlns="http://www.w3.org/2000/svg" xmlns:xlink="http://www.w3.org/1999/xlink" x="0px" y="0px"
	 viewBox="0 0 492 492" style="enable-background:new 0 0 492 492;" xml:space="preserve">
<g id="Master_Layer_2">
</g>
<g id="Layer_1">
	<g>
		<g>
			
				<ellipse transform="matrix(0.7071 -0.7071 0.7071 0.7071 -102.3435 246.4007)" style="fill-rule:evenodd;clip-rule:evenodd;fill:#FFA631;" cx="246.26" cy="246.74" rx="184.32" ry="184.32"/>
			<path style="fill-rule:evenodd;clip-rule:evenodd;fill:#FF8900;" d="M246.327,412.231h-0.248c-3.284,0-5.946-2.662-5.946-5.946
				c0-3.284,2.662-5.946,5.946-5.946l0.248,0c3.284,0,5.946,2.662,5.946,5.946C252.272,409.569,249.61,412.231,246.327,412.231
				L246.327,412.231z M271.03,410.32c-2.877,0-5.405-2.092-5.867-5.023c-0.51-3.244,1.706-6.287,4.95-6.798l0.248-0.038
				c3.244-0.511,6.286,1.709,6.795,4.953c0.509,3.244-1.709,6.287-4.953,6.795l-0.242,0.038
				C271.648,410.296,271.337,410.32,271.03,410.32L271.03,410.32z M221.38,410.303c-0.306,0-0.616-0.024-0.928-0.073l-0.265-0.042
				c-3.242-0.519-5.45-3.569-4.93-6.811c0.519-3.243,3.569-5.45,6.812-4.93l0.225,0.036c3.244,0.508,5.462,3.551,4.953,6.795
				C226.787,408.209,224.257,410.303,221.38,410.303L221.38,410.303z M295.386,404.526c-2.51,0-4.843-1.602-5.657-4.12
				c-1.01-3.125,0.705-6.476,3.83-7.486l0.22-0.071c3.123-1.018,6.478,0.687,7.496,3.809c1.018,3.122-0.687,6.478-3.809,7.496
				l-0.251,0.082C296.607,404.433,295.991,404.526,295.386,404.526L295.386,404.526z M197.027,404.492
				c-0.608,0-1.225-0.094-1.835-0.292l-0.255-0.083c-3.12-1.023-4.821-4.382-3.798-7.502c1.023-3.12,4.382-4.821,7.502-3.798
				l0.219,0.071c3.124,1.013,4.835,4.366,3.822,7.489C201.867,402.892,199.535,404.492,197.027,404.492L197.027,404.492z
				 M318.527,394.968c-2.17,0-4.261-1.192-5.308-3.26c-1.484-2.929-0.312-6.507,2.617-7.991l0.2-0.101
				c2.923-1.496,6.506-0.338,8.001,2.586c1.496,2.923,0.338,6.506-2.585,8.001l-0.241,0.123
				C320.348,394.761,319.431,394.968,318.527,394.968L318.527,394.968z M173.881,394.911c-0.91,0-1.833-0.21-2.699-0.652
				l-0.229-0.117c-2.923-1.497-4.078-5.08-2.581-8.003c1.497-2.923,5.08-4.078,8.003-2.581l0.214,0.11
				c2.924,1.493,4.085,5.075,2.591,7.999C178.13,393.727,176.044,394.911,173.881,394.911L173.881,394.911z M339.867,381.903
				c-1.841,0-3.656-0.852-4.819-2.457c-1.927-2.659-1.333-6.377,1.326-8.303l0.189-0.138c2.654-1.934,6.373-1.348,8.307,1.306
				c1.933,2.654,1.348,6.373-1.306,8.307l-0.212,0.154C342.297,381.535,341.077,381.903,339.867,381.903L339.867,381.903z
				 M152.536,381.818c-1.211,0-2.432-0.368-3.487-1.134l-0.228-0.166c-2.647-1.943-3.217-5.664-1.274-8.311
				c1.943-2.647,5.665-3.217,8.312-1.274l0.174,0.127c2.658,1.928,3.249,5.647,1.32,8.304
				C156.189,380.967,154.375,381.818,152.536,381.818L152.536,381.818z M358.911,365.666c-1.526,0-3.052-0.583-4.213-1.75
				c-2.317-2.327-2.309-6.091,0.018-8.409l0.167-0.166c2.322-2.322,6.086-2.322,8.409,0c2.322,2.322,2.322,6.086,0,8.409
				l-0.184,0.184C361.947,365.088,360.429,365.666,358.911,365.666L358.911,365.666z M133.502,365.56
				c-1.522,0-3.043-0.58-4.204-1.741l-0.18-0.18c-2.32-2.324-2.316-6.089,0.008-8.409c2.324-2.319,6.089-2.316,8.409,0.009
				l0.171,0.171c2.322,2.322,2.322,6.087,0,8.409C136.545,364.979,135.024,365.56,133.502,365.56L133.502,365.56z M375.202,346.661
				c-1.219,0-2.448-0.373-3.507-1.148c-2.65-1.94-3.226-5.66-1.286-8.31l0.132-0.181c1.929-2.658,5.646-3.249,8.304-1.32
				c2.658,1.928,3.248,5.647,1.32,8.304l-0.161,0.22C378.84,345.817,377.033,346.661,375.202,346.661L375.202,346.661z
				 M117.233,346.543c-1.837,0-3.647-0.848-4.811-2.446l-0.144-0.197c-1.934-2.654-1.352-6.373,1.301-8.307
				c2.654-1.935,6.373-1.352,8.307,1.301l0.148,0.203c1.933,2.655,1.349,6.374-1.306,8.307
				C119.672,346.172,118.447,346.543,117.233,346.543L117.233,346.543z M388.335,325.342c-0.914,0-1.841-0.211-2.709-0.657
				c-2.921-1.499-4.075-5.083-2.576-8.005l0.11-0.215c1.496-2.924,5.078-4.081,8.001-2.586c2.924,1.495,4.081,5.077,2.586,8.001
				l-0.117,0.228C392.577,324.162,390.494,325.342,388.335,325.342L388.335,325.342z M104.126,325.228
				c-2.162,0-4.246-1.183-5.298-3.239l-0.12-0.234c-1.488-2.928-0.321-6.507,2.607-7.994c2.927-1.488,6.507-0.321,7.994,2.607
				l0.105,0.206c1.496,2.923,0.338,6.506-2.586,8.001C105.962,325.018,105.037,325.228,104.126,325.228L104.126,325.228z
				 M397.968,302.221c-0.615,0-1.24-0.096-1.856-0.298c-3.12-1.024-4.819-4.383-3.795-7.503l0.07-0.216
				c1.012-3.123,4.367-4.836,7.489-3.822c3.124,1.012,4.835,4.366,3.822,7.489l-0.084,0.258
				C402.794,300.633,400.467,302.221,397.968,302.221L397.968,302.221z M94.517,302.113c-2.504,0-4.833-1.594-5.651-4.104
				l-0.079-0.244c-1.014-3.124,0.696-6.478,3.819-7.491c3.123-1.014,6.477,0.696,7.491,3.819l0.074,0.228
				c1.018,3.122-0.687,6.478-3.809,7.497C95.749,302.018,95.128,302.113,94.517,302.113L94.517,302.113z M403.834,277.886
				c-0.312,0-0.627-0.025-0.945-0.075c-3.242-0.518-5.452-3.567-4.933-6.809l0.036-0.228c0.509-3.244,3.549-5.464,6.795-4.953
				c3.244,0.509,5.462,3.551,4.953,6.795l-0.041,0.262C409.231,275.802,406.704,277.886,403.834,277.886L403.834,277.886z
				 M88.668,277.774c-2.874,0-5.402-2.089-5.866-5.017l-0.041-0.259c-0.505-3.245,1.715-6.285,4.959-6.79
				c3.244-0.507,6.285,1.715,6.79,4.96l0.036,0.231c0.513,3.243-1.7,6.289-4.943,6.802C89.29,277.75,88.977,277.774,88.668,277.774
				L88.668,277.774z M405.806,252.934c-0.006,0-0.012,0-0.018,0c-3.284-0.01-5.938-2.679-5.928-5.963l0-0.231
				c0-0.018,0-0.035,0-0.053l0-0.195c-0.01-3.284,2.644-5.953,5.928-5.963c0.006,0,0.012,0,0.018,0c3.276,0,5.936,2.651,5.945,5.928
				l0,0.265c0,0.021,0,0.041,0,0.062l0,0.222C411.742,250.283,409.081,252.934,405.806,252.934L405.806,252.934z M86.715,252.819
				c-3.284,0-5.946-2.662-5.946-5.946v-0.101c0-0.011,0-0.021,0-0.032v-0.115c0-3.284,2.662-5.946,5.946-5.946
				c3.284,0,5.946,2.662,5.946,5.946l0,0.248C92.661,250.157,89.998,252.819,86.715,252.819L86.715,252.819z M88.641,227.864
				c-0.306,0-0.616-0.024-0.928-0.073c-3.244-0.509-5.462-3.551-4.953-6.795l0.04-0.256c0.515-3.243,3.561-5.455,6.804-4.94
				c3.243,0.515,5.455,3.561,4.94,6.805l-0.037,0.234C94.048,225.771,91.519,227.864,88.641,227.864L88.641,227.864z
				 M403.855,227.713c-2.878,0-5.407-2.093-5.867-5.025l-0.036-0.227c-0.519-3.243,1.689-6.292,4.931-6.811
				c3.244-0.52,6.292,1.689,6.811,4.931l0.041,0.264c0.509,3.244-1.709,6.287-4.953,6.795
				C404.472,227.689,404.161,227.713,403.855,227.713L403.855,227.713z M94.437,203.517c-0.608,0-1.225-0.094-1.835-0.291
				c-3.124-1.013-4.835-4.366-3.823-7.49l0.078-0.24c1.014-3.123,4.368-4.834,7.491-3.819c3.123,1.014,4.833,4.368,3.819,7.491
				l-0.076,0.234C99.276,201.917,96.944,203.517,94.437,203.517L94.437,203.517z M398.036,203.371c-2.511,0-4.845-1.604-5.657-4.122
				l-0.071-0.218c-1.018-3.122,0.687-6.478,3.809-7.497c3.122-1.018,6.478,0.687,7.496,3.809l0.082,0.254
				c1.008,3.125-0.708,6.476-3.833,7.484C399.257,203.278,398.641,203.371,398.036,203.371L398.036,203.371z M104.001,180.372
				c-0.907,0-1.828-0.208-2.692-0.648c-2.926-1.49-4.091-5.07-2.602-7.996l0.118-0.232c1.495-2.923,5.078-4.082,8.001-2.586
				c2.923,1.495,4.081,5.077,2.586,8.001l-0.108,0.211C108.255,179.184,106.167,180.372,104.001,180.372L104.001,180.372z
				 M388.456,180.248c-2.163,0-4.249-1.184-5.3-3.242l-0.111-0.217c-1.496-2.923-0.338-6.506,2.585-8.001
				c2.923-1.496,6.506-0.338,8.001,2.585l0.115,0.224c1.493,2.924,0.334,6.506-2.591,8
				C390.289,180.038,389.365,180.248,388.456,180.248L388.456,180.248z M117.084,159.02c-1.211,0-2.433-0.368-3.487-1.134
				c-2.658-1.929-3.249-5.647-1.32-8.304l0.153-0.211c1.934-2.654,5.653-3.237,8.307-1.303c2.654,1.934,3.237,5.653,1.303,8.307
				l-0.139,0.191C120.738,158.169,118.924,159.02,117.084,159.02L117.084,159.02z M375.365,158.923
				c-1.837,0-3.648-0.848-4.811-2.446l-0.143-0.196c-1.936-2.653-1.354-6.372,1.299-8.307c2.653-1.936,6.372-1.354,8.308,1.299
				l0.149,0.204c1.933,2.654,1.348,6.373-1.306,8.307C377.804,158.552,376.579,158.923,375.365,158.923L375.365,158.923z
				 M133.339,139.975c-1.52,0-3.039-0.579-4.2-1.737c-2.324-2.32-2.328-6.084-0.008-8.409l0.184-0.184
				c2.324-2.32,6.089-2.316,8.409,0.008c2.32,2.324,2.316,6.089-0.008,8.409l-0.167,0.167
				C136.387,139.392,134.863,139.975,133.339,139.975L133.339,139.975z M359.099,139.893c-1.524,0-3.047-0.582-4.209-1.746
				l-0.167-0.167c-2.324-2.32-2.328-6.084-0.009-8.409c2.319-2.324,6.085-2.328,8.409-0.008l0.184,0.184
				c2.319,2.324,2.316,6.089-0.008,8.409C362.139,139.314,360.619,139.893,359.099,139.893L359.099,139.893z M152.354,123.693
				c-1.835,0-3.644-0.846-4.808-2.442c-1.936-2.653-1.354-6.372,1.299-8.307l0.21-0.153c2.657-1.93,6.375-1.34,8.305,1.316
				c1.93,2.657,1.341,6.375-1.316,8.305l-0.19,0.139C154.797,123.321,153.57,123.693,152.354,123.693L152.354,123.693z
				 M340.068,123.622c-1.213,0-2.437-0.37-3.493-1.138l-0.196-0.142c-2.658-1.929-3.249-5.647-1.32-8.304
				c1.928-2.658,5.646-3.249,8.304-1.32l0.207,0.15c2.656,1.932,3.242,5.65,1.311,8.306
				C343.718,122.773,341.906,123.622,340.068,123.622L340.068,123.622z M173.664,110.579c-2.162,0-4.246-1.183-5.298-3.239
				c-1.496-2.923-0.338-6.506,2.585-8.001l0.224-0.114c2.925-1.493,6.506-0.333,8,2.591c1.494,2.924,0.334,6.506-2.591,8
				l-0.217,0.111C175.501,110.369,174.576,110.579,173.664,110.579L173.664,110.579z M318.732,110.516
				c-0.908,0-1.83-0.209-2.695-0.65l-0.215-0.109c-2.928-1.488-4.094-5.067-2.607-7.994c1.487-2.928,5.066-4.095,7.994-2.607
				l0.225,0.114c2.926,1.492,4.09,5.074,2.599,7.999C322.983,109.329,320.896,110.516,318.732,110.516L318.732,110.516z
				 M196.77,100.966c-2.504,0-4.833-1.594-5.651-4.104c-1.018-3.122,0.687-6.478,3.809-7.496l0.239-0.078
				c3.123-1.017,6.478,0.69,7.495,3.812c1.017,3.122-0.69,6.478-3.812,7.495l-0.234,0.076
				C198.003,100.871,197.381,100.966,196.77,100.966L196.77,100.966z M295.606,100.919c-0.608,0-1.225-0.094-1.835-0.291
				l-0.23-0.074c-3.125-1.008-4.841-4.359-3.833-7.484c1.008-3.125,4.358-4.841,7.484-3.833l0.245,0.079
				c3.124,1.013,4.835,4.366,3.823,7.49C300.445,99.319,298.113,100.919,295.606,100.919L295.606,100.919z M221.1,95.112
				c-2.874,0-5.401-2.088-5.865-5.016c-0.514-3.243,1.699-6.289,4.942-6.803l0.256-0.04c3.244-0.508,6.286,1.71,6.794,4.955
				c0.508,3.244-1.71,6.286-4.955,6.794l-0.234,0.037C221.723,95.088,221.409,95.112,221.1,95.112L221.1,95.112z M271.27,95.089
				c-0.309,0-0.622-0.024-0.937-0.074l-0.229-0.036c-3.245-0.504-5.467-3.543-4.963-6.788c0.504-3.245,3.543-5.467,6.788-4.963
				l0.262,0.041c3.243,0.513,5.457,3.559,4.943,6.802C276.671,93,274.143,95.089,271.27,95.089L271.27,95.089z M246.061,93.14
				c-3.279,0-5.939-2.655-5.945-5.935c-0.006-3.284,2.651-5.951,5.935-5.957l0.259,0c3.284,0,5.946,2.662,5.946,5.946
				c0,3.284-2.662,5.946-5.946,5.946l-0.237,0C246.068,93.14,246.064,93.14,246.061,93.14z"/>
			<path style="fill-rule:evenodd;clip-rule:evenodd;fill:#C06100;" d="M271.22,241.212c6.095-6.494,9.834-15.223,9.834-24.811
				c0-17.679-12.71-32.442-29.47-35.64v-8.839c0-3.284-2.662-5.946-5.946-5.946c-3.284,0-5.946,2.662-5.946,5.946v8.195h-4.905
				v-8.195c0-3.284-2.662-5.946-5.946-5.946c-3.284,0-5.946,2.662-5.946,5.946v8.195H196.47c-3.284,0-5.946,2.662-5.946,5.946
				c0,3.284,2.662,5.946,5.946,5.946l8.792,0v109.464h-8.792c-3.284,0-5.946,2.662-5.946,5.946s2.662,5.946,5.946,5.946l26.512,0
				v8.194c0,3.284,2.662,5.946,5.946,5.946c3.284,0,5.946-2.662,5.946-5.946v-8.194h4.905v8.194c0,3.284,2.662,5.946,5.946,5.946
				c3.284,0,5.946-2.662,5.946-5.946v-8.194h14.04c20.007,0,36.285-16.277,36.285-36.284
				C301.996,258.944,288.622,243.873,271.22,241.212L271.22,241.212z M269.162,216.401c0,13.45-10.943,24.393-24.393,24.393
				l-27.615,0v-48.786h27.615C258.219,192.008,269.162,202.951,269.162,216.401L269.162,216.401z M265.711,301.472h-48.557v-48.786
				h48.557c13.45,0,24.393,10.943,24.393,24.393C290.104,290.529,279.161,301.472,265.711,301.472z"/>
		</g>
	</g>
</g>
</svg>
