<?xml version="1.0" encoding="iso-8859-1"?>
<!-- Generator: Adobe Illustrator 25.2.0, SVG Export Plug-In . SVG Version: 6.00 Build 0)  -->
<svg version="1.1" xmlns="http://www.w3.org/2000/svg" xmlns:xlink="http://www.w3.org/1999/xlink" x="0px" y="0px"
	 viewBox="0 0 492 492" style="enable-background:new 0 0 492 492;" xml:space="preserve">
<g id="Master_Layer_2">
</g>
<g id="Layer_1">
	<g>
		<g>
			<rect x="131.897" y="62.42" style="fill-rule:evenodd;clip-rule:evenodd;fill:#CCD1D9;" width="228.726" height="55.378"/>
			<path style="fill-rule:evenodd;clip-rule:evenodd;fill:#FE646F;" d="M189.89,183.334c0-10.829-8.832-19.661-19.661-19.661
				c-10.829,0-19.661,8.832-19.661,19.661c0,10.829,8.832,19.661,19.661,19.661C181.058,202.995,189.89,194.163,189.89,183.334z"/>
			<path style="fill-rule:evenodd;clip-rule:evenodd;fill:#FE646F;" d="M265.911,183.334c0-10.829-8.832-19.661-19.661-19.661
				c-10.829,0-19.661,8.832-19.661,19.661c0,10.829,8.832,19.661,19.661,19.661C257.079,202.995,265.911,194.163,265.911,183.334z"
				/>
			<path style="fill-rule:evenodd;clip-rule:evenodd;fill:#FE646F;" d="M341.933,183.334c0-10.829-8.832-19.661-19.661-19.661
				c-10.829,0-19.661,8.832-19.661,19.661c0,10.829,8.832,19.661,19.661,19.661C333.101,202.995,341.933,194.163,341.933,183.334z"
				/>
			<path style="fill-rule:evenodd;clip-rule:evenodd;fill:#FE646F;" d="M189.89,259.355c0-10.829-8.832-19.66-19.661-19.66
				c-10.829,0-19.661,8.832-19.661,19.66c0,10.829,8.832,19.661,19.661,19.661C181.058,279.016,189.89,270.184,189.89,259.355z"/>
			<path style="fill-rule:evenodd;clip-rule:evenodd;fill:#FE646F;" d="M265.911,259.355c0-10.829-8.832-19.66-19.661-19.66
				c-10.829,0-19.661,8.832-19.661,19.66c0,10.829,8.832,19.661,19.661,19.661C257.079,279.016,265.911,270.184,265.911,259.355z"/>
			<path style="fill-rule:evenodd;clip-rule:evenodd;fill:#FE646F;" d="M341.933,259.355c0-10.829-8.832-19.66-19.661-19.66
				c-10.829,0-19.661,8.832-19.661,19.66c0,10.829,8.832,19.661,19.661,19.661C333.101,279.016,341.933,270.184,341.933,259.355z"/>
			<circle style="fill-rule:evenodd;clip-rule:evenodd;fill:#FE646F;" cx="170.229" cy="335.377" r="19.661"/>
			<circle style="fill-rule:evenodd;clip-rule:evenodd;fill:#FE646F;" cx="246.251" cy="335.377" r="19.661"/>
			<path style="fill-rule:evenodd;clip-rule:evenodd;fill:#FE646F;" d="M265.911,411.399c0-10.829-8.832-19.66-19.661-19.66
				c-10.829,0-19.661,8.832-19.661,19.66c0,10.829,8.832,19.661,19.661,19.661C257.079,431.06,265.911,422.227,265.911,411.399z"/>
			<circle style="fill-rule:evenodd;clip-rule:evenodd;fill:#FE646F;" cx="322.272" cy="335.377" r="19.661"/>
		</g>
	</g>
</g>
</svg>
