<?xml version="1.0" encoding="iso-8859-1"?>
<!-- Generator: Adobe Illustrator 25.2.0, SVG Export Plug-In . SVG Version: 6.00 Build 0)  -->
<svg version="1.1" xmlns="http://www.w3.org/2000/svg" xmlns:xlink="http://www.w3.org/1999/xlink" x="0px" y="0px"
	 viewBox="0 0 492 492" style="enable-background:new 0 0 492 492;" xml:space="preserve">
<g id="Master_Layer_2">
</g>
<g id="Layer_1">
	<g>
		<g>
			<g>
				<g>
					<polygon style="fill-rule:evenodd;clip-rule:evenodd;fill:#E6E9ED;" points="430.58,185.331 430.58,424.216 61.94,424.216 
						61.94,185.291 					"/>
					<polygon style="fill-rule:evenodd;clip-rule:evenodd;fill:#CCD1D9;" points="430.58,151.7 430.58,185.331 61.94,185.291 
						61.94,151.7 					"/>
				</g>
			</g>
			<g>
				<path style="fill-rule:evenodd;clip-rule:evenodd;fill:#656D78;" d="M94.642,168.547c0-3.411-2.782-6.193-6.193-6.193
					c-3.411,0-6.193,2.782-6.193,6.193s2.782,6.193,6.193,6.193C91.86,174.74,94.642,171.958,94.642,168.547z"/>
			</g>
			<g>
				<path style="fill-rule:evenodd;clip-rule:evenodd;fill:#656D78;" d="M114.71,168.547c0-3.411-2.782-6.193-6.193-6.193
					c-3.411,0-6.193,2.782-6.193,6.193s2.782,6.193,6.193,6.193C111.927,174.74,114.71,171.958,114.71,168.547z"/>
			</g>
			<g>
				<circle style="fill-rule:evenodd;clip-rule:evenodd;fill:#656D78;" cx="128.583" cy="168.547" r="6.193"/>
			</g>
			<g>
				<g>
					<path style="fill-rule:evenodd;clip-rule:evenodd;fill:#547B8C;" d="M326.283,348.035c-0.045,0-0.09,0-0.135,0
						c-16.384-0.034-31.781-6.441-43.356-18.038c-11.576-11.6-17.952-27.013-17.952-43.401v-24.706c0-3.284,2.662-5.946,5.946-5.946
						c3.284,0,5.946,2.662,5.946,5.946v24.706c0,27.264,22.179,49.491,49.441,49.548c0.035,0,0.071,0,0.106,0
						c27.169,0,49.385-22.068,49.548-49.243c0.098-16.268-7.807-31.562-21.144-40.911c-12.211-8.559-21.686-20.132-27.401-33.465
						l-0.645-1.505c-4.182-9.757-6.303-20.088-6.303-30.704l0-65.68c0-3.284,2.662-5.946,5.946-5.946
						c3.284,0,5.946,2.662,5.946,5.946v65.68c0,8.996,1.797,17.75,5.341,26.019l0.645,1.505
						c4.843,11.298,12.899,21.124,23.297,28.413c16.533,11.589,26.331,30.549,26.21,50.72c-0.099,16.404-6.542,31.774-18.143,43.278
						C358.008,341.722,342.638,348.035,326.283,348.035z"/>
				</g>
			</g>
			<g>
				<g>
					<g>
						<path style="fill-rule:evenodd;clip-rule:evenodd;fill:#56AAFF;" d="M218.265,241.135H107.029
							c-3.284,0-5.946-2.662-5.946-5.946c0-3.284,2.662-5.946,5.946-5.946h111.236c3.284,0,5.946,2.662,5.946,5.946
							C224.211,238.473,221.549,241.135,218.265,241.135z"/>
					</g>
				</g>
				<g>
					<g>
						<path style="fill-rule:evenodd;clip-rule:evenodd;fill:#56AAFF;" d="M218.265,275.571H107.029
							c-3.284,0-5.946-2.662-5.946-5.946c0-3.284,2.662-5.946,5.946-5.946h111.236c3.284,0,5.946,2.662,5.946,5.946
							C224.211,272.909,221.549,275.571,218.265,275.571z"/>
					</g>
				</g>
				<g>
					<g>
						<path style="fill-rule:evenodd;clip-rule:evenodd;fill:#56AAFF;" d="M218.265,310.007H107.029
							c-3.284,0-5.946-2.662-5.946-5.946c0-3.284,2.662-5.946,5.946-5.946h111.236c3.284,0,5.946,2.662,5.946,5.946
							C224.211,307.345,221.549,310.007,218.265,310.007z"/>
					</g>
				</g>
				<g>
					<g>
						<path style="fill-rule:evenodd;clip-rule:evenodd;fill:#56AAFF;" d="M218.265,344.443H107.029
							c-3.284,0-5.946-2.662-5.946-5.946c0-3.284,2.662-5.946,5.946-5.946h111.236c3.284,0,5.946,2.662,5.946,5.946
							C224.211,341.781,221.549,344.443,218.265,344.443z"/>
					</g>
				</g>
				<g>
					<g>
						<path style="fill-rule:evenodd;clip-rule:evenodd;fill:#56AAFF;" d="M218.265,378.879H107.029
							c-3.284,0-5.946-2.662-5.946-5.946c0-3.284,2.662-5.946,5.946-5.946h111.236c3.284,0,5.946,2.662,5.946,5.946
							C224.211,376.217,221.549,378.879,218.265,378.879z"/>
					</g>
				</g>
			</g>
			<g>
				
					<ellipse transform="matrix(0.7071 -0.7071 0.7071 0.7071 29.5009 258.1825)" style="fill-rule:evenodd;clip-rule:evenodd;fill:#656D78;" cx="326.404" cy="93.481" rx="24.217" ry="24.217"/>
			</g>
		</g>
	</g>
</g>
</svg>
