<?xml version="1.0" encoding="iso-8859-1"?>
<!-- Generator: Adobe Illustrator 25.2.0, SVG Export Plug-In . SVG Version: 6.00 Build 0)  -->
<svg version="1.1" xmlns="http://www.w3.org/2000/svg" xmlns:xlink="http://www.w3.org/1999/xlink" x="0px" y="0px"
	 viewBox="0 0 492 492" style="enable-background:new 0 0 492 492;" xml:space="preserve">
<g id="Master_Layer_2">
</g>
<g id="Layer_1">
	<g>
		<g>
			<g>
				<polygon style="fill-rule:evenodd;clip-rule:evenodd;fill:#CCD1D9;" points="402.858,62.419 402.897,106.388 89.696,106.19 
					89.557,62.419 				"/>
				<g>
					<path style="fill-rule:evenodd;clip-rule:evenodd;fill:#656D78;" d="M121.321,84.888c0-3.592-2.93-6.522-6.522-6.522
						c-3.592,0-6.522,2.93-6.522,6.522s2.93,6.522,6.522,6.522C118.392,91.409,121.321,88.48,121.321,84.888z"/>
					<path style="fill-rule:evenodd;clip-rule:evenodd;fill:#656D78;" d="M143.413,84.888c0-3.592-2.93-6.522-6.522-6.522
						c-3.592,0-6.522,2.93-6.522,6.522s2.93,6.522,6.522,6.522C140.483,91.409,143.413,88.48,143.413,84.888z"/>
					<path style="fill-rule:evenodd;clip-rule:evenodd;fill:#656D78;" d="M165.504,84.888c0-3.592-2.93-6.522-6.522-6.522
						s-6.522,2.93-6.522,6.522s2.93,6.522,6.522,6.522S165.504,88.48,165.504,84.888z"/>
				</g>
			</g>
			<g>
				<path style="fill-rule:evenodd;clip-rule:evenodd;fill:#E6E9ED;" d="M402.897,106.388l0.065,70.935
					c0,92.97-55.481,182.909-156.52,253.737c-50.52-35.413-89.65-75.607-116.151-118.567c-26.499-42.96-40.369-88.684-40.369-135.17
					l-0.227-71.133L402.897,106.388z"/>
				<g>
					<path style="fill-rule:evenodd;clip-rule:evenodd;fill:#55A7FA;" d="M312.781,235.262h-60.26v-60.26
						c0-3.458-2.803-6.261-6.261-6.261c-3.458,0-6.261,2.803-6.261,6.261v60.26h-60.26c-3.458,0-6.261,2.803-6.261,6.261
						c0,3.458,2.803,6.261,6.261,6.261h60.26v60.26c0,3.458,2.803,6.261,6.261,6.261c3.458,0,6.261-2.803,6.261-6.261v-60.26h60.26
						c3.458,0,6.261-2.803,6.261-6.261C319.042,238.065,316.239,235.262,312.781,235.262z"/>
				</g>
			</g>
		</g>
	</g>
</g>
</svg>
