<?xml version="1.0" encoding="iso-8859-1"?>
<!-- Generator: Adobe Illustrator 25.2.0, SVG Export Plug-In . SVG Version: 6.00 Build 0)  -->
<svg version="1.1" xmlns="http://www.w3.org/2000/svg" xmlns:xlink="http://www.w3.org/1999/xlink" x="0px" y="0px"
	 viewBox="0 0 492 492" style="enable-background:new 0 0 492 492;" xml:space="preserve">
<g id="Master_Layer_2">
</g>
<g id="Layer_1">
	<g>
		<g>
			<g>
				<polygon style="fill-rule:evenodd;clip-rule:evenodd;fill:#E6E9ED;" points="430.58,154.83 430.58,377.476 61.94,377.476 
					61.94,154.875 				"/>
				<g>
					<path style="fill-rule:evenodd;clip-rule:evenodd;fill:#656D78;" d="M378.554,218.745h-81.259
						c-3.284,0-5.946-2.662-5.946-5.946c0-3.284,2.662-5.946,5.946-5.946l81.259,0c3.284,0,5.946,2.662,5.946,5.946
						C384.5,216.083,381.838,218.745,378.554,218.745z"/>
					<path style="fill-rule:evenodd;clip-rule:evenodd;fill:#656D78;" d="M378.554,253.181h-81.259
						c-3.284,0-5.946-2.662-5.946-5.946c0-3.284,2.662-5.946,5.946-5.946l81.259,0c3.284,0,5.946,2.662,5.946,5.946
						C384.5,250.519,381.838,253.181,378.554,253.181z"/>
					<path style="fill-rule:evenodd;clip-rule:evenodd;fill:#656D78;" d="M378.554,287.617h-81.259
						c-3.284,0-5.946-2.662-5.946-5.946c0-3.284,2.662-5.946,5.946-5.946l81.259,0c3.284,0,5.946,2.662,5.946,5.946
						C384.5,284.955,381.838,287.617,378.554,287.617z"/>
					<path style="fill-rule:evenodd;clip-rule:evenodd;fill:#656D78;" d="M378.554,322.053h-81.259
						c-3.284,0-5.946-2.662-5.946-5.946c0-3.284,2.662-5.946,5.946-5.946l81.259,0c3.284,0,5.946,2.662,5.946,5.946
						C384.5,319.392,381.838,322.053,378.554,322.053z"/>
					<g>
						
							<ellipse transform="matrix(0.9732 -0.2298 0.2298 0.9732 -56.0633 47.4029)" style="fill-rule:evenodd;clip-rule:evenodd;fill:#EF5B6D;" cx="175.53" cy="264.453" rx="69.987" ry="69.987"/>
						<path style="fill-rule:evenodd;clip-rule:evenodd;fill:#E6E9ED;" d="M183.815,264.578l22.304-22.304
							c2.322-2.322,2.322-6.087,0-8.409c-2.322-2.322-6.087-2.322-8.409,0l-22.304,22.304l-22.304-22.304
							c-2.322-2.322-6.086-2.322-8.409,0c-2.322,2.322-2.322,6.087,0,8.409l22.304,22.304l-22.304,22.304
							c-2.322,2.322-2.322,6.087,0,8.409c1.161,1.161,2.683,1.741,4.204,1.741c1.522,0,3.043-0.58,4.204-1.741l22.304-22.304
							l22.304,22.304c1.161,1.161,2.683,1.741,4.204,1.741c1.522,0,3.043-0.58,4.204-1.741c2.322-2.322,2.322-6.087,0-8.409
							L183.815,264.578z"/>
					</g>
				</g>
			</g>
			<g>
				<polygon style="fill-rule:evenodd;clip-rule:evenodd;fill:#CCD1D9;" points="430.58,116.004 430.58,154.83 61.94,154.875 
					61.94,116.004 				"/>
				<g>
					<path style="fill-rule:evenodd;clip-rule:evenodd;fill:#656D78;" d="M93.79,135.504c0-4.23-3.45-7.68-7.68-7.68
						c-4.23,0-7.68,3.45-7.68,7.68c0,4.23,3.45,7.68,7.68,7.68C90.34,143.184,93.79,139.734,93.79,135.504z"/>
					<path style="fill-rule:evenodd;clip-rule:evenodd;fill:#656D78;" d="M118.673,135.504c0-4.23-3.45-7.68-7.68-7.68
						c-4.23,0-7.68,3.45-7.68,7.68c0,4.23,3.45,7.68,7.68,7.68C115.223,143.184,118.673,139.734,118.673,135.504z"/>
					<path style="fill-rule:evenodd;clip-rule:evenodd;fill:#656D78;" d="M143.556,135.504c0-4.23-3.45-7.68-7.68-7.68
						c-4.23,0-7.68,3.45-7.68,7.68c0,4.23,3.45,7.68,7.68,7.68C140.107,143.184,143.556,139.734,143.556,135.504z"/>
				</g>
			</g>
		</g>
	</g>
</g>
</svg>
