<?xml version="1.0" encoding="iso-8859-1"?>
<!-- Generator: Adobe Illustrator 25.2.0, SVG Export Plug-In . SVG Version: 6.00 Build 0)  -->
<svg version="1.1" xmlns="http://www.w3.org/2000/svg" xmlns:xlink="http://www.w3.org/1999/xlink" x="0px" y="0px"
	 viewBox="0 0 492 492" style="enable-background:new 0 0 492 492;" xml:space="preserve">
<g id="Master_Layer_2">
</g>
<g id="Layer_1">
	<g>
		<g>
			<path style="fill-rule:evenodd;clip-rule:evenodd;fill:#56AAFF;" d="M276.212,246.74v70.91c0,3.181,2.579,5.76,5.76,5.76
				c3.181,0,5.76-2.579,5.76-5.76v-70.91c0-3.181-2.579-5.76-5.76-5.76C278.791,240.98,276.212,243.559,276.212,246.74z"/>
			<path style="fill-rule:evenodd;clip-rule:evenodd;fill:#56AAFF;" d="M246.26,170.07c-3.181,0-5.76,2.579-5.76,5.76v70.91
				c0,3.181,2.579,5.76,5.76,5.76c3.181,0,5.76-2.579,5.76-5.76v-70.91C252.02,172.649,249.441,170.07,246.26,170.07z"/>
			<path style="fill-rule:evenodd;clip-rule:evenodd;fill:#56AAFF;" d="M67.7,323.41c3.181,0,5.76-2.579,5.76-5.76v-29.695h95.616
				v29.695c0,3.181,2.579,5.76,5.76,5.76c3.181,0,5.76-2.579,5.76-5.76v-35.455c0-3.181-2.579-5.76-5.76-5.76H67.7
				c-3.181,0-5.76,2.579-5.76,5.76v35.455C61.94,320.831,64.519,323.41,67.7,323.41z"/>
			<path style="fill-rule:evenodd;clip-rule:evenodd;fill:#56AAFF;" d="M210.548,75.225h101.376v29.695
				c0,3.181,2.579,5.76,5.76,5.76s5.76-2.579,5.76-5.76V69.465c0-3.181-2.579-5.76-5.76-5.76H210.548c-3.181,0-5.76,2.579-5.76,5.76
				C204.788,72.646,207.367,75.225,210.548,75.225z"/>
			<path style="fill-rule:evenodd;clip-rule:evenodd;fill:#56AAFF;" d="M424.82,63.705h-35.712c-3.181,0-5.76,2.579-5.76,5.76
				v35.455c0,3.181,2.579,5.76,5.76,5.76s5.76-2.579,5.76-5.76V75.225h24.192v29.695c0,3.181,2.579,5.76,5.76,5.76
				s5.76-2.579,5.76-5.76V69.465C430.58,66.284,428.001,63.705,424.82,63.705z"/>
			<path style="fill-rule:evenodd;clip-rule:evenodd;fill:#56AAFF;" d="M246.26,99.16h-35.712c-3.181,0-5.76,2.579-5.76,5.76
				c0,3.181,2.579,5.76,5.76,5.76H240.5v23.935h-59.904v-65.15c0-3.181-2.579-5.76-5.76-5.76c-3.181,0-5.76,2.579-5.76,5.76v70.91
				c0,3.181,2.579,5.76,5.76,5.76h71.424c3.181,0,5.76-2.579,5.76-5.76V104.92C252.02,101.738,249.441,99.16,246.26,99.16z"/>
			<path style="fill-rule:evenodd;clip-rule:evenodd;fill:#56AAFF;" d="M424.82,134.615h-65.664v-65.15
				c0-3.181-2.579-5.76-5.76-5.76s-5.76,2.579-5.76,5.76v70.91c0,3.181,2.579,5.76,5.76,5.76h71.424c3.181,0,5.76-2.579,5.76-5.76
				C430.58,137.194,428.001,134.615,424.82,134.615z"/>
			<path style="fill-rule:evenodd;clip-rule:evenodd;fill:#56AAFF;" d="M67.7,146.135h71.424c3.181,0,5.76-2.579,5.76-5.76v-70.91
				c0-3.181-2.579-5.76-5.76-5.76H67.7c-3.181,0-5.76,2.579-5.76,5.76v70.91C61.94,143.556,64.519,146.135,67.7,146.135
				L67.7,146.135z M73.46,134.615v-59.39h59.904v59.39H73.46z"/>
			<path style="fill-rule:evenodd;clip-rule:evenodd;fill:#56AAFF;" d="M424.82,170.07h-35.712c-3.181,0-5.76,2.579-5.76,5.76
				v35.455c0,3.181,2.579,5.76,5.76,5.76s5.76-2.579,5.76-5.76V181.59h24.192v59.39h-29.952c-3.181,0-5.76,2.579-5.76,5.76v70.91
				c0,3.181,2.579,5.76,5.76,5.76h35.712c3.181,0,5.76-2.579,5.76-5.76v-35.455c0-3.181-2.579-5.76-5.76-5.76s-5.76,2.579-5.76,5.76
				v29.695h-24.192V252.5h29.952c3.181,0,5.76-2.579,5.76-5.76v-70.91C430.58,172.649,428.001,170.07,424.82,170.07z"/>
			<path style="fill-rule:evenodd;clip-rule:evenodd;fill:#56AAFF;" d="M317.684,181.59h35.712c3.181,0,5.76-2.579,5.76-5.76
				c0-3.181-2.579-5.76-5.76-5.76h-29.952v-29.695c0-3.181-2.579-5.76-5.76-5.76h-35.712c-3.181,0-5.76,2.579-5.76,5.76v70.91
				c0,3.181,2.579,5.76,5.76,5.76h71.424c3.181,0,5.76-2.579,5.76-5.76c0-3.181-2.579-5.76-5.76-5.76h-65.664v-59.39h24.192v29.695
				C311.924,179.011,314.503,181.59,317.684,181.59z"/>
			<path style="fill-rule:evenodd;clip-rule:evenodd;fill:#56AAFF;" d="M133.364,175.83c0,3.181,2.579,5.76,5.76,5.76h65.664v59.39
				h-65.664c-3.181,0-5.76,2.579-5.76,5.76c0,3.181,2.579,5.76,5.76,5.76h71.424c3.181,0,5.76-2.579,5.76-5.76v-70.91
				c0-3.181-2.579-5.76-5.76-5.76h-71.424C135.943,170.07,133.364,172.649,133.364,175.83z"/>
			<path style="fill-rule:evenodd;clip-rule:evenodd;fill:#56AAFF;" d="M67.7,252.5h35.712c3.181,0,5.76-2.579,5.76-5.76
				c0-3.181-2.579-5.76-5.76-5.76H73.46v-59.39h24.192v29.695c0,3.181,2.579,5.76,5.76,5.76h71.424c3.181,0,5.76-2.579,5.76-5.76
				c0-3.181-2.579-5.76-5.76-5.76h-65.664V175.83c0-3.181-2.579-5.76-5.76-5.76H67.7c-3.181,0-5.76,2.579-5.76,5.76v70.91
				C61.94,249.921,64.519,252.5,67.7,252.5z"/>
			<path style="fill-rule:evenodd;clip-rule:evenodd;fill:#56AAFF;" d="M347.636,252.5v29.695c0,3.181,2.579,5.76,5.76,5.76
				s5.76-2.579,5.76-5.76V246.74c0-3.181-2.579-5.76-5.76-5.76h-35.712c-3.181,0-5.76,2.579-5.76,5.76v106.365
				c0,3.181,2.579,5.76,5.76,5.76s5.76-2.579,5.76-5.76V252.5H347.636z"/>
			<path style="fill-rule:evenodd;clip-rule:evenodd;fill:#56AAFF;" d="M246.26,276.435h-35.712c-3.181,0-5.76,2.579-5.76,5.76
				v65.15h-29.952c-3.181,0-5.76,2.579-5.76,5.76v35.455c0,3.181,2.579,5.76,5.76,5.76c3.181,0,5.76-2.579,5.76-5.76v-29.695h29.952
				c3.181,0,5.76-2.579,5.76-5.76v-65.15H240.5v65.15c0,3.181,2.579,5.76,5.76,5.76c3.181,0,5.76-2.579,5.76-5.76v-70.91
				C252.02,279.014,249.441,276.435,246.26,276.435z"/>
			<path style="fill-rule:evenodd;clip-rule:evenodd;fill:#56AAFF;" d="M424.82,347.345h-71.424c-3.181,0-5.76,2.579-5.76,5.76
				v70.91c0,3.181,2.579,5.76,5.76,5.76h71.424c3.181,0,5.76-2.579,5.76-5.76v-70.91C430.58,349.924,428.001,347.345,424.82,347.345
				L424.82,347.345z M419.06,358.865v59.39h-59.904v-59.39H419.06z"/>
			<path style="fill-rule:evenodd;clip-rule:evenodd;fill:#56AAFF;" d="M139.124,347.345H67.7c-3.181,0-5.76,2.579-5.76,5.76v70.91
				c0,3.181,2.579,5.76,5.76,5.76h71.424c3.181,0,5.76-2.579,5.76-5.76v-70.91C144.884,349.924,142.305,347.345,139.124,347.345
				L139.124,347.345z M133.364,358.865v59.39H73.46v-59.39H133.364z"/>
			<path style="fill-rule:evenodd;clip-rule:evenodd;fill:#56AAFF;" d="M246.26,382.8h-35.712c-3.181,0-5.76,2.579-5.76,5.76
				c0,3.181,2.579,5.76,5.76,5.76H240.5v23.935h-65.664c-3.181,0-5.76,2.579-5.76,5.76c0,3.181,2.579,5.76,5.76,5.76h71.424
				c3.181,0,5.76-2.579,5.76-5.76V388.56C252.02,385.379,249.441,382.8,246.26,382.8z"/>
			<path style="fill-rule:evenodd;clip-rule:evenodd;fill:#56AAFF;" d="M317.684,418.255h-29.952v-65.15
				c0-3.181-2.579-5.76-5.76-5.76c-3.181,0-5.76,2.579-5.76,5.76v70.91c0,3.181,2.579,5.76,5.76,5.76h35.712
				c3.181,0,5.76-2.579,5.76-5.76C323.444,420.834,320.865,418.255,317.684,418.255z"/>
			<path style="fill-rule:evenodd;clip-rule:evenodd;fill:#56AAFF;" d="M90.26,407.54h26.4c3.181,0,5.76-2.579,5.76-5.76v-26.4
				c0-3.181-2.579-5.76-5.76-5.76h-26.4c-3.181,0-5.76,2.579-5.76,5.76v26.4C84.5,404.961,87.079,407.54,90.26,407.54L90.26,407.54z
				 M96.02,381.14h14.88v14.88H96.02V381.14z"/>
			<path style="fill-rule:evenodd;clip-rule:evenodd;fill:#56AAFF;" d="M375.86,407.54h26.4c3.181,0,5.76-2.579,5.76-5.76v-26.4
				c0-3.181-2.579-5.76-5.76-5.76h-26.4c-3.181,0-5.76,2.579-5.76,5.76v26.4C370.1,404.961,372.679,407.54,375.86,407.54
				L375.86,407.54z M381.62,381.14h14.88v14.88h-14.88V381.14z"/>
			<path style="fill-rule:evenodd;clip-rule:evenodd;fill:#56AAFF;" d="M116.66,85.94h-26.4c-3.181,0-5.76,2.579-5.76,5.76v26.4
				c0,3.181,2.579,5.76,5.76,5.76h26.4c3.181,0,5.76-2.579,5.76-5.76V91.7C122.42,88.519,119.841,85.94,116.66,85.94L116.66,85.94z
				 M110.9,112.34H96.02V97.46h14.88V112.34z"/>
		</g>
	</g>
</g>
</svg>
