<?xml version="1.0" encoding="iso-8859-1"?>
<!-- Generator: Adobe Illustrator 25.2.0, SVG Export Plug-In . SVG Version: 6.00 Build 0)  -->
<svg version="1.1" xmlns="http://www.w3.org/2000/svg" xmlns:xlink="http://www.w3.org/1999/xlink" x="0px" y="0px"
	 viewBox="0 0 492 492" style="enable-background:new 0 0 492 492;" xml:space="preserve">
<g id="Master_Layer_2">
</g>
<g id="Layer_1">
	<g>
		<g>
			<path style="fill-rule:evenodd;clip-rule:evenodd;fill:#EF5B6D;" d="M316.165,120.335l-0.002-0.002l-1.169-0.991
				c-9.806-7.288-20.808-13.058-32.66-16.955c0,0-21.909-20.548-36.074-20.766c-15.6-0.24-36.074,20.766-36.074,20.766
				c-11.852,3.897-22.854,9.667-32.66,16.955l-1.107,0.798c-6.315,19.158-0.176,35.083,6.459,45.393
				c7.613,11.835,15.139,23.724,22.537,35.69c5.849,9.446,11.614,18.94,17.28,28.495v52.062h47.269v-52.295
				c5.621-9.476,11.342-18.893,17.141-28.262c7.398-11.966,14.924-23.855,22.537-35.69
				C316.254,155.257,322.374,139.406,316.165,120.335z"/>
			<path style="fill-rule:evenodd;clip-rule:evenodd;fill:#FE646F;" d="M287.105,201.223l27.338,1.893
				c29.117,2.014,54.097,21.499,63.145,49.249l19.103,58.603c9.048,27.749,0.349,58.212-21.99,77.001L344.4,413.46l-1.36,1.36
				l-193.56,0l-1.36-1.36l-30.301-25.493c-22.339-18.789-31.037-49.251-21.989-77.001l19.103-58.603
				c9.048-27.749,34.027-47.234,63.144-49.248l27.338-1.893L287.105,201.223z"/>
			<path style="fill-rule:evenodd;clip-rule:evenodd;fill:#FE646F;" d="M316.163,120.333l-1.169-0.991
				c-9.806-7.288-20.808-13.058-32.66-16.955c-11.346-3.736-23.473-5.758-36.074-5.758c-12.6,0-24.727,2.021-36.074,5.758
				c-11.852,3.897-22.854,9.667-32.66,16.955l-1.108,0.798c4.888-14.83,17.24-31.597,42.599-49.196
				c16.373-11.364,38.11-11.364,54.483,0C298.972,88.619,311.319,105.456,316.163,120.333z"/>
			<g>
				<path style="fill-rule:evenodd;clip-rule:evenodd;fill:#D89F6C;" d="M261.058,187.55c1.259,14.847,4.325,28.958,8.906,41.935
					c-4.479,7.541-8.896,15.122-13.242,22.743L246.26,270.57l-10.462-18.343c-4.301-7.544-8.671-15.045-13.103-22.51
					c4.61-13.001,7.705-27.152,8.976-42.042C240.728,193.042,252.035,193,261.058,187.55z"/>
				<path style="fill-rule:evenodd;clip-rule:evenodd;fill:#EABB8C;" d="M282.334,102.386c6.265,9.211,9.068,20.857,6.709,32.878
					l-4.152,21.167c-1.306,9.826-6.577,18.687-14.592,24.521l-5.477,3.991l-1.697,1.236c-0.674,0.491-1.363,0.946-2.066,1.37
					c-9.023,5.45-20.33,5.492-29.387,0.126c-0.776-0.458-1.536-0.959-2.274-1.496l-1.472-1.07l-5.703-4.157
					c-8.014-5.834-13.286-14.696-14.592-24.521l-4.152-21.167c-2.358-12.02,0.444-23.667,6.709-32.878
					c11.346-3.736,23.473-5.758,36.074-5.758C258.86,96.629,270.987,98.65,282.334,102.386z"/>
			</g>
			<path style="fill-rule:evenodd;clip-rule:evenodd;fill:#656D78;" d="M343.707,306.788c8.802,0,15.513,7.883,14.109,16.574
				L343.04,414.82l-0.684,4.227c-1.117,6.924-7.095,12.013-14.109,12.013H164.272c-7.013,0-12.992-5.089-14.109-12.013l-0.684-4.227
				l-14.775-91.459c-1.405-8.691,5.307-16.574,14.109-16.574H343.707z"/>
		</g>
	</g>
</g>
</svg>
