<?xml version="1.0" encoding="iso-8859-1"?>
<!-- Generator: Adobe Illustrator 25.2.0, SVG Export Plug-In . SVG Version: 6.00 Build 0)  -->
<svg version="1.1" xmlns="http://www.w3.org/2000/svg" xmlns:xlink="http://www.w3.org/1999/xlink" x="0px" y="0px"
	 viewBox="0 0 492 492" style="enable-background:new 0 0 492 492;" xml:space="preserve">
<g id="Master_Layer_2">
</g>
<g id="Layer_1">
	<g>
		<g>
			<g>
				<polygon style="fill-rule:evenodd;clip-rule:evenodd;fill:#CCD1D9;" points="327.599,431.06 105.141,431.06 105.141,116.403 
					327.62,116.403 				"/>
			</g>
			<g>
				<polygon style="fill-rule:evenodd;clip-rule:evenodd;fill:#CCD1D9;" points="387.379,102.059 345.357,102.059 345.357,62.42 
									"/>
			</g>
			<g>
				<polygon style="fill-rule:evenodd;clip-rule:evenodd;fill:#E6E9ED;" points="387.379,102.059 387.379,377.077 164.922,377.077 
					164.922,62.42 345.357,62.42 345.357,102.059 				"/>
			</g>
			<g>
				<path style="fill-rule:evenodd;clip-rule:evenodd;fill:#56AAFF;" d="M253.958,297.047c0-4.093,3.318-7.411,7.411-7.411h12.523
					c4.093,0,7.411,3.318,7.411,7.411c0,4.093-3.318,7.411-7.411,7.411h-12.523C257.276,304.458,253.958,301.14,253.958,297.047z"/>
			</g>
			<g>
				<path style="fill-rule:evenodd;clip-rule:evenodd;fill:#56AAFF;" d="M245.512,277.534c0-4.093,3.318-7.411,7.411-7.411h20.969
					c4.093,0,7.411,3.318,7.411,7.411s-3.318,7.411-7.411,7.411h-20.969C248.83,284.945,245.512,281.627,245.512,277.534z"/>
			</g>
			<g>
				<path style="fill-rule:evenodd;clip-rule:evenodd;fill:#56AAFF;" d="M258.326,258.021c0-4.093,3.318-7.411,7.411-7.411h8.154
					c4.093,0,7.411,3.318,7.411,7.411c0,4.093-3.318,7.411-7.411,7.411h-8.154C261.645,265.432,258.326,262.114,258.326,258.021z"/>
			</g>
			<g>
				<path style="fill-rule:evenodd;clip-rule:evenodd;fill:#55A7FA;" d="M269.102,308.697V186.662c0-4.093,3.318-7.411,7.411-7.411
					c4.093,0,7.411,3.318,7.411,7.411v122.034c0,4.093-3.318,7.411-7.411,7.411C272.42,316.107,269.102,312.789,269.102,308.697z"/>
			</g>
			<g>
				
					<ellipse transform="matrix(0.9991 -0.0416 0.0416 0.9991 -6.0255 11.6104)" style="fill-rule:evenodd;clip-rule:evenodd;fill:#56AAFF;" cx="276.242" cy="150.73" rx="39.658" ry="39.658"/>
			</g>
			<g>
				<path style="fill-rule:evenodd;clip-rule:evenodd;fill:#0478ED;" d="M291.379,150.731c0-8.337-6.8-15.137-15.137-15.137
					s-15.136,6.8-15.136,15.137c0,8.337,6.799,15.136,15.136,15.136S291.379,159.067,291.379,150.731z"/>
			</g>
		</g>
	</g>
</g>
</svg>
