<?xml version="1.0" encoding="iso-8859-1"?>
<!-- Generator: Adobe Illustrator 25.2.0, SVG Export Plug-In . SVG Version: 6.00 Build 0)  -->
<svg version="1.1" xmlns="http://www.w3.org/2000/svg" xmlns:xlink="http://www.w3.org/1999/xlink" x="0px" y="0px"
	 viewBox="0 0 492 492" style="enable-background:new 0 0 492 492;" xml:space="preserve">
<g id="Master_Layer_2">
</g>
<g id="Layer_1">
	<g>
		<g>
			<path style="fill-rule:evenodd;clip-rule:evenodd;fill:#656D78;" d="M279.063,299.964l18.065,38.011l84.173,84.172
				c10.161,10.161,24.908,11.89,32.937,3.861l11.291-11.291c8.029-8.029,6.301-22.776-3.861-32.937l-84.173-84.172l-37.637-18.439
				L279.063,299.964z"/>
			<path style="fill-rule:evenodd;clip-rule:evenodd;fill:#CCD1D9;" d="M303.38,277.611l-26.248,26.249
				c-5.481,5.481-14.367,5.481-19.848,0l-3.471-3.471c-5.481-5.481-5.481-14.367,0-19.848l26.248-26.248
				c5.481-5.481,14.367-5.481,19.848,0l3.471,3.471C308.861,263.243,308.861,272.13,303.38,277.611z"/>
			
				<ellipse transform="matrix(0.7071 -0.7071 0.7071 0.7071 -76.6842 184.4548)" style="fill-rule:evenodd;clip-rule:evenodd;fill:#656D78;" cx="184.314" cy="184.793" rx="122.374" ry="122.374"/>
			
				<ellipse transform="matrix(0.7071 -0.7071 0.7071 0.7071 -76.6893 184.466)" style="fill-rule:evenodd;clip-rule:evenodd;fill:#E6E9ED;" cx="184.326" cy="184.805" rx="108.259" ry="108.259"/>
			<g>
				<path style="fill-rule:evenodd;clip-rule:evenodd;fill:#656D78;" d="M158.987,209.667c2.164,0,4.228,1.254,5.157,3.361
					c1.256,2.846-0.035,6.172-2.881,7.427l-2.86,1.261c-4.261,1.976-7.85,5.117-10.382,9.086c-2.509,3.928-3.834,8.48-3.834,13.165
					c0,3.111-2.522,5.633-5.633,5.633c-3.111,0-5.633-2.522-5.633-5.633c0-6.839,1.938-13.488,5.603-19.227
					c3.7-5.801,8.957-10.392,15.199-13.273c0.029-0.013,0.058-0.026,0.087-0.039l2.906-1.282
					C157.456,209.821,158.228,209.667,158.987,209.667z"/>
				<path style="fill-rule:evenodd;clip-rule:evenodd;fill:#656D78;" d="M208.759,209.711c0.732,0,1.475,0.143,2.192,0.447
					l2.924,1.237c0.056,0.024,0.111,0.048,0.166,0.073c6.243,2.881,11.499,7.472,15.202,13.276
					c3.664,5.736,5.601,12.385,5.601,19.224c0,3.111-2.522,5.633-5.633,5.633c-3.111,0-5.633-2.522-5.633-5.633
					c0-4.686-1.325-9.238-3.832-13.163c-2.526-3.96-6.102-7.095-10.348-9.072l-2.837-1.2c-2.865-1.212-4.206-4.517-2.994-7.382
					C204.478,211.002,206.564,209.711,208.759,209.711z"/>
			</g>
			<path style="fill-rule:evenodd;clip-rule:evenodd;fill:#656D78;" d="M178.503,146.549c-0.28,0-0.563-0.021-0.848-0.064
				c-3.076-0.464-5.193-3.335-4.729-6.411c0.059-0.394,0.09-0.801,0.09-1.211c0-5.214-4.448-11.386-8.206-11.386
				c-3.111,0-5.633-2.522-5.633-5.633c0-3.111,2.522-5.633,5.633-5.633c5.273,0,10.475,2.869,14.272,7.871
				c3.304,4.354,5.2,9.741,5.2,14.781c0,0.971-0.073,1.944-0.216,2.892C183.645,144.547,181.242,146.549,178.503,146.549z"/>
			<path style="fill-rule:evenodd;clip-rule:evenodd;fill:#656D78;" d="M189.262,146.549c-2.739,0-5.141-2.001-5.563-4.792
				c-0.143-0.948-0.216-1.921-0.216-2.893c0-5.04,1.895-10.427,5.2-14.781c3.797-5.002,8.999-7.871,14.271-7.871
				c3.111,0,5.633,2.522,5.633,5.633c0,3.111-2.522,5.633-5.633,5.633c-3.758,0-8.205,6.172-8.205,11.386
				c0,0.41,0.03,0.817,0.089,1.21c0.465,3.076-1.652,5.947-4.728,6.411C189.826,146.528,189.542,146.549,189.262,146.549z"/>
			<path style="fill-rule:evenodd;clip-rule:evenodd;fill:#EF5B6D;" d="M197.242,144.335v11.212h-13.359h-13.359v-11.212
				c0-6.121,5.98-11.081,13.359-11.081c3.69,0,7.029,1.239,9.447,3.244C195.747,138.505,197.242,141.274,197.242,144.335z"/>
			<g>
				<path style="fill-rule:evenodd;clip-rule:evenodd;fill:#656D78;" d="M208.778,189.123c-2.164,0-4.228-1.254-5.157-3.361
					c-1.255-2.846,0.035-6.172,2.881-7.427l2.86-1.261c4.261-1.976,7.851-5.117,10.383-9.086c2.509-3.928,3.834-8.48,3.834-13.166
					c0-3.111,2.522-5.633,5.633-5.633c3.111,0,5.633,2.522,5.633,5.633c0,6.839-1.938,13.488-5.603,19.227
					c-3.7,5.801-8.957,10.392-15.199,13.273c-0.029,0.013-0.058,0.026-0.087,0.039l-2.906,1.281
					C210.309,188.969,209.537,189.123,208.778,189.123z"/>
				<path style="fill-rule:evenodd;clip-rule:evenodd;fill:#656D78;" d="M159.006,189.078c-0.732,0-1.475-0.143-2.192-0.447
					l-2.924-1.237c-0.056-0.023-0.111-0.048-0.166-0.073c-6.243-2.881-11.499-7.472-15.202-13.276
					c-3.664-5.736-5.601-12.384-5.601-19.224c0-3.111,2.522-5.633,5.633-5.633c3.111,0,5.633,2.522,5.633,5.633
					c0,4.686,1.325,9.238,3.832,13.163c2.526,3.961,6.102,7.095,10.348,9.072l2.837,1.2c2.865,1.212,4.205,4.517,2.994,7.382
					C163.287,187.787,161.201,189.078,159.006,189.078z"/>
			</g>
			<path style="fill-rule:evenodd;clip-rule:evenodd;fill:#FE646F;" d="M188.79,246.972c-1.568,1.063-3.204,2.07-4.908,3.023
				c-1.704-0.953-3.34-1.96-4.908-3.023c-17.652-11.937-26.623-30.436-24.226-48.922c0.509-3.927,1.533-7.853,3.093-11.716
				l1.166-2.889l11.275-27.897h27.198l11.292,27.942l1.15,2.845c1.561,3.863,2.584,7.79,3.093,11.716
				C215.413,216.535,206.442,235.035,188.79,246.972z"/>
			<path style="fill-rule:evenodd;clip-rule:evenodd;fill:#656D78;" d="M188.811,174.673v71.855c0,0.15-0.007,0.298-0.021,0.444
				c-1.568,1.063-3.204,2.07-4.908,3.023c-1.704-0.953-3.34-1.96-4.908-3.023c-0.014-0.145-0.021-0.293-0.021-0.444v-71.855
				c0-2.723,2.206-4.929,4.929-4.929S188.811,171.95,188.811,174.673z"/>
		</g>
	</g>
</g>
</svg>
