<?xml version="1.0" encoding="iso-8859-1"?>
<!-- Generator: Adobe Illustrator 25.2.0, SVG Export Plug-In . SVG Version: 6.00 Build 0)  -->
<svg version="1.1" xmlns="http://www.w3.org/2000/svg" xmlns:xlink="http://www.w3.org/1999/xlink" x="0px" y="0px"
	 viewBox="0 0 492 492" style="enable-background:new 0 0 492 492;" xml:space="preserve">
<g id="Master_Layer_2">
</g>
<g id="Layer_1">
	<g>
		<g>
			<g>
				<path style="fill-rule:evenodd;clip-rule:evenodd;fill:#FE646F;" d="M359.271,268.275c0,10.519-8.528,19.047-19.047,19.047
					H80.108c-10.032,0-18.168-8.135-18.168-18.17V136.603c0-10.034,8.134-18.168,18.168-18.168l260.996,0
					c10.034,0,18.168,8.134,18.168,18.168v75.109V268.275z"/>
				<g>
					<path style="fill-rule:evenodd;clip-rule:evenodd;fill:#E6E9ED;" d="M96.669,247.588c-3.254,0-5.892-2.638-5.892-5.891v-16.889
						c0-3.254,2.638-5.891,5.892-5.891c3.254,0,5.891,2.638,5.891,5.891v16.889C102.56,244.95,99.922,247.588,96.669,247.588z"/>
					<path style="fill-rule:evenodd;clip-rule:evenodd;fill:#E6E9ED;" d="M129.593,247.588c-3.254,0-5.891-2.638-5.891-5.891
						v-16.889c0-3.254,2.638-5.891,5.891-5.891c3.254,0,5.892,2.638,5.892,5.891v16.889
						C135.484,244.95,132.846,247.588,129.593,247.588z"/>
					<path style="fill-rule:evenodd;clip-rule:evenodd;fill:#E6E9ED;" d="M162.516,247.588c-3.254,0-5.892-2.638-5.892-5.891
						v-16.889c0-3.254,2.638-5.891,5.892-5.891c3.254,0,5.892,2.638,5.892,5.891v16.889
						C168.408,244.95,165.77,247.588,162.516,247.588z"/>
					<path style="fill-rule:evenodd;clip-rule:evenodd;fill:#E6E9ED;" d="M195.44,247.588c-3.254,0-5.891-2.638-5.891-5.891v-16.889
						c0-3.254,2.638-5.891,5.891-5.891c3.254,0,5.891,2.638,5.891,5.891v16.889C201.331,244.95,198.694,247.588,195.44,247.588z"/>
					<path style="fill-rule:evenodd;clip-rule:evenodd;fill:#E6E9ED;" d="M228.364,247.588c-3.254,0-5.891-2.638-5.891-5.891
						v-16.889c0-3.254,2.638-5.891,5.891-5.891c3.254,0,5.892,2.638,5.892,5.891v16.889
						C234.255,244.95,231.618,247.588,228.364,247.588z"/>
				</g>
				<g>
					<path style="fill-rule:evenodd;clip-rule:evenodd;fill:#E6E9ED;" d="M303.156,193.885h-23.644
						c-11.88,0-21.512-9.631-21.512-21.512v-0.982c0-11.88,9.631-21.511,21.512-21.511l23.644,0c11.88,0,21.511,9.631,21.511,21.512
						v0.982C324.667,184.254,315.036,193.885,303.156,193.885z"/>
					<path style="fill-rule:evenodd;clip-rule:evenodd;fill:#E6E9ED;" d="M226.543,177.655H96.669c-3.254,0-5.892-2.638-5.892-5.892
						c0-3.254,2.638-5.891,5.892-5.891h129.874c3.254,0,5.891,2.638,5.891,5.891C232.434,175.017,229.797,177.655,226.543,177.655z"
						/>
				</g>
			</g>
			<g>
				<path style="fill-rule:evenodd;clip-rule:evenodd;fill:#82D65F;" d="M359.272,375.044L359.272,375.044L359.272,375.044
					c-46.032-32.267-71.308-73.242-71.308-115.598v-19.393l71.308-31.723l71.308,31.724v19.394
					C430.58,301.802,405.304,342.777,359.272,375.044z"/>
				<path style="fill-rule:evenodd;clip-rule:evenodd;fill:#E6E9ED;" d="M351.522,311.262c-1.508,0-3.016-0.575-4.166-1.726
					l-17.273-17.273c-2.301-2.301-2.301-6.031,0-8.332c2.301-2.301,6.031-2.301,8.332,0l13.108,13.108l32.488-32.488
					c2.301-2.301,6.031-2.301,8.332,0c2.301,2.301,2.301,6.031,0,8.332l-36.654,36.654
					C354.538,310.687,353.03,311.262,351.522,311.262z"/>
			</g>
		</g>
	</g>
</g>
</svg>
