<?xml version="1.0" encoding="iso-8859-1"?>
<!-- Generator: Adobe Illustrator 25.2.0, SVG Export Plug-In . SVG Version: 6.00 Build 0)  -->
<svg version="1.1" xmlns="http://www.w3.org/2000/svg" xmlns:xlink="http://www.w3.org/1999/xlink" x="0px" y="0px"
	 viewBox="0 0 492 492" style="enable-background:new 0 0 492 492;" xml:space="preserve">
<g id="Master_Layer_2">
</g>
<g id="Layer_1">
	<g>
		<g>
			<path style="fill-rule:evenodd;clip-rule:evenodd;fill:#656D78;" d="M344.644,233.264H61.94v-76.887h317.563v53.325
				C379.504,209.702,352.335,208.217,344.644,233.264z"/>
			<path style="fill-rule:evenodd;clip-rule:evenodd;fill:#A3E583;" d="M132.267,182.216c-1.636-2.834-5.26-3.805-8.093-2.169
				l-7.597,4.386v-8.772c0-3.272-2.653-5.925-5.925-5.925c-3.272,0-5.925,2.653-5.925,5.925v8.772l-7.597-4.386
				c-2.834-1.636-6.457-0.665-8.093,2.169c-1.636,2.834-0.665,6.457,2.168,8.094l7.596,4.386l-7.596,4.386
				c-2.834,1.636-3.805,5.26-2.168,8.094c1.098,1.901,3.089,2.964,5.137,2.964c1.005,0,2.024-0.256,2.957-0.794l7.597-4.386v8.771
				c0,3.272,2.653,5.925,5.925,5.925c3.272,0,5.925-2.653,5.925-5.925v-8.771l7.597,4.386c0.933,0.539,1.952,0.794,2.957,0.794
				c2.048,0,4.039-1.063,5.137-2.964c1.636-2.834,0.665-6.457-2.168-8.094l-7.597-4.386l7.597-4.386
				C132.932,188.673,133.903,185.05,132.267,182.216z"/>
			<path style="fill-rule:evenodd;clip-rule:evenodd;fill:#A3E583;" d="M205.647,182.216c-1.636-2.834-5.26-3.805-8.094-2.169
				l-7.596,4.386v-8.772c0-3.272-2.653-5.925-5.925-5.925c-3.272,0-5.925,2.653-5.925,5.925v8.772l-7.596-4.386
				c-2.834-1.636-6.457-0.665-8.093,2.169c-1.636,2.834-0.665,6.457,2.169,8.094l7.596,4.386l-7.596,4.386
				c-2.834,1.636-3.805,5.26-2.169,8.094c1.098,1.901,3.089,2.964,5.137,2.964c1.005,0,2.024-0.256,2.957-0.794l7.596-4.386v8.771
				c0,3.272,2.653,5.925,5.925,5.925c3.272,0,5.925-2.653,5.925-5.925v-8.771l7.597,4.386c0.933,0.539,1.952,0.794,2.957,0.794
				c2.048,0,4.039-1.063,5.137-2.964c1.636-2.834,0.665-6.457-2.168-8.094l-7.597-4.386l7.597-4.386
				C206.312,188.673,207.283,185.05,205.647,182.216z"/>
			<path style="fill-rule:evenodd;clip-rule:evenodd;fill:#A3E583;" d="M279.027,182.216c-1.637-2.834-5.26-3.805-8.094-2.169
				l-7.596,4.386v-8.772c0-3.272-2.653-5.925-5.925-5.925c-3.272,0-5.925,2.653-5.925,5.925v8.772l-7.597-4.386
				c-2.834-1.637-6.457-0.665-8.094,2.169c-1.636,2.834-0.665,6.457,2.169,8.094l7.596,4.386l-7.596,4.386
				c-2.834,1.636-3.805,5.26-2.169,8.093c1.098,1.901,3.089,2.964,5.137,2.964c1.005,0,2.024-0.256,2.957-0.795l7.597-4.386v8.772
				c0,3.272,2.653,5.925,5.925,5.925c3.272,0,5.925-2.653,5.925-5.925v-8.771l7.596,4.386c0.934,0.539,1.952,0.795,2.957,0.795
				c2.047,0,4.039-1.063,5.136-2.964c1.637-2.834,0.665-6.457-2.168-8.094l-7.597-4.386l7.597-4.386
				C279.692,188.673,280.663,185.05,279.027,182.216z"/>
			<path style="fill-rule:evenodd;clip-rule:evenodd;fill:#A3E583;" d="M350.238,199.081l-7.597-4.386l7.597-4.386
				c2.834-1.636,3.805-5.26,2.169-8.094c-1.637-2.834-5.26-3.805-8.094-2.169l-7.596,4.386v-8.772c0-3.272-2.652-5.925-5.925-5.925
				c-3.272,0-5.925,2.653-5.925,5.925v8.772l-7.597-4.386c-2.834-1.636-6.458-0.665-8.093,2.169
				c-1.636,2.834-0.665,6.457,2.168,8.094l7.596,4.386l-7.596,4.386c-2.834,1.636-3.805,5.26-2.168,8.093
				c1.098,1.901,3.089,2.964,5.136,2.964c1.005,0,2.024-0.256,2.957-0.795l7.597-4.386v8.772c0,3.272,2.653,5.925,5.925,5.925
				c3.272,0,5.925-2.653,5.925-5.925v-8.771l7.596,4.386c0.934,0.539,1.952,0.795,2.957,0.795c2.047,0,4.039-1.063,5.136-2.964
				C354.043,204.341,353.072,200.717,350.238,199.081z"/>
			<g>
				<path style="fill-rule:evenodd;clip-rule:evenodd;fill:#CCD1D9;" d="M416.348,268.291c-3.378,0-6.116-2.738-6.116-6.116v-15.326
					c0-8.371-3.261-16.244-9.183-22.165c-5.921-5.922-13.793-9.182-22.165-9.182c-17.285,0-31.348,14.063-31.348,31.348v15.326
					c0,3.378-2.738,6.116-6.116,6.116c-3.378,0-6.116-2.738-6.116-6.116v-15.326c0-24.03,19.55-43.58,43.58-43.58
					c11.64,0,22.583,4.534,30.815,12.765c8.232,8.232,12.765,19.176,12.765,30.814v15.326
					C422.464,265.553,419.726,268.291,416.348,268.291z"/>
				<rect x="327.189" y="262.175" style="fill-rule:evenodd;clip-rule:evenodd;fill:#FF8900;" width="103.39" height="74.928"/>
				<path style="fill-rule:evenodd;clip-rule:evenodd;fill:#FFD400;" d="M388.672,294.155c0-5.391-4.397-9.787-9.788-9.787
					s-9.788,4.396-9.788,9.787c0,5.391,4.397,9.788,9.788,9.788S388.672,299.546,388.672,294.155z"/>
				<path style="fill-rule:evenodd;clip-rule:evenodd;fill:#FF8900;" d="M382.538,294.155c0-2.012-1.642-3.654-3.654-3.654
					s-3.654,1.641-3.654,3.654s1.641,3.654,3.654,3.654S382.538,296.167,382.538,294.155z"/>
				<path style="fill-rule:evenodd;clip-rule:evenodd;fill:#FFD400;" d="M378.884,313.344c-1.909,0-3.457-1.548-3.457-3.457v-6.892
					c0-1.909,1.548-3.457,3.457-3.457s3.457,1.548,3.457,3.457v6.892C382.341,311.796,380.793,313.344,378.884,313.344z"/>
			</g>
		</g>
	</g>
</g>
</svg>
