<?xml version="1.0" encoding="iso-8859-1"?>
<!-- Generator: Adobe Illustrator 25.2.0, SVG Export Plug-In . SVG Version: 6.00 Build 0)  -->
<svg version="1.1" xmlns="http://www.w3.org/2000/svg" xmlns:xlink="http://www.w3.org/1999/xlink" x="0px" y="0px"
	 viewBox="0 0 492 492" style="enable-background:new 0 0 492 492;" xml:space="preserve">
<g id="Master_Layer_2">
</g>
<g id="Layer_1">
	<g>
		<g>
			<ellipse style="fill-rule:evenodd;clip-rule:evenodd;fill:#E6E9ED;" cx="246.26" cy="246.74" rx="178.56" ry="108.598"/>
			<g>
				<path style="fill-rule:evenodd;clip-rule:evenodd;fill:#56AAFF;" d="M330.26,252.5c-3.181,0-5.76-2.579-5.76-5.76
					c0-10.375-1.997-20.451-5.935-29.947c-3.947-9.519-9.66-18.057-16.981-25.376c-2.25-2.249-2.25-5.896-0.001-8.146
					c2.249-2.25,5.896-2.25,8.146-0.001c8.395,8.394,14.948,18.188,19.477,29.11c4.522,10.902,6.814,22.462,6.814,34.36
					C336.02,249.921,333.441,252.5,330.26,252.5z"/>
				<path style="fill-rule:evenodd;clip-rule:evenodd;fill:#56AAFF;" d="M162.26,252.5c-3.181,0-5.76-2.579-5.76-5.76
					c0-11.898,2.292-23.458,6.814-34.36c4.529-10.922,11.082-20.715,19.477-29.109c8.393-8.395,18.187-14.948,29.109-19.477
					c2.939-1.219,6.309,0.176,7.527,3.115c1.219,2.939-0.176,6.309-3.115,7.527c-9.518,3.947-18.056,9.66-25.376,16.981
					c-7.321,7.321-13.035,15.858-16.982,25.377c-3.938,9.497-5.935,19.572-5.935,29.947C168.02,249.921,165.441,252.5,162.26,252.5z
					"/>
				<path style="fill-rule:evenodd;clip-rule:evenodd;fill:#56AAFF;" d="M246.26,336.5c-11.898,0-23.458-2.292-34.36-6.814
					c-2.939-1.219-4.333-4.589-3.114-7.527c1.219-2.938,4.588-4.333,7.527-3.114c9.496,3.938,19.572,5.935,29.947,5.935
					c3.181,0,5.76,2.579,5.76,5.76S249.441,336.5,246.26,336.5z"/>
				<path style="fill-rule:evenodd;clip-rule:evenodd;fill:#56AAFF;" d="M186.863,311.897c-1.474,0-2.948-0.562-4.073-1.687
					c-8.395-8.394-14.948-18.188-19.477-29.11c-1.219-2.939,0.176-6.309,3.115-7.527c2.939-1.218,6.309,0.176,7.527,3.115
					c3.947,9.518,9.66,18.056,16.981,25.376c2.25,2.249,2.25,5.896,0.001,8.146C189.812,311.334,188.337,311.897,186.863,311.897z"
					/>
				<path style="fill-rule:evenodd;clip-rule:evenodd;fill:#56AAFF;" d="M278.411,174.876c-0.735,0-1.483-0.142-2.204-0.441
					c-9.496-3.938-19.572-5.935-29.947-5.935c-3.181,0-5.76-2.579-5.76-5.76c0-3.181,2.579-5.76,5.76-5.76
					c11.897,0,23.458,2.292,34.36,6.814c2.939,1.219,4.333,4.589,3.114,7.527C282.815,173.538,280.671,174.876,278.411,174.876z"/>
				<path style="fill-rule:evenodd;clip-rule:evenodd;fill:#56AAFF;" d="M278.416,330.127c-2.259,0-4.404-1.338-5.323-3.555
					c-1.219-2.939,0.176-6.309,3.114-7.527c9.519-3.947,18.056-9.66,25.376-16.981c7.321-7.32,13.034-15.858,16.982-25.377
					c1.219-2.938,4.588-4.333,7.527-3.115c2.939,1.219,4.333,4.589,3.115,7.527c-4.529,10.922-11.082,20.716-19.477,29.11
					c-8.393,8.395-18.187,14.947-29.109,19.477C279.899,329.986,279.151,330.127,278.416,330.127z"/>
			</g>
			<path style="fill-rule:evenodd;clip-rule:evenodd;fill:#CCD1D9;" d="M424.82,163.716c-3.181,0-5.76-2.579-5.76-5.76v-53.597
				h-53.597c-3.181,0-5.76-2.579-5.76-5.76c0-3.181,2.579-5.76,5.76-5.76h59.357c3.181,0,5.76,2.579,5.76,5.76v59.357
				C430.58,161.137,428.001,163.716,424.82,163.716z"/>
			<path style="fill-rule:evenodd;clip-rule:evenodd;fill:#CCD1D9;" d="M424.82,400.641h-59.357c-3.181,0-5.76-2.579-5.76-5.76
				c0-3.181,2.579-5.76,5.76-5.76h53.597v-53.597c0-3.181,2.579-5.76,5.76-5.76s5.76,2.579,5.76,5.76v59.357
				C430.58,398.062,428.001,400.641,424.82,400.641z"/>
			<path style="fill-rule:evenodd;clip-rule:evenodd;fill:#CCD1D9;" d="M67.7,163.716c-3.181,0-5.76-2.579-5.76-5.76V98.599
				c0-3.181,2.579-5.76,5.76-5.76h59.357c3.181,0,5.76,2.579,5.76,5.76c0,3.181-2.579,5.76-5.76,5.76H73.46v53.597
				C73.46,161.137,70.881,163.716,67.7,163.716z"/>
			<path style="fill-rule:evenodd;clip-rule:evenodd;fill:#CCD1D9;" d="M127.057,400.641H67.7c-3.181,0-5.76-2.579-5.76-5.76
				v-59.357c0-3.181,2.579-5.76,5.76-5.76c3.181,0,5.76,2.579,5.76,5.76v53.597h53.597c3.181,0,5.76,2.579,5.76,5.76
				C132.817,398.062,130.238,400.641,127.057,400.641z"/>
			<path style="fill-rule:evenodd;clip-rule:evenodd;fill:#EF5B6D;" d="M284.666,251.534c-2.643,0-4.794-2.15-4.794-4.793
				c0-4.458-0.858-8.786-2.549-12.865c-1.696-4.089-4.15-7.757-7.296-10.902c-1.869-1.869-1.869-4.91,0-6.779
				c0.905-0.905,2.109-1.404,3.39-1.404c1.28,0,2.484,0.499,3.389,1.404c4.04,4.04,7.194,8.753,9.373,14.01
				c2.176,5.248,3.28,10.812,3.28,16.537C289.46,249.383,287.31,251.534,284.666,251.534z"/>
			<path style="fill-rule:evenodd;clip-rule:evenodd;fill:#EF5B6D;" d="M207.854,251.534c-2.643,0-4.794-2.15-4.794-4.793
				c0-5.725,1.104-11.289,3.28-16.538c2.18-5.257,5.333-9.97,9.373-14.009c4.039-4.039,8.752-7.193,14.009-9.373
				c0.586-0.243,1.204-0.366,1.835-0.366c1.945,0,3.684,1.161,4.429,2.958c1.012,2.441-0.15,5.252-2.592,6.264
				c-4.089,1.696-7.757,4.15-10.902,7.296c-3.146,3.146-5.601,6.814-7.296,10.903c-1.691,4.078-2.549,8.407-2.549,12.865
				C212.647,249.383,210.497,251.534,207.854,251.534z"/>
			<path style="fill-rule:evenodd;clip-rule:evenodd;fill:#EF5B6D;" d="M246.26,289.94c-5.725,0-11.289-1.104-16.538-3.28
				c-1.183-0.49-2.104-1.412-2.593-2.595c-0.49-1.183-0.489-2.486,0.001-3.669c0.745-1.797,2.483-2.958,4.429-2.958
				c0.632,0,1.249,0.123,1.835,0.366c4.078,1.691,8.406,2.549,12.865,2.549c2.643,0,4.794,2.15,4.794,4.794
				C251.054,287.79,248.903,289.94,246.26,289.94z"/>
			<path style="fill-rule:evenodd;clip-rule:evenodd;fill:#EF5B6D;" d="M219.103,278.691c-1.28,0-2.483-0.498-3.389-1.403
				c-4.041-4.04-7.194-8.754-9.374-14.01c-0.491-1.183-0.491-2.486-0.001-3.669c0.49-1.183,1.41-2.105,2.593-2.595
				c0.586-0.243,1.204-0.366,1.835-0.366c1.945,0,3.684,1.161,4.429,2.958c1.696,4.089,4.15,7.757,7.296,10.902
				c1.869,1.869,1.869,4.91,0.001,6.779C221.587,278.192,220.383,278.691,219.103,278.691z"/>
			<path style="fill-rule:evenodd;clip-rule:evenodd;fill:#EF5B6D;" d="M260.96,216.042c-0.632,0-1.249-0.123-1.835-0.367
				c-4.078-1.691-8.406-2.549-12.865-2.549c-2.643,0-4.793-2.15-4.793-4.794c0-2.643,2.15-4.793,4.793-4.793
				c5.725,0,11.289,1.104,16.537,3.28c2.441,1.012,3.604,3.823,2.592,6.264C264.645,214.881,262.906,216.042,260.96,216.042z"/>
			<path style="fill-rule:evenodd;clip-rule:evenodd;fill:#EF5B6D;" d="M260.963,287.026c-1.945,0-3.684-1.161-4.429-2.958
				c-1.012-2.441,0.15-5.251,2.591-6.264c4.089-1.696,7.758-4.15,10.903-7.296c3.146-3.146,5.601-6.814,7.296-10.903
				c0.745-1.797,2.483-2.958,4.429-2.958c0.632,0,1.248,0.123,1.835,0.366c2.442,1.013,3.605,3.823,2.592,6.265
				c-2.18,5.257-5.333,9.97-9.373,14.01c-4.039,4.039-8.753,7.193-14.009,9.373C262.211,286.903,261.594,287.026,260.963,287.026z"
				/>
		</g>
	</g>
</g>
</svg>
