<?xml version="1.0" encoding="iso-8859-1"?>
<!-- Generator: Adobe Illustrator 25.2.0, SVG Export Plug-In . SVG Version: 6.00 Build 0)  -->
<svg version="1.1" xmlns="http://www.w3.org/2000/svg" xmlns:xlink="http://www.w3.org/1999/xlink" x="0px" y="0px"
	 viewBox="0 0 492 492" style="enable-background:new 0 0 492 492;" xml:space="preserve">
<g id="Master_Layer_2">
</g>
<g id="Layer_1">
	<g>
		<g>
			<path style="fill-rule:evenodd;clip-rule:evenodd;fill:#CCD1D9;" d="M430.58,362.524c0,7.066-5.728,12.793-12.793,12.793
				l-343.053,0c-7.066,0-12.793-5.728-12.793-12.793l0-197.381c0-2.361,0.639-4.573,1.757-6.473h365.127
				c1.117,1.9,1.757,4.113,1.757,6.473L430.58,362.524z"/>
			<path style="fill-rule:evenodd;clip-rule:evenodd;fill:#BAC3D1;" d="M195.38,242.18l-98.756-62.585L63.697,158.67
				c2.222-3.781,6.332-6.32,11.037-6.32h343.052c4.705,0,8.815,2.54,11.037,6.32l-32.927,20.924L297.14,242.18H195.38z"/>
			<path style="fill-rule:evenodd;clip-rule:evenodd;fill:#547B8C;" d="M306.199,152.351c9.578,16.46,12.209,36.666,6.298,55.762
				l-5.141,16.599c-1.226,3.961-1.818,8.066-1.774,12.172c0.037,3.396,0.508,6.791,1.417,10.1c0.446,1.62,0.656,3.236,0.656,4.816
				c0,0.181-0.002,0.359-0.007,0.538c-0.384,12.764-15.229,19.621-25.376,11.869l-1.516-1.159c-3.27-2.5-8.108-0.382-8.324,3.731
				c-0.005,0.104-0.007,0.208-0.007,0.312c0,11.612-9.414,21.023-21.023,21.023l-10.282,0c-11.609,0-21.021-9.412-21.021-21.023
				c0-0.104-0.005-0.208-0.01-0.312c-0.215-4.112-5.052-6.231-8.324-3.731l-1.516,1.157c-10.145,7.752-24.989,0.897-25.376-11.864
				c-0.052-1.754,0.154-3.552,0.649-5.356c0.914-3.327,1.388-6.741,1.417-10.16c0.002-0.121,0.002-0.245,0.002-0.367
				c0-3.961-0.592-7.923-1.776-11.745l-5.121-16.537c-5.956-19.237-3.208-39.426,6.335-55.824
				c6.679-11.468,16.68-21.083,29.354-27.225c9.191-4.452,19.532-6.964,30.527-6.964c9.803,0,19.089,1.997,27.497,5.584
				c3.505,1.496,6.86,3.267,10.036,5.287C293.261,135.053,300.825,143.112,306.199,152.351z"/>
			<path style="fill-rule:evenodd;clip-rule:evenodd;fill:#CCD1D9;" d="M279.43,193.072c5.428,3.134,7.286,10.073,4.152,15.501
				c-3.132,5.426-10.073,7.286-15.499,4.152l-4.655-2.686c-5.428-3.134-7.286-10.073-4.152-15.501
				c2.101-3.639,5.914-5.676,9.833-5.676c1.928,0,3.877,0.491,5.666,1.524L279.43,193.072z"/>
			<path style="fill-rule:evenodd;clip-rule:evenodd;fill:#CCD1D9;" d="M233.243,194.539c3.134,5.428,1.276,12.367-4.152,15.501
				l-4.655,2.686c-5.426,3.134-12.367,1.273-15.499-4.152c-3.134-5.428-1.276-12.367,4.152-15.501l4.655-2.686
				c1.789-1.033,3.739-1.524,5.666-1.524C227.33,188.863,231.143,190.899,233.243,194.539z"/>
			<path style="fill-rule:evenodd;clip-rule:evenodd;fill:#CCD1D9;" d="M259.608,231.719c1.349,1.858,0.937,4.456-0.92,5.805
				c-0.737,0.535-1.593,0.793-2.439,0.793c-1.285,0-2.552-0.594-3.366-1.712l-3.579-4.925c-1.349-1.857-0.937-4.456,0.92-5.805
				c1.857-1.349,4.456-0.937,5.805,0.92L259.608,231.719z"/>
			<path style="fill-rule:evenodd;clip-rule:evenodd;fill:#CCD1D9;" d="M242.296,225.874c1.856,1.349,2.268,3.947,0.92,5.805
				l-3.579,4.925c-0.814,1.118-2.081,1.712-3.366,1.712c-0.847,0-1.702-0.258-2.439-0.793c-1.856-1.349-2.268-3.947-0.92-5.805
				l3.579-4.926C237.839,224.938,240.438,224.525,242.296,225.874z"/>
		</g>
	</g>
</g>
</svg>
