<?xml version="1.0" encoding="iso-8859-1"?>
<!-- Generator: Adobe Illustrator 25.2.0, SVG Export Plug-In . SVG Version: 6.00 Build 0)  -->
<svg version="1.1" xmlns="http://www.w3.org/2000/svg" xmlns:xlink="http://www.w3.org/1999/xlink" x="0px" y="0px"
	 viewBox="0 0 492 492" style="enable-background:new 0 0 492 492;" xml:space="preserve">
<g id="Master_Layer_2">
</g>
<g id="Layer_1">
	<g>
		<g>
			<path style="fill-rule:evenodd;clip-rule:evenodd;fill:#CCD1D9;" d="M177.194,288.068c1.334,0.056,2.676,0.084,4.023,0.084
				c25.167,0,48.048-9.789,65.043-25.767c16.995,15.978,39.875,25.767,65.043,25.767c1.348,0,2.689-0.027,4.023-0.084l0.008,0.391
				c0,55.597-25.449,108.135-69.074,142.601l0,0l0,0c-43.625-34.465-69.074-87.004-69.074-142.601L177.194,288.068z"/>
			<path style="fill-rule:evenodd;clip-rule:evenodd;fill:#82D65F;" d="M292.808,176.652c-0.619,0-1.248-0.101-1.866-0.315
				c-14.334-4.952-29.367-7.463-44.682-7.463c-15.315,0-30.348,2.511-44.682,7.463c-2.983,1.031-6.235-0.552-7.266-3.534
				c-1.031-2.983,0.552-6.235,3.534-7.266c15.537-5.368,31.825-8.09,48.413-8.09c16.588,0,32.876,2.722,48.413,8.09
				c2.983,1.03,4.565,4.283,3.534,7.266C297.391,175.167,295.177,176.652,292.808,176.652z"/>
			<path style="fill-rule:evenodd;clip-rule:evenodd;fill:#82D65F;" d="M329.123,140.332c-0.837,0-1.687-0.185-2.49-0.575
				c-25.157-12.208-52.198-18.397-80.373-18.397c-28.175,0-55.216,6.19-80.373,18.397c-2.839,1.377-6.257,0.193-7.634-2.646
				c-1.378-2.839-0.193-6.257,2.646-7.634c13.033-6.325,26.79-11.193,40.887-14.468c14.495-3.368,29.458-5.076,44.474-5.076
				s29.979,1.708,44.474,5.076c14.098,3.275,27.854,8.143,40.888,14.468c2.839,1.378,4.023,4.796,2.646,7.634
				C333.28,139.147,331.243,140.332,329.123,140.332z"/>
			<path style="fill-rule:evenodd;clip-rule:evenodd;fill:#82D65F;" d="M364.266,105.188c-0.964,0-1.941-0.244-2.837-0.758
				c-34.886-20.007-74.71-30.583-115.169-30.583s-80.284,10.575-115.169,30.583c-2.737,1.57-6.229,0.624-7.799-2.114
				c-1.57-2.737-0.624-6.229,2.114-7.798c18.012-10.331,37.288-18.307,57.29-23.707c20.62-5.567,42.006-8.39,63.564-8.39
				c21.558,0,42.944,2.823,63.564,8.39c20.002,5.4,39.277,13.377,57.29,23.707c2.737,1.57,3.683,5.061,2.114,7.798
				C368.172,104.156,366.247,105.188,364.266,105.188z"/>
			<path style="fill-rule:evenodd;clip-rule:evenodd;fill:#656D78;" d="M264.129,216.218c0-9.842-8.027-17.869-17.869-17.869
				c-9.842,0-17.869,8.027-17.869,17.869c0,9.842,8.027,17.869,17.869,17.869C256.102,234.087,264.129,226.06,264.129,216.218z"/>
		</g>
	</g>
</g>
</svg>
