<?xml version="1.0" encoding="iso-8859-1"?>
<!-- Generator: Adobe Illustrator 25.2.0, SVG Export Plug-In . SVG Version: 6.00 Build 0)  -->
<svg version="1.1" xmlns="http://www.w3.org/2000/svg" xmlns:xlink="http://www.w3.org/1999/xlink" x="0px" y="0px"
	 viewBox="0 0 492 492" style="enable-background:new 0 0 492 492;" xml:space="preserve">
<g id="Master_Layer_2">
</g>
<g id="Layer_1">
	<g>
		<g>
			<polygon style="fill-rule:evenodd;clip-rule:evenodd;fill:#CCD1D9;" points="430.58,153.11 430.58,186.627 61.94,186.649 
				61.94,153.11 			"/>
			<polygon style="fill-rule:evenodd;clip-rule:evenodd;fill:#E6E9ED;" points="430.58,186.627 430.58,387.038 61.94,387.038 
				61.94,186.649 			"/>
			<path style="fill-rule:evenodd;clip-rule:evenodd;fill:#656D78;" d="M88.449,169.915c0-4.084-3.339-7.414-7.432-7.414
				s-7.432,3.331-7.432,7.414c0,4.083,3.339,7.414,7.432,7.414S88.449,173.999,88.449,169.915z"/>
			<path style="fill-rule:evenodd;clip-rule:evenodd;fill:#656D78;" d="M108.516,169.915c0-4.084-3.339-7.414-7.432-7.414
				c-4.093,0-7.432,3.331-7.432,7.414c0,4.083,3.339,7.414,7.432,7.414C105.177,177.329,108.516,173.999,108.516,169.915z"/>
			<path style="fill-rule:evenodd;clip-rule:evenodd;fill:#656D78;" d="M128.583,169.915c0-4.084-3.339-7.414-7.432-7.414
				c-4.093,0-7.432,3.331-7.432,7.414c0,4.083,3.339,7.414,7.432,7.414C125.244,177.329,128.583,173.999,128.583,169.915z"/>
			<path style="fill-rule:evenodd;clip-rule:evenodd;fill:#56AAFF;" d="M334.252,259.447h-79.386c-7.29,0-13.2-5.91-13.2-13.2
				v-0.785c0-7.29,5.91-13.2,13.2-13.2l79.386,0c7.29,0,13.2,5.91,13.2,13.2v0.785C347.452,253.537,341.542,259.447,334.252,259.447
				z"/>
			<polygon style="fill-rule:evenodd;clip-rule:evenodd;fill:#FE646F;" points="294.54,293.302 322.833,304.185 351.126,315.067 
				323.587,322.278 316.358,349.751 305.449,321.526 			"/>
			<g>
				<path style="fill-rule:evenodd;clip-rule:evenodd;fill:#547B8C;" d="M181.35,281.181c-4.992,0-9.993-0.895-14.807-2.693
					c-10.548-3.939-18.927-11.712-23.596-21.887c-4.669-10.176-5.089-21.583-1.182-32.12c4.805-12.957,15.689-22.743,29.117-26.178
					c7.66-1.96,14.508-5.903,19.803-11.402l0.741-0.77c3.875-4.024,6.839-8.713,8.811-13.934l15.122-40.039
					c1.158-3.065,4.587-4.614,7.66-3.459c3.073,1.155,4.626,4.576,3.468,7.642l-15.122,40.039
					c-2.543,6.734-6.367,12.779-11.363,17.969l-0.741,0.77c-6.828,7.091-15.62,12.166-25.425,14.675
					c-9.647,2.468-17.467,9.497-20.918,18.803c-5.772,15.565,2.211,32.962,17.794,38.781c3.482,1.3,7.058,1.916,10.576,1.917
					c12.256,0.001,23.824-7.474,28.39-19.564l5.688-15.06c1.158-3.065,4.587-4.614,7.66-3.459c3.073,1.155,4.626,4.576,3.468,7.642
					l-5.688,15.061c-3.967,10.504-11.795,18.843-22.04,23.482C193.203,279.915,187.284,281.181,181.35,281.181z"/>
				<ellipse style="fill-rule:evenodd;clip-rule:evenodd;fill:#656D78;" cx="225.718" cy="121.326" rx="14.921" ry="14.885"/>
			</g>
		</g>
	</g>
</g>
</svg>
