<?xml version="1.0" encoding="iso-8859-1"?>
<!-- Generator: Adobe Illustrator 25.2.0, SVG Export Plug-In . SVG Version: 6.00 Build 0)  -->
<svg version="1.1" xmlns="http://www.w3.org/2000/svg" xmlns:xlink="http://www.w3.org/1999/xlink" x="0px" y="0px"
	 viewBox="0 0 492 492" style="enable-background:new 0 0 492 492;" xml:space="preserve">
<g id="Master_Layer_2">
</g>
<g id="Layer_1">
	<g>
		<g>
			<path style="fill-rule:evenodd;clip-rule:evenodd;fill:#CCD1D9;" d="M353.56,363.269c-1.504,0-3.006-0.584-4.138-1.746
				l-33.762-34.676c-2.224-2.284-2.175-5.939,0.111-8.162c2.285-2.223,5.941-2.174,8.165,0.111l33.762,34.676
				c2.224,2.285,2.175,5.939-0.111,8.162C356.465,362.726,355.012,363.269,353.56,363.269z"/>
			<path style="fill-rule:evenodd;clip-rule:evenodd;fill:#CCD1D9;" d="M172.234,175.959c-1.505,0-3.008-0.585-4.14-1.748
				l-32.784-33.699c-2.223-2.285-2.172-5.939,0.114-8.162c2.286-2.222,5.942-2.172,8.165,0.114l32.783,33.699
				c2.223,2.285,2.172,5.939-0.114,8.162C175.137,175.415,173.684,175.959,172.234,175.959z"/>
			<path style="fill-rule:evenodd;clip-rule:evenodd;fill:#CCD1D9;" d="M246.26,409.146c-3.189,0-5.774-2.584-5.774-5.772v-49.129
				c0-3.188,2.585-5.772,5.774-5.772c3.189,0,5.774,2.584,5.774,5.772v49.129C252.034,406.562,249.449,409.146,246.26,409.146z"/>
			<path style="fill-rule:evenodd;clip-rule:evenodd;fill:#CCD1D9;" d="M246.26,145.729c-3.189,0-5.774-2.584-5.774-5.772V90.819
				c0-3.188,2.585-5.772,5.774-5.772c3.189,0,5.774,2.584,5.774,5.772v49.138C252.034,143.145,249.449,145.729,246.26,145.729z"/>
			<path style="fill-rule:evenodd;clip-rule:evenodd;fill:#CCD1D9;" d="M138.96,363.269c-1.453,0-2.908-0.545-4.03-1.639
				c-2.283-2.225-2.33-5.88-0.104-8.162l36.405-37.326c2.226-2.283,5.882-2.329,8.165-0.104c2.283,2.225,2.33,5.88,0.104,8.162
				l-36.404,37.326C141.963,362.687,140.462,363.269,138.96,363.269z"/>
			<path style="fill-rule:evenodd;clip-rule:evenodd;fill:#CCD1D9;" d="M320.283,175.954c-1.451,0-2.903-0.543-4.026-1.635
				c-2.286-2.223-2.336-5.877-0.113-8.162l32.788-33.695c2.224-2.285,5.879-2.336,8.165-0.113c2.286,2.223,2.336,5.877,0.113,8.162
				l-32.788,33.695C323.29,175.37,321.787,175.954,320.283,175.954z"/>
			<path style="fill-rule:evenodd;clip-rule:evenodd;fill:#CCD1D9;" d="M141.605,252.512H94.516c-3.189,0-5.774-2.584-5.774-5.772
				c0-3.188,2.585-5.772,5.774-5.772h47.089c3.189,0,5.774,2.584,5.774,5.772C147.379,249.928,144.793,252.512,141.605,252.512z"/>
			<path style="fill-rule:evenodd;clip-rule:evenodd;fill:#CCD1D9;" d="M397.313,252.512h-44.233c-3.189,0-5.774-2.584-5.774-5.772
				c0-3.188,2.585-5.772,5.774-5.772h44.233c3.189,0,5.774,2.584,5.774,5.772C403.088,249.928,400.503,252.512,397.313,252.512z"/>
			<ellipse style="fill-rule:evenodd;clip-rule:evenodd;fill:#56AAFF;" cx="363.835" cy="368.103" rx="18.044" ry="18.038"/>
			<path style="fill-rule:evenodd;clip-rule:evenodd;fill:#56AAFF;" d="M146.73,125.377c0-9.935-8.106-18.038-18.044-18.038
				c-9.938,0-18.044,8.103-18.044,18.038c0,9.935,8.106,18.038,18.044,18.038C138.624,143.414,146.73,135.311,146.73,125.377z"/>
			<path style="fill-rule:evenodd;clip-rule:evenodd;fill:#56AAFF;" d="M264.304,418.373c0-9.935-8.106-18.038-18.044-18.038
				c-9.938,0-18.044,8.103-18.044,18.038c0,9.935,8.106,18.038,18.044,18.038C256.198,436.411,264.304,428.308,264.304,418.373z"/>
			<path style="fill-rule:evenodd;clip-rule:evenodd;fill:#56AAFF;" d="M264.304,75.106c0-9.935-8.106-18.038-18.044-18.038
				c-9.938,0-18.044,8.103-18.044,18.038c0,9.935,8.106,18.038,18.044,18.038C256.198,93.144,264.304,85.041,264.304,75.106z"/>
			<path style="fill-rule:evenodd;clip-rule:evenodd;fill:#56AAFF;" d="M146.73,368.103c0-9.935-8.106-18.038-18.044-18.038
				c-9.938,0-18.044,8.103-18.044,18.038s8.106,18.038,18.044,18.038C138.624,386.141,146.73,378.038,146.73,368.103z"/>
			<ellipse style="fill-rule:evenodd;clip-rule:evenodd;fill:#56AAFF;" cx="363.835" cy="125.377" rx="18.044" ry="18.038"/>
			<path style="fill-rule:evenodd;clip-rule:evenodd;fill:#56AAFF;" d="M98.029,246.74c0-9.935-8.106-18.038-18.044-18.038
				S61.94,236.805,61.94,246.74c0,9.935,8.106,18.037,18.044,18.037S98.029,256.674,98.029,246.74z"/>
			<path style="fill-rule:evenodd;clip-rule:evenodd;fill:#56AAFF;" d="M430.58,246.74c0-9.935-8.106-18.038-18.044-18.038
				c-9.938,0-18.044,8.103-18.044,18.038c0,9.935,8.106,18.037,18.044,18.037C422.474,264.777,430.58,256.674,430.58,246.74z"/>
			<ellipse style="fill-rule:evenodd;clip-rule:evenodd;fill:#E6E9ED;" cx="246.505" cy="246.992" rx="109.403" ry="112.929"/>
			<path style="fill-rule:evenodd;clip-rule:evenodd;fill:#547B8C;" d="M298.011,202.899c8.271,14.209,10.543,31.651,5.438,48.135
				l-4.439,14.329c-1.059,3.419-1.57,6.963-1.531,10.507c0.032,2.932,0.439,5.862,1.224,8.719c0.385,1.399,0.567,2.793,0.567,4.158
				c0,0.156-0.002,0.31-0.007,0.464c-0.332,11.018-13.151,16.938-21.913,10.246l-1.309-1.001c-2.824-2.158-7.002-0.329-7.188,3.221
				c-0.004,0.09-0.007,0.18-0.007,0.27c0,10.024-8.13,18.148-18.154,18.148h-8.879c-10.025,0-18.152-8.124-18.152-18.148
				c0-0.09-0.004-0.18-0.008-0.27c-0.186-3.55-4.362-5.379-7.188-3.221l-1.309,0.999c-8.76,6.692-21.58,0.774-21.913-10.241
				c-0.045-1.514,0.133-3.067,0.56-4.624c0.789-2.872,1.198-5.819,1.224-8.77c0.002-0.105,0.002-0.212,0.002-0.317
				c0-3.419-0.511-6.839-1.534-10.139l-4.422-14.275c-5.143-16.606-2.77-34.033,5.47-48.189
				c5.768-9.899,14.404-18.199,25.349-23.501c7.937-3.843,16.866-6.011,26.361-6.011c8.465,0,16.484,1.724,23.744,4.82
				c3.027,1.292,5.924,2.821,8.666,4.564C286.839,187.968,293.37,194.925,298.011,202.899z"/>
			<path style="fill-rule:evenodd;clip-rule:evenodd;fill:#CCD1D9;" d="M274.895,238.051c4.687,2.705,6.292,8.695,3.586,13.381
				c-2.704,4.684-8.699,6.29-13.383,3.584l-4.02-2.318c-4.687-2.705-6.292-8.696-3.586-13.381c1.814-3.142,5.107-4.899,8.491-4.899
				c1.664,0,3.348,0.424,4.893,1.315L274.895,238.051z"/>
			<path style="fill-rule:evenodd;clip-rule:evenodd;fill:#CCD1D9;" d="M235.012,239.317c2.706,4.685,1.102,10.676-3.586,13.381
				l-4.02,2.318c-4.685,2.705-10.68,1.099-13.383-3.584c-2.706-4.685-1.102-10.676,3.585-13.381l4.02-2.318
				c1.545-0.892,3.228-1.315,4.893-1.315C229.905,234.417,233.197,236.176,235.012,239.317z"/>
			<path style="fill-rule:evenodd;clip-rule:evenodd;fill:#CCD1D9;" d="M257.778,271.412c1.165,1.604,0.809,3.847-0.794,5.011
				c-0.637,0.462-1.375,0.684-2.106,0.684c-1.109,0-2.204-0.512-2.906-1.478l-3.09-4.252c-1.165-1.603-0.809-3.847,0.794-5.011
				c1.604-1.164,3.848-0.808,5.013,0.794L257.778,271.412z"/>
			<path style="fill-rule:evenodd;clip-rule:evenodd;fill:#CCD1D9;" d="M242.828,266.367c1.603,1.164,1.959,3.408,0.794,5.011
				l-3.09,4.252c-0.703,0.965-1.797,1.478-2.906,1.478c-0.731,0-1.469-0.223-2.107-0.685c-1.603-1.164-1.959-3.408-0.794-5.011
				l3.09-4.252C238.98,265.558,241.224,265.202,242.828,266.367z"/>
		</g>
	</g>
</g>
</svg>
