<?xml version="1.0" encoding="iso-8859-1"?>
<!-- Generator: Adobe Illustrator 25.2.0, SVG Export Plug-In . SVG Version: 6.00 Build 0)  -->
<svg version="1.1" xmlns="http://www.w3.org/2000/svg" xmlns:xlink="http://www.w3.org/1999/xlink" x="0px" y="0px"
	 viewBox="0 0 492 492" style="enable-background:new 0 0 492 492;" xml:space="preserve">
<g id="Master_Layer_2">
</g>
<g id="Layer_1">
	<g>
		<g>
			<path style="fill-rule:evenodd;clip-rule:evenodd;fill:#CCD1D9;" d="M281.283,404.284h-70.046h-76.5h-12.315
				c-26.008,0-47.093-21.083-47.093-47.093l0-247.677c0-26.008,21.086-47.093,47.093-47.093h247.677
				c26.008,0,47.093,21.085,47.093,47.093V357.19c0,26.01-21.085,47.093-47.093,47.093l-12.315,0H281.283z"/>
			<path style="fill-rule:evenodd;clip-rule:evenodd;fill:#E6E9ED;" d="M378.936,355.296c0,6.325-5.129,11.453-11.456,11.453
				l-243.881,0c-6.325,0-11.453-5.128-11.453-11.453V111.411c0-6.327,5.128-11.456,11.453-11.456h243.884
				c6.325,0,11.453,5.129,11.453,11.453V355.296z"/>
			<rect x="281.283" y="404.284" style="fill-rule:evenodd;clip-rule:evenodd;fill:#656D78;" width="76.5" height="26.776"/>
			<rect x="134.737" y="404.284" style="fill-rule:evenodd;clip-rule:evenodd;fill:#656D78;" width="76.5" height="26.776"/>
			
				<ellipse transform="matrix(0.9732 -0.2298 0.2298 0.9732 -47.0256 62.8213)" style="fill-rule:evenodd;clip-rule:evenodd;fill:#FFA631;" cx="246.26" cy="233.352" rx="78.772" ry="78.772"/>
			<path style="fill-rule:evenodd;clip-rule:evenodd;fill:#FF8900;" d="M270.59,228.561c2.692-3.94,4.269-8.699,4.269-13.821
				c0-12.659-9.628-23.111-21.945-24.42v-2.868c0-3.284-2.662-5.946-5.946-5.946c-3.283,0-5.945,2.662-5.945,5.946v2.729l-20.353,0
				c-3.284,0-5.946,2.662-5.946,5.946c0,3.284,2.662,5.946,5.946,5.946l3.096,0v62.559h-3.096c-3.284,0-5.946,2.662-5.946,5.946
				c0,3.284,2.662,5.946,5.946,5.946l22.752,0v2.729c0,3.284,2.662,5.946,5.945,5.946c3.284,0,5.946-2.662,5.946-5.946v-2.729h7.836
				c13.541,0,24.559-11.017,24.559-24.559C287.707,241.017,280.505,231.72,270.59,228.561L270.59,228.561z M262.967,214.74
				c0,6.985-5.682,12.667-12.667,12.667h-14.643v-25.334H250.3C257.285,202.073,262.967,207.755,262.967,214.74L262.967,214.74z
				 M263.148,264.632h-27.491v-25.334h27.491c6.985,0,12.667,5.683,12.667,12.667C275.815,258.95,270.133,264.632,263.148,264.632z"
				/>
			<path style="fill-rule:evenodd;clip-rule:evenodd;fill:#656D78;" d="M392.956,162.399v43.652c0,7.772-6.266,14.082-14.022,14.151
				c-0.042,0.002-0.087,0.002-0.131,0.002c-7.816,0-14.153-6.337-14.153-14.153l0-43.652c0-7.816,6.337-14.153,14.153-14.153
				c0.045,0,0.089,0,0.131,0.002c3.857,0.032,7.345,1.61,9.877,4.142C391.372,154.952,392.956,158.49,392.956,162.399z"/>
			<path style="fill-rule:evenodd;clip-rule:evenodd;fill:#656D78;" d="M392.861,260.799v43.362c0,7.722-6.226,13.99-13.933,14.057
				c-0.042,0.002-0.084,0.002-0.126,0.002c-7.764,0-14.06-6.295-14.06-14.06v-43.362c0-7.764,6.295-14.06,14.06-14.06
				c0.042,0,0.084,0,0.126,0.002c3.832,0.032,7.298,1.598,9.815,4.115C391.288,253.402,392.861,256.917,392.861,260.799z"/>
		</g>
	</g>
</g>
</svg>
