<?xml version="1.0" encoding="iso-8859-1"?>
<!-- Generator: Adobe Illustrator 25.2.0, SVG Export Plug-In . SVG Version: 6.00 Build 0)  -->
<svg version="1.1" xmlns="http://www.w3.org/2000/svg" xmlns:xlink="http://www.w3.org/1999/xlink" x="0px" y="0px"
	 viewBox="0 0 492 492" style="enable-background:new 0 0 492 492;" xml:space="preserve">
<g id="Master_Layer_2">
</g>
<g id="Layer_1">
	<g>
		<g>
			<path style="fill-rule:evenodd;clip-rule:evenodd;fill:#82D65F;" d="M169.784,272.728c1.477,0.062,2.962,0.093,4.456,0.093
				c27.867,0,53.203-10.839,72.021-28.531c18.818,17.692,44.154,28.531,72.021,28.531c1.493,0,2.978-0.031,4.455-0.093l0.009,0.433
				c0,61.561-28.179,119.736-76.485,157.899l0,0l0,0c-48.305-38.163-76.485-96.337-76.485-157.899L169.784,272.728z"/>
			<path style="fill-rule:evenodd;clip-rule:evenodd;fill:#E6E9ED;" d="M319.965,111.975c-3.229,0-5.847,2.618-5.847,5.847v18.414
				l-62.11,25.851l0-71.27c0-3.229-2.618-5.847-5.847-5.847c-3.229,0-5.847,2.618-5.847,5.847v105.508l-61.913-31.638v-23.811
				c0-3.229-2.618-5.847-5.847-5.847c-3.229,0-5.847,2.618-5.847,5.847v27.389c0,2.196,1.231,4.207,3.187,5.207l70.421,35.986
				v107.77c0,3.229,2.618,5.847,5.847,5.847c3.229,0,5.847-2.618,5.847-5.847V174.753l70.204-29.22c2.18-0.907,3.6-3.037,3.6-5.398
				v-22.314C325.812,114.592,323.195,111.975,319.965,111.975z"/>
			<path style="fill-rule:evenodd;clip-rule:evenodd;fill:#56AAFF;" d="M260.779,330.645c0-8.051-6.566-14.617-14.617-14.617
				c-8.051,0-14.617,6.566-14.617,14.617c0,8.051,6.566,14.617,14.617,14.617C254.213,345.263,260.779,338.696,260.779,330.645z"/>
			<circle style="fill-rule:evenodd;clip-rule:evenodd;fill:#56AAFF;" cx="172.469" cy="127.097" r="14.617"/>
			<path style="fill-rule:evenodd;clip-rule:evenodd;fill:#56AAFF;" d="M260.779,77.038c0-8.051-6.566-14.617-14.617-14.617
				c-8.051,0-14.617,6.566-14.617,14.617s6.566,14.617,14.617,14.617C254.213,91.655,260.779,85.089,260.779,77.038z"/>
			<circle style="fill-rule:evenodd;clip-rule:evenodd;fill:#56AAFF;" cx="320.051" cy="104.043" r="14.617"/>
		</g>
	</g>
</g>
</svg>
