<?xml version="1.0" encoding="iso-8859-1"?>
<!-- Generator: Adobe Illustrator 25.2.0, SVG Export Plug-In . SVG Version: 6.00 Build 0)  -->
<svg version="1.1" xmlns="http://www.w3.org/2000/svg" xmlns:xlink="http://www.w3.org/1999/xlink" x="0px" y="0px"
	 viewBox="0 0 492 492" style="enable-background:new 0 0 492 492;" xml:space="preserve">
<g id="Master_Layer_2">
</g>
<g id="Layer_1">
	<g>
		<g>
			<path style="fill-rule:evenodd;clip-rule:evenodd;fill:#547B8C;" d="M304.379,238.455c-0.012,0-0.024,0-0.036,0
				c-3.246-0.02-5.862-2.667-5.843-5.914c0.072-11.914-5.717-28.635-15.485-35.482c-9.486-6.649-16.848-15.642-21.289-26.005
				l-0.49-1.144c-3.25-7.584-4.899-15.614-4.899-23.865l0-49.904c0-3.247,2.632-5.878,5.878-5.878c3.247,0,5.878,2.632,5.878,5.878
				v49.904c0,6.65,1.328,13.121,3.948,19.234l0.49,1.144c3.58,8.352,9.539,15.617,17.232,21.01
				c12.928,9.062,20.589,29.408,20.494,45.18C310.237,235.846,307.609,238.455,304.379,238.455z"/>
			<rect x="77.486" y="232.723" style="fill-rule:evenodd;clip-rule:evenodd;fill:#E6E9ED;" width="337.548" height="198.336"/>
			<path style="fill-rule:evenodd;clip-rule:evenodd;fill:#FE646F;" d="M218.423,392.165h-85.726
				c-6.625,0-11.996-5.371-11.996-11.996v-1.208c0-25.875,20.976-46.852,46.852-46.852h16.013c25.876,0,46.852,20.976,46.852,46.852
				v1.208C230.418,386.794,225.048,392.165,218.423,392.165z"/>
			
				<ellipse transform="matrix(0.9732 -0.2298 0.2298 0.9732 -63.0567 48.2552)" style="fill-rule:evenodd;clip-rule:evenodd;fill:#EABB8C;" cx="175.692" cy="294.909" rx="22.994" ry="22.994"/>
			<path style="fill-rule:evenodd;clip-rule:evenodd;fill:#56AAFF;" d="M369.204,301.481h-81.963c-3.246,0-5.878-2.632-5.878-5.878
				c0-3.246,2.632-5.878,5.878-5.878l81.963,0c3.246,0,5.878,2.632,5.878,5.878C375.082,298.849,372.451,301.481,369.204,301.481z"
				/>
			<path style="fill-rule:evenodd;clip-rule:evenodd;fill:#56AAFF;" d="M369.204,337.926h-81.963c-3.246,0-5.878-2.632-5.878-5.878
				c0-3.246,2.632-5.878,5.878-5.878l81.963,0c3.246,0,5.878,2.632,5.878,5.878C375.082,335.294,372.451,337.926,369.204,337.926z"
				/>
			<path style="fill-rule:evenodd;clip-rule:evenodd;fill:#56AAFF;" d="M369.204,374.371h-81.963c-3.246,0-5.878-2.632-5.878-5.878
				c0-3.246,2.632-5.878,5.878-5.878h81.963c3.246,0,5.878,2.632,5.878,5.878C375.082,371.739,372.451,374.371,369.204,374.371z"/>
			<path style="fill-rule:evenodd;clip-rule:evenodd;fill:#547B8C;" d="M262.124,274.84c-0.004,0-0.009,0-0.013,0
				c-12.812-0.027-24.851-5.037-33.902-14.105c-9.052-9.07-14.037-21.123-14.037-33.938l0-8.211c0-3.246,2.632-5.878,5.878-5.878
				c3.247,0,5.878,2.632,5.878,5.878v8.212c0,19.966,16.243,36.244,36.208,36.287c3.246,0.007,5.873,2.644,5.866,5.891
				C267.995,272.216,265.364,274.84,262.124,274.84z"/>
			<path style="fill-rule:evenodd;clip-rule:evenodd;fill:#656D78;" d="M279.956,80.067c0-9.72-7.927-17.647-17.647-17.647
				s-17.647,7.927-17.647,17.647s7.927,17.647,17.647,17.647S279.956,89.787,279.956,80.067z"/>
		</g>
	</g>
</g>
</svg>
