<?xml version="1.0" encoding="iso-8859-1"?>
<!-- Generator: Adobe Illustrator 25.2.0, SVG Export Plug-In . SVG Version: 6.00 Build 0)  -->
<svg version="1.1" xmlns="http://www.w3.org/2000/svg" xmlns:xlink="http://www.w3.org/1999/xlink" x="0px" y="0px"
	 viewBox="0 0 492 492" style="enable-background:new 0 0 492 492;" xml:space="preserve">
<g id="Master_Layer_2">
</g>
<g id="Layer_1">
	<g>
		<g>
			<path style="fill-rule:evenodd;clip-rule:evenodd;fill:#E6E9ED;" d="M246.26,431.06L246.26,431.06L246.26,431.06
				C144.474,359.71,88.584,269.107,88.584,175.451v-42.884L246.26,62.42l157.676,70.147v42.884
				C403.936,269.107,348.046,359.71,246.26,431.06z"/>
			<g>
				
					<ellipse transform="matrix(0.9871 -0.1602 0.1602 0.9871 -32.9598 42.3667)" style="fill-rule:evenodd;clip-rule:evenodd;fill:#90CAF9;" cx="246.304" cy="225.62" rx="89.476" ry="89.476"/>
				<g>
					<path style="fill-rule:evenodd;clip-rule:evenodd;fill:#56AAFF;" d="M246.304,315.096c-12.077,0-23.796-2.366-34.829-7.033
						c-10.655-4.507-20.224-10.958-28.44-19.174c-8.216-8.216-14.667-17.785-19.174-28.44c-4.667-11.034-7.033-22.752-7.033-34.83
						c0-12.077,2.366-23.796,7.033-34.829c4.507-10.655,10.958-20.224,19.174-28.44c8.216-8.216,17.785-14.667,28.44-19.174
						c11.034-4.667,22.752-7.033,34.829-7.033c12.078,0,23.796,2.366,34.83,7.033c10.655,4.507,20.224,10.958,28.44,19.174
						c8.216,8.216,14.667,17.785,19.174,28.44c4.666,11.034,7.033,22.753,7.033,34.83c0,12.078-2.366,23.796-7.033,34.83
						c-4.507,10.655-10.958,20.224-19.174,28.44c-8.216,8.216-17.785,14.667-28.44,19.174
						C270.099,312.73,258.381,315.096,246.304,315.096L246.304,315.096z M246.304,144.134c-44.932,0-81.486,36.554-81.486,81.486
						s36.554,81.486,81.486,81.486s81.486-36.555,81.486-81.486S291.235,144.134,246.304,144.134z"/>
				</g>
				<g>
					<path style="fill-rule:evenodd;clip-rule:evenodd;fill:#56AAFF;" d="M246.216,315.096c-12.765,0-24.515-9.708-33.085-27.336
						c-8.104-16.669-12.568-38.737-12.568-62.141c0-23.404,4.463-45.473,12.568-62.141c8.571-17.628,20.32-27.336,33.085-27.336
						c12.765,0,24.515,9.708,33.085,27.336c8.104,16.668,12.568,38.737,12.568,62.141s-4.463,45.473-12.568,62.141
						C270.731,305.388,258.981,315.096,246.216,315.096L246.216,315.096z M246.216,144.508c-4.56,0-9.068,1.91-13.397,5.676
						c-4.512,3.924-8.605,9.628-12.166,16.953c-7.561,15.552-11.726,36.322-11.726,58.484s4.164,42.932,11.726,58.484
						c3.561,7.324,7.654,13.028,12.166,16.953c4.33,3.766,8.837,5.676,13.397,5.676c4.56,0,9.068-1.91,13.397-5.676
						c4.512-3.925,8.605-9.629,12.166-16.953c7.561-15.552,11.726-36.321,11.726-58.484s-4.164-42.932-11.726-58.484
						c-3.561-7.324-7.654-13.028-12.166-16.953C255.285,146.417,250.777,144.508,246.216,144.508z"/>
				</g>
				<g>
					<path style="fill-rule:evenodd;clip-rule:evenodd;fill:#56AAFF;" d="M246.216,271.273c-23.404,0-45.473-4.463-62.141-12.568
						c-17.628-8.57-27.335-20.32-27.335-33.085s9.708-24.515,27.336-33.085c16.668-8.104,38.737-12.568,62.141-12.568
						c23.404,0,45.473,4.463,62.141,12.568c17.628,8.57,27.336,20.32,27.336,33.085s-9.708,24.515-27.336,33.085
						C291.689,266.81,269.62,271.273,246.216,271.273L246.216,271.273z M246.216,188.331c-22.162,0-42.932,4.164-58.484,11.726
						c-7.324,3.561-13.028,7.654-16.953,12.166c-3.766,4.33-5.676,8.837-5.676,13.397c0,4.56,1.91,9.068,5.676,13.397
						c3.925,4.512,9.628,8.605,16.953,12.166c15.552,7.561,36.321,11.726,58.484,11.726c22.162,0,42.932-4.164,58.484-11.726
						c7.324-3.561,13.028-7.654,16.953-12.166c3.766-4.33,5.676-8.837,5.676-13.397c0-4.56-1.91-9.068-5.676-13.397
						c-3.925-4.512-9.628-8.605-16.953-12.166C289.149,192.495,268.379,188.331,246.216,188.331z"/>
				</g>
				<g>
					<path style="fill-rule:evenodd;clip-rule:evenodd;fill:#56AAFF;" d="M246.216,315.096c-2.309,0-4.182-1.872-4.182-4.182
						V140.325c0-2.309,1.872-4.182,4.182-4.182c2.31,0,4.182,1.872,4.182,4.182v170.589
						C250.398,313.224,248.526,315.096,246.216,315.096z"/>
				</g>
				<g>
					<path style="fill-rule:evenodd;clip-rule:evenodd;fill:#56AAFF;" d="M331.511,229.802H160.922
						c-2.309,0-4.182-1.872-4.182-4.182c0-2.31,1.872-4.182,4.182-4.182l170.589,0c2.31,0,4.182,1.872,4.182,4.182
						C335.693,227.93,333.821,229.802,331.511,229.802z"/>
				</g>
			</g>
		</g>
	</g>
</g>
</svg>
