<?xml version="1.0" encoding="iso-8859-1"?>
<!-- Generator: Adobe Illustrator 25.2.0, SVG Export Plug-In . SVG Version: 6.00 Build 0)  -->
<svg version="1.1" xmlns="http://www.w3.org/2000/svg" xmlns:xlink="http://www.w3.org/1999/xlink" x="0px" y="0px"
	 viewBox="0 0 492 492" style="enable-background:new 0 0 492 492;" xml:space="preserve">
<g id="Master_Layer_2">
</g>
<g id="Layer_1">
	<g>
		<g>
			<path style="fill-rule:evenodd;clip-rule:evenodd;fill:#CCD1D9;" d="M429.044,160.521c0.979,1.811,1.536,3.882,1.536,6.085v9.256
				v188.125c0,7.066-5.728,12.793-12.793,12.793l-343.053,0c-7.066,0-12.793-5.728-12.793-12.793l0-188.125v-9.256
				c0-2.2,0.555-4.271,1.533-6.082L429.044,160.521z"/>
			<path style="fill-rule:evenodd;clip-rule:evenodd;fill:#BAC3D1;" d="M417.786,153.813c4.863,0,9.092,2.713,11.257,6.709
				L276.992,282.795c-8.508,6.843-19.029,10.782-29.945,10.958c-0.327,0.005-0.652,0.007-0.979,0.007
				c-11.195-0.022-22.032-3.969-30.752-10.99L63.474,160.524c2.165-3.996,6.394-6.711,11.26-6.711H417.786z"/>
			<g>
				<path style="fill-rule:evenodd;clip-rule:evenodd;fill:#FE646F;" d="M295.412,189.368c4.799,8.312-1.199,18.7-10.797,18.7
					h-76.711c-9.598,0-15.595-10.388-10.797-18.7l20.528-35.556l17.827-30.879c4.799-8.312,16.794-8.312,21.593,0l17.827,30.879
					L295.412,189.368z"/>
				<path style="fill-rule:evenodd;clip-rule:evenodd;fill:#E6E9ED;" d="M246.209,177.739c-3.284,0-5.946-2.662-5.946-5.946v-25.634
					c0-3.284,2.662-5.946,5.946-5.946c3.284,0,5.946,2.662,5.946,5.946v25.634C252.154,175.077,249.492,177.739,246.209,177.739z"/>
				<path style="fill-rule:evenodd;clip-rule:evenodd;fill:#E6E9ED;" d="M246.209,193.216c-3.284,0-5.946-2.662-5.946-5.946v-0.242
					c0-3.284,2.662-5.946,5.946-5.946c3.284,0,5.946,2.662,5.946,5.946v0.242C252.154,190.554,249.492,193.216,246.209,193.216z"/>
			</g>
		</g>
	</g>
</g>
</svg>
